<svg clip-rule="evenodd" fill-rule="evenodd" stroke-linejoin="round" stroke-miterlimit="2" xmlns="http://www.w3.org/2000/svg"><g transform="translate(-3788 -168)"><g transform="matrix(1.4 0 0 1 2000 0)"><path d="m1300 168c-5.68 0-11.13 3.161-15.15 8.787s-6.28 13.257-6.28 21.213v18c0 1.104.64 2 1.43 2s1.43-.896 1.43-2v-18c0-6.896 1.95-13.509 5.44-18.385 3.48-4.876 8.21-7.615 13.13-7.615s9.65 2.739 13.13 7.615c3.49 4.876 5.44 11.489 5.44 18.385v18c0 1.104.64 2 1.43 2s1.43-.896 1.43-2v-18c0-7.956-2.26-15.587-6.28-21.213s-9.47-8.787-15.15-8.787z" fill="#13678a"/></g><g transform="translate(2520)"><g><path d="m1273.15 209.355c-.63.249-1.2.624-1.69 1.109-.93.937-1.46 2.208-1.46 3.534v6.004c0 1.326.53 2.597 1.46 3.534.49.485 1.06.86 1.69 1.109.77 4.185 4.44 7.355 8.85 7.355 1.59 0 3.12-.632 4.24-1.757 1.13-1.126 1.76-2.652 1.76-4.243 0-4.889 0-13.111 0-18 0-1.591-.63-3.117-1.76-4.243-1.12-1.125-2.65-1.757-4.24-1.757-4.41 0-8.08 3.17-8.85 7.355z" fill="#45c4b0"/></g><g><path d="m1326.85 224.645c.63-.249 1.2-.624 1.69-1.109.93-.937 1.46-2.208 1.46-3.534 0-1.833 0-4.171 0-6.004 0-1.326-.53-2.597-1.46-3.534-.49-.485-1.06-.86-1.69-1.109-.77-4.185-4.44-7.355-8.85-7.355-1.59 0-3.12.632-4.24 1.757-1.13 1.126-1.76 2.652-1.76 4.243v18c0 1.591.63 3.117 1.76 4.243 1.12 1.125 2.65 1.757 4.24 1.757 4.41 0 8.08-3.17 8.85-7.355z" fill="#45c4b0"/></g></g></g></svg>