<?xml version="1.0" encoding="UTF-8" standalone="no"?>
<svg
   xmlns:dc="http://purl.org/dc/elements/1.1/"
   xmlns:cc="http://creativecommons.org/ns#"
   xmlns:rdf="http://www.w3.org/1999/02/22-rdf-syntax-ns#"
   xmlns:svg="http://www.w3.org/2000/svg"
   xmlns="http://www.w3.org/2000/svg"
   xmlns:sodipodi="http://sodipodi.sourceforge.net/DTD/sodipodi-0.dtd"
   xmlns:inkscape="http://www.inkscape.org/namespaces/inkscape"
   sodipodi:docname="hobby.svg"
   inkscape:version="1.0 (4035a4fb49, 2020-05-01)"
   id="svg7420"
   version="1.1"
   viewBox="0 0 11.28994 11.235081"
   height="11.235081mm"
   width="11.28994mm">
  <defs
     id="defs7414" />
  <sodipodi:namedview
     inkscape:window-maximized="0"
     inkscape:window-y="0"
     inkscape:window-x="78"
     inkscape:window-height="1009"
     inkscape:window-width="1483"
     fit-margin-bottom="0"
     fit-margin-right="0"
     fit-margin-left="0"
     fit-margin-top="0"
     showgrid="false"
     inkscape:document-rotation="0"
     inkscape:current-layer="layer1"
     inkscape:document-units="mm"
     inkscape:cy="324.08913"
     inkscape:cx="-555.80614"
     inkscape:zoom="0.35"
     inkscape:pageshadow="2"
     inkscape:pageopacity="0.0"
     borderopacity="1.0"
     bordercolor="#666666"
     pagecolor="#ffffff"
     id="base" />
  <metadata
     id="metadata7417">
    <rdf:RDF>
      <cc:Work
         rdf:about="">
        <dc:format>image/svg+xml</dc:format>
        <dc:type
           rdf:resource="http://purl.org/dc/dcmitype/StillImage" />
        <dc:title></dc:title>
      </cc:Work>
    </rdf:RDF>
  </metadata>
  <g
     transform="translate(-252.89037,-62.418085)"
     id="layer1"
     inkscape:groupmode="layer"
     inkscape:label="Laag 1">
    <path
       style="fill:#192b51;fill-opacity:1;fill-rule:evenodd;stroke:none;stroke-width:0.352777"
       d="m 263.46792,62.584971 c 0,-0.128161 -0.1378,-0.208086 -0.24942,-0.144696 -0.001,0.0014 -0.003,0.0014 -0.004,0.0028 0,0 -2.25999,1.393197 -2.25999,1.393197 -0.0482,0.0303 -0.0786,0.08406 -0.0786,0.140561 0,0 0,2.247578 0,2.247578 -0.46991,-0.307301 -1.09829,0.0097 -1.12861,0.571888 -0.0303,0.56224 0.55811,0.945332 1.05971,0.691773 0.24529,-0.124023 0.39963,-0.376202 0.39963,-0.65181 0,-0.0248 -10e-4,-0.04961 -0.003,-0.07442 0.003,-0.01242 0.004,-0.0248 0.004,-0.03721 0,0 0,-1.745975 0,-1.745975 0,0 1.92926,-1.187869 1.92926,-1.187869 0,0 0,1.303626 0,1.303626 -0.46854,-0.307304 -1.09554,0.0083 -1.12586,0.56775 -0.0317,0.559485 0.55397,0.943956 1.05558,0.691776 0.24391,-0.124022 0.39963,-0.376205 0.39963,-0.650434 0,-0.02342 0,-0.04685 -0.004,-0.07028 0.004,-0.01379 0.006,-0.02618 0.006,-0.03996 0,0 0,-3.008256 0,-3.008256 m -2.99171,4.649432 c -0.3073,0 -0.50023,-0.332105 -0.34727,-0.599447 0.15434,-0.265959 0.53882,-0.265959 0.69316,0 0.0344,0.06064 0.0537,0.129536 0.0537,0.199817 0,0.220486 -0.17914,0.39963 -0.40101,0.39963 0,0 10e-4,0 10e-4,0 m 0.73036,-2.644454 c 0,0 0,-0.520898 0,-0.520898 0,0 1.92925,-1.187869 1.92925,-1.187869 0,0 0,0.519521 0,0.519521 0,0 -1.92925,1.189246 -1.92925,1.189246 m 1.52962,1.511709 c -0.30592,0 -0.49747,-0.330729 -0.3445,-0.595312 0.15296,-0.265963 0.53467,-0.265963 0.68764,0 0.0358,0.05925 0.0537,0.128157 0.0537,0.198437 -0.001,0.219107 -0.17777,0.395496 -0.39688,0.396875 m -8.13179,5.137326 c 0.17226,0.268715 0.57464,0.01101 0.40239,-0.257693 -0.17226,-0.267342 -0.57464,-0.0097 -0.40239,0.257693 m 1.63297,0.34313 c -0.0992,-0.155716 -0.32935,-0.143316 -0.41341,0.02067 -0.0841,0.162606 0.0413,0.356909 0.22462,0.347264 0.0414,-0.0014 0.0827,-0.01517 0.11714,-0.03721 0.11162,-0.07166 0.14331,-0.219107 0.0716,-0.330729 m -0.16949,-0.853007 c 0.15434,-0.100595 0.14331,-0.32935 -0.0207,-0.41341 -0.16399,-0.08406 -0.35692,0.03996 -0.34727,0.224621 0.001,0.04134 0.0152,0.08131 0.0372,0.115753 0.0703,0.111623 0.21911,0.144696 0.33073,0.07304 m 1.11621,2.738163 c 0,0 -0.40514,-4.707378 -0.40514,-4.707378 0,-0.0041 0,-0.0083 -0.003,-0.01238 -0.003,-0.0028 0,-0.0041 0,-0.0055 -0.001,-0.0083 -0.004,-0.01654 -0.007,-0.0248 0,-0.0028 -0.003,-0.0055 -0.003,-0.0083 -0.004,-0.0069 -0.007,-0.01242 -0.011,-0.0193 0,-0.0014 -10e-4,-0.0041 -0.003,-0.0055 -0.12541,-0.195684 -0.58843,-0.249426 -0.94672,-0.235647 -0.55673,0.02342 -1.09692,0.192924 -1.56683,0.49196 -0.59118,0.37896 -0.92742,0.923286 -1.07625,1.214052 -0.0372,0.07304 -0.36105,0.722091 -0.20395,0.966005 0,0 0.003,0.0028 0.003,0.0028 0,0 0.005,0.0083 0.005,0.0083 0.007,0.0096 0.0165,0.01792 0.0248,0.02617 0.004,0.0028 0.008,0.0069 0.0124,0.0096 0.004,0.0028 0.004,0.0028 0.007,0.0041 0,0 3.92052,2.45015 3.92052,2.45015 0.10749,0.06752 0.24805,-0.0083 0.25218,-0.135047 0,-0.0069 0,-0.01242 0,-0.0193 m -2.7671,-4.249868 c 0.88608,-0.56913 1.83004,-0.463021 2.03812,-0.361047 0,0 0.0331,0.396875 0.0331,0.396875 -0.20947,-0.03447 -0.42168,-0.04134 -0.63252,-0.01792 -0.41479,0.04272 -0.81442,0.183278 -1.16582,0.407899 -0.64355,0.414789 -0.98392,1.074868 -1.10795,1.493791 0,0 -0.33486,-0.209462 -0.33486,-0.209462 0.008,-0.23151 0.32659,-1.168576 1.16996,-1.710143 m -0.54295,2.102884 c 0.0758,-0.33624 0.37758,-1.000453 0.99494,-1.397328 0.65871,-0.421682 1.36564,-0.403765 1.64951,-0.322464 0,0 0.3073,3.564985 0.3073,3.564985 0,0 -2.95175,-1.845193 -2.95175,-1.845193 m 0.66283,-6.20806 c -0.41341,-0.08268 -0.76205,0.314191 -0.627,0.715201 0.0606,0.179144 0.20946,0.314194 0.39412,0.356912 0.0386,0.0096 0.0772,0.01379 0.11713,0.01379 0.42306,-0.0014 0.68626,-0.458886 0.47405,-0.824064 -0.0772,-0.135051 -0.20671,-0.228756 -0.3583,-0.261828 m 0.0965,0.582908 c -0.0124,0.0565 -0.0469,0.106109 -0.0951,0.136427 -0.14194,0.09095 -0.32797,-0.0069 -0.33486,-0.173634 -0.007,-0.143316 0.12402,-0.253559 0.2632,-0.223241 0.11852,0.02617 0.19293,0.141936 0.16675,0.260448 m -0.0965,-1.977485 c -0.41203,-0.08957 -0.76756,0.300415 -0.63941,0.7028 0.0593,0.187414 0.2136,0.327974 0.40653,0.369316 0.0386,0.0096 0.0772,0.01379 0.11713,0.01379 0.42306,-0.0014 0.68626,-0.458886 0.47405,-0.824068 -0.0772,-0.133671 -0.20671,-0.228755 -0.3583,-0.261828 m 0.0965,0.582913 c -0.0124,0.0565 -0.0469,0.106108 -0.0951,0.136426 -0.14056,0.09095 -0.32797,-0.0041 -0.33624,-0.172258 -0.006,-0.124023 0.0937,-0.228752 0.21773,-0.228752 0.0165,0 0.0317,0.0014 0.0469,0.0055 0.11851,0.0248 0.19293,0.14194 0.16675,0.259073 m 1.60128,-0.857137 c -0.22876,-0.354157 -0.75655,-0.32935 -0.94947,0.04685 -0.19431,0.374827 0.0923,0.818554 0.51401,0.799264 0.0965,-0.0041 0.18879,-0.03447 0.27009,-0.08682 0.25494,-0.163986 0.32798,-0.502984 0.16537,-0.759298 m -0.34451,0.480935 c -0.14056,0.09095 -0.32798,-0.0055 -0.33625,-0.172255 -0.005,-0.125401 0.0937,-0.228755 0.21774,-0.228755 0.0165,0 0.0317,0.0014 0.0482,0.0041 0.16398,0.03583 0.22737,0.237025 0.113,0.361047 -0.0124,0.01379 -0.0262,0.02618 -0.0427,0.03583 m 1.03904,0.270095 c -0.41341,-0.09095 -0.76895,0.299032 -0.64079,0.701421 0.0593,0.187413 0.2136,0.327971 0.40514,0.370692 0.0386,0.0083 0.0786,0.01242 0.11851,0.01242 0.42306,0 0.68765,-0.457507 0.47543,-0.822689 -0.0772,-0.133667 -0.20671,-0.228752 -0.35829,-0.261824 m 0.0951,0.582908 c -0.011,0.0565 -0.0455,0.10473 -0.0951,0.136427 -0.14056,0.09095 -0.32798,-0.0055 -0.33624,-0.172255 -0.005,-0.125402 0.0937,-0.228755 0.21773,-0.228755 0.0165,0 0.0317,0.0014 0.0469,0.0041 0.11851,0.02618 0.19292,0.141937 0.16674,0.260449 m -1.5558,-2.359203 c -1.98024,0 -3.2191,2.145605 -2.22829,3.861262 0.45889,0.796505 1.30914,1.287089 2.22829,1.287089 0.31557,0.0028 0.5705,-0.25218 0.56775,-0.567754 10e-4,-0.143316 -0.0551,-0.282497 -0.15572,-0.384471 -0.0386,-0.03996 -0.0606,-0.0937 -0.0593,-0.150206 -0.004,-0.132292 0.10473,-0.239779 0.23702,-0.235645 0,0 0.48093,0 0.48093,0 0.83096,0 1.50482,-0.672482 1.50482,-1.50344 0,-1.27193 -1.1548,-2.306835 -2.57555,-2.306835 m 1.07073,3.479546 c 0,0 -0.47955,0 -0.47955,0 -0.3142,-0.0041 -0.57051,0.25218 -0.56776,0.566374 -0.001,0.144695 0.0551,0.282498 0.15572,0.384471 0.04,0.04134 0.0606,0.09508 0.0593,0.151585 0.004,0.132292 -0.10473,0.241156 -0.2384,0.234266 -1.72531,0 -2.80431,-1.868618 -1.94166,-3.363789 0.40101,-0.693155 1.14102,-1.120344 1.94166,-1.120344 1.23748,0 2.24344,0.886075 2.24344,1.974726 -10e-4,0.6463 -0.52503,1.169956 -1.17133,1.172711 0,0 -10e-4,0 -10e-4,0 m 6.78408,3.26595 c -10e-4,-0.0014 -0.003,-0.0041 -0.005,-0.0055 -0.007,-0.0083 -0.0152,-0.01517 -0.0248,-0.02067 -1.49792,-1.293975 -3.83508,-0.482311 -4.20715,1.462101 -0.15571,0.810285 0.0882,1.646752 0.6532,2.246199 0.003,0.0041 0.006,0.0083 0.008,0.01242 0.005,0.0055 0.011,0.0096 0.0165,0.01517 1.00459,1.034906 2.66375,1.04042 3.67523,0.01242 0.004,-0.0041 0.008,-0.0083 0.0124,-0.01242 10e-4,-0.0028 0.003,-0.0055 0.006,-0.0069 1.01423,-1.047308 0.95498,-2.729892 -0.13367,-3.70279 m -3.34726,0.377585 c 0.33211,0.380337 0.51539,0.868161 0.51814,1.372524 0,0 -1.12585,0 -1.12585,0 0.0386,-0.513995 0.25356,-0.999064 0.60772,-1.372511 m -0.60635,1.703254 c 0,0 1.10657,0 1.10657,0 -0.0606,0.474046 -0.2701,0.915018 -0.59945,1.262285 -0.29627,-0.358292 -0.47266,-0.799264 -0.50712,-1.262285 m 2.07119,2.07119 c -0.49609,-0.0372 -0.966,-0.237021 -1.33394,-0.570505 0.39275,-0.409278 0.63941,-0.937066 0.7028,-1.500685 0,0 0.62977,0 0.62977,0 0,0 0,2.07119 0,2.07119 0,0 10e-4,0 10e-4,0 m 0,-2.401919 c 0,0 -0.61598,0 -0.61598,0 -0.004,-0.587043 -0.21911,-1.153417 -0.60496,-1.595769 0.35002,-0.276983 0.77584,-0.442348 1.22094,-0.475421 0,0 0,2.07119 0,2.07119 m 2.40054,0 c 0,0 -1.15755,0 -1.15755,0 0.01,-0.514008 0.19706,-1.008722 0.52917,-1.400087 0.36931,0.377582 0.59256,0.873676 0.63114,1.400087 0,0 -0.003,0 -0.003,0 m -2.06984,-2.07119 c 0.43271,0.03168 0.84612,0.188789 1.19201,0.451997 -0.38585,0.451996 -0.60221,1.023881 -0.61185,1.617814 0,0 -0.58016,0 -0.58016,0 0,0 0,-2.069811 0,-2.069811 m 0,4.473109 c 0,0 0,-2.07119 0,-2.07119 0,0 0.59531,0 0.59531,0 0.0648,0.571885 0.31833,1.106566 0.72072,1.51722 -0.36656,0.323839 -0.8282,0.518142 -1.31603,0.55397 m 1.54616,-0.789615 c -0.33898,-0.350019 -0.55672,-0.79926 -0.61735,-1.281575 0,0 1.14377,0 1.14377,0 -0.0358,0.47129 -0.21911,0.920532 -0.52641,1.281575"
       id="path4440" />
  </g>
</svg>
