<?xml version="1.0" encoding="UTF-8" standalone="no"?>
<svg
   xmlns:dc="http://purl.org/dc/elements/1.1/"
   xmlns:cc="http://creativecommons.org/ns#"
   xmlns:rdf="http://www.w3.org/1999/02/22-rdf-syntax-ns#"
   xmlns:svg="http://www.w3.org/2000/svg"
   xmlns="http://www.w3.org/2000/svg"
   id="svg5668"
   version="1.1"
   viewBox="0 0 12.7 10.350443"
   height="10.350443mm"
   width="12.7mm">
  <defs
     id="defs5662" />
  <metadata
     id="metadata5665">
    <rdf:RDF>
      <cc:Work
         rdf:about="">
        <dc:format>image/svg+xml</dc:format>
        <dc:type
           rdf:resource="http://purl.org/dc/dcmitype/StillImage" />
        <dc:title></dc:title>
      </cc:Work>
    </rdf:RDF>
  </metadata>
  <g
     transform="translate(-59.417857,0.63950721)"
     id="layer1">
    <path
       style="fill:#192b51;fill-opacity:1;fill-rule:evenodd;stroke:none;stroke-width:0.352777"
       d="m 59.958048,2.5671862 h 3.682118 v -2.66650246 h -2.824978 c -0.476801,0 -0.85714,0.38033677 -0.85714,0.85714065 z m 1.395953,4.5723315 c 0.381717,0 0.762055,0.1901685 0.985297,0.4754245 L 63.323217,7.1395177 61.608938,6.2823772 h -0.79375 c -0.762055,0 -1.397331,-0.603578 -1.397331,-1.397328 V 0.75782439 c 0,-0.76205646 0.635276,-1.3973316 1.397331,-1.3973316 h 3.079915 c 0.158475,0 0.285254,0.12677775 0.285254,0.28525258 V 2.5671862 h 3.90536 l 2.222776,-2.22277504 c 0.03169,-0.0633906 0.126779,-0.0950842 0.190169,-0.0950842 h 1.333941 c 0.158474,0 0.285254,0.12678133 0.285254,0.28525253 0,0.1598542 -0.12678,0.2549384 -0.285254,0.2549384 H 70.593747 L 68.466056,2.9489024 v 1.9361468 c 0,0.79375 -0.602203,1.397328 -1.364258,1.397328 h -0.825445 l -1.715657,0.8571405 0.985297,0.4754245 c 0.253559,-0.285256 0.602202,-0.4754245 1.015614,-0.4754245 0.698666,0 1.270551,0.5718847 1.270551,1.2691745 0,0.7303593 -0.571885,1.3022436 -1.270551,1.3022436 -0.73036,0 -1.302246,-0.5718843 -1.302246,-1.3022436 0,-0.095084 0.03169,-0.2218656 0.06339,-0.3169497 L 63.958493,7.4247703 62.592857,8.0917425 c 0.03169,0.095084 0.03169,0.2218656 0.03169,0.3169497 0,0.7303593 -0.571886,1.3022436 -1.270551,1.3022436 -0.728982,0 -1.300868,-0.5718843 -1.300868,-1.3022436 0,-0.6972898 0.571886,-1.2691745 1.300868,-1.2691745 z m 0,0.5388118 c -0.412033,0 -0.762055,0.3183289 -0.762055,0.7303627 0,0.4134096 0.350022,0.7620529 0.762055,0.7620529 0.413411,0 0.73036,-0.3486433 0.73036,-0.7620529 0,-0.4120338 -0.316949,-0.7303627 -0.73036,-0.7303627 z m 6.604937,-4.5709523 h -8.00089 v 1.777672 c 0,0.4768003 0.380339,0.857137 0.85714,0.857137 h 6.28661 c 0.443728,0 0.85714,-0.3803367 0.85714,-0.857137 z m -2.921441,3.175 h -2.191081 l 1.112077,0.538815 z m 1.52411,1.3959523 c -0.413412,0 -0.762055,0.3183289 -0.762055,0.7303627 0,0.4134096 0.348643,0.7620529 0.762055,0.7620529 0.413411,0 0.73036,-0.3486433 0.73036,-0.7620529 0,-0.4120338 -0.316949,-0.7303627 -0.73036,-0.7303627 z m -5.207606,0.4451067 c 0.159852,0 0.286632,0.1267812 0.286632,0.285256 0,0.1598507 -0.12678,0.3183255 -0.286632,0.3183255 -0.158474,0 -0.316949,-0.1584748 -0.316949,-0.3183255 0,-0.1584748 0.158475,-0.285256 0.316949,-0.285256 z m 5.207606,0 c 0.158474,0 0.285254,0.1267812 0.285254,0.285256 0,0.1598507 -0.12678,0.3183255 -0.285254,0.3183255 -0.158474,0 -0.316949,-0.1584748 -0.316949,-0.3183255 0,-0.1584748 0.158475,-0.285256 0.316949,-0.285256 z m 0,0"
       id="path4446" />
  </g>
</svg>
