<?xml version="1.0" encoding="UTF-8" standalone="no"?>
<svg
   xmlns:dc="http://purl.org/dc/elements/1.1/"
   xmlns:cc="http://creativecommons.org/ns#"
   xmlns:rdf="http://www.w3.org/1999/02/22-rdf-syntax-ns#"
   xmlns:svg="http://www.w3.org/2000/svg"
   xmlns="http://www.w3.org/2000/svg"
   id="svg6836"
   version="1.1"
   viewBox="0 0 12.7 12.69536"
   height="12.69536mm"
   width="12.7mm">
  <defs
     id="defs6830" />
  <metadata
     id="metadata6833">
    <rdf:RDF>
      <cc:Work
         rdf:about="">
        <dc:format>image/svg+xml</dc:format>
        <dc:type
           rdf:resource="http://purl.org/dc/dcmitype/StillImage" />
        <dc:title></dc:title>
      </cc:Work>
    </rdf:RDF>
  </metadata>
  <g
     transform="translate(-63.954443,-76.806715)"
     id="layer1">
    <path
       style="fill:#192b51;fill-opacity:1;fill-rule:evenodd;stroke:none;stroke-width:0.352777"
       d="m 76.627433,83.305655 c -10e-4,-0.001 -10e-4,-0.004 -10e-4,-0.007 0,0 -1.05833,-2.11667 -1.05833,-2.11667 -0.0455,-0.0896 -0.13642,-0.14469 -0.23702,-0.14469 0,0 -2.38125,0 -2.38125,0 0,0 0,-0.53055 0,-0.53055 0,0 0.26458,0 0.26458,0 0.10473,0 0.19982,-0.062 0.24254,-0.15709 0.0413,-0.0965 0.0234,-0.20809 -0.0482,-0.28526 0,0 -2.91042,-3.175 -2.91042,-3.175 -0.0992,-0.11024 -0.28939,-0.11024 -0.38999,0 0,0 -2.91041,3.175 -2.91041,3.175 -0.0703,0.0772 -0.0896,0.18879 -0.0468,0.28526 0.0427,0.0951 0.1378,0.15709 0.24253,0.15709 0,0 0.26458,0 0.26458,0 0,0 0,0.53055 0,0.53055 0,0 -2.38125,0 -2.38125,0 -0.10059,0 -0.19154,0.0565 -0.23702,0.14607 0,0 -1.05833,2.11667 -1.05833,2.11667 0,0.001 0,0.004 -10e-4,0.005 -0.0152,0.0345 -0.0262,0.0717 -0.0262,0.113 0,0 0,4.7625 0,4.7625 0,0.14469 0.11851,0.2632 0.26458,0.2632 0,0 3.43959,0 3.43959,0 0,0 0,0.53055 0,0.53055 0,0 -0.26459,0 -0.26459,0 -0.14607,0 -0.26458,0.11713 -0.26458,0.2632 0,0.14607 0.11851,0.26459 0.26458,0.26459 0,0 5.82084,0 5.82084,0 0.14607,0 0.26458,-0.11852 0.26458,-0.26459 0,-0.14607 -0.11851,-0.2632 -0.26458,-0.2632 0,0 -0.26459,0 -0.26459,0 0,0 0,-0.53055 0,-0.53055 0,0 3.43958,0 3.43958,0 0.14608,0 0.26459,-0.11851 0.26459,-0.2632 0,0 0,-4.7625 0,-4.7625 0,-0.0413 -0.011,-0.0785 -0.0262,-0.113 m -8.96961,4.60954 c 0,0 -3.175,0 -3.175,0 0,0 0,-4.23334 0,-4.23334 0,0 3.175,0 3.175,0 0,0 0,4.23334 0,4.23334 m 0,-4.7625 c 0,0 -3.01101,0 -3.01101,0 0,0 0.79375,-1.5875 0.79375,-1.5875 0,0 2.21726,0 2.21726,0 0,0 0,1.5875 0,1.5875 m 3.175,5.82221 c 0,0 -1.05833,0 -1.05833,0 0,0 0,-2.11805 0,-2.11805 0,0 1.05833,0 1.05833,0 0,0 0,2.11805 0,2.11805 m 1.5875,0 c 0,0 -1.05833,0 -1.05833,0 0,0 0,-2.38125 0,-2.38125 0,-0.14608 -0.11851,-0.26596 -0.26458,-0.26596 0,0 -1.5875,0 -1.5875,0 -0.14608,0 -0.26459,0.11988 -0.26459,0.26596 0,0 0,2.38125 0,2.38125 0,0 -1.05833,0 -1.05833,0 0,0 0,-8.46805 0,-8.46805 0,0 4.23333,0 4.23333,0 0,0 0,8.46805 0,8.46805 m -4.42488,-8.99721 c 0,0 2.30822,-2.51906 2.30822,-2.51906 0,0 2.30959,2.51906 2.30959,2.51906 0,0 -4.61781,0 -4.61781,0 m 4.95405,1.5875 c 0,0 2.21726,0 2.21726,0 0,0 0.79375,1.5875 0.79375,1.5875 0,0 -3.01101,0 -3.01101,0 0,0 0,-1.5875 0,-1.5875 m 3.175,6.35 c 0,0 -3.175,0 -3.175,0 0,0 0,-4.23334 0,-4.23334 0,0 3.175,0 3.175,0 0,0 0,4.23334 0,4.23334 m -10.84792,-1.05834 c 0,0 1.5875,0 1.5875,0 0.14607,0 0.26459,-0.11851 0.26459,-0.2632 0,0 0,-1.5875 0,-1.5875 0,-0.14608 -0.11852,-0.26596 -0.26459,-0.26596 0,0 -1.5875,0 -1.5875,0 -0.14607,0 -0.26458,0.11988 -0.26458,0.26596 0,0 0,1.5875 0,1.5875 0,0.14469 0.11851,0.2632 0.26458,0.2632 m 0.26459,-1.5875 c 0,0 1.05833,0 1.05833,0 0,0 0,1.05834 0,1.05834 0,0 -1.05833,0 -1.05833,0 0,0 0,-1.05834 0,-1.05834 m 8.20208,1.5875 c 0,0 1.5875,0 1.5875,0 0.14607,0 0.26458,-0.11851 0.26458,-0.2632 0,0 0,-1.5875 0,-1.5875 0,-0.14608 -0.11851,-0.26596 -0.26458,-0.26596 0,0 -1.5875,0 -1.5875,0 -0.14607,0 -0.26458,0.11988 -0.26458,0.26596 0,0 0,1.5875 0,1.5875 0,0.14469 0.11851,0.2632 0.26458,0.2632 m 0.26458,-1.5875 c 0,0 1.05834,0 1.05834,0 0,0 0,1.05834 0,1.05834 0,0 -1.05834,0 -1.05834,0 0,0 0,-1.05834 0,-1.05834 m -3.62699,-2.19383 c 0.0524,0.0524 0.11988,0.0772 0.18741,0.0772 0.0675,0 0.13505,-0.0248 0.18741,-0.0772 0.10336,-0.10336 0.10336,-0.2701 0,-0.37345 0,0 -0.18741,-0.18741 -0.18741,-0.18741 0,0 0,-0.42031 0,-0.42031 0,-0.14607 -0.11851,-0.2632 -0.26458,-0.2632 -0.14608,0 -0.26459,0.11713 -0.26459,0.2632 0,0 0,0.53055 0,0.53055 0,0.0689 0.0275,0.13642 0.0772,0.18603 0,0 0.26459,0.26459 0.26459,0.26459 m -0.0772,1.13688 c 0.87505,0 1.5875,-0.71245 1.5875,-1.5875 0,-0.87644 -0.71245,-1.5875 -1.5875,-1.5875 -0.87506,0 -1.5875,0.71106 -1.5875,1.5875 0,0.87505 0.71244,1.5875 1.5875,1.5875 m 0,-2.64721 c 0.58428,0 1.05833,0.47542 1.05833,1.05971 0,0.58291 -0.47405,1.05695 -1.05833,1.05695 -0.58429,0 -1.05834,-0.47404 -1.05834,-1.05695 0,-0.58429 0.47405,-1.05971 1.05834,-1.05971"
       id="path4442" />
  </g>
</svg>
