<?xml version="1.0" encoding="UTF-8" standalone="no"?>
<svg
   xmlns:dc="http://purl.org/dc/elements/1.1/"
   xmlns:cc="http://creativecommons.org/ns#"
   xmlns:rdf="http://www.w3.org/1999/02/22-rdf-syntax-ns#"
   xmlns:svg="http://www.w3.org/2000/svg"
   xmlns="http://www.w3.org/2000/svg"
   width="12.7mm"
   height="8.7312498mm"
   viewBox="0 0 12.7 8.7312498"
   version="1.1"
   id="svg6252">
  <defs
     id="defs6246" />
  <metadata
     id="metadata6249">
    <rdf:RDF>
      <cc:Work
         rdf:about="">
        <dc:format>image/svg+xml</dc:format>
        <dc:type
           rdf:resource="http://purl.org/dc/dcmitype/StillImage" />
        <dc:title></dc:title>
      </cc:Work>
    </rdf:RDF>
  </metadata>
  <g
     transform="translate(-85.876188,-101.46771)"
     id="layer1">
    <path
       id="path4444"
       d="m 88.059008,108.21459 c -0.32798,0 -0.59532,0.26734 -0.59532,0.59531 0,0.32797 0.26734,0.59531 0.59532,0.59531 0.32797,0 0.59531,-0.26734 0.59531,-0.59531 0,-0.32797 -0.26734,-0.59531 -0.59531,-0.59531 z m 0,0.79375 c -0.10887,0 -0.19844,-0.0896 -0.19844,-0.19844 0,-0.10886 0.0896,-0.19844 0.19844,-0.19844 0.10886,0 0.19843,0.0896 0.19843,0.19844 0,0.10886 -0.0896,0.19844 -0.19843,0.19844 z m 3.57187,-0.79375 c -0.32797,0 -0.59531,0.26734 -0.59531,0.59531 0,0.32797 0.26734,0.59531 0.59531,0.59531 0.32797,0 0.59531,-0.26734 0.59531,-0.59531 0,-0.32797 -0.26734,-0.59531 -0.59531,-0.59531 z m 0,0.79375 c -0.10886,0 -0.19844,-0.0896 -0.19844,-0.19844 0,-0.10886 0.0896,-0.19844 0.19844,-0.19844 0.10886,0 0.19844,0.0896 0.19844,0.19844 0,0.10886 -0.0896,0.19844 -0.19844,0.19844 z m 1.5875,-3.57188 h -0.59531 v -1.22645 c 0.23013,-0.0827 0.39687,-0.30179 0.39687,-0.55949 0,-0.32797 -0.26734,-0.59531 -0.59531,-0.59531 h -1.98437 c -0.32798,0 -0.59532,0.26734 -0.59532,0.59531 0,0.25907 0.16675,0.47681 0.39688,0.55949 v 1.22645 h -1.98438 v -0.4327 c 0.23013,-0.0827 0.39688,-0.30179 0.39688,-0.55949 0,-0.32797 -0.26734,-0.59531 -0.59531,-0.59531 h -0.79375 c -0.32798,0 -0.59532,0.26734 -0.59532,0.59531 0,0.25907 0.16675,0.47681 0.39688,0.55949 v 0.4327 h -0.59531 c -0.32798,0 -0.59532,0.26734 -0.59532,0.59531 v 2.77813 c 0,0.32797 0.26734,0.59531 0.59532,0.59531 h 0.33486 c 0.22324,0.46853 0.70004,0.79375 1.25264,0.79375 0.55259,0 1.02939,-0.32522 1.25401,-0.79375 h 1.06522 c 0.22325,0.46853 0.70005,0.79375 1.25402,0.79375 0.55259,0 1.02939,-0.32522 1.25264,-0.79375 h 0.33348 c 0.32797,0 0.59531,-0.26734 0.59531,-0.59531 v -2.77813 c 0,-0.32797 -0.26734,-0.59531 -0.59531,-0.59531 z m -2.77812,-1.98437 h 1.98437 c 0.10886,0 0.19844,0.0896 0.19844,0.19843 0,0.10887 -0.0896,0.19844 -0.19844,0.19844 h -1.98437 c -0.10887,0 -0.19844,-0.0896 -0.19844,-0.19844 0,-0.10886 0.0896,-0.19843 0.19844,-0.19843 z m 0.19843,0.79375 h 1.5875 v 1.19062 h -1.5875 z m -3.37343,0 h 0.79375 c 0.10886,0 0.19843,0.0896 0.19843,0.19843 0,0.10887 -0.0896,0.19844 -0.19843,0.19844 h -0.79375 c -0.10887,0 -0.19844,-0.0896 -0.19844,-0.19844 0,-0.10886 0.0896,-0.19843 0.19844,-0.19843 z m 0.19843,0.79375 h 0.39688 v 0.39687 h -0.39688 z m 0.59532,4.7625 c -0.54709,0 -0.99219,-0.44511 -0.99219,-0.99219 0,-0.54708 0.4451,-0.99219 0.99219,-0.99219 0.54708,0 0.99218,0.44511 0.99218,0.99219 0,0.54708 -0.4451,0.99219 -0.99218,0.99219 z m 3.57187,0 c -0.54708,0 -0.99219,-0.44511 -0.99219,-0.99219 0,-0.54708 0.44511,-0.99219 0.99219,-0.99219 0.54708,0 0.99219,0.44511 0.99219,0.99219 0,0.54708 -0.44511,0.99219 -0.99219,0.99219 z m 1.78594,-0.99219 c 0,0.10886 -0.0896,0.19844 -0.19844,0.19844 h -0.21498 c 0.01,-0.0648 0.0165,-0.13092 0.0165,-0.19844 0,-0.76619 -0.62288,-1.38906 -1.38906,-1.38906 -0.76619,0 -1.38907,0.62287 -1.38907,1.38906 0,0.0675 0.007,0.13367 0.0165,0.19844 h -0.82682 c 0.01,-0.0648 0.0165,-0.13092 0.0165,-0.19844 0,-0.76619 -0.62288,-1.38906 -1.38906,-1.38906 -0.76619,0 -1.38907,0.62287 -1.38907,1.38906 0,0.0675 0.007,0.13367 0.0165,0.19844 h -0.21497 c -0.10886,0 -0.19844,-0.0896 -0.19844,-0.19844 v -2.77813 c 0,-0.10886 0.0896,-0.19843 0.19844,-0.19843 h 6.74688 c 0.10886,0 0.19843,0.0896 0.19843,0.19843 z m 4.96093,-1.78594 h -0.79375 v -2.38125 h 0.59532 c 0.11024,0 0.19843,-0.0882 0.19843,-0.19844 v -2.77812 c 0,-0.10886 -0.0882,-0.19844 -0.19843,-0.19844 h -2.77813 c -0.10886,0 -0.19843,0.0896 -0.19843,0.19844 v 2.57969 h -0.59532 c -0.10886,0 -0.19843,0.0896 -0.19843,0.19843 v 2.77813 c 0,0.11024 0.0896,0.19844 0.19843,0.19844 h 0.79375 v 2.57968 c 0,0.11025 0.0896,0.19844 0.19844,0.19844 h 2.77812 c 0.11025,0 0.19844,-0.0882 0.19844,-0.19844 v -2.77812 c 0,-0.10886 -0.0882,-0.19844 -0.19844,-0.19844 z m -2.77812,-5.15937 h 2.38125 v 2.38125 h -2.38125 z m -0.79375,2.77812 h 2.38125 v 2.38125 h -2.38125 z m 3.37344,5.15938 h -2.38125 v -2.38125 h 2.38125 z m -1.38907,-7.54063 c -0.43821,0 -0.79375,0.35554 -0.79375,0.79375 0,0.43822 0.35554,0.79375 0.79375,0.79375 0.43822,0 0.79375,-0.35553 0.79375,-0.79375 0,-0.43821 -0.35553,-0.79375 -0.79375,-0.79375 z m 0,1.19063 c -0.2191,0 -0.39687,-0.17777 -0.39687,-0.39688 0,-0.2191 0.17777,-0.39687 0.39687,-0.39687 0.21911,0 0.39688,0.17777 0.39688,0.39687 0,0.21911 -0.17777,0.39688 -0.39688,0.39688 z m 0,2.97656 v -1.19063 c 0,-0.10886 -0.0882,-0.19843 -0.19843,-0.19843 h -1.19063 c -0.10886,0 -0.19843,0.0896 -0.19843,0.19843 v 1.19063 c 0,0.11024 0.0896,0.19844 0.19843,0.19844 h 1.19063 c 0.11024,0 0.19843,-0.0896 0.19843,-0.19844 z m -0.39687,-0.19844 h -0.79375 v -0.79375 h 0.79375 z m 0.42581,1.68397 -0.59531,0.99218 c -0.0372,0.0606 -0.0386,0.13781 -0.003,0.19982 0.0345,0.062 0.10059,0.10059 0.17225,0.10059 h 1.19063 c 10e-4,0 0.003,0 0.004,0 0.11024,0 0.19844,-0.0882 0.19844,-0.19843 0,-0.051 -0.0193,-0.0965 -0.0496,-0.13229 l -0.5774,-0.96187 c -0.073,-0.1199 -0.26871,-0.1199 -0.34037,0 z m -0.0744,0.89572 0.24392,-0.4079 0.24529,0.4079 z m 0,0"
       style="fill:#192b51;fill-opacity:1;fill-rule:evenodd;stroke:none;stroke-width:0.352777" />
  </g>
</svg>
