<svg id="Flat" xmlns="http://www.w3.org/2000/svg"><g id="Color_1_"><g><path d="m11.766 41.636c2.152-1.076 4.525-1.636 6.931-1.636h4.342v-8h-3.562c-4.155 0-8.172 1.486-11.327 4.19-1.219 1.045-1.507 2.818-.681 4.195.886 1.476 2.758 2.021 4.297 1.251z" fill="#00b4d8"/><path d="m7.63 37.731c.981 1.253 2.763 1.536 4.193.839.393-.191.794-.365 1.2-.52 1.252-.479 2.264-1.414 2.977-2.549.009-.014.018-.029.027-.043.609-.965.804-2.128.568-3.215.935-.155 1.885-.243 2.843-.243h3.562v8h-4.341c-2.406 0-4.779.56-6.931 1.636-1.539.77-3.411.224-4.297-1.251-.592-.987-.603-2.173-.118-3.153.091.171.193.34.317.499z" fill="#0096c7"/><path d="m52.234 41.636c-2.152-1.076-4.525-1.636-6.931-1.636h-4.342v-8h3.562c4.155 0 8.172 1.486 11.327 4.19 1.219 1.045 1.507 2.818.681 4.195-.886 1.476-2.758 2.021-4.297 1.251z" fill="#00b4d8"/><path d="m56.331 37.731c-.981 1.253-2.763 1.536-4.193.839-.393-.191-.794-.365-1.2-.52-1.252-.479-2.264-1.414-2.977-2.549-.009-.014-.018-.029-.027-.043-.609-.965-.804-2.128-.568-3.215-.935-.155-1.884-.243-2.843-.243h-3.562v8h4.341c2.406 0 4.779.56 6.931 1.636 1.539.77 3.411.224 4.297-1.251.592-.987.603-2.173.118-3.153-.09.171-.192.34-.317.499z" fill="#0096c7"/><circle cx="43" cy="11" fill="#48cae4" r="8"/><path d="m50 13c-4.418 0-8-3.582-8-8 0-.678.094-1.333.253-1.962-4.068.377-7.253 3.796-7.253 7.962 0 4.418 3.582 8 8 8 3.74 0 6.871-2.57 7.747-6.038-.246.023-.495.038-.747.038z" fill="#00b4d8"/><circle cx="43" cy="11" fill="#00b4d8" r="4"/><path d="m43 7c-2.209 0-4 1.791-4 4s1.791 4 4 4 4-1.791 4-4-1.791-4-4-4zm-.391 1.061c1.89.291 3.341 1.893 3.382 3.854-1.509-.876-2.707-2.227-3.382-3.854z" fill="#0096c7"/><circle cx="21" cy="11" fill="#48cae4" r="8"/><path d="m14 13c4.418 0 8-3.582 8-8 0-.678-.094-1.333-.253-1.962 4.068.377 7.253 3.796 7.253 7.962 0 4.418-3.582 8-8 8-3.74 0-6.871-2.57-7.747-6.038.246.023.495.038.747.038z" fill="#00b4d8"/><circle cx="21" cy="11" fill="#00b4d8" r="4"/><path d="m21 7c2.209 0 4 1.791 4 4s-1.791 4-4 4-4-1.791-4-4 1.791-4 4-4zm.391 1.061c-1.89.291-3.341 1.893-3.382 3.854 1.509-.876 2.707-2.227 3.382-3.854z" fill="#0096c7"/><path d="m50 47.4c0 9.61-8.059 12.6-18 12.6s-18-2.99-18-12.6 8.059-22.2 18-22.2 18 12.59 18 22.2z" fill="#48cae4"/><path d="m39 47c-8.294 0-15.259-2.097-17.345-8.368 2.431 1.492 5.283 2.368 8.345 2.368 6.264 0 11.673-3.608 14.3-8.852-3.219-4.061-7.542-6.948-12.3-6.948-9.941 0-18 12.59-18 22.2s8.059 12.6 18 12.6 18-2.99 18-12.6c0-.712-.049-1.442-.136-2.181-3.021 1.263-6.777 1.781-10.864 1.781z" fill="#00b4d8"/><ellipse cx="32" cy="42" fill="#e9f1f2" rx="11" ry="12"/><path d="m39 47c-8.294 0-15.259-2.097-17.345-8.368 2.431 1.492 5.283 2.368 8.345 2.368 4.543 0 8.635-1.903 11.548-4.944-1.895-3.615-5.457-6.056-9.548-6.056-6.075 0-11 5.373-11 12s4.925 12 11 12c4.477 0 8.322-2.923 10.039-7.111-.99.07-2.001.111-3.039.111z" fill="#d0d8da"/><circle cx="32" cy="22" fill="#ade8f4" r="16"/><path d="m44.94 31.42c-2.91 3.99-7.62 6.58-12.94 6.58-8.84 0-16-7.16-16-16 0-6.35 3.7-11.84 9.06-14.42-1.92 2.64-3.06 5.9-3.06 9.42 0 8.84 7.16 16 16 16 2.49 0 4.84-.57 6.94-1.58z" fill="#48cae4"/><ellipse cx="32" cy="31" fill="#e9f1f2" rx="8" ry="7"/><circle cx="38" cy="19" fill="#93999a" r="2"/><circle cx="26" cy="19" fill="#93999a" r="2"/><path d="m54 56c0 3.866-3.239 5-6 5s-6-1.134-6-5 3.239-8 6-8 6 4.134 6 8z" fill="#ade8f4"/><path d="m21 56c0 3.866-3.239 5-6 5s-6-1.134-6-5 3.239-8 6-8 6 4.134 6 8z" fill="#ade8f4"/><path d="m32 49c-2.761 0-5-2.239-5-5h10c0 2.761-2.239 5-5 5z" fill="#48cae4"/><path d="m38 33c-5.073 0-9.586-2.368-12.517-6.05-.93 1.144-1.483 2.539-1.483 4.05 0 3.866 3.582 7 8 7 3.661 0 6.74-2.154 7.691-5.091-.556.058-1.12.091-1.691.091z" fill="#d0d8da"/><circle cx="38" cy="19" fill="#656b76" r="1"/><circle cx="26" cy="19" fill="#656b76" r="1"/><circle cx="38.5" cy="18.5" fill="#e9f1f2" r=".5"/><circle cx="26.5" cy="18.5" fill="#e9f1f2" r=".5"/><path d="m32 49c1.676 0 3.15-.832 4.058-2.097-3.419-.232-6.506-.905-8.985-2.179.353 2.415 2.414 4.276 4.927 4.276z" fill="#00b4d8"/><path d="m52 58c-2.761 0-6-1.134-6-5 0-1.735.655-3.521 1.624-4.966-2.671.347-5.624 4.274-5.624 7.966 0 3.866 3.239 5 6 5 2.259 0 4.835-.761 5.698-3.155-.565.106-1.141.155-1.698.155z" fill="#48cae4"/><path d="m19 58c-2.761 0-6-1.134-6-5 0-1.735.655-3.521 1.624-4.966-2.671.347-5.624 4.274-5.624 7.966 0 3.866 3.239 5 6 5 2.259 0 4.835-.761 5.698-3.155-.565.106-1.141.155-1.698.155z" fill="#48cae4"/><path d="m37.707 30.293c-.391-.391-1.023-.391-1.414 0l-.293.292c-.268.268-.622.415-1 .415-1.103 0-2-.897-2-2v-2c0-.552-.447-1-1-1s-1 .448-1 1v2c0 1.103-.897 2-2 2-.378 0-.732-.147-1-.414l-.293-.293c-.391-.391-1.023-.391-1.414 0s-.391 1.023 0 1.414l.293.293c.646.645 1.503 1 2.414 1 1.201 0 2.266-.542 3-1.382.734.84 1.799 1.382 3 1.382.911 0 1.769-.355 2.414-1l.293-.293c.391-.391.391-1.023 0-1.414z" fill="#b8bebf"/><path d="m32 24c-1.406 0-2.726.32-3.874.877l.845 1.408c.638 1.064 1.788 1.715 3.029 1.715s2.391-.651 3.029-1.715l.845-1.408c-1.148-.557-2.468-.877-3.874-.877z" fill="#93999a"/><path d="m34 27c-1.241 0-2.391-.651-3.029-1.715l-.668-1.113c-.771.147-1.506.38-2.177.705l.845 1.408c.638 1.064 1.788 1.715 3.029 1.715.948 0 1.842-.383 2.496-1.037-.163.023-.328.037-.496.037z" fill="#656b76"/><g fill="#93999a"><path d="m29.9 30.79c.62.37 1.27.7 1.95.98-.71.76-1.73 1.23-2.85 1.23-.91 0-1.77-.35-2.41-1l-.3-.29c-.39-.39-.39-1.03 0-1.42s1.03-.39 1.42 0l.29.3c.27.26.62.41 1 .41.32 0 .63-.08.9-.21z"/><path d="m35.94 32.86c-.3.1-.62.14-.94.14-1.02 0-1.95-.39-2.65-1.03 1.14.43 2.34.74 3.59.89z"/></g></g></g></svg>