<svg id="Layer_1" enable-background="new 0 0 512 512" xmlns="http://www.w3.org/2000/svg"><g><path d="m250.576 183.043-49.455 90.718c-3.439 6.307-1.344 14.203 4.768 17.977l42.357 26.153 63.401-117.042-42.747-23.215c-6.554-3.561-14.754-1.14-18.324 5.409z" fill="#1d4869"/><path d="m256 177.635v125.937l55.648-102.729-42.747-23.215c-4.175-2.267-9.013-2.099-12.901.007z" fill="#122950"/><g><circle cx="406.367" cy="375.641" fill="#1d4869" r="90.633"/><path d="m406.366 481.274c-58.246 0-105.633-47.387-105.633-105.633 0-58.247 47.387-105.634 105.633-105.634 58.247 0 105.634 47.387 105.634 105.634 0 58.246-47.387 105.633-105.634 105.633zm0-181.267c-41.704 0-75.633 33.93-75.633 75.634s33.929 75.633 75.633 75.633 75.634-33.929 75.634-75.633-33.93-75.634-75.634-75.634z" fill="#122950"/></g><g><circle cx="66.666" cy="414.607" fill="#326b82" r="51.666"/><path d="m66.666 481.274c-36.76 0-66.666-29.906-66.666-66.667 0-36.76 29.906-66.666 66.666-66.666s66.666 29.906 66.666 66.666c0 36.761-29.906 66.667-66.666 66.667zm0-103.333c-20.218 0-36.666 16.448-36.666 36.666s16.448 36.667 36.666 36.667 36.666-16.449 36.666-36.667-16.448-36.666-36.666-36.666z" fill="#1d4869"/></g><g><path d="m195.854 429.607h-125.188c-8.284 0-15-6.716-15-15s6.716-15 15-15h116.255l161.27-297.711c3.946-7.284 13.05-9.989 20.334-6.045 7.284 3.946 9.99 13.05 6.045 20.334l-165.526 305.566c-2.622 4.84-7.685 7.856-13.19 7.856z" fill="#aadaff"/></g><path d="m368.524 95.851c-7.284-3.944-16.388-1.239-20.334 6.045l-92.19 170.189v62.985l118.57-218.884c3.945-7.285 1.239-16.389-6.046-20.335z" fill="#76aaff"/><g><path d="m405.747 386.116c-7.182 0-13.527-5.172-14.771-12.489l-48.796-288.037c-2.804-14.415-15.471-24.864-30.169-24.864h-64.294c-8.103 0-15.098-6.226-15.455-14.321-.379-8.593 6.476-15.679 14.985-15.679h64.765c29.135 0 54.229 20.774 59.667 49.396.019.096.035.191.052.287l48.823 288.192c1.388 8.167-4.108 15.913-12.275 17.301-.852.145-1.698.214-2.532.214z" fill="#827dff"/></g><circle cx="406.367" cy="375.641" fill="#76aaff" r="32.629"/></g></svg>