<?xml version="1.0" encoding="UTF-8" standalone="no"?>
<svg
   xmlns:dc="http://purl.org/dc/elements/1.1/"
   xmlns:cc="http://creativecommons.org/ns#"
   xmlns:rdf="http://www.w3.org/1999/02/22-rdf-syntax-ns#"
   xmlns:svg="http://www.w3.org/2000/svg"
   xmlns="http://www.w3.org/2000/svg"
   id="svg19591"
   version="1.1"
   viewBox="0 0 68.188087 49.041622"
   height="49.041622mm"
   width="68.188087mm">
  <defs
     id="defs19585" />
  <metadata
     id="metadata19588">
    <rdf:RDF>
      <cc:Work
         rdf:about="">
        <dc:format>image/svg+xml</dc:format>
        <dc:type
           rdf:resource="http://purl.org/dc/dcmitype/StillImage" />
        <dc:title></dc:title>
      </cc:Work>
    </rdf:RDF>
  </metadata>
  <g
     transform="translate(-186.13605,-40.158414)"
     id="layer1">
    <path
       id="path2682"
       d="m 186.13605,89.200038 h 68.18809 V 40.158414 h -68.18809 z m 0,0"
       style="fill:#ffffff;fill-opacity:1;fill-rule:nonzero;stroke:none;stroke-width:0.352777" />
    <g
       transform="matrix(0.3527778,0,0,0.3527778,107.21166,-69.023556)"
       id="g20439">
      <path
         style="fill:#ebe3d9;fill-opacity:1;fill-rule:nonzero;stroke:none"
         d="m 395.27344,411.36719 c 0,2.46875 -21.28125,4.46875 -47.53125,4.46875 -26.2461,0 -47.52735,-2 -47.52735,-4.46875 0,-2.46485 21.28125,-2.94922 47.52735,-2.94922 26.25,0 47.53125,0.48437 47.53125,2.94922"
         id="path2702" />
      <path
         style="fill:#a69ca1;fill-opacity:1;fill-rule:nonzero;stroke:none"
         d="m 309.44531,358.16406 v 52.9961 h 3.78906 v -48.78907 h 69.10938 v 48.78907 h 3.69922 v -52.9961 z m 0,0"
         id="path2704" />
      <path
         style="fill:#b0b0b0;fill-opacity:1;fill-rule:nonzero;stroke:none"
         d="m 313.23437,362.37109 4.70704,41.98828 -4.70704,6.80079 z m 0,0"
         id="path2706" />
      <path
         style="fill:#e3e3e1;fill-opacity:1;fill-rule:nonzero;stroke:none"
         d="m 313.23437,362.37109 4.70704,41.98828 h 59.69531 l 4.70703,-41.98828 z m 0,0"
         id="path2710" />
      <path
         style="fill:#ded4c7;fill-opacity:1;fill-rule:nonzero;stroke:none"
         d="m 291.98437,411.59375 c 0,0.19531 0.16016,0.35547 0.35938,0.35547 h 19.71875 c 0.19922,0 0.35937,-0.16016 0.35937,-0.35547 0,-0.19922 -0.16015,-0.35938 -0.35937,-0.35938 h -19.71875 c -0.19922,0 -0.35938,0.16016 -0.35938,0.35938"
         id="path2826" />
      <g
         id="g20279">
        <path
           id="path2684"
           d="m 304.19922,411.07031 0.58203,-2.86328 0.47656,2.82813 1.1875,-2.86719 -0.39844,2.90234 z m 0,0"
           style="fill:#45ab33;fill-opacity:1;fill-rule:nonzero;stroke:none" />
        <path
           id="path2686"
           d="m 303.71875,410.85547 -3.70313,-4.54297 1.78516,4.09766 -4.26953,-2.17188 3.44531,2.61719 z m 0,0"
           style="fill:#45ab33;fill-opacity:1;fill-rule:nonzero;stroke:none" />
        <path
           id="path2828"
           d="m 307.27734,410.99219 2.77735,-4.82032 -1.02344,4.76172 1.97656,-4.76172 -0.66797,4.82032 z m 0,0"
           style="fill:#45ab33;fill-opacity:1;fill-rule:nonzero;stroke:none" />
        <path
           id="path2830"
           d="m 295.75,411.59375 h 15.46484 v -0.73828 H 295.75 Z m 0,0"
           style="fill:#45ab33;fill-opacity:1;fill-rule:nonzero;stroke:none" />
        <g
           id="g20238">
          <path
             style="fill:none;stroke:#388733;stroke-width:0.386;stroke-linecap:butt;stroke-linejoin:miter;stroke-miterlimit:10;stroke-opacity:1"
             d="m -1.75e-4,-1.125e-4 0.03125,12.9648435 0.429688,9.332032"
             transform="matrix(1,0,0,-1,309.5783,411.0702)"
             id="path2832" />
          <path
             style="fill:#45ab33;fill-opacity:1;fill-rule:nonzero;stroke:none"
             d="m 312.69531,385.99219 c 0,0 -2.04687,6.21875 -2.80859,6.07422 -0.76172,-0.14844 2.80859,-6.07422 2.80859,-6.07422"
             id="path2834" />
          <path
             style="fill:#45ab33;fill-opacity:1;fill-rule:nonzero;stroke:none"
             d="m 312.50391,390.35156 c 0,0 -2.04688,6.22266 -2.8086,6.07422 -0.76172,-0.14844 2.8086,-6.07422 2.8086,-6.07422"
             id="path2836" />
          <path
             style="fill:#45ab33;fill-opacity:1;fill-rule:nonzero;stroke:none"
             d="m 310.32031,385.11719 c 0,0 0.14063,5.03515 -0.44922,5.1289 -0.59375,0.0899 0.44922,-5.1289 0.44922,-5.1289"
             id="path2838" />
          <path
             style="fill:#45ab33;fill-opacity:1;fill-rule:nonzero;stroke:none"
             d="m 308.45703,387.83203 c 0,0 2.02734,6.22266 1.32422,6.55469 -0.70313,0.33203 -1.32422,-6.55469 -1.32422,-6.55469"
             id="path2840" />
          <path
             style="fill:#45ab33;fill-opacity:1;fill-rule:nonzero;stroke:none"
             d="m 307.24609,392.46484 c 0,0 2.96875,5.83594 2.32813,6.26953 -0.64453,0.4375 -2.32813,-6.26953 -2.32813,-6.26953"
             id="path2844" />
          <path
             style="fill:#45ab33;fill-opacity:1;fill-rule:nonzero;stroke:none"
             d="m 313.03906,393.35156 c 0,0 -2.4414,7.48828 -3.35937,7.3125 -0.91797,-0.17578 3.35937,-7.3125 3.35937,-7.3125"
             id="path2848" />
        </g>
        <g
           id="g20252">
          <path
             style="fill:#45ab33;fill-opacity:1;fill-rule:nonzero;stroke:none"
             d="m 303.87891,389.92578 c 0,0 -0.46875,6.53125 -1.2461,6.57422 -0.77734,0.043 1.2461,-6.57422 1.2461,-6.57422"
             id="path2688" />
          <path
             style="fill:#45ab33;fill-opacity:1;fill-rule:nonzero;stroke:none"
             d="m 301.36328,389.65625 c 0,0 1.35938,4.85156 0.80859,5.08203 -0.54687,0.23438 -0.80859,-5.08203 -0.80859,-5.08203"
             id="path2690" />
          <path
             style="fill:#45ab33;fill-opacity:1;fill-rule:nonzero;stroke:none"
             d="m 300.33203,392.61719 c 0,0 3.19922,5.71484 2.57422,6.17578 -0.625,0.46094 -2.57422,-6.17578 -2.57422,-6.17578"
             id="path2692" />
          <path
             style="fill:#45ab33;fill-opacity:1;fill-rule:nonzero;stroke:none"
             d="m 304.98047,393.37891 c 0,0 -0.57422,7.97656 -1.52344,8.02734 -0.94922,0.0508 1.52344,-8.02734 1.52344,-8.02734"
             id="path2694" />
          <path
             style="fill:#45ab33;fill-opacity:1;fill-rule:nonzero;stroke:none"
             d="m 300.33203,397.00781 c 0,0 4.25391,6.77344 3.51953,7.375 -0.73437,0.60156 -3.51953,-7.375 -3.51953,-7.375"
             id="path2696" />
          <g
             id="g20229">
            <path
               id="path2698"
               d="m 305.71094,380.89062 c 0,0 0.79297,6.01172 0.0976,6.19141 -0.69922,0.18359 -0.0976,-6.19141 -0.0976,-6.19141"
               style="fill:#45ab33;fill-opacity:1;fill-rule:nonzero;stroke:none" />
            <path
               id="path2700"
               d="m 303.81641,384.36719 c 0,0 3.19921,7.19922 2.39843,7.68359 -0.79687,0.48438 -2.39843,-7.68359 -2.39843,-7.68359"
               style="fill:#45ab33;fill-opacity:1;fill-rule:nonzero;stroke:none" />
            <path
               id="path2842"
               transform="matrix(1,0,0,-1,304.8506,410.9142)"
               d="M 9.625e-4,1.375e-4 -2.75685,16.88295 M 2.883775,1.375e-4 1.844712,12.797013 0.852525,25.898575"
               style="fill:none;stroke:#388733;stroke-width:0.386;stroke-linecap:butt;stroke-linejoin:miter;stroke-miterlimit:10;stroke-opacity:1" />
            <path
               id="path2846"
               d="m 308.66406,381.64453 c 0,0 -1.67969,7.69531 -2.60937,7.61328 -0.9336,-0.082 2.60937,-7.61328 2.60937,-7.61328"
               style="fill:#45ab33;fill-opacity:1;fill-rule:nonzero;stroke:none" />
            <path
               id="path2850"
               d="m 309.59766,388.97266 c 0,0 -2.02735,7.61328 -2.95313,7.48828 -0.92578,-0.125 2.95313,-7.48828 2.95313,-7.48828"
               style="fill:#45ab33;fill-opacity:1;fill-rule:nonzero;stroke:none" />
            <path
               id="path2852"
               d="m 304.63281,391.47266 c 0,0 2.86719,7.33593 2.04688,7.78515 -0.82032,0.44531 -2.04688,-7.78515 -2.04688,-7.78515"
               style="fill:#45ab33;fill-opacity:1;fill-rule:nonzero;stroke:none" />
          </g>
        </g>
      </g>
    </g>
    <g
       transform="matrix(0.3527778,0,0,0.3527778,107.21166,-69.023556)"
       id="g20358">
      <g
         id="g20317">
        <path
           id="path2712"
           d="m 401.72266,441.25 c 0,1.41406 -11.92188,2.5625 -26.875,2.5625 -14.95313,0 -31.125,-1.14844 -31.125,-2.5625 0,-1.41406 16.17187,-1.69141 31.125,-1.69141 14.95312,0 26.875,0.27735 26.875,1.69141"
           style="fill:#ebe3d9;fill-opacity:1;fill-rule:nonzero;stroke:none" />
        <path
           id="path2714"
           d="m 368.26562,391.44922 c -0.89843,-0.5586 -7.44921,-5.98047 -6.75781,-10.90625 0.77344,-5.53125 10.1211,-11.10156 11.19141,-11.67578 l 1.86719,4.48047 c -3.53907,1.89062 -9.07032,4.76953 -9.5,7.82031 -0.30469,2.18359 1.6289,5.44922 4.92187,7.7539 z m 0,0"
           style="fill:#fad9ab;fill-opacity:1;fill-rule:nonzero;stroke:none" />
        <path
           id="path2718"
           d="m 389.64062,394.22656 -1.1289,-3.05469 c 4,-2.86718 7.41797,-6.69921 7.88672,-7.82031 -1.00391,-4.00781 -7.8125,-8.77344 -9.83203,-10.17969 l 3.22265,-2.41796 c 0.34375,0.23828 8.32813,5.5625 9.67969,11.66406 0.38672,1.7539 -0.9375,4.48828 -4.66016,7.64062 -2.15234,1.82422 -5.0664,4.10938 -5.16797,4.16797"
           style="fill:#fad9ab;fill-opacity:1;fill-rule:nonzero;stroke:none" />
        <path
           id="path2728"
           d="m 385.05078,434.91016 c 0.66406,-6.69141 2.01953,-29.76563 2.05469,-30.64063 l -5.48047,-1.04297 c -0.008,0.21485 -0.15234,22.55078 0.0156,31.8086 z m 0,0"
           style="fill:#fad9ab;fill-opacity:1;fill-rule:nonzero;stroke:none" />
        <path
           id="path2730"
           d="m 363.1875,422.44141 2.83203,-0.28907 c -0.0273,-0.11328 -1.55078,-10.35156 -3.25781,-14.99218 -0.0625,-0.17579 0.77734,-0.42579 3.53125,-2.125 2.14844,-1.32422 4.60156,-3.1836 4.09765,-3.10938 L 368.85547,398 c -0.10547,0.0391 -2.64063,1.03906 -5.10547,2.55078 -3.94531,2.41797 -5.66016,4.94531 -5.10547,7.50391 0.82422,3.79297 4.51563,14.27343 4.54297,14.38672"
           style="fill:#fad9ab;fill-opacity:1;fill-rule:nonzero;stroke:none" />
        <path
           id="path2740"
           d="m 382.76172,419.32812 c 1.10937,0.21094 2.38672,0.3125 3.50781,0.39063 -0.375,5.43359 -0.87891,13.02734 -1.15625,15.83984 l -3.6875,-0.10547 c -0.0664,-3.67187 -0.004,-11.0625 0,-16.375 0.40234,0.0859 0.93359,0.17188 1.33594,0.25"
           style="fill:#eb6805;fill-opacity:1;fill-rule:nonzero;stroke:none" />
        <path
           id="path2742"
           d="m 363.51172,409.01953 c 1.44922,5.06641 2.48437,13.03125 2.50781,13.13281 l -2.83203,0.28907 c -0.0234,-0.10547 -3.26953,-8.92579 -4.41797,-13.3125 1.48828,0.008 3.25781,-0.0391 4.74219,-0.10938"
           style="fill:#eb6805;fill-opacity:1;fill-rule:nonzero;stroke:none" />
        <path
           id="path2746"
           d="m 366.85937,405.58984 c -2.0625,-1.35937 -3.67578,-2.66797 -5.05468,-3.95312 3.75781,-3.47266 7.5664,-7.04688 8.3125,-7.67578 l 0.42187,0.26953 v -0.004 l 15.98828,0.16797 c 0,0.0273 0.13672,0.41016 0.10938,1.10547 h 0.625 c 0.53906,2.67187 0.8164,10.54687 0.5039,13.80078 -2.57812,0.18359 -4.73046,-0.004 -7.30468,-0.49609 -5.19141,-0.64063 -11.03516,-2.11719 -13.60157,-3.21485"
           style="fill:#4a4f57;fill-opacity:1;fill-rule:nonzero;stroke:none" />
        <path
           id="path2750"
           d="m 369.91406,394.42969 c -0.30859,0.26562 -0.71484,0.61718 -1.19531,1.03125 0.10547,0.043 0.23828,0.0937 0.44531,0.17578 0.54688,0.22265 1.10547,0.41797 1.66406,0.60547 2.16797,0.71484 4.41016,1.34375 6.65625,1.7539 3.21485,0.58203 6.4961,0.84375 9.77735,0.84375 0.13281,0 0.26172,0 0.39062,-0.004 -0.082,-1.10157 -0.18359,-2.07422 -0.29687,-2.81641 -1.51953,0.26172 -3.2461,0.38281 -5.03516,0.38281 -4.4375,0 -9.27734,-0.74218 -12.40625,-1.97265"
           style="fill:#3f454c;fill-opacity:1;fill-rule:nonzero;stroke:none" />
        <path
           id="path2758"
           d="m 368.96094,377.20312 c 1.91015,-1.34765 4.32812,-2.93359 6.05468,-3.85546 l 0.25391,-5.88282 c -3.51953,0.26172 -7.22656,2.72657 -10.07812,5.51563 0.4414,0.45703 3.76953,4.22265 3.76953,4.22265"
           style="fill:#eb6805;fill-opacity:1;fill-rule:nonzero;stroke:none" />
        <path
           id="path2760"
           d="m 383.70312,367.80859 c -0.44531,1.73047 -1.75,2.80469 -3.63281,2.82032 -1.73047,0.0156 -3.40625,-1.45313 -3.3789,-3.17579 -3.8711,-0.21875 -4.58985,2.25391 -4.94532,3.39454 -2.32031,7.46484 -2.32031,20.51953 -2.32031,23.3789 4.52734,1.97656 13.39453,2.82422 18.84766,1.61719 0.0859,-3.48047 1.01172,-25.44531 1.01172,-25.44531 0.33203,-2.10157 -2.8711,-2.1836 -5.58204,-2.58985"
           style="fill:#eb6805;fill-opacity:1;fill-rule:nonzero;stroke:none" />
        <path
           id="path2762"
           d="m 391.50781,378.62891 c -3.65234,-3.29688 -5.86719,-6.78125 -6.03906,-6.99219 l 1.40234,-3.33985 c 3.625,0.78516 4.88672,3.02735 8.35938,6.16407 -0.94922,0.95703 -2.83985,3.14062 -3.72266,4.16797"
           style="fill:#eb6805;fill-opacity:1;fill-rule:nonzero;stroke:none" />
        <path
           id="path2766"
           d="m 352.83594,433.78516 c 0,4.11718 3.33593,7.45312 7.45312,7.45312 4.11719,0 7.45313,-3.33594 7.45313,-7.45312 0,-4.11719 -3.33594,-7.45313 -7.45313,-7.45313 -4.11719,0 -7.45312,3.33594 -7.45312,7.45313"
           style="fill:#e3decc;fill-opacity:1;fill-rule:nonzero;stroke:none" />
        <path
           id="path2772"
           d="m 356.60937,438.0625 c 0.74219,0.57422 1.59375,1.00391 2.42969,1.46094 0.15235,0.082 0.23438,0.25 0.21094,0.41797 -0.0586,0.40234 -0.10938,0.80468 -0.13672,1.20312 -2.03125,-0.16016 -3.30078,-1.05859 -4.47656,-2.5 0.51562,-0.19922 1.02344,-0.40625 1.52344,-0.63281 0.14843,-0.0703 0.32031,-0.0469 0.44921,0.0508"
           style="fill:#4f4c4c;fill-opacity:1;fill-rule:nonzero;stroke:none" />
        <path
           id="path2774"
           d="m 365.80078,429.82812 -0.98437,0.75 c -0.0977,0.0781 -0.23438,0.0859 -0.34375,0.0195 l -2.58985,-1.58985 c -0.0859,-0.0547 -0.14062,-0.14844 -0.14453,-0.25 l -0.0469,-1.36719 c -0.008,-0.1875 0.16406,-0.33984 0.35156,-0.30859 l 2.02344,0.32422 c 0.0742,0.0117 0.13671,0.0469 0.18359,0.10547 l 1.59766,1.875 c 0.11328,0.13281 0.0898,0.33203 -0.0469,0.4414"
           style="fill:#4f4c4c;fill-opacity:1;fill-rule:nonzero;stroke:none" />
        <path
           id="path2776"
           d="m 364.48828,433.92187 -2.28906,1.22266 c -0.11328,0.0586 -0.1875,0.17578 -0.19141,0.30469 L 361.9375,438 c -0.004,0.17969 0.12891,0.33594 0.30859,0.36328 l 2.16797,0.30469 c 0.14453,0.0195 0.28516,-0.0508 0.35938,-0.17188 l 1.48828,-2.52343 c 0.0781,-0.12891 0.0625,-0.29297 -0.0352,-0.41016 l -1.29687,-1.55469 c -0.10547,-0.1289 -0.29297,-0.16406 -0.44141,-0.0859"
           style="fill:#4f4c4c;fill-opacity:1;fill-rule:nonzero;stroke:none" />
        <path
           id="path2778"
           d="m 358.96484,430.39844 -2.38672,-0.55078 c -0.14843,-0.0352 -0.30078,0.0273 -0.38281,0.15625 l -1.51172,2.35937 c -0.0781,0.125 -0.0742,0.28125 0.008,0.40234 l 1.46484,2.08594 c 0.10156,0.14453 0.28906,0.19531 0.44922,0.1211 l 2.48437,-1.16407 c 0.12891,-0.0625 0.21094,-0.1914 0.20703,-0.33593 l -0.0547,-2.72657 c 0,-0.16797 -0.11719,-0.30859 -0.27735,-0.34765"
           style="fill:#4f4c4c;fill-opacity:1;fill-rule:nonzero;stroke:none" />
        <path
           id="path2780"
           d="m 365.99219,421.9375 c -1.79688,0.10547 -2.78907,-0.53516 -3.17188,-0.85938 -0.125,-0.10937 -0.30859,-0.12109 -0.45312,-0.0351 -1.04297,0.61328 -3.32813,2.26562 -6.40625,1.43359 -0.73828,-0.19922 -2.38672,-0.53906 -2.73047,0.60156 l -0.15625,0.50782 c -0.11328,0.39062 0.0234,0.8125 0.34375,1.03906 0.85547,0.59375 2.65625,1.66016 4.82812,1.83984 1.79688,0.14844 2.70313,0.53907 3.07813,0.75782 0.18359,0.10546 0.375,0.1914 0.58203,0.25 l 2.80078,0.77734 c 0.23438,0.0664 0.47656,-0.0586 0.57031,-0.28906 0.48438,-1.20313 1.53516,-5.10938 0.71485,-6.02344"
           style="fill:#d4cfc7;fill-opacity:1;fill-rule:nonzero;stroke:none" />
        <path
           id="path2782"
           d="m 362.15625,422.70703 c -0.0195,-0.23437 -0.35547,-0.97656 -0.48828,-1.23437 -1.47656,0.39453 -2.87891,0.8164 -4.71094,1.18359 0.1875,0.96875 0.66406,1.56641 1.71094,1.67969 0.80469,0.082 1.60937,-0.0899 2.36328,-0.39453 0.46875,-0.1875 1.1875,-0.54297 1.125,-1.23438"
           style="fill:#4a4545;fill-opacity:1;fill-rule:nonzero;stroke:none" />
        <path
           id="path2784"
           d="m 352.83594,424.85156 c 0,0 0.0625,-0.73047 0.24218,-1.26562 l 0.0508,-0.17188 c 1.51562,1.34766 6.32812,2.84375 8.08593,3.17969 1.28907,0.25 2.51563,0.51562 3.78125,0.64062 0.17578,0.0352 0.34766,0.0664 0.51953,0.0977 -0.0859,0.24219 -0.17187,0.46094 -0.23828,0.62891 -0.0937,0.23047 -0.7539,0.84765 -0.7539,0.84765 -0.11328,0.125 -0.28516,0.17188 -0.44532,0.12891 l -0.69531,-0.19531 c -0.21875,-0.0625 -0.36328,-0.28125 -0.33984,-0.51953 l 0.0195,-0.22657 c -0.51953,-0.11718 -1.125,-0.25781 -1.77344,-0.41797 l -0.15234,0.24219 c -0.10547,0.17188 -0.30469,0.25391 -0.4961,0.20313 l -0.70703,-0.1836 c -0.18359,-0.0469 -0.32422,-0.21093 -0.34765,-0.41015 l -0.0352,-0.30469 c -0.66406,-0.18359 -1.33594,-0.38281 -1.98828,-0.59375 l -0.25,0.32812 c -0.125,0.15625 -0.32813,0.21875 -0.51172,0.15235 l -0.77344,-0.28516 c -0.16406,-0.0586 -0.28125,-0.20703 -0.30859,-0.38672 l -0.0703,-0.5 c -0.4961,-0.20312 -0.94532,-0.41015 -1.33594,-0.625 -0.0352,0.0234 -0.0664,0.0469 -0.0937,0.0781 l -0.24609,0.26562 c -0.16016,0.17188 -0.41407,0.19532 -0.60157,0.0547 l -0.35156,-0.26953 c -0.14844,-0.11328 -0.21875,-0.30469 -0.18359,-0.49219"
           style="fill:#4a4545;fill-opacity:1;fill-rule:nonzero;stroke:none" />
        <path
           id="path2786"
           d="m 380.07031,441.39844 c 0.2461,0 -0.48828,-2.26172 1.35547,-6.07032 l 3.73047,0.12891 c 0,0 1.67969,3.00781 1.51562,5.94141 z m 0,0"
           style="fill:#bdbdb0;fill-opacity:1;fill-rule:nonzero;stroke:none" />
        <path
           id="path2788"
           d="m 381.55859,439.30469 c 0,0 -1.32422,-2.71875 1.50782,-2.83594 2.82812,-0.11719 2.2539,2.83594 2.2539,2.83594 z m 0,0"
           style="fill:#4a4545;fill-opacity:1;fill-rule:nonzero;stroke:none" />
        <path
           id="path2790"
           d="m 389.76953,391 c 0,0 -2.02344,-2.11328 -2.59766,-2.33984 -0.57031,-0.22657 -0.72265,-0.21875 -0.72265,-0.21875 0,0 -0.95703,-1.91407 -1.65625,-2.13672 -0.69922,-0.21875 -2.83203,1.0664 -2.61328,1.73047 0.12109,0.3789 0.74609,0.16796 1.26562,-0.10938 0.52344,-0.28125 0.79297,-0.26953 1.0586,-0.10547 0.26171,0.16406 0.1914,0.21094 0.1914,0.21094 0,0 -0.46484,-0.20313 -0.67969,0.12109 -0.75781,1.16016 -2.41406,2.32422 -2.60546,2.53907 -0.34766,0.40234 0.27343,1.19531 1.08984,0.76562 0.24609,-0.12891 2.04297,-1.90625 2.04297,-1.90625 0,0 -2.17969,2.40234 -2.21875,2.55469 -0.1211,0.5039 0.59765,0.59765 1.04297,0.45312 0.5039,-0.16406 1.0664,-1.03125 1.91406,-1.58203 0.40234,-0.26562 0.96484,-0.46484 0.96484,-0.46484 0,0 -2.1914,1.5664 -2.19922,1.89453 -0.0117,0.32812 0.6836,0.80469 1.35938,0.37109 0.38672,-0.25 1.07812,-0.73437 1.23437,-0.6914 0.15235,0.043 0.63282,1.63672 0.88672,2.10547 0.25,0.47265 1.20703,0.73437 1.77735,0.34765 0.5664,-0.38281 1.32422,-1.07812 1.32422,-1.07812 z m 0,0"
           style="fill:#fad9ab;fill-opacity:1;fill-rule:nonzero;stroke:none" />
        <path
           id="path2792"
           d="m 380.27734,441.39844 c 0,0 -0.53125,-2.5625 3.03125,-2.86328 3.23047,-0.26954 3.21875,2.86328 3.21875,2.86328 z m 0,0"
           style="fill:#d4cfc7;fill-opacity:1;fill-rule:nonzero;stroke:none" />
        <path
           id="path2794"
           d="m 367.49219,390.59766 c 0,0 1.82422,-3.53516 2.28515,-3.76954 0.3711,-0.1914 0.57032,-0.125 0.69532,-0.52734 0.082,-0.26953 0.34765,-0.45703 0.57031,-0.61328 0.76562,-0.51953 1.75,-0.60156 2.58984,-0.99609 0.15625,-0.0742 0.31641,-0.16407 0.49219,-0.15625 0.17969,0.004 0.34766,0.11328 0.42578,0.27734 0.0742,0.16016 0.0547,0.36328 -0.0547,0.50391 -0.24609,0.3164 -0.85547,0.58593 -1.21875,0.74609 -0.24218,0.10937 -0.64453,0.37891 -0.96875,0.51172 l 0.125,0.1875 c 0.17969,0.21094 0.74219,0.76953 0.94532,0.99609 0.3125,0.34766 0.72265,0.66406 0.98828,1.04688 0.27734,0.39453 -0.23047,1.19531 -0.87891,0.77343 -0.19531,-0.1289 -1.61719,-1.88671 -1.61719,-1.88671 0,0 1.72266,2.3789 1.75,2.53125 0.0977,0.5039 -0.48047,0.60546 -0.83984,0.46484 -0.39844,-0.16016 -0.83984,-1.01953 -1.51563,-1.5625 -0.3164,-0.26172 -0.76562,-0.45313 -0.76562,-0.45313 0,0 1.73828,1.54297 1.74219,1.8711 0.004,0.32422 -0.5586,0.8125 -1.09375,0.38281 -0.30469,-0.24609 -0.85547,-0.72266 -0.98047,-0.67969 -0.0391,0.0156 -0.11719,0.20703 -0.20703,0.47266 -0.26563,0.79687 -1.23828,1.08984 -1.90625,0.58594 L 367.75,391.07031 Z m 0,0"
           style="fill:#fad9ab;fill-opacity:1;fill-rule:nonzero;stroke:none" />
        <path
           id="path2796"
           d="m 386.51953,441.89844 h -6.29297 c -0.26562,0 -0.48437,-0.21485 -0.48437,-0.48047 v -0.3086 c 0,-0.26562 0.21875,-0.48046 0.48437,-0.48046 h 6.29297 c 0.26563,0 0.48047,0.21484 0.48047,0.48046 v 0.3086 c 0,0.26562 -0.21484,0.48047 -0.48047,0.48047"
           style="fill:#4a4545;fill-opacity:1;fill-rule:nonzero;stroke:none" />
        <path
           id="path2798"
           d="m 376.96484,381.75781 c 0.36328,0.26172 0.80078,0.40235 1.3125,0.42578 1.14063,0.0547 1.75782,-0.66015 1.85157,-2.14062 l -0.0274,-0.0117 c -0.33203,0.46094 -0.82422,0.67969 -1.46875,0.64844 -0.58594,-0.0274 -1.0625,-0.25782 -1.41797,-0.6875 -0.35937,-0.42969 -0.52734,-0.95703 -0.49609,-1.58203 0.0352,-0.73438 0.28906,-1.32422 0.76562,-1.76172 0.48047,-0.4375 1.08594,-0.63672 1.81641,-0.60157 0.76172,0.0352 1.34766,0.35157 1.75781,0.95313 0.40625,0.60156 0.58594,1.42187 0.53516,2.46094 -0.0586,1.23437 -0.36719,2.19922 -0.92188,2.89062 -0.55859,0.69141 -1.33203,1.01563 -2.3164,0.96875 -0.55469,-0.0273 -1.03906,-0.13672 -1.44922,-0.33594 z m 1.20703,-3.41406 c -0.0195,0.375 0.0586,0.67187 0.22657,0.89453 0.17187,0.22266 0.41406,0.33984 0.72656,0.35156 0.28125,0.0156 0.51562,-0.0742 0.70703,-0.26953 0.1875,-0.19531 0.29297,-0.44531 0.30469,-0.74609 0.0156,-0.35938 -0.0586,-0.67969 -0.22656,-0.96094 -0.16797,-0.27734 -0.40235,-0.42578 -0.70704,-0.44141 -0.29687,-0.0117 -0.53515,0.0937 -0.72656,0.32032 -0.1875,0.22656 -0.28906,0.50781 -0.30469,0.85156"
           style="fill:#e3f0ee;fill-opacity:1;fill-rule:nonzero;stroke:none" />
        <path
           id="path2800"
           d="m 380.35937,362.84766 c 1.01563,0 2.40235,0.46875 3.05469,1.78906 0.41797,0.85156 0.57813,1.6289 0.60156,2.44531 0.0234,0.82813 -0.11328,4.33203 -4.125,4.42188 -4.00781,0.0898 -3.92578,-3.41016 -3.84765,-4.24219 0.0781,-0.82031 0.27734,-1.69531 0.76172,-2.47656 0.8125,-1.32032 2.15234,-1.88672 3.17187,-1.92969 z m 0,0"
           style="fill:#fad9ab;fill-opacity:1;fill-rule:nonzero;stroke:none" />
        <path
           id="path2802"
           d="m 375.01562,365.98047 c 3.61719,4.97656 6.92579,4.97656 9.92579,0 z m 0,0"
           style="fill:#fac278;fill-opacity:1;fill-rule:nonzero;stroke:none" />
        <path
           id="path2808"
           d="m 372.56641,363.55859 c 0.76562,0.64063 0.50781,1.86719 -0.16797,3.03516 -0.36328,0.62109 -0.89063,1.16406 -1.08594,1.85547 -0.19922,0.69531 0.19531,1.48047 0.96875,1.92969 0.14062,0.082 0.23828,0.5664 0.39844,0.58984 0.5039,0.0859 0.69922,1.19141 0.57812,1.6875 -0.12109,0.49609 -0.21094,0.37109 -0.3789,0.85547 -0.16407,0.48437 -0.15235,0.93359 0.30859,1.14844 0.41797,0.19531 0.75781,0.23437 1.17969,0.40625 0.38672,0.39062 -0.10157,1.0039 -0.52344,1.35156 -0.42578,0.34375 -0.80078,1.08594 -0.31641,1.34375 0.12891,0.0703 0.28125,0.0703 0.42969,0.0664 0.30469,0 0.60938,-0.004 0.91797,-0.008 0.21094,-0.004 0.44141,-0.0156 0.60156,-0.15625 0.38672,-0.35156 -0.0937,-0.96484 -0.55078,-1.22265 -0.45703,-0.25391 -1.02344,-0.71875 -0.77344,-1.17579 0.125,-0.22656 0.4961,-0.21093 0.63672,-0.42578 0.21485,-0.33203 0.35938,-0.69531 0.19922,-1.36328 -0.17578,-0.73437 -0.98828,0.10547 -1.39453,-2.34375 -0.10156,-0.61328 0.28516,-1.19531 0.76953,-1.58203 0.48828,-0.39062 1.06641,-0.69531 1.38672,-1.23047 0.49219,-0.80859 0.21875,-1.875 -0.27344,-2.68359 -0.49609,-0.80469 -1.1875,-1.48438 -1.60937,-2.33203 -0.3086,-0.6211 -0.46485,-1.31641 -0.44141,-2.01172 0.004,-0.15625 0.008,-0.33594 -0.11328,-0.4336 -0.18359,-0.15234 -0.44922,0.0156 -0.61719,0.1836 -0.38672,0.36719 0.47656,-2.13281 -0.77344,-0.61719 -1.25,1.51563 -0.12109,2.49609 0.64454,3.13281"
           style="fill:#541e0c;fill-opacity:1;fill-rule:nonzero;stroke:none" />
        <path
           id="path2812"
           d="m 380.45312,367.92969 c 1.95704,-0.0508 4.65625,-1.16016 5.99219,-4.10547 0.85938,-1.90235 1.21094,-3.625 1.3086,-5.42969 0.10156,-1.82812 0.0469,-9.55469 -7.66797,-9.55469 -7.71485,0 -7.76953,7.72657 -7.67188,9.55469 0.0977,1.80469 0.4336,3.72266 1.3125,5.42969 1.48047,2.87109 4.03516,4.05469 5.99219,4.10547 z m 0,0"
           style="fill:#fad9ab;fill-opacity:1;fill-rule:nonzero;stroke:none" />
        <path
           id="path2814"
           d="m 375.25391,375.57812 c 0,0.41797 -0.39063,0.75782 -0.8711,0.75782 -0.48047,0 -0.86719,-0.33985 -0.86719,-0.75782 0,-0.42187 0.38672,-0.76171 0.86719,-0.76171 0.48047,0 0.8711,0.33984 0.8711,0.76171"
           style="fill:#b80063;fill-opacity:1;fill-rule:nonzero;stroke:none" />
        <path
           id="path2816"
           d="m 373.96484,370.27344 c 0,0.35937 0.29297,0.64843 0.57813,0.86718 0.16015,0.1211 0.32812,0.25 0.40625,0.4336 0.0469,0.12109 0.0508,0.2539 0.0391,0.38672 -0.0352,0.46875 -0.24609,0.92578 -0.57812,1.26172 l -1.35157,-1.47657 z m 0,0"
           style="fill:#541e0c;fill-opacity:1;fill-rule:nonzero;stroke:none" />
        <path
           id="path2820"
           d="m 380.10547,349.36719 c -0.11719,1.34375 -0.44922,2.92968 -0.36719,3.6289 0.0781,0.69922 1.42578,1.73047 2.10938,1.97657 1.125,0.40234 2.07031,-0.0937 2.78515,0.51171 0.94141,0.80469 0.88281,1.61719 1.33203,2.42188 0.44922,0.80078 0.85547,0.95312 1.19141,1.47266 0.36328,0.5625 0.31641,0.93359 0.14844,1.84765 0.70312,0.14453 1.79687,-0.60547 2.20703,-1.1914 0.40625,-0.58985 0.47656,-1.37891 0.24219,-2.05469 -0.17579,-0.51172 -0.51563,-0.98047 -0.51954,-1.51953 -0.008,-0.49219 0.26954,-0.94532 0.34766,-1.4336 0.11328,-0.71093 -0.24219,-1.47265 -0.85937,-1.84765 -0.62891,-0.375 -1.57813,-0.49219 -1.72657,-1.20703 -0.11328,-0.56641 0.3711,-1.73829 -0.71875,-2.91016 -0.60547,-0.65625 -1.58984,-0.91797 -2.1914,-0.75391 -1.05469,0.28516 -0.84375,-0.44531 -2.36328,-0.32422 -0.51954,0.043 -1.54297,0.5625 -1.61719,1.38282"
           style="fill:#541e0c;fill-opacity:1;fill-rule:nonzero;stroke:none" />
        <path
           id="path2822"
           d="m 380.07422,349.36719 c 0.11719,1.34375 0.44922,2.92968 0.36719,3.6289 -0.082,0.69922 -1.4336,1.71094 -2.10938,1.97657 -1.03906,0.40234 -2.07031,-0.0937 -2.78516,0.51171 -0.9414,0.80469 -0.88281,1.61719 -1.33203,2.42188 -0.44922,0.80078 -0.85547,0.95312 -1.1914,1.47266 -0.36328,0.5625 -0.32032,0.93359 -0.14844,1.84765 -0.70313,0.14453 -1.79688,-0.60547 -2.20703,-1.1914 -0.41016,-0.58985 -0.47656,-1.37891 -0.24219,-2.05469 0.17578,-0.51172 0.51172,-0.98047 0.51953,-1.51953 0.004,-0.49219 -0.26953,-0.94532 -0.34765,-1.4336 -0.11329,-0.71093 0.24218,-1.47265 0.85937,-1.84765 0.625,-0.375 1.57813,-0.49219 1.72656,-1.20703 0.11328,-0.56641 -0.37109,-1.73829 0.71485,-2.91016 0.60937,-0.65625 1.59375,-0.91797 2.1914,-0.75391 1.05469,0.28516 0.84375,-0.44531 2.36719,-0.32422 0.51953,0.043 1.54297,0.5625 1.61719,1.38282"
           style="fill:#541e0c;fill-opacity:1;fill-rule:nonzero;stroke:none" />
        <path
           id="path2824"
           d="m 378.32422,348.23047 c 0,0.71094 0.79297,1.28515 1.77344,1.28515 0.98046,0 1.77343,-0.57421 1.77343,-1.28515 0,-0.70703 -0.79297,-1.28516 -1.77343,-1.28516 -0.98047,0 -1.77344,0.57813 -1.77344,1.28516"
           style="fill:#541e0c;fill-opacity:1;fill-rule:nonzero;stroke:none" />
      </g>
      <path
         style="fill:#541e0c;fill-opacity:1;fill-rule:nonzero;stroke:none"
         d="m 374.36719,365.11328 c 0.30078,0.42969 0.59765,0.87891 0.74218,1.38672 0.14454,0.50391 0.1211,1.08594 -0.18359,1.51562 -0.28516,0.40235 -0.82422,0.78907 -0.64453,1.25 0.0586,0.14844 -0.008,-0.5039 0.10156,-0.38281 0.53125,0.58594 0.1211,1.69141 -0.36328,2.31641 -0.17969,0.23047 0.22266,1.03906 0.0508,1.27734 -0.25781,0.35547 -0.35156,0.82813 -0.24609,1.25 -0.11328,0.19141 -0.42188,0.17969 -0.57031,0.0156 -0.14844,-0.16016 -0.16407,-0.41407 -0.10157,-0.625 0.0391,-0.13672 0.10157,-0.28516 0.043,-0.41016 -0.0586,-0.12109 -0.19922,-0.16406 -0.32031,-0.22266 -0.42188,-0.19531 -0.68359,-0.65234 -0.73438,-1.11328 -0.0508,-0.46484 0.0859,-0.92968 0.29688,-1.34375 0.22266,-0.44922 0.54297,-0.96875 0.30469,-1.41406 -0.10547,-0.19922 0.0391,-1.24219 -0.12891,-1.39844 -0.77734,-0.71484 -0.78516,-2.10547 -0.0195,-2.83203 0.26172,-0.24609 0.58984,-0.41797 0.84375,-0.67187 0.48828,-0.48047 0.31641,-0.33985 0.0781,-0.98438 z m 0,0"
         id="path2810" />
      <path
         style="fill:#541e0c;fill-opacity:1;fill-rule:nonzero;stroke:none"
         d="m 374.89844,377.49219 c 0,0.39453 -0.23047,0.71875 -0.51563,0.71875 -0.28515,0 -0.51562,-0.32422 -0.51562,-0.71875 0,-0.39453 0.23047,-0.71485 0.51562,-0.71485 0.28516,0 0.51563,0.32032 0.51563,0.71485"
         id="path2818" />
    </g>
    <g
       transform="matrix(0.3527778,0,0,0.3527778,107.21166,-69.023556)"
       id="g20214">
      <g
         style="fill:#42175c;fill-opacity:1"
         id="g2876">
        <g
           transform="translate(239.22771,358.0502)"
           id="use2870">
          <path
             id="path20194"
             d="m 0.796875,0 v -6.5625 h 1.875 c 1.113281,0 1.96875,0.273437 2.5625,0.8125 0.59375,0.53125 0.890625,1.292969 0.890625,2.28125 0,0.59375 -0.085937,1.109375 -0.25,1.546875 C 5.707031,-1.484375 5.472656,-1.125 5.171875,-0.84375 4.878906,-0.5625 4.515625,-0.347656 4.078125,-0.203125 3.648438,-0.0664063 3.164063,0 2.625,0 Z m 1.1875,-0.984375 H 2.6875 c 0.320313,0 0.617188,-0.046875 0.890625,-0.140625 0.269531,-0.09375 0.5,-0.234375 0.6875,-0.421875 0.1875,-0.195313 0.332031,-0.445313 0.4375,-0.75 0.101563,-0.3125 0.15625,-0.679688 0.15625,-1.109375 C 4.859375,-4.125 4.65625,-4.660156 4.25,-5.015625 3.851563,-5.378906 3.300781,-5.5625 2.59375,-5.5625 H 1.984375 Z m 0,0"
             style="stroke:none" />
        </g>
        <g
           transform="translate(245.7677,358.0502)"
           id="use2872">
          <path
             id="path20198"
             d="m 3.203125,0 h -1.21875 v -5.5625 h -1.8125 v -1 h 4.84375 v 1 h -1.8125 z m 0,0"
             style="stroke:none" />
        </g>
        <g
           transform="translate(250.9577,358.0502)"
           id="use2874">
          <path
             id="path20202"
             d="m 1.984375,0 h -1.1875 V -6.5625 H 2.84375 c 0.375,0 0.703125,0.054687 0.984375,0.15625 C 4.109375,-6.3125 4.34375,-6.175781 4.53125,-6 c 0.195313,0.179687 0.34375,0.390625 0.4375,0.640625 0.101563,0.242187 0.15625,0.511719 0.15625,0.8125 0,0.355469 -0.058594,0.671875 -0.171875,0.953125 -0.117187,0.273437 -0.277344,0.507812 -0.484375,0.703125 -0.210937,0.1875 -0.464844,0.335937 -0.765625,0.4375 -0.292969,0.105469 -0.625,0.15625 -1,0.15625 -0.125,0 -0.246094,0 -0.359375,0 C 2.226563,-2.304688 2.109375,-2.320313 1.984375,-2.34375 Z m 0,-3.296875 c 0.101563,0.011719 0.195313,0.023437 0.28125,0.03125 0.09375,0 0.191406,0 0.296875,0 0.414063,0 0.738281,-0.097656 0.96875,-0.296875 C 3.757813,-3.769531 3.875,-4.066406 3.875,-4.453125 3.875,-5.210938 3.472656,-5.59375 2.671875,-5.59375 h -0.6875 z m 0,0"
             style="stroke:none" />
        </g>
      </g>
      <path
         style="fill:none;stroke:#42175c;stroke-width:0.5;stroke-linecap:butt;stroke-linejoin:miter;stroke-miterlimit:4;stroke-opacity:1"
         d="M -4.3125e-4,0.0018875 H 27.323788 V 17.107356 H -4.3125e-4 Z m 0,0"
         transform="matrix(1,0,0,-1,234.7309,362.9472)"
         id="path2878" />
    </g>
    <g
       transform="matrix(0.3527778,0,0,0.3527778,107.21166,-69.023556)"
       id="g20221">
      <g
         id="g20800">
        <g
           id="g2886"
           style="fill:#b80063;fill-opacity:1">
          <g
             transform="translate(238.69839,381.05069)"
             id="use2880">
            <path
               id="path20780"
               d="M 0.796875,0 V -6.5625 H 2.59375 c 0.425781,0 0.789063,0.042969 1.09375,0.125 0.3125,0.074219 0.5625,0.183594 0.75,0.328125 0.195313,0.136719 0.34375,0.304687 0.4375,0.5 0.09375,0.1875 0.140625,0.398437 0.140625,0.625 0,0.40625 -0.085937,0.734375 -0.25,0.984375 C 4.609375,-3.75 4.375,-3.566406 4.0625,-3.453125 V -3.4375 c 0.8125,0.210937 1.21875,0.699219 1.21875,1.46875 0,0.625 -0.210937,1.109375 -0.625,1.453125 C 4.25,-0.171875 3.628906,0 2.796875,0 Z m 1.1875,-2.90625 v 1.953125 H 2.75 c 0.40625,0 0.71875,-0.082031 0.9375,-0.25 0.21875,-0.164063 0.328125,-0.414063 0.328125,-0.75 0,-0.300781 -0.121094,-0.535156 -0.359375,-0.703125 -0.230469,-0.164063 -0.621094,-0.25 -1.171875,-0.25 z m 0,-2.6875 v 1.796875 h 0.53125 c 0.414063,0 0.722656,-0.070313 0.921875,-0.21875 C 3.644531,-4.171875 3.75,-4.414063 3.75,-4.75 3.75,-5.039063 3.65625,-5.253906 3.46875,-5.390625 3.28125,-5.523438 2.972656,-5.59375 2.546875,-5.59375 Z m 0,0"
               style="stroke:none" />
          </g>
          <g
             transform="translate(244.3884,381.05069)"
             id="use2882">
            <path
               id="path20784"
               d="M 2.0625,-5.328125 1.84375,0 H 0.703125 l 0.28125,-6.5625 h 1.90625 L 4.1875,-2.625 h 0.046875 l 1.3125,-3.9375 h 1.78125 L 7.640625,0 H 6.4375 l -0.25,-5.328125 H 6.125 l -1.3125,4.0625 H 3.46875 l -1.375,-4.0625 z m 0,0"
               style="stroke:none" />
          </g>
          <g
             transform="translate(252.72839,381.05069)"
             id="use2884">
            <path
               id="path20788"
               d="m 1.984375,0 h -1.1875 v -6.5625 h 1.90625 c 0.820313,0 1.4375,0.171875 1.84375,0.515625 0.40625,0.335937 0.609375,0.773437 0.609375,1.3125 0,0.449219 -0.109375,0.835937 -0.328125,1.15625 C 4.617188,-3.253906 4.332031,-3.007813 3.96875,-2.84375 L 5.703125,0 H 4.3125 l -1.5,-2.515625 H 1.984375 Z m 0,-3.453125 H 2.71875 c 0.363281,0 0.648438,-0.097656 0.859375,-0.296875 0.21875,-0.195313 0.328125,-0.476563 0.328125,-0.84375 0,-0.332031 -0.101562,-0.582031 -0.296875,-0.75 -0.199219,-0.164063 -0.527344,-0.25 -0.984375,-0.25 H 1.984375 Z m 0,0"
               style="stroke:none" />
          </g>
        </g>
        <path
           id="path2888"
           transform="matrix(1,0,0,-1,237.4257,369.7223)"
           d="M 8.125e-5,-3.5625e-4 -2.835856,-2.836294 V -13.172231 L 8.125e-5,-16.008169 H 22.347737 l 2.832032,2.835938 v 10.335937 l -2.832032,2.83593775 z m 0,0"
           style="fill:none;stroke:#b80063;stroke-width:0.5;stroke-linecap:butt;stroke-linejoin:miter;stroke-miterlimit:4;stroke-opacity:1" />
      </g>
    </g>
    <g
       transform="matrix(0.3527778,0,0,0.3527778,107.21166,-69.023556)"
       id="g20192">
      <path
         style="fill:none;stroke:#0068b3;stroke-width:0.5;stroke-linecap:butt;stroke-linejoin:miter;stroke-miterlimit:4;stroke-opacity:1"
         d="M 7.1875e-4,-4.125e-4 H 172.91478"
         transform="matrix(1,0,0,-1,234.8235,339.1949)"
         id="path2854" />
      <g
         style="fill:#0068b3;fill-opacity:1"
         id="g2868">
        <g
           transform="translate(233.757,331.63559)"
           id="use2856">
          <path
             id="path20154"
             d="m 0.765625,0 v -1.265625 h 0.8125 c 0.820313,0 1.492188,-0.171875 2.015625,-0.515625 C 4.125,-2.132813 4.523438,-2.6875 4.796875,-3.4375 L 4.78125,-3.46875 c -0.25,0.125 -0.496094,0.21875 -0.734375,0.28125 -0.230469,0.054687 -0.511719,0.078125 -0.84375,0.078125 -0.835937,0 -1.507812,-0.242188 -2.015625,-0.734375 -0.5,-0.5 -0.75,-1.210938 -0.75,-2.140625 0,-0.488281 0.078125,-0.9375 0.234375,-1.34375 0.164063,-0.414063 0.394531,-0.769531 0.6875,-1.0625 C 1.648438,-8.679688 1.988281,-8.90625 2.375,-9.0625 c 0.382813,-0.164063 0.796875,-0.25 1.234375,-0.25 0.457031,0 0.875,0.085937 1.25,0.25 0.382813,0.15625 0.710938,0.398437 0.984375,0.71875 0.28125,0.3125 0.492188,0.710937 0.640625,1.1875 0.15625,0.480469 0.234375,1.042969 0.234375,1.6875 0,1.011719 -0.132812,1.867187 -0.390625,2.5625 -0.261719,0.699219 -0.625,1.261719 -1.09375,1.6875 -0.460937,0.429687 -1,0.742187 -1.625,0.9375 C 2.984375,-0.09375 2.300781,0 1.5625,0 Z M 4.90625,-4.625 c 0.00781,-0.15625 0.019531,-0.316406 0.03125,-0.484375 0.00781,-0.164063 0.015625,-0.347656 0.015625,-0.546875 0,-0.457031 -0.042969,-0.835938 -0.125,-1.140625 -0.074219,-0.3125 -0.179687,-0.5625 -0.3125,-0.75 -0.125,-0.1875 -0.277344,-0.320313 -0.453125,-0.40625 -0.179687,-0.082031 -0.371094,-0.125 -0.578125,-0.125 -0.398437,0 -0.710937,0.148437 -0.9375,0.4375 -0.230469,0.292969 -0.34375,0.761719 -0.34375,1.40625 0,0.625 0.128906,1.085937 0.390625,1.375 0.269531,0.28125 0.617188,0.421875 1.046875,0.421875 0.25,0 0.476563,-0.015625 0.6875,-0.046875 C 4.535156,-4.515625 4.726563,-4.5625 4.90625,-4.625 Z m 0,0"
             style="stroke:none" />
        </g>
        <g
           transform="translate(240.939,331.63559)"
           id="use2858">
          <path
             id="path20158"
             d=""
             style="stroke:none" />
        </g>
        <g
           transform="translate(243.235,331.63559)"
           id="use2860">
          <path
             id="path20162"
             d="m 2.484375,0 c 0,0.4375 -0.070312,0.816406 -0.203125,1.140625 C 2.15625,1.460938 1.976563,1.734375 1.75,1.953125 1.519531,2.171875 1.25,2.34375 0.9375,2.46875 0.632813,2.59375 0.3125,2.679688 -0.03125,2.734375 L -0.171875,1.46875 C 0.191406,1.375 0.457031,1.210938 0.625,0.984375 0.800781,0.753906 0.890625,0.4375 0.890625,0.03125 v -6.921875 l 1.59375,-0.0625 z M 0.75,-8.890625 c 0,-0.238281 0.078125,-0.445313 0.234375,-0.625 0.164063,-0.1875 0.398438,-0.28125 0.703125,-0.28125 0.289063,0 0.519531,0.085937 0.6875,0.25 0.164063,0.167969 0.25,0.386719 0.25,0.65625 0,0.242187 -0.085937,0.449219 -0.25,0.625 C 2.207031,-8.085938 1.976563,-8 1.6875,-8 1.382813,-8 1.148438,-8.078125 0.984375,-8.234375 0.828125,-8.398438 0.75,-8.617188 0.75,-8.890625 Z m 0,0"
             style="stroke:none" />
        </g>
        <g
           transform="translate(246.60899,331.63559)"
           id="use2862">
          <path
             id="path20166"
             d="M 6.015625,0 H 4.53125 v -0.453125 c -0.28125,0.1875 -0.574219,0.324219 -0.875,0.40625 -0.304687,0.0820313 -0.664062,0.125 -1.078125,0.125 C 1.867188,0.078125 1.320313,-0.09375 0.9375,-0.4375 0.5625,-0.789063 0.375,-1.257813 0.375,-1.84375 c 0,-0.320313 0.0625,-0.613281 0.1875,-0.875 0.125,-0.269531 0.316406,-0.5 0.578125,-0.6875 0.257813,-0.195313 0.585938,-0.347656 0.984375,-0.453125 0.394531,-0.101563 0.863281,-0.15625 1.40625,-0.15625 0.175781,0 0.335938,0.00781 0.484375,0.015625 0.15625,0 0.3125,0 0.46875,0 v -0.390625 c 0,-0.382813 -0.121094,-0.675781 -0.359375,-0.875 -0.242187,-0.207031 -0.636719,-0.3125 -1.1875,-0.3125 -0.335937,0 -0.652344,0.03125 -0.953125,0.09375 C 1.679688,-5.421875 1.34375,-5.3125 0.96875,-5.15625 L 0.734375,-6.484375 c 0.4375,-0.1875 0.847656,-0.320313 1.234375,-0.40625 0.394531,-0.082031 0.816406,-0.125 1.265625,-0.125 0.9375,0 1.632813,0.214844 2.09375,0.640625 0.457031,0.417969 0.6875,1.015625 0.6875,1.796875 z M 2,-1.96875 c 0,0.242187 0.085938,0.433594 0.265625,0.578125 0.1875,0.148437 0.441406,0.21875 0.765625,0.21875 0.269531,0 0.515625,-0.023438 0.734375,-0.078125 0.226563,-0.0625 0.46875,-0.160156 0.71875,-0.296875 V -2.84375 C 4.347656,-2.851563 4.195313,-2.859375 4.03125,-2.859375 3.863281,-2.867188 3.707031,-2.875 3.5625,-2.875 3,-2.875 2.597656,-2.789063 2.359375,-2.625 2.117188,-2.457031 2,-2.238281 2,-1.96875 Z m 0,0"
             style="stroke:none" />
        </g>
        <g
           transform="translate(253.41299,331.63559)"
           id="use2864">
          <path
             id="path20170"
             d="M 6.015625,0 H 4.53125 v -0.453125 c -0.28125,0.1875 -0.574219,0.324219 -0.875,0.40625 -0.304687,0.0820313 -0.664062,0.125 -1.078125,0.125 C 1.867188,0.078125 1.320313,-0.09375 0.9375,-0.4375 0.5625,-0.789063 0.375,-1.257813 0.375,-1.84375 c 0,-0.320313 0.0625,-0.613281 0.1875,-0.875 0.125,-0.269531 0.316406,-0.5 0.578125,-0.6875 0.257813,-0.195313 0.585938,-0.347656 0.984375,-0.453125 0.394531,-0.101563 0.863281,-0.15625 1.40625,-0.15625 0.175781,0 0.335938,0.00781 0.484375,0.015625 0.15625,0 0.3125,0 0.46875,0 v -0.390625 c 0,-0.382813 -0.121094,-0.675781 -0.359375,-0.875 -0.242187,-0.207031 -0.636719,-0.3125 -1.1875,-0.3125 -0.335937,0 -0.652344,0.03125 -0.953125,0.09375 C 1.679688,-5.421875 1.34375,-5.3125 0.96875,-5.15625 L 0.734375,-6.484375 c 0.4375,-0.1875 0.847656,-0.320313 1.234375,-0.40625 0.394531,-0.082031 0.816406,-0.125 1.265625,-0.125 0.9375,0 1.632813,0.214844 2.09375,0.640625 0.457031,0.417969 0.6875,1.015625 0.6875,1.796875 z M 2,-1.96875 c 0,0.242187 0.085938,0.433594 0.265625,0.578125 0.1875,0.148437 0.441406,0.21875 0.765625,0.21875 0.269531,0 0.515625,-0.023438 0.734375,-0.078125 0.226563,-0.0625 0.46875,-0.160156 0.71875,-0.296875 V -2.84375 C 4.347656,-2.851563 4.195313,-2.859375 4.03125,-2.859375 3.863281,-2.867188 3.707031,-2.875 3.5625,-2.875 3,-2.875 2.597656,-2.789063 2.359375,-2.625 2.117188,-2.457031 2,-2.238281 2,-1.96875 Z m 0,0"
             style="stroke:none" />
        </g>
        <g
           transform="translate(260.21701,331.63559)"
           id="use2866">
          <path
             id="path20174"
             d="m 4.609375,-5.390625 c -0.15625,-0.039063 -0.292969,-0.066406 -0.40625,-0.078125 -0.105469,-0.00781 -0.230469,-0.015625 -0.375,-0.015625 -0.21875,0 -0.4375,0.039062 -0.65625,0.109375 -0.21875,0.074219 -0.449219,0.203125 -0.6875,0.390625 V 0 h -1.59375 v -6.890625 l 1.578125,-0.0625 v 0.796875 c 0.238281,-0.3125 0.472656,-0.53125 0.703125,-0.65625 0.226563,-0.132813 0.476563,-0.203125 0.75,-0.203125 0.300781,0 0.566406,0.03125 0.796875,0.09375 z m 0,0"
             style="stroke:none" />
        </g>
      </g>
    </g>
  </g>
</svg>
