<?xml version="1.0" encoding="UTF-8" standalone="no"?>
<svg
   xmlns:dc="http://purl.org/dc/elements/1.1/"
   xmlns:cc="http://creativecommons.org/ns#"
   xmlns:rdf="http://www.w3.org/1999/02/22-rdf-syntax-ns#"
   xmlns:svg="http://www.w3.org/2000/svg"
   xmlns="http://www.w3.org/2000/svg"
   id="svg7329"
   version="1.1"
   viewBox="0 0 68.188095 49.041622"
   height="49.041622mm"
   width="68.188095mm">
  <defs
     id="defs7323" />
  <metadata
     id="metadata7326">
    <rdf:RDF>
      <cc:Work
         rdf:about="">
        <dc:format>image/svg+xml</dc:format>
        <dc:type
           rdf:resource="http://purl.org/dc/dcmitype/StillImage" />
        <dc:title></dc:title>
      </cc:Work>
    </rdf:RDF>
  </metadata>
  <g
     transform="translate(-86.858336,-42.002998)"
     id="layer1">
    <path
       id="path1822"
       d="M 86.858336,91.044622 H 155.04643 V 42.002998 H 86.858336 Z m 0,0"
       style="fill:#ffffff;fill-opacity:1;fill-rule:nonzero;stroke:none;stroke-width:0.352777" />
    <path
       id="path1894"
       d="m 136.68996,78.227692 c 0.0937,0.424434 0.94396,0.412031 1.25264,0.06063 0.42857,-0.487824 0.0551,-1.400087 -0.0496,-2.429482 -0.0661,-0.649054 -0.21222,-1.441429 -0.34314,-1.387683 -0.50435,0.203948 -0.70693,0.181899 -1.33945,0.259069"
       style="fill:#eb6805;fill-opacity:1;fill-rule:nonzero;stroke:none;stroke-width:0.352777" />
    <g
       transform="matrix(0.3527778,0,0,0.3527778,78.898787,-12.641731)"
       id="g6882">
      <path
         style="fill:#42175c;fill-opacity:1;fill-rule:nonzero;stroke:none"
         d="m 172.53125,205.92969 v 0.16797 h -1.30469 v -0.16797 c 0,-7.67578 6.2461,-13.92188 13.92188,-13.92188 7.67578,0 13.92187,6.2461 13.92187,13.92188 v 21.5 h -1.30469 v -21.5 c 0,-6.95703 -5.66015,-12.61328 -12.61718,-12.61328 -6.95703,0 -12.61719,5.65625 -12.61719,12.61328"
         id="path1824" />
      <path
         style="fill:#42175c;fill-opacity:1;fill-rule:nonzero;stroke:none"
         d="m 181.78516,210.16797 c -1.88282,-2.08985 -5.73047,-3.5586 -10.0625,-3.5586 -4.33204,0 -8.17969,1.46875 -10.06641,3.5586 h -1.80469 c 1.8125,-2.94141 6.37891,-4.98047 11.8711,-4.98047 5.48828,0 10.05468,2.03906 11.87109,4.98047 z m 0,0"
         id="path1826" />
      <path
         style="fill:#00827a;fill-opacity:1;fill-rule:nonzero;stroke:none"
         d="m 171.72266,212.39453 h 0.4375 v -5.77734 h -0.4375 z m 0,0"
         id="path1828" />
      <path
         style="fill:#00827a;fill-opacity:1;fill-rule:nonzero;stroke:none"
         d="m 182.40234,215.71484 h 0.44141 v -5.77734 h -0.44141 z m 0,0"
         id="path1830" />
      <path
         style="fill:#00827a;fill-opacity:1;fill-rule:nonzero;stroke:none"
         d="m 160.69141,215.71484 h 0.4414 v -5.77734 h -0.4414 z m 0,0"
         id="path1832" />
      <g
         id="g6820">
        <path
           id="path1834"
           d="m 159.51172,216.00391 c 0,0.73437 0.625,1.32812 1.40234,1.32812 0.77344,0 1.40235,-0.59375 1.40235,-1.32812 0,-0.73438 -0.62891,-1.32813 -1.40235,-1.32813 -0.77734,0 -1.40234,0.59375 -1.40234,1.32813"
           style="fill:#e31e17;fill-opacity:1;fill-rule:nonzero;stroke:none" />
        <path
           id="path1836"
           d="m 159.47266,215.11719 c 0,0.32812 0.29296,0.59375 0.65234,0.59375 0.35937,0 0.65234,-0.26563 0.65234,-0.59375 0,-0.32422 -0.29297,-0.58985 -0.65234,-0.58985 -0.35938,0 -0.65234,0.26563 -0.65234,0.58985"
           style="fill:#e31e17;fill-opacity:1;fill-rule:nonzero;stroke:none" />
        <path
           id="path1838"
           d="m 161.05078,215.11719 c 0,0.32812 0.29297,0.59375 0.65234,0.59375 0.35938,0 0.65235,-0.26563 0.65235,-0.59375 0,-0.32422 -0.29297,-0.58985 -0.65235,-0.58985 -0.35937,0 -0.65234,0.26563 -0.65234,0.58985"
           style="fill:#e31e17;fill-opacity:1;fill-rule:nonzero;stroke:none" />
        <path
           id="path1840"
           d="m 159.42578,218.69922 c 0,1.01953 0.66797,1.84375 1.48828,1.84375 0.82031,0 1.48438,-0.82422 1.48438,-1.84375 0,-1.01563 -0.66407,-1.83985 -1.48438,-1.83985 -0.82031,0 -1.48828,0.82422 -1.48828,1.83985"
           style="fill:#e31e17;fill-opacity:1;fill-rule:nonzero;stroke:none" />
        <path
           id="path1842"
           d="m 158.65625,218.21094 c 0,0.29687 0.26562,0.53515 0.58984,0.53515 0.32422,0 0.58594,-0.23828 0.58594,-0.53515 0,-0.29688 -0.26172,-0.53516 -0.58594,-0.53516 -0.32422,0 -0.58984,0.23828 -0.58984,0.53516"
           style="fill:#e31e17;fill-opacity:1;fill-rule:nonzero;stroke:none" />
        <path
           id="path1844"
           d="m 161.99219,218.21094 c 0,0.29687 0.26562,0.53515 0.58984,0.53515 0.32422,0 0.58594,-0.23828 0.58594,-0.53515 0,-0.29688 -0.26172,-0.53516 -0.58594,-0.53516 -0.32422,0 -0.58984,0.23828 -0.58984,0.53516"
           style="fill:#e31e17;fill-opacity:1;fill-rule:nonzero;stroke:none" />
        <path
           id="path1846"
           d="m 159.10547,220.54297 c 0,0.33984 0.27734,0.61719 0.62109,0.61719 0.33985,0 0.61719,-0.27735 0.61719,-0.61719 0,-0.34375 -0.27734,-0.6211 -0.61719,-0.6211 -0.34375,0 -0.62109,0.27735 -0.62109,0.6211"
           style="fill:#e31e17;fill-opacity:1;fill-rule:nonzero;stroke:none" />
        <path
           id="path1848"
           d="m 161.48047,220.54297 c 0,0.33984 0.27734,0.61719 0.62109,0.61719 0.33985,0 0.61719,-0.27735 0.61719,-0.61719 0,-0.34375 -0.27734,-0.6211 -0.61719,-0.6211 -0.34375,0 -0.62109,0.27735 -0.62109,0.6211"
           style="fill:#e31e17;fill-opacity:1;fill-rule:nonzero;stroke:none" />
      </g>
      <g
         id="g6830">
        <path
           id="path1850"
           d="m 170.53906,213.49219 c 0,0.73437 0.62891,1.32812 1.40235,1.32812 0.77343,0 1.40234,-0.59375 1.40234,-1.32812 0,-0.73047 -0.62891,-1.32813 -1.40234,-1.32813 -0.77344,0 -1.40235,0.59766 -1.40235,1.32813"
           style="fill:#f8ae00;fill-opacity:1;fill-rule:nonzero;stroke:none" />
        <path
           id="path1852"
           d="m 170.5,212.60937 c 0,0.32422 0.29297,0.59375 0.65234,0.59375 0.35938,0 0.65235,-0.26953 0.65235,-0.59375 0,-0.32812 -0.29297,-0.59375 -0.65235,-0.59375 -0.35937,0 -0.65234,0.26563 -0.65234,0.59375"
           style="fill:#f8ae00;fill-opacity:1;fill-rule:nonzero;stroke:none" />
        <path
           id="path1854"
           d="m 172.07812,212.60937 c 0,0.32422 0.29297,0.59375 0.65235,0.59375 0.35937,0 0.65234,-0.26953 0.65234,-0.59375 0,-0.32812 -0.29297,-0.59375 -0.65234,-0.59375 -0.35938,0 -0.65235,0.26563 -0.65235,0.59375"
           style="fill:#f8ae00;fill-opacity:1;fill-rule:nonzero;stroke:none" />
        <path
           id="path1856"
           d="m 170.45703,216.1875 c 0,1.01953 0.66406,1.84375 1.48438,1.84375 0.82031,0 1.48437,-0.82422 1.48437,-1.84375 0,-1.01563 -0.66406,-1.83984 -1.48437,-1.83984 -0.82032,0 -1.48438,0.82421 -1.48438,1.83984"
           style="fill:#f8ae00;fill-opacity:1;fill-rule:nonzero;stroke:none" />
        <path
           id="path1858"
           d="m 169.68359,215.69922 c 0,0.29687 0.26563,0.53515 0.58985,0.53515 0.32422,0 0.58984,-0.23828 0.58984,-0.53515 0,-0.29688 -0.26562,-0.53516 -0.58984,-0.53516 -0.32422,0 -0.58985,0.23828 -0.58985,0.53516"
           style="fill:#f8ae00;fill-opacity:1;fill-rule:nonzero;stroke:none" />
        <path
           id="path1860"
           d="m 173.01953,215.69922 c 0,0.29687 0.26563,0.53515 0.58984,0.53515 0.32422,0 0.58985,-0.23828 0.58985,-0.53515 0,-0.29688 -0.26563,-0.53516 -0.58985,-0.53516 -0.32421,0 -0.58984,0.23828 -0.58984,0.53516"
           style="fill:#f8ae00;fill-opacity:1;fill-rule:nonzero;stroke:none" />
        <path
           id="path1862"
           d="m 170.13281,218.03125 c 0,0.34375 0.27735,0.62109 0.6211,0.62109 0.33984,0 0.61718,-0.27734 0.61718,-0.62109 0,-0.33984 -0.27734,-0.61719 -0.61718,-0.61719 -0.34375,0 -0.6211,0.27735 -0.6211,0.61719"
           style="fill:#f8ae00;fill-opacity:1;fill-rule:nonzero;stroke:none" />
        <path
           id="path1864"
           d="m 172.51172,218.03125 c 0,0.34375 0.27734,0.62109 0.61719,0.62109 0.34375,0 0.62109,-0.27734 0.62109,-0.62109 0,-0.33984 -0.27734,-0.61719 -0.62109,-0.61719 -0.33985,0 -0.61719,0.27735 -0.61719,0.61719"
           style="fill:#f8ae00;fill-opacity:1;fill-rule:nonzero;stroke:none" />
      </g>
      <g
         id="g6840">
        <path
           id="path1866"
           d="m 181.21875,216.00391 c 0,0.73437 0.62891,1.32812 1.40234,1.32812 0.77735,0 1.40625,-0.59375 1.40625,-1.32812 0,-0.73438 -0.6289,-1.32813 -1.40625,-1.32813 -0.77343,0 -1.40234,0.59375 -1.40234,1.32813"
           style="fill:#7dc5b0;fill-opacity:1;fill-rule:nonzero;stroke:none" />
        <path
           id="path1868"
           d="m 181.18359,215.11719 c 0,0.32812 0.28907,0.59375 0.64844,0.59375 0.35938,0 0.65234,-0.26563 0.65234,-0.59375 0,-0.32422 -0.29296,-0.58985 -0.65234,-0.58985 -0.35937,0 -0.64844,0.26563 -0.64844,0.58985"
           style="fill:#7dc5b0;fill-opacity:1;fill-rule:nonzero;stroke:none" />
        <path
           id="path1870"
           d="m 182.76172,215.11719 c 0,0.32812 0.28906,0.59375 0.64844,0.59375 0.35937,0 0.65234,-0.26563 0.65234,-0.59375 0,-0.32422 -0.29297,-0.58985 -0.65234,-0.58985 -0.35938,0 -0.64844,0.26563 -0.64844,0.58985"
           style="fill:#7dc5b0;fill-opacity:1;fill-rule:nonzero;stroke:none" />
        <path
           id="path1872"
           d="m 181.13672,218.69922 c 0,1.01953 0.66406,1.84375 1.48437,1.84375 0.82032,0 1.48828,-0.82422 1.48828,-1.84375 0,-1.01563 -0.66796,-1.83985 -1.48828,-1.83985 -0.82031,0 -1.48437,0.82422 -1.48437,1.83985"
           style="fill:#7dc5b0;fill-opacity:1;fill-rule:nonzero;stroke:none" />
        <path
           id="path1874"
           d="m 180.36719,218.21094 c 0,0.29687 0.26172,0.53515 0.58593,0.53515 0.32813,0 0.58985,-0.23828 0.58985,-0.53515 0,-0.29688 -0.26172,-0.53516 -0.58985,-0.53516 -0.32421,0 -0.58593,0.23828 -0.58593,0.53516"
           style="fill:#7dc5b0;fill-opacity:1;fill-rule:nonzero;stroke:none" />
        <path
           id="path1876"
           d="m 183.70312,218.21094 c 0,0.29687 0.26172,0.53515 0.58594,0.53515 0.32813,0 0.58985,-0.23828 0.58985,-0.53515 0,-0.29688 -0.26172,-0.53516 -0.58985,-0.53516 -0.32422,0 -0.58594,0.23828 -0.58594,0.53516"
           style="fill:#7dc5b0;fill-opacity:1;fill-rule:nonzero;stroke:none" />
        <path
           id="path1878"
           d="m 180.81641,220.54297 c 0,0.33984 0.27734,0.61719 0.61718,0.61719 0.34375,0 0.6211,-0.27735 0.6211,-0.61719 0,-0.34375 -0.27735,-0.6211 -0.6211,-0.6211 -0.33984,0 -0.61718,0.27735 -0.61718,0.6211"
           style="fill:#7dc5b0;fill-opacity:1;fill-rule:nonzero;stroke:none" />
        <path
           id="path1880"
           d="m 183.19141,220.54297 c 0,0.33984 0.27734,0.61719 0.61718,0.61719 0.34375,0 0.6211,-0.27735 0.6211,-0.61719 0,-0.34375 -0.27735,-0.6211 -0.6211,-0.6211 -0.33984,0 -0.61718,0.27735 -0.61718,0.6211"
           style="fill:#7dc5b0;fill-opacity:1;fill-rule:nonzero;stroke:none" />
      </g>
      <path
         style="fill:#ebe3d9;fill-opacity:1;fill-rule:nonzero;stroke:none"
         d="m 201.76172,286.38672 c 0,1.67187 -22.42969,3.03125 -50.10156,3.03125 -27.67188,0 -50.10547,-1.35938 -50.10547,-3.03125 0,-1.67578 22.43359,-2.00391 50.10547,-2.00391 27.67187,0 50.10156,0.32813 50.10156,2.00391"
         id="path1882" />
      <path
         style="fill:#eb6805;fill-opacity:1;fill-rule:nonzero;stroke:none"
         d="m 167.50391,253.3125 c 2.05859,4.30859 -2.22266,7.73047 -3.59766,7.37891 -0.78906,-0.20313 -8.23438,0.0156 -12.97656,1.0664 -2.81641,0.625 -5.70313,-2.27344 -5.49219,-5.37109 0.28125,-4.11719 2.89844,-6.09375 5.94922,-6.78906 3.04687,-0.69141 13.08984,-2.63282 16.11719,3.71484"
         id="path1884" />
      <path
         style="fill:#fad9ab;fill-opacity:1;fill-rule:nonzero;stroke:none"
         d="m 173.37109,262.125 c -5.96093,-0.008 -8.70312,-5.27344 -8.69922,-7.48828 0.004,-2.21485 2.76172,-7.47266 8.72266,-7.46485 4.59766,0.008 8.32031,3.36329 8.31641,7.49219 -0.008,4.12891 -3.74219,7.46875 -8.33985,7.46094"
         id="path1886" />
      <path
         style="fill:#541e0c;fill-opacity:1;fill-rule:nonzero;stroke:none"
         d="m 179.19141,260.00781 c 1.55078,-1.35547 2.51562,-3.25 2.51953,-5.34375 0.004,-2.17187 -1.02344,-4.1289 -2.66797,-5.49609 -0.96094,1.61328 -1.0625,3.6914 -0.25781,5.38281 -0.69922,0.25391 -0.79297,-0.49219 -1.21875,-1.08984 -0.14844,2.90625 -0.56641,5.15625 1.625,6.54687"
         id="path1888" />
      <path
         style="fill:#9ccfe6;fill-opacity:1;fill-rule:nonzero;stroke:none"
         d="m 150.67578,261.54687 c 0.29688,1.72266 -2.52734,8.89844 -6.5,8.71094 -4.94141,-0.23047 -6.44531,-2.1875 -10.78516,-4.51172 -3.57812,-1.91406 -7.15624,-3.82812 -10.73437,-5.74218 -0.42187,-0.22657 -0.28906,1.1289 -1.05469,-0.92188 -0.13281,-0.35937 -0.082,-0.75781 0.0117,-1.12891 0.49219,-1.99218 1.88672,-3.91406 3.91016,-4.42968 0.80078,-0.20313 1.63672,-0.17969 2.46094,-0.14063 3.87499,0.1836 8.23437,0.51953 11.13671,-2.00781 1.16407,-1.01563 1.96485,-2.41406 3.2461,-3.29297 2.14843,-1.47266 5.0664,-1.11328 7.59765,-0.44531 0.7461,0.19922 1.87891,0.375 3.05469,0.51562 1.57031,0.1875 2.24609,0.51953 1.03906,1.8086 -2.85937,3.05859 -3.68359,9.85937 -3.38281,11.58593"
         id="path1890" />
      <path
         style="fill:#fad9ab;fill-opacity:1;fill-rule:nonzero;stroke:none"
         d="m 162.79297,249.00781 c -0.21875,-1.28906 -0.91406,-1.98047 -1.10547,-2.52734 -0.21484,-0.60156 -0.24609,-1.17969 -0.0547,-1.39844 0.29297,-0.32422 0.39453,-0.39062 0.41406,-0.625 0.0664,-0.74219 1.36329,-1.01953 2.00391,-0.98437 0.62109,0.0391 0.95313,0.0508 1.54688,0.36328 0.59765,0.30859 0.96093,2.83984 0.58593,3.73047 -0.28125,0.67968 -0.61328,1.41015 -1.26172,1.73828 -0.60156,0.30078 -1.38671,0.13672 -1.82421,-0.37891 z m 0,0"
         id="path1892" />
      <path
         style="fill:#9ccfe6;fill-opacity:1;fill-rule:nonzero;stroke:none"
         d="m 108.25391,265.44922 h 86.72265 c 0.89844,0 1.625,-0.71485 1.625,-1.59375 v -4.02735 c 0,-0.8789 -0.72656,-1.58984 -1.625,-1.58984 h -86.72265 c -0.89844,0 -1.6211,0.71094 -1.6211,1.58984 v 4.02735 c 0,0.8789 0.72266,1.59375 1.6211,1.59375"
         id="path1896" />
      <path
         style="fill:#541e0c;fill-opacity:1;fill-rule:nonzero;stroke:none"
         d="m 200.07422,212.96875 h -2.875 c -0.33203,0 -0.59766,0.26562 -0.59766,0.58984 v 13.23828 h -89.97265 v -3.1875 c 0,-0.32421 -0.26563,-0.58984 -0.59766,-0.58984 h -2.875 c -0.33203,0 -0.59766,0.26563 -0.59766,0.58984 v 61.90625 c 0,0.32422 0.26563,0.58594 0.59766,0.58594 h 2.875 c 0.33203,0 0.59766,-0.26172 0.59766,-0.58594 v -6.41406 h 89.97265 v 6.41406 c 0,0.32422 0.26563,0.58594 0.59766,0.58594 h 2.875 c 0.33203,0 0.59765,-0.26172 0.59765,-0.58594 v -71.95703 c 0,-0.32422 -0.26562,-0.58984 -0.59765,-0.58984 m -67.66406,18.67187 h 11.77734 v 32.3086 h -11.77734 z m -1.32813,32.3086 h -11.77344 v -32.3086 h 11.77344 z m 14.43359,-32.3086 h 11.77344 v 32.3086 h -11.77344 z m 13.10547,0 h 11.77344 v 32.3086 h -11.77344 z m 13.10157,0 h 11.77343 v 32.3086 h -11.77343 z m -65.09375,0 h 11.34765 v 32.3086 h -11.34765 z m 78.19921,0 h 11.77344 v 32.3086 h -11.77344 z m 0,0"
         id="path1898" />
    </g>
    <g
       transform="matrix(0.3527778,0,0,0.3527778,78.898787,-12.641731)"
       id="g6905">
      <path
         style="fill:none;stroke:#42175c;stroke-width:0.5;stroke-linecap:butt;stroke-linejoin:miter;stroke-miterlimit:4;stroke-opacity:1"
         d="M 9.375e-5,0.0013375 H 76.218844 V 17.106806 H 9.375e-5 Z m 0,0"
         transform="matrix(1,0,0,-1,33.246,208.3529)"
         id="path1900" />
      <path
         style="fill:#42175c;fill-opacity:1;fill-rule:nonzero;stroke:none"
         d="m 39.824219,202.82031 h 0.691406 c 1.316406,0 2.179688,-0.71094 2.179688,-2.42187 0,-1.41797 -0.863282,-2.15625 -2.269532,-2.15625 H 39.824219 Z M 38.625,203.80859 V 197.25 h 1.878906 c 2.21875,0 3.449219,1.10937 3.449219,3.08984 0,2.36719 -1.339844,3.46875 -3.488281,3.46875 z m 0,0"
         id="path1902" />
      <path
         style="fill:#42175c;fill-opacity:1;fill-rule:nonzero;stroke:none"
         d="m 46.363281,197.25 v 2.71875 H 46.90625 L 48.882813,197.25 h 1.378906 l -2.296875,3.08203 2.367187,3.47656 h -1.496093 l -1.902344,-2.85937 h -0.570313 v 2.85937 H 45.164063 V 197.25 Z m 0,0"
         id="path1904" />
      <path
         style="fill:#42175c;fill-opacity:1;fill-rule:nonzero;stroke:none"
         d="M 53.585938,203.80859 H 52.375 v -5.5664 H 50.554688 V 197.25 h 4.847656 v 0.99219 h -1.816406 z m 0,0"
         id="path1906" />
      <path
         style="fill:#42175c;fill-opacity:1;fill-rule:nonzero;stroke:none"
         d="m 57.566406,200.50781 c 0.199219,0.0312 0.367188,0.043 0.566407,0.043 0.820312,0 1.320312,-0.42969 1.320312,-1.19922 0,-0.75 -0.410156,-1.14062 -1.207031,-1.14062 h -0.679688 z m 0,3.30078 H 56.367188 V 197.25 h 2.058593 c 1.46875,0 2.277344,0.8125 2.277344,2.01172 0,1.39844 -0.960937,2.24609 -2.417969,2.24609 -0.269531,0 -0.480468,-0.008 -0.71875,-0.0391 z m 0,0"
         id="path1908" />
      <path
         style="fill:#42175c;fill-opacity:1;fill-rule:nonzero;stroke:none"
         d="m 61.453125,200.42187 h 2.582031 v 1.03907 h -2.582031 z m 0,0"
         id="path1910" />
      <path
         style="fill:#42175c;fill-opacity:1;fill-rule:nonzero;stroke:none"
         d="M 69.261719,200.98047 H 66.625 v 2.82812 H 65.425781 V 197.25 H 66.625 v 2.67969 h 2.636719 V 197.25 h 1.210937 v 6.55859 h -1.210937 z m 0,0"
         id="path1912" />
      <path
         style="fill:#42175c;fill-opacity:1;fill-rule:nonzero;stroke:none"
         d="M 73.035156,203.80859 H 71.90625 v -4.91797 l 1.128906,-0.0508 z m -0.570312,-6.99609 c 0.429687,0 0.671875,0.26953 0.671875,0.64844 0,0.35156 -0.242188,0.64062 -0.671875,0.64062 -0.429688,0 -0.660156,-0.26172 -0.660156,-0.64062 0,-0.34766 0.230468,-0.64844 0.660156,-0.64844"
         id="path1914" />
      <path
         style="fill:#42175c;fill-opacity:1;fill-rule:nonzero;stroke:none"
         d="m 76.34375,199.85156 c -0.328125,0 -0.558594,0.0469 -0.898437,0.1875 v 2.8086 c 0.230468,0.043 0.378906,0.0508 0.597656,0.0508 0.910156,0 1.53125,-0.46875 1.53125,-1.64063 0,-0.97656 -0.480469,-1.40625 -1.230469,-1.40625 m -0.378906,4.01563 c -0.519531,0 -1.019531,-0.0273 -1.648438,-0.10938 v -6.875 l 1.128907,-0.0625 v 2.35938 c 0.378906,-0.23828 0.789062,-0.37891 1.25,-0.37891 1.246093,0 2.039062,0.80859 2.039062,2.36719 0,1.72265 -1.113281,2.69922 -2.769531,2.69922"
         id="path1916" />
      <path
         style="fill:#42175c;fill-opacity:1;fill-rule:nonzero;stroke:none"
         d="m 79.683594,200.42187 h 2.582031 v 1.03907 h -2.582031 z m 0,0"
         id="path1918" />
      <path
         style="fill:#42175c;fill-opacity:1;fill-rule:nonzero;stroke:none"
         d="m 87.492188,200.98047 h -2.636719 v 2.82812 H 83.65625 V 197.25 h 1.199219 v 2.67969 h 2.636719 V 197.25 h 1.210937 v 6.55859 h -1.210937 z m 0,0"
         id="path1920" />
      <path
         style="fill:#42175c;fill-opacity:1;fill-rule:nonzero;stroke:none"
         d="m 92.933594,200.80078 c 0,-0.67969 -0.359375,-1.12109 -0.9375,-1.12109 -0.53125,0 -0.933594,0.39062 -1.03125,1.12109 z m -0.859375,-2.03125 c 1.210937,0 1.960937,0.73047 1.960937,2.01953 0,0.30078 -0.01172,0.6211 -0.03125,0.83985 h -3.058593 c 0.117187,0.8789 0.628906,1.28125 1.519531,1.28125 0.558594,0 0.949219,-0.082 1.4375,-0.24219 v 0.9414 c -0.519531,0.16797 -0.917969,0.25782 -1.578125,0.25782 -1.511719,0 -2.480469,-0.79688 -2.480469,-2.51563 0,-1.6914 1,-2.58203 2.230469,-2.58203"
         id="path1922" />
      <path
         style="fill:#42175c;fill-opacity:1;fill-rule:nonzero;stroke:none"
         d="m 98.261719,201.25781 c 0,-0.96875 -0.46875,-1.40625 -1.21875,-1.40625 -0.347656,0 -0.570313,0.0469 -0.910156,0.1875 v 2.8086 c 0.25,0.0391 0.382812,0.0508 0.613281,0.0508 0.90625,0 1.515625,-0.51172 1.515625,-1.64063 m -3.257813,-2.36719 1.101563,-0.0508 v 0.35938 c 0.339844,-0.23047 0.777344,-0.39844 1.277344,-0.39844 1.242187,0 2.039062,0.78125 2.039062,2.36719 0,1.74219 -1.089844,2.69922 -2.675781,2.69922 -0.242188,0 -0.410156,-0.0195 -0.613281,-0.0586 v 1.91016 h -1.128907 z m 0,0"
         id="path1924" />
      <path
         style="fill:#42175c;fill-opacity:1;fill-rule:nonzero;stroke:none"
         d="m 101.76563,200.91016 v 1.9375 h 0.75781 c 0.80859,0 1.26953,-0.33985 1.26953,-0.98829 0,-0.60156 -0.42188,-0.94921 -1.53906,-0.94921 z m 0,-2.69922 v 1.80078 h 0.51953 c 0.83593,0 1.23828,-0.29297 1.23828,-0.94922 0,-0.58203 -0.35156,-0.85156 -1.19922,-0.85156 z m -1.19922,5.59765 V 197.25 h 1.80859 c 1.6875,0 2.40625,0.65234 2.40625,1.58203 0,0.80859 -0.32812,1.28906 -0.9375,1.52734 v 0.0195 c 0.80859,0.19921 1.21094,0.69921 1.21094,1.46093 0,1.25 -0.83203,1.96875 -2.49219,1.96875 z m 0,0"
         id="path1926" />
    </g>
    <g
       transform="matrix(0.3527778,0,0,0.3527778,78.898787,-12.641731)"
       id="g6889">
      <path
         style="fill:none;stroke:#b80063;stroke-width:0.5;stroke-linecap:butt;stroke-linejoin:miter;stroke-miterlimit:4;stroke-opacity:1"
         d="M 0.00123125,-5.375e-4 -2.834706,-2.836475 V -13.172412 L 0.00123125,-16.00835 H 27.344981 l 2.835938,2.835938 v 10.335937 l -2.835938,2.8359375 z m 0,0"
         transform="matrix(1,0,0,-1,36.0808,212.3979)"
         id="path1928" />
      <path
         style="fill:#b80063;fill-opacity:1;fill-rule:nonzero;stroke:none"
         d="m 41.195313,220.95703 c 0.199218,0.0312 0.371093,0.043 0.570312,0.043 0.820313,0 1.320313,-0.43359 1.320313,-1.19922 0,-0.75 -0.410157,-1.14062 -1.210938,-1.14062 h -0.679687 z m 0,3.30078 h -1.199219 v -6.55859 h 2.058594 c 1.46875,0 2.277343,0.80859 2.277343,2.01172 0,1.39843 -0.957031,2.24609 -2.417968,2.24609 -0.269532,0 -0.480469,-0.008 -0.71875,-0.0391 z m 0,0"
         id="path1930" />
      <path
         style="fill:#b80063;fill-opacity:1;fill-rule:nonzero;stroke:none"
         d="m 48.214844,221.22656 c 0,-0.64844 -0.320313,-0.92969 -0.910156,-0.92969 -0.359375,0 -0.621094,0.0508 -0.960938,0.19141 v 3.76953 h -1.128906 v -4.91797 l 1.101562,-0.0508 v 0.35938 C 46.746094,219.37891 47.125,219.25 47.625,219.25 c 1.078125,0 1.71875,0.62109 1.71875,1.75 v 3.25781 h -1.128906 z m 0,0"
         id="path1932" />
      <path
         style="fill:#b80063;fill-opacity:1;fill-rule:nonzero;stroke:none"
         d="m 53.34375,221.25 c 0,-0.67969 -0.359375,-1.12109 -0.9375,-1.12109 -0.53125,0 -0.929687,0.39062 -1.03125,1.12109 z m -0.859375,-2.03125 c 1.210938,0 1.960938,0.73047 1.960938,2.01953 0,0.30078 -0.01172,0.62109 -0.03125,0.83984 h -3.058594 c 0.121094,0.87891 0.628906,1.27735 1.519531,1.27735 0.558594,0 0.949219,-0.0781 1.4375,-0.23828 v 0.9414 c -0.519531,0.16797 -0.917969,0.25782 -1.578125,0.25782 -1.507812,0 -2.476562,-0.80079 -2.476562,-2.51954 0,-1.6875 0.996093,-2.57812 2.226562,-2.57812"
         id="path1934" />
      <path
         style="fill:#b80063;fill-opacity:1;fill-rule:nonzero;stroke:none"
         d="m 56.464844,222.33594 c 0,0.68359 0.261719,0.96093 0.871094,0.96093 0.367187,0 0.597656,-0.0586 0.9375,-0.21093 v -3.7461 l 1.128906,-0.0508 v 4.96875 H 58.3125 v -0.33203 c -0.4375,0.26953 -0.757812,0.42188 -1.257812,0.42188 -1.148438,0 -1.71875,-0.65235 -1.71875,-1.80079 v -3.20703 l 1.128906,-0.0508 z m 0,0"
         id="path1936" />
    </g>
    <g
       transform="matrix(0.3527778,0,0,0.3527778,78.898787,-12.641731)"
       id="g1956"
       style="fill:#0068b3;fill-opacity:1">
      <g
         id="use1938"
         transform="translate(32.169899,177.1039)">
        <path
           style="stroke:none"
           d="M 1,-9.1875 H 5.984375 L 6.25,-7.875 c -0.230469,0.554687 -0.492187,1.023437 -0.78125,1.40625 -0.28125,0.375 -0.65625,0.710937 -1.125,1 v 0.015625 c 0.664063,0.15625 1.175781,0.445312 1.53125,0.859375 0.363281,0.417969 0.546875,0.9375 0.546875,1.5625 0,0.46875 -0.105469,0.898437 -0.3125,1.28125 -0.210937,0.386719 -0.507812,0.71875 -0.890625,1 C 4.832031,-0.476563 4.367188,-0.265625 3.828125,-0.109375 3.285156,0.046875 2.6875,0.125 2.03125,0.125 H 0.875 V -1.171875 H 2 c 0.863281,0 1.519531,-0.148438 1.96875,-0.453125 0.457031,-0.3125 0.6875,-0.742188 0.6875,-1.296875 0,-0.78125 -0.5,-1.304688 -1.5,-1.578125 -0.273437,0.136719 -0.527344,0.246094 -0.765625,0.328125 -0.242187,0.074219 -0.511719,0.140625 -0.8125,0.203125 L 1.296875,-5.203125 C 2.929688,-5.648438 4.070313,-6.507813 4.71875,-7.78125 H 1 Z m 0,0"
           id="path7892" />
      </g>
      <g
         id="use1940"
         transform="translate(39.351898,177.1039)">
        <path
           style="stroke:none"
           d=""
           id="path7896" />
      </g>
      <g
         id="use1942"
         transform="translate(41.6479,177.1039)">
        <path
           style="stroke:none"
           d="m 9.15625,-4.234375 c 0,-0.445313 -0.109375,-0.773438 -0.328125,-0.984375 -0.210937,-0.21875 -0.523437,-0.328125 -0.9375,-0.328125 -0.25,0 -0.46875,0.023437 -0.65625,0.0625 -0.179687,0.03125 -0.386719,0.101562 -0.625,0.203125 V 0 H 5.03125 v -4.234375 c 0,-0.46875 -0.109375,-0.800781 -0.328125,-1 -0.210937,-0.207031 -0.523437,-0.3125 -0.9375,-0.3125 -0.261719,0 -0.480469,0.023437 -0.65625,0.0625 -0.179687,0.03125 -0.386719,0.101562 -0.625,0.203125 V 0 h -1.59375 v -6.890625 l 1.546875,-0.0625 v 0.5 C 2.75,-6.640625 3.039063,-6.78125 3.3125,-6.875 3.59375,-6.96875 3.90625,-7.015625 4.25,-7.015625 c 0.445313,0 0.820313,0.070312 1.125,0.203125 0.300781,0.125 0.554688,0.308594 0.765625,0.546875 C 6.484375,-6.503906 6.832031,-6.6875 7.1875,-6.8125 c 0.351563,-0.132813 0.738281,-0.203125 1.15625,-0.203125 0.757813,0 1.347656,0.214844 1.765625,0.640625 0.414063,0.429687 0.625,1.039062 0.625,1.828125 V 0 H 9.15625 Z m 0,0"
           id="path7900" />
      </g>
      <g
         id="use1944"
         transform="translate(53.169899,177.1039)">
        <path
           style="stroke:none"
           d="M 6.015625,0 H 4.53125 v -0.453125 c -0.28125,0.1875 -0.574219,0.324219 -0.875,0.40625 -0.304687,0.0820313 -0.664062,0.125 -1.078125,0.125 C 1.867188,0.078125 1.320313,-0.09375 0.9375,-0.4375 0.5625,-0.789063 0.375,-1.257813 0.375,-1.84375 c 0,-0.320313 0.0625,-0.613281 0.1875,-0.875 0.125,-0.269531 0.316406,-0.5 0.578125,-0.6875 0.257813,-0.195313 0.585938,-0.347656 0.984375,-0.453125 0.394531,-0.101563 0.863281,-0.15625 1.40625,-0.15625 0.175781,0 0.335938,0.00781 0.484375,0.015625 0.15625,0 0.3125,0 0.46875,0 v -0.390625 c 0,-0.382813 -0.121094,-0.675781 -0.359375,-0.875 -0.242187,-0.207031 -0.636719,-0.3125 -1.1875,-0.3125 -0.335937,0 -0.652344,0.03125 -0.953125,0.09375 C 1.679688,-5.421875 1.34375,-5.3125 0.96875,-5.15625 L 0.734375,-6.484375 c 0.4375,-0.1875 0.847656,-0.320313 1.234375,-0.40625 0.394531,-0.082031 0.816406,-0.125 1.265625,-0.125 0.9375,0 1.632813,0.214844 2.09375,0.640625 0.457031,0.417969 0.6875,1.015625 0.6875,1.796875 z M 2,-1.96875 c 0,0.242187 0.085938,0.433594 0.265625,0.578125 0.1875,0.148437 0.441406,0.21875 0.765625,0.21875 0.269531,0 0.515625,-0.023438 0.734375,-0.078125 0.226563,-0.0625 0.46875,-0.160156 0.71875,-0.296875 V -2.84375 C 4.347656,-2.851563 4.195313,-2.859375 4.03125,-2.859375 3.863281,-2.867188 3.707031,-2.875 3.5625,-2.875 3,-2.875 2.597656,-2.789063 2.359375,-2.625 2.117188,-2.457031 2,-2.238281 2,-1.96875 Z m 0,0"
           id="path7904" />
      </g>
      <g
         id="use1946"
         transform="translate(59.9739,177.1039)">
        <path
           style="stroke:none"
           d="M 6.015625,0 H 4.53125 v -0.453125 c -0.28125,0.1875 -0.574219,0.324219 -0.875,0.40625 -0.304687,0.0820313 -0.664062,0.125 -1.078125,0.125 C 1.867188,0.078125 1.320313,-0.09375 0.9375,-0.4375 0.5625,-0.789063 0.375,-1.257813 0.375,-1.84375 c 0,-0.320313 0.0625,-0.613281 0.1875,-0.875 0.125,-0.269531 0.316406,-0.5 0.578125,-0.6875 0.257813,-0.195313 0.585938,-0.347656 0.984375,-0.453125 0.394531,-0.101563 0.863281,-0.15625 1.40625,-0.15625 0.175781,0 0.335938,0.00781 0.484375,0.015625 0.15625,0 0.3125,0 0.46875,0 v -0.390625 c 0,-0.382813 -0.121094,-0.675781 -0.359375,-0.875 -0.242187,-0.207031 -0.636719,-0.3125 -1.1875,-0.3125 -0.335937,0 -0.652344,0.03125 -0.953125,0.09375 C 1.679688,-5.421875 1.34375,-5.3125 0.96875,-5.15625 L 0.734375,-6.484375 c 0.4375,-0.1875 0.847656,-0.320313 1.234375,-0.40625 0.394531,-0.082031 0.816406,-0.125 1.265625,-0.125 0.9375,0 1.632813,0.214844 2.09375,0.640625 0.457031,0.417969 0.6875,1.015625 0.6875,1.796875 z M 2,-1.96875 c 0,0.242187 0.085938,0.433594 0.265625,0.578125 0.1875,0.148437 0.441406,0.21875 0.765625,0.21875 0.269531,0 0.515625,-0.023438 0.734375,-0.078125 0.226563,-0.0625 0.46875,-0.160156 0.71875,-0.296875 V -2.84375 C 4.347656,-2.851563 4.195313,-2.859375 4.03125,-2.859375 3.863281,-2.867188 3.707031,-2.875 3.5625,-2.875 3,-2.875 2.597656,-2.789063 2.359375,-2.625 2.117188,-2.457031 2,-2.238281 2,-1.96875 Z m 0,0"
           id="path7908" />
      </g>
      <g
         id="use1948"
         transform="translate(66.777901,177.1039)">
        <path
           style="stroke:none"
           d="m 5.09375,-4.234375 c 0,-0.457031 -0.109375,-0.789063 -0.328125,-1 -0.210937,-0.207031 -0.523437,-0.3125 -0.9375,-0.3125 -0.261719,0 -0.492187,0.023437 -0.6875,0.0625 -0.199219,0.03125 -0.417969,0.101562 -0.65625,0.203125 V 0 h -1.59375 v -6.890625 l 1.546875,-0.0625 v 0.5 c 0.300781,-0.1875 0.59375,-0.328125 0.875,-0.421875 0.28125,-0.09375 0.597656,-0.140625 0.953125,-0.140625 0.757813,0 1.347656,0.214844 1.765625,0.640625 0.425781,0.417969 0.640625,1.023437 0.640625,1.8125 V 0 H 5.09375 Z m 0,0"
           id="path7912" />
      </g>
      <g
         id="use1950"
         transform="translate(74.239899,177.1039)">
        <path
           style="stroke:none"
           d="m 6.703125,0 h -1.53125 v -0.46875 c -0.25,0.179687 -0.527344,0.3125 -0.828125,0.40625 C 4.039063,0.03125 3.71875,0.078125 3.375,0.078125 2.945313,0.078125 2.554688,0.0078125 2.203125,-0.125 1.847656,-0.269531 1.539063,-0.484375 1.28125,-0.765625 c -0.25,-0.28125 -0.449219,-0.632813 -0.59375,-1.0625 -0.136719,-0.425781 -0.203125,-0.914063 -0.203125,-1.46875 0,-0.59375 0.085938,-1.117188 0.265625,-1.578125 0.175781,-0.457031 0.425781,-0.84375 0.75,-1.15625 0.320313,-0.320313 0.703125,-0.566406 1.140625,-0.734375 0.445313,-0.164063 0.9375,-0.25 1.46875,-0.25 0.1875,0 0.363281,0.011719 0.53125,0.03125 C 4.804688,-6.972656 4.96875,-6.945313 5.125,-6.90625 V -9.703125 L 6.703125,-9.78125 Z M 4.125,-5.65625 c -0.617187,0 -1.105469,0.199219 -1.46875,0.59375 -0.367187,0.398437 -0.546875,0.953125 -0.546875,1.671875 0,0.742187 0.160156,1.277344 0.484375,1.609375 0.320313,0.324219 0.738281,0.484375 1.25,0.484375 0.257813,0 0.476563,-0.019531 0.65625,-0.0625 C 4.6875,-1.410156 4.894531,-1.5 5.125,-1.625 V -5.578125 C 4.957031,-5.597656 4.796875,-5.613281 4.640625,-5.625 4.484375,-5.644531 4.3125,-5.65625 4.125,-5.65625 Z m 0,0"
           id="path7916" />
      </g>
      <g
         id="use1952"
         transform="translate(81.841904,177.1039)">
        <path
           style="stroke:none"
           d="m 0.484375,-3.4375 c 0,-0.59375 0.082031,-1.113281 0.25,-1.5625 0.164063,-0.457031 0.390625,-0.835938 0.671875,-1.140625 0.28125,-0.300781 0.609375,-0.53125 0.984375,-0.6875 0.382813,-0.15625 0.789063,-0.234375 1.21875,-0.234375 0.851563,0 1.523438,0.246094 2.015625,0.734375 0.488281,0.492187 0.734375,1.1875 0.734375,2.09375 0,0.21875 -0.00781,0.433594 -0.015625,0.640625 0,0.199219 -0.011719,0.382812 -0.03125,0.546875 H 2.03125 c 0.082031,0.617187 0.300781,1.070312 0.65625,1.359375 0.351563,0.28125 0.84375,0.421875 1.46875,0.421875 0.394531,0 0.742188,-0.023438 1.046875,-0.078125 0.300781,-0.050781 0.625,-0.132813 0.96875,-0.25 v 1.3125 C 5.804688,-0.15625 5.457031,-0.0625 5.125,0 4.800781,0.0507813 4.414063,0.078125 3.96875,0.078125 3.425781,0.078125 2.941406,0.0078125 2.515625,-0.125 2.097656,-0.269531 1.738281,-0.488281 1.4375,-0.78125 1.132813,-1.070313 0.898438,-1.4375 0.734375,-1.875 c -0.167969,-0.4375 -0.25,-0.957031 -0.25,-1.5625 z M 4.8125,-4.21875 c 0,-0.46875 -0.121094,-0.84375 -0.359375,-1.125 C 4.222656,-5.632813 3.90625,-5.78125 3.5,-5.78125 c -0.375,0 -0.695312,0.136719 -0.953125,0.40625 -0.25,0.261719 -0.414062,0.648437 -0.484375,1.15625 z m 0,0"
           id="path7920" />
      </g>
      <g
         id="use1954"
         transform="translate(88.659897,177.1039)">
        <path
           style="stroke:none"
           d="m 5.09375,-4.234375 c 0,-0.457031 -0.109375,-0.789063 -0.328125,-1 -0.210937,-0.207031 -0.523437,-0.3125 -0.9375,-0.3125 -0.261719,0 -0.492187,0.023437 -0.6875,0.0625 -0.199219,0.03125 -0.417969,0.101562 -0.65625,0.203125 V 0 h -1.59375 v -6.890625 l 1.546875,-0.0625 v 0.5 c 0.300781,-0.1875 0.59375,-0.328125 0.875,-0.421875 0.28125,-0.09375 0.597656,-0.140625 0.953125,-0.140625 0.757813,0 1.347656,0.214844 1.765625,0.640625 0.425781,0.417969 0.640625,1.023437 0.640625,1.8125 V 0 H 5.09375 Z m 0,0"
           id="path7924" />
      </g>
    </g>
    <path
       id="path1958"
       d="M 90.452261,52.321747 H 151.4525"
       style="fill:none;stroke:#0068b3;stroke-width:0.176389;stroke-linecap:butt;stroke-linejoin:miter;stroke-miterlimit:4;stroke-opacity:1" />
  </g>
</svg>
