<?xml version="1.0" encoding="UTF-8" standalone="no"?>
<svg
   xmlns:dc="http://purl.org/dc/elements/1.1/"
   xmlns:cc="http://creativecommons.org/ns#"
   xmlns:rdf="http://www.w3.org/1999/02/22-rdf-syntax-ns#"
   xmlns:svg="http://www.w3.org/2000/svg"
   xmlns="http://www.w3.org/2000/svg"
   id="svg10133"
   version="1.1"
   viewBox="0 0 68.188087 49.041618"
   height="49.041618mm"
   width="68.188087mm">
  <defs
     id="defs10127">
    <clipPath
       id="clip2">
      <path
         id="path1543"
         d="m 556,194 h 62.16797 v 58 H 556 Z m 0,0" />
    </clipPath>
  </defs>
  <metadata
     id="metadata10130">
    <rdf:RDF>
      <cc:Work
         rdf:about="">
        <dc:format>image/svg+xml</dc:format>
        <dc:type
           rdf:resource="http://purl.org/dc/dcmitype/StillImage" />
        <dc:title></dc:title>
      </cc:Work>
    </rdf:RDF>
  </metadata>
  <g
     transform="translate(-118.60834,-195.46133)"
     id="layer1">
    <path
       id="path2142"
       d="m 118.60834,244.50295 h 68.18809 v -49.04162 h -68.18809 z m 0,0"
       style="fill:#ffffff;fill-opacity:1;fill-rule:nonzero;stroke:none;stroke-width:0.352777" />
    <g
       transform="matrix(0.3527778,0,0,0.3527778,-31.279504,140.8166)"
       id="g9773">
      <path
         transform="matrix(1,0,0,-1,605.1931,237.7553)"
         style="fill:#c7bab5;fill-opacity:1;fill-rule:nonzero;stroke:#e16e0c;stroke-width:0.542;stroke-linecap:butt;stroke-linejoin:miter;stroke-miterlimit:10;stroke-opacity:1"
         d="M -0.00169375,0.00139375 H -34.642319 V 17.981863 l 17.320313,11.84375 17.32031225,-11.84375 z m 0,0"
         id="path2152" />
    </g>
    <g
       transform="matrix(0.3527778,0,0,0.3527778,-31.279504,140.8166)"
       id="g9749">
      <path
         id="path2146"
         d="m 559.66797,238.78125 c 0,0.91797 3.33594,1.66406 7.51953,1.66406 4.17969,0 8.70312,-0.74609 8.70312,-1.66406 0,-0.92188 -4.52343,-1.10156 -8.70312,-1.10156 -4.18359,0 -7.51953,0.17968 -7.51953,1.10156"
         style="fill:#ded4c7;fill-opacity:1;fill-rule:nonzero;stroke:none" />
      <path
         id="path2148"
         d="m 553.08594,238.32812 c 0,0.54297 1.04297,0.98438 2.35156,0.98438 1.30469,0 2.71875,-0.44141 2.71875,-0.98438 0,-0.54296 -1.41406,-0.64843 -2.71875,-0.64843 -1.30859,0 -2.35156,0.10547 -2.35156,0.64843"
         style="fill:#ded4c7;fill-opacity:1;fill-rule:nonzero;stroke:none" />
      <path
         id="path2150"
         d="m 570.19922,238.07812 c 0,1.30469 7.46094,2.36719 16.82031,2.36719 9.35547,0 19.47656,-1.0625 19.47656,-2.36719 0,-1.30859 -10.12109,-1.5664 -19.47656,-1.5664 -9.35937,0 -16.82031,0.25781 -16.82031,1.5664"
         style="fill:#ebe3d9;fill-opacity:1;fill-rule:nonzero;stroke:none" />
      <path
         id="path2156"
         d="m 593.14844,237.55859 h 9.34765 V 232.125 h -9.34765 z m 0,0"
         style="fill:#a69ca1;fill-opacity:1;fill-rule:nonzero;stroke:none" />
      <g
         id="g2160"
         clip-rule="nonzero"
         clip-path="url(#clip2)">
        <path
           id="path2158"
           transform="matrix(1,0,0,-1,605.1343,237.6933)"
           d="M -0.0014875,0.00189375 H -34.524925 V 17.900331 L -17.263206,29.689394 -0.0014875,17.900331 Z M -34.524925,12.330019 H -0.0014875 M -21.306175,0.240175 v 12.089844 m 11.730469,0 V 24.076113 M -25.595238,12.330019 v 11.746094"
           style="fill:none;stroke:#a69ca1;stroke-width:0.975;stroke-linecap:butt;stroke-linejoin:miter;stroke-miterlimit:10;stroke-opacity:1" />
      </g>
      <path
         id="path2162"
         d="m 589.52344,231.99609 h -3.52735 v -2.88672 h 3.52735 z m 0,0"
         style="fill:#a69ca1;fill-opacity:1;fill-rule:nonzero;stroke:none" />
      <path
         id="path2166"
         d="m 555.62891,238.60937 c 1.57031,0 2.83984,-1.24609 2.83984,-2.78125 0,-1.53906 -1.26953,-2.78515 -2.83984,-2.78515 -1.56641,0 -2.83985,1.24609 -2.83985,2.78515 0,1.53516 1.27344,2.78125 2.83985,2.78125"
         style="fill:#f8ae00;fill-opacity:1;fill-rule:nonzero;stroke:none" />
      <path
         id="path2168"
         d="m 568.24219,222.21875 c 2.26953,-1.55078 4.53515,-3.10547 6.80468,-4.65625 3.58594,-2.45703 7.16797,-4.91016 10.75391,-7.36719 l 2.46875,-1.6875 h -0.79687 c 2.26562,1.55078 4.53515,3.10547 6.80078,4.65625 3.58593,2.45703 7.17187,4.91016 10.75781,7.36719 0.82422,0.5625 1.64453,1.125 2.46875,1.6875 0.34766,0.23828 0.87891,0.0625 1.07812,-0.27734 0.23047,-0.38672 0.0703,-0.81641 -0.28125,-1.0586 -2.26953,-1.55078 -4.53515,-3.10547 -6.80468,-4.65625 -3.58203,-2.45703 -7.16797,-4.91015 -10.75391,-7.36719 -0.82422,-0.5625 -1.64453,-1.125 -2.46875,-1.6875 -0.21094,-0.14843 -0.58203,-0.14843 -0.79687,0 -2.26954,1.55079 -4.53516,3.10547 -6.80079,4.65625 -3.58593,2.45704 -7.17187,4.91016 -10.75781,7.36719 -0.82422,0.5625 -1.64453,1.125 -2.46875,1.6875 -0.34765,0.23828 -0.51172,0.67578 -0.28125,1.0586 0.19922,0.33984 0.72656,0.51953 1.07813,0.27734"
         style="fill:#eb6805;fill-opacity:1;fill-rule:nonzero;stroke:none" />
      <path
         id="path2170"
         d="m 575.88672,231.29687 c 0,0.7461 0.62109,1.35547 1.38281,1.35547 0.76172,0 1.38281,-0.60937 1.38281,-1.35547 0,-0.75 -0.62109,-1.35546 -1.38281,-1.35546 -0.76172,0 -1.38281,0.60546 -1.38281,1.35546"
         style="fill:#a69ca1;fill-opacity:1;fill-rule:nonzero;stroke:none" />
      <path
         id="path2164"
         d="m 588.33203,214.64062 h -4.67578 v 5.05469 h 4.67578 z m 0,0"
         style="fill:#a69ca1;fill-opacity:1;fill-rule:nonzero;stroke:none" />
      <path
         id="path2174"
         d="m 603.25781,222.44141 h -5.39062 v 2.63671 h 5.39062 z m 0,0"
         style="fill:#a69ca1;fill-opacity:1;fill-rule:nonzero;stroke:none" />
      <path
         id="path2176"
         d="m 561.76172,235.02344 c -1.17969,0.10547 -2.05078,1.13281 -1.94141,2.28906 0.10938,1.16016 1.0586,2.02344 2.33594,1.90625 1.28125,-0.11719 4.93359,-0.88672 5.01172,-0.90625 0.8125,-0.19141 1.3789,-0.94141 1.30078,-1.77734 -0.0781,-0.81641 -0.74219,-1.44141 -1.54688,-1.51172 -0.10156,-0.008 -3.72656,-0.12891 -5.16015,0"
         style="fill:#541e0c;fill-opacity:1;fill-rule:nonzero;stroke:none" />
      <path
         id="path2178"
         d="m 574.88281,235.63281 c -0.60156,2.71094 -2.65234,2.80469 -5.04297,2.29688 -2.39062,-0.51172 -4.21484,-1.4336 -3.60937,-4.14453 0.60156,-2.71094 3.28515,-5.64063 5.67187,-5.13282 2.39063,0.51172 3.58594,4.26953 2.98047,6.98047"
         style="fill:#541e0c;fill-opacity:1;fill-rule:nonzero;stroke:none" />
      <path
         id="path2180"
         d="m 573.98437,222.83594 c -0.65625,-0.004 -1.25,0.26562 -1.66796,0.70312 -0.57032,-0.17969 -1.19141,-0.28515 -1.84375,-0.28906 -0.65235,-0.004 -1.27735,0.0898 -1.85157,0.26562 -0.41015,-0.4414 -1,-0.72265 -1.65625,-0.72656 -1.25,-0.008 -2.27343,0.97656 -2.28125,2.20313 -0.004,0.66406 0.28907,1.25781 0.75782,1.66797 -0.0352,0.18359 -0.0547,0.36718 -0.0547,0.55859 -0.0156,2.20703 2.23437,4.01172 5.03125,4.03125 2.79297,0.0195 5.0664,-1.75781 5.08203,-3.96484 0.004,-0.19141 -0.0156,-0.375 -0.0469,-0.5586 0.47266,-0.40234 0.77735,-0.99609 0.78125,-1.65625 0.008,-1.22656 -1,-2.22656 -2.25,-2.23437"
         style="fill:#541e0c;fill-opacity:1;fill-rule:nonzero;stroke:none" />
      <path
         id="path2182"
         d="m 567.75391,227.36719 c 0,0.22265 -0.1875,0.40234 -0.41407,0.40234 -0.23047,-0.004 -0.41406,-0.1875 -0.41015,-0.41016 0,-0.22265 0.1875,-0.40234 0.41406,-0.40234 0.23047,0.004 0.41406,0.18359 0.41016,0.41016"
         style="fill:#211c1e;fill-opacity:1;fill-rule:nonzero;stroke:none" />
      <path
         id="path2184"
         d="m 570.60547,227.38281 c 0,0.22656 0.18359,0.40625 0.41015,0.41016 0.22657,0 0.41407,-0.17969 0.41797,-0.40235 0,-0.22265 -0.18359,-0.40625 -0.41015,-0.40625 -0.23047,-0.004 -0.41407,0.17579 -0.41797,0.39844"
         style="fill:#211c1e;fill-opacity:1;fill-rule:nonzero;stroke:none" />
      <path
         id="path2186"
         d="m 569.76953,228.20312 c -0.004,0.32422 -0.27344,0.58204 -0.60156,0.57813 -0.32422,0 -0.58985,-0.26172 -0.58594,-0.58594 0,-0.32031 0.26953,-0.57812 0.59766,-0.57812 0.32812,0.004 0.58984,0.26562 0.58984,0.58593"
         style="fill:#211c1e;fill-opacity:1;fill-rule:nonzero;stroke:none" />
      <path
         id="path2188"
         d="m 574.09375,237 c 0.41016,0.94922 1.52734,1.39453 2.49609,0.99219 0.96875,-0.40235 1.45703,-1.42188 1.01172,-2.44922 -0.44531,-1.02735 -2.33203,-4.3086 -2.36719,-4.36719 -0.38281,-0.62109 -1.17968,-0.88672 -1.88281,-0.59766 -0.67969,0.28516 -1.04297,1.00391 -0.88281,1.6875 0.0195,0.0859 1.12891,3.58594 1.625,4.73438"
         style="fill:#541e0c;fill-opacity:1;fill-rule:nonzero;stroke:none" />
      <path
         id="path2190"
         d="m 566.36719,236.07812 c -1.24219,0.3125 -1.99219,1.55469 -1.67188,2.77344 0.31641,1.21875 1.48047,1.97656 2.82422,1.64063 1.34766,-0.33594 5.11328,-1.77344 5.19531,-1.8086 0.83203,-0.33593 1.30469,-1.23437 1.07422,-2.11328 -0.22265,-0.85937 -1.04297,-1.41406 -1.91406,-1.35156 -0.10938,0.008 -4.00391,0.48437 -5.50781,0.85937"
         style="fill:#541e0c;fill-opacity:1;fill-rule:nonzero;stroke:none" />
    </g>
    <g
       transform="matrix(0.3527778,0,0,0.3527778,-31.279504,140.8166)"
       id="g9915">
      <path
         style="fill:#eb6805;fill-opacity:1;fill-rule:nonzero;stroke:none"
         d="m 536.35547,273.66406 16.07812,4.45703 c 2.17578,0.60547 4.50782,-1.35937 4.89844,-4.1289 l 0.26563,-1.91407 c 0.29296,-2.0664 1.13281,-2.4414 -2.92579,-2.67187 -4.05859,-0.22656 -14.5664,-7.78125 -14.5664,-7.78125 -2.76953,-1.06641 -5.97266,1.05469 -6.95703,4.60156 -0.9336,3.35547 0.5039,6.6875 3.20703,7.4375"
         id="path2200" />
      <g
         id="g9883">
        <path
           id="path2192"
           d="m 584.125,278.65234 c 0,2.4375 -23.53516,4.41407 -52.56641,4.41407 -29.03125,0 -52.57031,-1.97657 -52.57031,-4.41407 0,-2.43359 23.53906,-2.91406 52.57031,-2.91406 29.03125,0 52.56641,0.48047 52.56641,2.91406"
           style="fill:#ebe3d9;fill-opacity:1;fill-rule:nonzero;stroke:none" />
        <path
           id="path2194"
           d="m 526.00391,275.15625 -16.40625,3.03906 c -2.21875,0.41406 -4.3711,-1.74609 -4.51954,-4.53906 l -0.10156,-1.92969 c -0.10937,-2.08203 -0.91406,-2.53125 3.15235,-2.40625 4.0625,0.125 15.1875,-6.48437 15.1875,-6.48437 2.85156,-0.82032 5.85937,1.57031 6.53125,5.1875 0.63281,3.42968 -1.08594,6.62109 -3.84375,7.13281"
           style="fill:#eb6805;fill-opacity:1;fill-rule:nonzero;stroke:none" />
        <path
           id="path2196"
           d="m 506.61719,279.28906 6.60156,-1.82812 c 2.62891,-0.73047 2.25,-2.64063 1.51562,-4.65625 l -0.51171,-1.39453 c -0.54688,-1.50391 -2.625,-2.19141 -3.42188,-2.09766 l -6.60156,0.55078 c -1.39844,0.16016 -1.94531,2.63281 -1.1875,5.37109 0.71875,2.59375 2.33203,4.41016 3.60547,4.05469"
           style="fill:#eb6805;fill-opacity:1;fill-rule:nonzero;stroke:none" />
        <path
           id="path2198"
           d="m 499.69922,275.95312 c 2.4375,2.66016 5.54297,3.77735 6.9414,2.5 1.39454,-1.28125 0.55079,-4.47265 -1.88671,-7.13281 -2.4375,-2.66015 -5.54297,-3.77734 -6.9375,-2.5 -1.39844,1.27735 -0.55469,4.47266 1.88281,7.13281"
           style="fill:#fad9ab;fill-opacity:1;fill-rule:nonzero;stroke:none" />
        <path
           id="path2202"
           d="m 555.30859,279.47266 -6.41797,-2.39844 c -2.55468,-0.95703 -2.01562,-2.82813 -1.10546,-4.77344 l 0.6289,-1.34375 c 0.67969,-1.44922 2.8086,-1.94922 3.59375,-1.79297 l 6.53125,1.12891 c 1.37891,0.27734 1.70703,2.78906 0.71094,5.45312 -0.94141,2.51953 -2.70703,4.1875 -3.94141,3.72657"
           style="fill:#eb6805;fill-opacity:1;fill-rule:nonzero;stroke:none" />
        <path
           id="path2204"
           d="m 562.48828,276.75 c -2.66016,2.4375 -5.85156,3.28125 -7.13281,1.88281 -1.27735,-1.39453 -0.15625,-4.5039 2.5,-6.9375 2.66015,-2.4375 5.85547,-3.28125 7.13281,-1.88672 1.28125,1.39453 0.16016,4.50391 -2.5,6.94141"
           style="fill:#fad9ab;fill-opacity:1;fill-rule:nonzero;stroke:none" />
        <path
           id="path2206"
           d="m 543.91016,272.86719 -0.004,-0.0234 -1.00781,-28.10547 c -0.17578,-2.09375 -3.61719,-5.19922 -10.73438,-5.19922 -7.11328,0 -11.07812,3.17969 -11.25,5.19922 l -1.00781,11.93359 -0.004,16.19532 z m 0,0"
           style="fill:#eb6805;fill-opacity:1;fill-rule:nonzero;stroke:none" />
        <path
           id="path2208"
           d="m 544.58984,227.73437 c -0.22656,9.44532 -8.83593,13.60157 -12.41797,13.51954 -3.58203,-0.0859 -11.98437,-4.64844 -11.76171,-14.09766 0.17578,-7.28906 5.73046,-13.07031 12.40625,-12.91016 6.67578,0.16016 11.94921,6.19922 11.77343,13.48828"
           style="fill:#fad9ab;fill-opacity:1;fill-rule:nonzero;stroke:none" />
        <path
           id="path2212"
           d="m 521.19922,221.61719 c 1.71875,0.96093 3.82812,1.49609 5.76953,1.5 3.71484,0.008 7.76172,-0.85157 9.3125,-2.52344 0.30469,1.04297 0.0937,2.21094 -0.57031,3.09766 4.5664,-0.42188 7.96484,-3.15625 7.73437,-3.6211 -2.08594,-4.23047 -6.14062,-7.10156 -10.79687,-7.10156 -5.21094,0 -9.66016,3.58594 -11.44922,8.64844"
           style="fill:#541e0c;fill-opacity:1;fill-rule:nonzero;stroke:none" />
        <path
           id="path2214"
           d="m 515.51562,257.19141 c -2.05468,1.76171 -5.13671,2.0039 -6.88671,0.54296 -1.75,-1.46093 -1.50391,-4.07421 0.55078,-5.83203 L 519.85547,242.75 c 2.05078,-1.76172 5.13672,-2.00391 6.88672,-0.54297 1.75,1.46094 1.5,4.07422 -0.55078,5.83594 z m 0,0"
           style="fill:#eb6805;fill-opacity:1;fill-rule:nonzero;stroke:none" />
        <path
           id="path2216"
           d="m 546.53516,257.24609 c 1.8125,1.7461 4.68359,2.00391 6.41015,0.57032 1.72656,-1.4336 1.66016,-4.01172 -0.15234,-5.76172 l -9.42188,-9.08203 c -1.8125,-1.75 -4.67968,-2.00391 -6.41015,-0.57032 -1.72657,1.4336 -1.65625,4.01172 0.15625,5.75782 z m 0,0"
           style="fill:#eb6805;fill-opacity:1;fill-rule:nonzero;stroke:none" />
        <path
           id="path2218"
           d="m 544.92969,278.93359 c 0,0.73047 -0.29688,1.39063 -0.77735,1.8711 -0.47656,0.48047 -1.13672,0.77343 -1.87109,0.77343 h -18.82422 c -1.46484,0 -2.64844,-1.18359 -2.64844,-2.64453 0,-0.73437 0.29688,-1.39453 0.77735,-1.87109 0.47656,-0.48047 1.14062,-0.77734 1.87109,-0.77734 h 18.82422 c 1.46094,0 2.64844,1.1875 2.64844,2.64843"
           style="fill:#541e0c;fill-opacity:1;fill-rule:nonzero;stroke:none" />
        <path
           id="path2220"
           d="m 543.36719,273.63672 c 0,0.73437 -0.29688,1.39453 -0.77344,1.875 -0.48047,0.47656 -1.14453,0.77344 -1.875,0.77344 h -15.69922 c -1.46484,0 -2.64844,-1.1836 -2.64844,-2.64844 0,-0.73047 0.29688,-1.39063 0.77735,-1.8711 0.47656,-0.47656 1.14062,-0.77343 1.87109,-0.77343 h 15.69922 c 1.46484,0 2.64844,1.18359 2.64844,2.64453"
           style="fill:#8fcae6;fill-opacity:1;fill-rule:nonzero;stroke:none" />
        <path
           id="path2222"
           d="m 541.80859,268.34375 c 0,0.73047 -0.29687,1.39453 -0.77734,1.87109 -0.48047,0.48047 -1.14063,0.77735 -1.87109,0.77735 h -12.58204 c -1.46093,0 -2.64843,-1.1875 -2.64843,-2.64844 0,-0.73047 0.29687,-1.39453 0.77734,-1.87109 0.48047,-0.48047 1.14063,-0.77735 1.87109,-0.77735 h 12.58204 c 1.46093,0 2.64843,1.1875 2.64843,2.64844"
           style="fill:#f8ae00;fill-opacity:1;fill-rule:nonzero;stroke:none" />
        <path
           id="path2224"
           d="m 540.24609,263.05078 c 0,0.73047 -0.29687,1.39063 -0.77343,1.87109 -0.48047,0.48047 -1.14063,0.77344 -1.875,0.77344 h -9.45704 c -1.46484,0 -2.64843,-1.18359 -2.64843,-2.64453 0,-0.73437 0.29687,-1.39453 0.77343,-1.875 0.48047,-0.47656 1.14063,-0.77344 1.875,-0.77344 h 9.45704 c 1.46484,0 2.64843,1.1836 2.64843,2.64844"
           style="fill:#42175c;fill-opacity:1;fill-rule:nonzero;stroke:none" />
        <path
           id="path2226"
           d="m 538.68359,257.75391 c 0,0.73437 -0.29687,1.39453 -0.77343,1.875 -0.48047,0.47656 -1.14063,0.77343 -1.8711,0.77343 h -6.33984 c -1.46094,0 -2.64453,-1.18359 -2.64453,-2.64843 0,-0.73047 0.29687,-1.39063 0.77343,-1.8711 0.48047,-0.48047 1.14063,-0.77344 1.8711,-0.77344 h 6.33984 c 1.46094,0 2.64453,1.1836 2.64453,2.64454"
           style="fill:#7dc5b0;fill-opacity:1;fill-rule:nonzero;stroke:none" />
        <path
           id="path2228"
           d="m 537.125,252.46094 c 0,0.73047 -0.29688,1.39062 -0.77344,1.87109 -0.48047,0.48047 -1.14453,0.77734 -1.875,0.77734 h -3.21484 c -1.46094,0 -2.64844,-1.1875 -2.64844,-2.64843 0,-0.73438 0.29688,-1.39453 0.77734,-1.8711 0.47657,-0.48047 1.14063,-0.77734 1.8711,-0.77734 h 3.21484 c 1.46094,0 2.64844,1.1875 2.64844,2.64844"
           style="fill:#e394bd;fill-opacity:1;fill-rule:nonzero;stroke:none" />
        <path
           id="path2230"
           d="m 532.87109,249.8125 c -1.33203,0 -2.22265,-0.99219 -2.02343,-2.01953 l 0.45703,-2.3711 c 0.10156,-0.52343 0.79687,-0.90234 1.5664,-0.90234 0.38282,0 0.75,0.0937 1.03125,0.25391 0.28516,0.16015 0.48047,0.38672 0.53125,0.64843 l 0.45703,2.3711 c 0.19922,1.02734 -0.6875,2.01953 -2.01953,2.01953"
           style="fill:#541e0c;fill-opacity:1;fill-rule:nonzero;stroke:none" />
        <path
           id="path2232"
           d="m 532.87109,249.8125 v -5.29297 c 0.38282,0 0.75,0.0937 1.03125,0.25391 0.28516,0.16015 0.48047,0.38672 0.53125,0.64843 l 0.45703,2.3711 c 0.19922,1.02734 -0.6875,2.01953 -2.01953,2.01953"
           style="fill:#541e0c;fill-opacity:1;fill-rule:nonzero;stroke:none" />
        <path
           id="path2234"
           d="m 522.74609,262.00391 c 1.71485,1.55078 3.45703,1.7539 4.32813,2.30078 0.96094,0.60547 1.6289,1.375 1.58984,1.89062 -0.0586,0.77344 -0.13281,0.97656 0.0937,1.32813 0.71094,1.10547 -2.15625,1.65234 -3.11719,2.30859 -0.92187,0.63281 -0.61328,1.03125 -1.82031,1.13672 -1.45703,0.125 -3.90625,-1.56641 -4.34375,-3.21875 -0.33203,-1.25781 -0.65234,-2.64453 -0.082,-3.81641 0.52734,-1.07812 1.82813,-1.71875 3.00781,-1.47656 z m 0,0"
           style="fill:#fad9ab;fill-opacity:1;fill-rule:nonzero;stroke:none" />
        <path
           id="path2236"
           d="m 507.48437,255.42969 c -0.35546,3.1289 3.62891,5.23047 6.87891,8.60547 2.05078,2.13281 4.80859,4.52734 5.18359,3.91796 1.4375,-2.35546 2.30079,-2.91796 4.60157,-5.22265 0.21093,-0.21094 -8.80078,-8.89844 -11.53125,-11.09375 -1.53516,-1.23438 -4.87891,1.53125 -5.13282,3.79297"
           style="fill:#eb6805;fill-opacity:1;fill-rule:nonzero;stroke:none" />
        <path
           id="path2238"
           d="m 523.35937,271.00391 c 0,0 1.375,-0.11719 3.61329,-0.31641 2.23828,-0.19531 4.30468,-1.32813 2.87109,-2.85156 -1.35156,-1.4336 -1.74609,-2.10157 -1.74609,-2.10157 z m 0,0"
           style="fill:#fad9ab;fill-opacity:1;fill-rule:nonzero;stroke:none" />
        <path
           id="path2240"
           d="m 543.19922,266.0625 c -0.82031,2.16016 -2.28125,3.13281 -2.8086,4.01562 -0.58203,0.97266 -0.83203,1.96485 -0.55859,2.40625 0.40234,0.66016 0.55859,0.8086 0.51953,1.22266 -0.13281,1.30859 2.67188,0.49609 3.82422,0.64453 1.10938,0.14453 1.01563,0.64063 2.13672,0.1875 1.35547,-0.55078 2.76953,-3.16797 2.41016,-4.83984 -0.27735,-1.27344 -0.61719,-2.65625 -1.66016,-3.4375 -0.96094,-0.72266 -2.41016,-0.70313 -3.35156,0.0469 z m 0,0"
           style="fill:#fad9ab;fill-opacity:1;fill-rule:nonzero;stroke:none" />
        <path
           id="path2242"
           d="m 553.81641,253.27344 c 1.73437,2.6289 -0.85938,6.30859 -2.22657,10.79297 -0.85937,2.83203 -2.22656,6.21875 -2.83593,5.84375 -2.35157,-1.44532 -3.37891,-1.55469 -6.47266,-2.56641 -0.28125,-0.0898 3.80078,-11.92188 5.23828,-15.11719 0.80859,-1.79687 5.03906,-0.85156 6.29688,1.04688"
           style="fill:#eb6805;fill-opacity:1;fill-rule:nonzero;stroke:none" />
        <path
           id="path2244"
           d="m 546.75391,274.26172 c 0,0 -1.28125,0.51953 -3.36329,1.35937 -2.08203,0.83985 -4.4414,0.76953 -3.85546,-1.23828 0.55468,-1.89062 0.60156,-2.66406 0.60156,-2.66406 z m 0,0"
           style="fill:#fad9ab;fill-opacity:1;fill-rule:nonzero;stroke:none" />
        <path
           id="path2246"
           d="m 537.85547,207.08594 c 0.80078,0.45312 1.34765,1.1875 1.57812,2.01172 -1.43359,-0.75391 -3.21484,-0.23829 -4.01562,1.17968 -0.54297,0.96094 -0.4961,2.09375 0.0234,2.98438 -0.30079,-0.0703 -0.59766,-0.1836 -0.87891,-0.34375 -1.60938,-0.90625 -2.17969,-2.94922 -1.26953,-4.5625 0.91015,-1.60938 2.94922,-2.17969 4.5625,-1.26953"
           style="fill:#541e0c;fill-opacity:1;fill-rule:nonzero;stroke:none" />
        <path
           id="path2248"
           d="m 535.78906,204.97656 c 0.91016,0.14063 1.66797,0.70703 2.15625,1.51563 -1.60937,-0.19141 -3.13281,1.18359 -3.42969,3.11328 -0.20312,1.3125 0.21094,2.54297 0.99219,3.30078 -0.30859,0.0547 -0.625,0.0625 -0.94531,0.0117 -1.82813,-0.28125 -3.03516,-2.28906 -2.69531,-4.48047 0.33593,-2.19531 2.09375,-3.74219 3.92187,-3.46094"
           style="fill:#541e0c;fill-opacity:1;fill-rule:nonzero;stroke:none" />
        <path
           id="path2250"
           d="m 531.90234,212.09375 c -0.46875,1.14453 0.082,2.44531 1.22266,2.91406 1.14453,0.46485 2.44922,-0.0859 2.91406,-1.22656 0.46485,-1.14453 -0.082,-2.44922 -1.22656,-2.91406 -1.14063,-0.46485 -2.44531,0.082 -2.91016,1.22656"
           style="fill:#b80063;fill-opacity:1;fill-rule:nonzero;stroke:none" />
      </g>
    </g>
    <g
       transform="matrix(0.3527778,0,0,0.3527778,-31.279504,140.8166)"
       id="g10010">
      <path
         style="fill:none;stroke:#42175c;stroke-width:0.5;stroke-linecap:butt;stroke-linejoin:miter;stroke-miterlimit:4;stroke-opacity:1"
         d="M 9.8125e-4,0.0013375 H 76.219731 V 17.106806 H 9.8125e-4 Z m 0,0"
         transform="matrix(1,0,0,-1,435.1748,208.3529)"
         id="path2252" />
      <path
         style="fill:#42175c;fill-opacity:1;fill-rule:nonzero;stroke:none"
         d="m 441.75391,202.82031 h 0.6914 c 1.31641,0 2.17578,-0.71094 2.17578,-2.42187 0,-1.41797 -0.85937,-2.15625 -2.26953,-2.15625 h -0.59765 z m -1.19922,0.98828 V 197.25 h 1.8789 c 2.21875,0 3.44922,1.10937 3.44922,3.08984 0,2.36719 -1.33984,3.46875 -3.48828,3.46875 z m 0,0"
         id="path2254" />
      <path
         style="fill:#42175c;fill-opacity:1;fill-rule:nonzero;stroke:none"
         d="m 448.29297,197.25 v 2.71875 h 0.53906 L 450.8125,197.25 h 1.37891 l -2.29688,3.08203 2.36719,3.47656 h -1.5 l -1.89844,-2.85937 h -0.57031 v 2.85937 h -1.19922 V 197.25 Z m 0,0"
         id="path2256" />
      <path
         style="fill:#42175c;fill-opacity:1;fill-rule:nonzero;stroke:none"
         d="m 455.51172,203.80859 h -1.20703 v -5.5664 h -1.82032 V 197.25 h 4.84766 v 0.99219 h -1.82031 z m 0,0"
         id="path2258" />
      <path
         style="fill:#42175c;fill-opacity:1;fill-rule:nonzero;stroke:none"
         d="m 459.49219,200.50781 c 0.19922,0.0312 0.37109,0.043 0.57031,0.043 0.82031,0 1.32031,-0.42969 1.32031,-1.19922 0,-0.75 -0.41015,-1.14062 -1.21094,-1.14062 h -0.67968 z m 0,3.30078 h -1.19922 V 197.25 h 2.05859 c 1.47266,0 2.28125,0.8125 2.28125,2.01172 0,1.39844 -0.96094,2.24609 -2.41797,2.24609 -0.27343,0 -0.48047,-0.008 -0.72265,-0.0391 z m 0,0"
         id="path2260" />
      <path
         style="fill:#42175c;fill-opacity:1;fill-rule:nonzero;stroke:none"
         d="m 463.38281,200.42187 h 2.58203 v 1.03907 h -2.58203 z m 0,0"
         id="path2262" />
      <path
         style="fill:#42175c;fill-opacity:1;fill-rule:nonzero;stroke:none"
         d="m 471.19141,200.98047 h -2.63672 v 2.82812 h -1.19922 V 197.25 h 1.19922 v 2.67969 h 2.63672 V 197.25 h 1.21093 v 6.55859 h -1.21093 z m 0,0"
         id="path2264" />
      <path
         style="fill:#42175c;fill-opacity:1;fill-rule:nonzero;stroke:none"
         d="m 474.96484,203.80859 h -1.1289 v -4.91797 l 1.1289,-0.0508 z m -0.57031,-6.99609 c 0.42969,0 0.66797,0.26953 0.66797,0.64844 0,0.35156 -0.23828,0.64062 -0.66797,0.64062 -0.42969,0 -0.66016,-0.26172 -0.66016,-0.64062 0,-0.34766 0.23047,-0.64844 0.66016,-0.64844"
         id="path2266" />
      <path
         style="fill:#42175c;fill-opacity:1;fill-rule:nonzero;stroke:none"
         d="m 478.27344,199.85156 c -0.33203,0 -0.5625,0.0469 -0.89844,0.1875 v 2.8086 c 0.23047,0.043 0.37891,0.0508 0.59766,0.0508 0.91015,0 1.52734,-0.46875 1.52734,-1.64063 0,-0.97656 -0.47656,-1.40625 -1.22656,-1.40625 m -0.37891,4.01563 c -0.51953,0 -1.01953,-0.0273 -1.65234,-0.10938 v -6.875 l 1.13281,-0.0625 v 2.35938 c 0.37891,-0.23828 0.78906,-0.37891 1.24609,-0.37891 1.25,0 2.03907,0.80859 2.03907,2.36719 0,1.72265 -1.10938,2.69922 -2.76563,2.69922"
         id="path2268" />
      <path
         style="fill:#42175c;fill-opacity:1;fill-rule:nonzero;stroke:none"
         d="m 481.61328,200.42187 h 2.57813 v 1.03907 h -2.57813 z m 0,0"
         id="path2270" />
      <path
         style="fill:#42175c;fill-opacity:1;fill-rule:nonzero;stroke:none"
         d="m 489.42187,200.98047 h -2.64062 v 2.82812 h -1.19922 V 197.25 h 1.19922 v 2.67969 h 2.64062 V 197.25 h 1.20704 v 6.55859 h -1.20704 z m 0,0"
         id="path2272" />
      <path
         style="fill:#42175c;fill-opacity:1;fill-rule:nonzero;stroke:none"
         d="m 494.86328,200.80078 c 0,-0.67969 -0.36328,-1.12109 -0.94141,-1.12109 -0.52734,0 -0.92968,0.39062 -1.02734,1.12109 z m -0.85937,-2.03125 c 1.20703,0 1.95703,0.73047 1.95703,2.01953 0,0.30078 -0.0117,0.6211 -0.0312,0.83985 h -3.0586 c 0.1211,0.8789 0.63282,1.28125 1.51953,1.28125 0.5625,0 0.95313,-0.082 1.44141,-0.24219 v 0.9414 c -0.51953,0.16797 -0.92187,0.25782 -1.57812,0.25782 -1.51172,0 -2.48047,-0.79688 -2.48047,-2.51563 0,-1.6914 1,-2.58203 2.23047,-2.58203"
         id="path2274" />
      <path
         style="fill:#42175c;fill-opacity:1;fill-rule:nonzero;stroke:none"
         d="m 500.19141,201.25781 c 0,-0.96875 -0.46875,-1.40625 -1.21875,-1.40625 -0.35157,0 -0.57032,0.0469 -0.91016,0.1875 v 2.8086 c 0.25,0.0391 0.37891,0.0508 0.60937,0.0508 0.91016,0 1.51954,-0.51172 1.51954,-1.64063 m -3.25782,-2.36719 1.09766,-0.0508 v 0.35938 c 0.33984,-0.23047 0.78125,-0.39844 1.28125,-0.39844 1.23828,0 2.03906,0.78125 2.03906,2.36719 0,1.74219 -1.08984,2.69922 -2.67969,2.69922 -0.23828,0 -0.41015,-0.0195 -0.60937,-0.0586 v 1.91016 h -1.12891 z m 0,0"
         id="path2276" />
      <path
         style="fill:#42175c;fill-opacity:1;fill-rule:nonzero;stroke:none"
         d="m 503.69141,200.91016 v 1.9375 h 0.76171 c 0.8086,0 1.26954,-0.33985 1.26954,-0.98829 0,-0.60156 -0.42188,-0.94921 -1.53907,-0.94921 z m 0,-2.69922 v 1.80078 h 0.51953 c 0.83984,0 1.24218,-0.29297 1.24218,-0.94922 0,-0.58203 -0.35156,-0.85156 -1.19921,-0.85156 z m -1.19922,5.59765 V 197.25 h 1.80859 c 1.69141,0 2.41016,0.65234 2.41016,1.58203 0,0.80859 -0.33203,1.28906 -0.9375,1.52734 v 0.0195 c 0.80859,0.19921 1.20703,0.69921 1.20703,1.46093 0,1.25 -0.82813,1.96875 -2.48828,1.96875 z m 0,0"
         id="path2278" />
    </g>
    <g
       transform="matrix(0.3527778,0,0,0.3527778,-31.279504,140.8166)"
       id="g2300"
       style="fill:#0068b3;fill-opacity:1">
      <g
         id="use2280"
         transform="translate(434.90811,177.1039)">
        <path
           style="stroke:none"
           d="m 1.234375,-8.765625 c 0.4375,-0.125 0.894531,-0.222656 1.375,-0.296875 0.488281,-0.082031 0.929688,-0.125 1.328125,-0.125 H 4.890625 V 0 h -1.6875 v -7.734375 c -0.28125,0 -0.601562,0.023437 -0.953125,0.0625 -0.355469,0.03125 -0.695312,0.085937 -1.015625,0.15625 z m 0,0"
           id="path9956" />
      </g>
      <g
         id="use2282"
         transform="translate(442.09009,177.1039)">
        <path
           style="stroke:none"
           d="m 1.234375,-8.765625 c 0.4375,-0.125 0.894531,-0.222656 1.375,-0.296875 0.488281,-0.082031 0.929688,-0.125 1.328125,-0.125 H 4.890625 V 0 h -1.6875 v -7.734375 c -0.28125,0 -0.601562,0.023437 -0.953125,0.0625 -0.355469,0.03125 -0.695312,0.085937 -1.015625,0.15625 z m 0,0"
           id="path9960" />
      </g>
      <g
         id="use2284"
         transform="translate(449.27209,177.1039)">
        <path
           style="stroke:none"
           d=""
           id="path9964" />
      </g>
      <g
         id="use2286"
         transform="translate(451.56812,177.1039)">
        <path
           style="stroke:none"
           d="m 9.15625,-4.234375 c 0,-0.445313 -0.109375,-0.773438 -0.328125,-0.984375 -0.210937,-0.21875 -0.523437,-0.328125 -0.9375,-0.328125 -0.25,0 -0.46875,0.023437 -0.65625,0.0625 -0.179687,0.03125 -0.386719,0.101562 -0.625,0.203125 V 0 H 5.03125 v -4.234375 c 0,-0.46875 -0.109375,-0.800781 -0.328125,-1 -0.210937,-0.207031 -0.523437,-0.3125 -0.9375,-0.3125 -0.261719,0 -0.480469,0.023437 -0.65625,0.0625 -0.179687,0.03125 -0.386719,0.101562 -0.625,0.203125 V 0 h -1.59375 v -6.890625 l 1.546875,-0.0625 v 0.5 C 2.75,-6.640625 3.039063,-6.78125 3.3125,-6.875 3.59375,-6.96875 3.90625,-7.015625 4.25,-7.015625 c 0.445313,0 0.820313,0.070312 1.125,0.203125 0.300781,0.125 0.554688,0.308594 0.765625,0.546875 C 6.484375,-6.503906 6.832031,-6.6875 7.1875,-6.8125 c 0.351563,-0.132813 0.738281,-0.203125 1.15625,-0.203125 0.757813,0 1.347656,0.214844 1.765625,0.640625 0.414063,0.429687 0.625,1.039062 0.625,1.828125 V 0 H 9.15625 Z m 0,0"
           id="path9968" />
      </g>
      <g
         id="use2288"
         transform="translate(463.09009,177.1039)">
        <path
           style="stroke:none"
           d="M 6.015625,0 H 4.53125 v -0.453125 c -0.28125,0.1875 -0.574219,0.324219 -0.875,0.40625 -0.304687,0.0820313 -0.664062,0.125 -1.078125,0.125 C 1.867188,0.078125 1.320313,-0.09375 0.9375,-0.4375 0.5625,-0.789063 0.375,-1.257813 0.375,-1.84375 c 0,-0.320313 0.0625,-0.613281 0.1875,-0.875 0.125,-0.269531 0.316406,-0.5 0.578125,-0.6875 0.257813,-0.195313 0.585938,-0.347656 0.984375,-0.453125 0.394531,-0.101563 0.863281,-0.15625 1.40625,-0.15625 0.175781,0 0.335938,0.00781 0.484375,0.015625 0.15625,0 0.3125,0 0.46875,0 v -0.390625 c 0,-0.382813 -0.121094,-0.675781 -0.359375,-0.875 -0.242187,-0.207031 -0.636719,-0.3125 -1.1875,-0.3125 -0.335937,0 -0.652344,0.03125 -0.953125,0.09375 C 1.679688,-5.421875 1.34375,-5.3125 0.96875,-5.15625 L 0.734375,-6.484375 c 0.4375,-0.1875 0.847656,-0.320313 1.234375,-0.40625 0.394531,-0.082031 0.816406,-0.125 1.265625,-0.125 0.9375,0 1.632813,0.214844 2.09375,0.640625 0.457031,0.417969 0.6875,1.015625 0.6875,1.796875 z M 2,-1.96875 c 0,0.242187 0.085938,0.433594 0.265625,0.578125 0.1875,0.148437 0.441406,0.21875 0.765625,0.21875 0.269531,0 0.515625,-0.023438 0.734375,-0.078125 0.226563,-0.0625 0.46875,-0.160156 0.71875,-0.296875 V -2.84375 C 4.347656,-2.851563 4.195313,-2.859375 4.03125,-2.859375 3.863281,-2.867188 3.707031,-2.875 3.5625,-2.875 3,-2.875 2.597656,-2.789063 2.359375,-2.625 2.117188,-2.457031 2,-2.238281 2,-1.96875 Z m 0,0"
           id="path9972" />
      </g>
      <g
         id="use2290"
         transform="translate(469.8941,177.1039)">
        <path
           style="stroke:none"
           d="M 6.015625,0 H 4.53125 v -0.453125 c -0.28125,0.1875 -0.574219,0.324219 -0.875,0.40625 -0.304687,0.0820313 -0.664062,0.125 -1.078125,0.125 C 1.867188,0.078125 1.320313,-0.09375 0.9375,-0.4375 0.5625,-0.789063 0.375,-1.257813 0.375,-1.84375 c 0,-0.320313 0.0625,-0.613281 0.1875,-0.875 0.125,-0.269531 0.316406,-0.5 0.578125,-0.6875 0.257813,-0.195313 0.585938,-0.347656 0.984375,-0.453125 0.394531,-0.101563 0.863281,-0.15625 1.40625,-0.15625 0.175781,0 0.335938,0.00781 0.484375,0.015625 0.15625,0 0.3125,0 0.46875,0 v -0.390625 c 0,-0.382813 -0.121094,-0.675781 -0.359375,-0.875 -0.242187,-0.207031 -0.636719,-0.3125 -1.1875,-0.3125 -0.335937,0 -0.652344,0.03125 -0.953125,0.09375 C 1.679688,-5.421875 1.34375,-5.3125 0.96875,-5.15625 L 0.734375,-6.484375 c 0.4375,-0.1875 0.847656,-0.320313 1.234375,-0.40625 0.394531,-0.082031 0.816406,-0.125 1.265625,-0.125 0.9375,0 1.632813,0.214844 2.09375,0.640625 0.457031,0.417969 0.6875,1.015625 0.6875,1.796875 z M 2,-1.96875 c 0,0.242187 0.085938,0.433594 0.265625,0.578125 0.1875,0.148437 0.441406,0.21875 0.765625,0.21875 0.269531,0 0.515625,-0.023438 0.734375,-0.078125 0.226563,-0.0625 0.46875,-0.160156 0.71875,-0.296875 V -2.84375 C 4.347656,-2.851563 4.195313,-2.859375 4.03125,-2.859375 3.863281,-2.867188 3.707031,-2.875 3.5625,-2.875 3,-2.875 2.597656,-2.789063 2.359375,-2.625 2.117188,-2.457031 2,-2.238281 2,-1.96875 Z m 0,0"
           id="path9976" />
      </g>
      <g
         id="use2292"
         transform="translate(476.69809,177.1039)">
        <path
           style="stroke:none"
           d="m 5.09375,-4.234375 c 0,-0.457031 -0.109375,-0.789063 -0.328125,-1 -0.210937,-0.207031 -0.523437,-0.3125 -0.9375,-0.3125 -0.261719,0 -0.492187,0.023437 -0.6875,0.0625 -0.199219,0.03125 -0.417969,0.101562 -0.65625,0.203125 V 0 h -1.59375 v -6.890625 l 1.546875,-0.0625 v 0.5 c 0.300781,-0.1875 0.59375,-0.328125 0.875,-0.421875 0.28125,-0.09375 0.597656,-0.140625 0.953125,-0.140625 0.757813,0 1.347656,0.214844 1.765625,0.640625 0.425781,0.417969 0.640625,1.023437 0.640625,1.8125 V 0 H 5.09375 Z m 0,0"
           id="path9980" />
      </g>
      <g
         id="use2294"
         transform="translate(484.1601,177.1039)">
        <path
           style="stroke:none"
           d="m 6.703125,0 h -1.53125 v -0.46875 c -0.25,0.179687 -0.527344,0.3125 -0.828125,0.40625 C 4.039063,0.03125 3.71875,0.078125 3.375,0.078125 2.945313,0.078125 2.554688,0.0078125 2.203125,-0.125 1.847656,-0.269531 1.539063,-0.484375 1.28125,-0.765625 c -0.25,-0.28125 -0.449219,-0.632813 -0.59375,-1.0625 -0.136719,-0.425781 -0.203125,-0.914063 -0.203125,-1.46875 0,-0.59375 0.085938,-1.117188 0.265625,-1.578125 0.175781,-0.457031 0.425781,-0.84375 0.75,-1.15625 0.320313,-0.320313 0.703125,-0.566406 1.140625,-0.734375 0.445313,-0.164063 0.9375,-0.25 1.46875,-0.25 0.1875,0 0.363281,0.011719 0.53125,0.03125 C 4.804688,-6.972656 4.96875,-6.945313 5.125,-6.90625 V -9.703125 L 6.703125,-9.78125 Z M 4.125,-5.65625 c -0.617187,0 -1.105469,0.199219 -1.46875,0.59375 -0.367187,0.398437 -0.546875,0.953125 -0.546875,1.671875 0,0.742187 0.160156,1.277344 0.484375,1.609375 0.320313,0.324219 0.738281,0.484375 1.25,0.484375 0.257813,0 0.476563,-0.019531 0.65625,-0.0625 C 4.6875,-1.410156 4.894531,-1.5 5.125,-1.625 V -5.578125 C 4.957031,-5.597656 4.796875,-5.613281 4.640625,-5.625 4.484375,-5.644531 4.3125,-5.65625 4.125,-5.65625 Z m 0,0"
           id="path9984" />
      </g>
      <g
         id="use2296"
         transform="translate(491.76208,177.1039)">
        <path
           style="stroke:none"
           d="m 0.484375,-3.4375 c 0,-0.59375 0.082031,-1.113281 0.25,-1.5625 0.164063,-0.457031 0.390625,-0.835938 0.671875,-1.140625 0.28125,-0.300781 0.609375,-0.53125 0.984375,-0.6875 0.382813,-0.15625 0.789063,-0.234375 1.21875,-0.234375 0.851563,0 1.523438,0.246094 2.015625,0.734375 0.488281,0.492187 0.734375,1.1875 0.734375,2.09375 0,0.21875 -0.00781,0.433594 -0.015625,0.640625 0,0.199219 -0.011719,0.382812 -0.03125,0.546875 H 2.03125 c 0.082031,0.617187 0.300781,1.070312 0.65625,1.359375 0.351563,0.28125 0.84375,0.421875 1.46875,0.421875 0.394531,0 0.742188,-0.023438 1.046875,-0.078125 0.300781,-0.050781 0.625,-0.132813 0.96875,-0.25 v 1.3125 C 5.804688,-0.15625 5.457031,-0.0625 5.125,0 4.800781,0.0507813 4.414063,0.078125 3.96875,0.078125 3.425781,0.078125 2.941406,0.0078125 2.515625,-0.125 2.097656,-0.269531 1.738281,-0.488281 1.4375,-0.78125 1.132813,-1.070313 0.898438,-1.4375 0.734375,-1.875 c -0.167969,-0.4375 -0.25,-0.957031 -0.25,-1.5625 z M 4.8125,-4.21875 c 0,-0.46875 -0.121094,-0.84375 -0.359375,-1.125 C 4.222656,-5.632813 3.90625,-5.78125 3.5,-5.78125 c -0.375,0 -0.695312,0.136719 -0.953125,0.40625 -0.25,0.261719 -0.414062,0.648437 -0.484375,1.15625 z m 0,0"
           id="path9988" />
      </g>
      <g
         id="use2298"
         transform="translate(498.58011,177.1039)">
        <path
           style="stroke:none"
           d="m 5.09375,-4.234375 c 0,-0.457031 -0.109375,-0.789063 -0.328125,-1 -0.210937,-0.207031 -0.523437,-0.3125 -0.9375,-0.3125 -0.261719,0 -0.492187,0.023437 -0.6875,0.0625 -0.199219,0.03125 -0.417969,0.101562 -0.65625,0.203125 V 0 h -1.59375 v -6.890625 l 1.546875,-0.0625 v 0.5 c 0.300781,-0.1875 0.59375,-0.328125 0.875,-0.421875 0.28125,-0.09375 0.597656,-0.140625 0.953125,-0.140625 0.757813,0 1.347656,0.214844 1.765625,0.640625 0.425781,0.417969 0.640625,1.023437 0.640625,1.8125 V 0 H 5.09375 Z m 0,0"
           id="path9992" />
      </g>
    </g>
    <g
       transform="matrix(0.3527778,0,0,0.3527778,-31.279504,140.8166)"
       id="g10017">
      <path
         style="fill:none;stroke:#b80063;stroke-width:0.5;stroke-linecap:butt;stroke-linejoin:miter;stroke-miterlimit:4;stroke-opacity:1"
         d="M -4.125e-4,-0.0019375 -2.83635,-2.833969 V -13.173812 L -4.125e-4,-16.00975 H 27.347244 l 2.832031,2.835938 v 10.339843 l -2.832031,2.8320315 z m 0,0"
         transform="matrix(1,0,0,-1,438.8676,212.3965)"
         id="path2302" />
      <path
         style="fill:#b80063;fill-opacity:1;fill-rule:nonzero;stroke:none"
         d="m 443.98047,220.95703 c 0.20312,0.0312 0.37109,0.0391 0.57031,0.0391 0.82031,0 1.32031,-0.42968 1.32031,-1.19922 0,-0.75 -0.41015,-1.13671 -1.21093,-1.13671 h -0.67969 z m 0,3.29688 h -1.19922 v -6.55469 h 2.0625 c 1.46875,0 2.27734,0.80859 2.27734,2.00781 0,1.39844 -0.96093,2.25 -2.41797,2.25 -0.26953,0 -0.48046,-0.0117 -0.72265,-0.043 z m 0,0"
         id="path2304" />
      <path
         style="fill:#b80063;fill-opacity:1;fill-rule:nonzero;stroke:none"
         d="m 451,221.22656 c 0,-0.64844 -0.32031,-0.92969 -0.91016,-0.92969 -0.35937,0 -0.61718,0.0508 -0.95703,0.19141 v 3.76563 H 448 v -4.91407 l 1.10156,-0.0508 v 0.35938 c 0.42969,-0.26953 0.8086,-0.40235 1.3086,-0.40235 1.08203,0 1.71875,0.6211 1.71875,1.75 v 3.25782 H 451 Z m 0,0"
         id="path2306" />
      <path
         style="fill:#b80063;fill-opacity:1;fill-rule:nonzero;stroke:none"
         d="m 456.13281,221.24609 c 0,-0.67968 -0.36328,-1.11718 -0.9414,-1.11718 -0.53125,0 -0.92969,0.39062 -1.03125,1.11718 z m -0.85937,-2.02734 c 1.20703,0 1.95703,0.73047 1.95703,2.01953 0,0.29688 -0.0117,0.61719 -0.0312,0.83984 h -3.0586 c 0.1211,0.87891 0.63282,1.27735 1.51954,1.27735 0.5625,0 0.94921,-0.0781 1.4414,-0.23828 v 0.9375 c -0.51953,0.17187 -0.92187,0.26172 -1.57812,0.26172 -1.51172,0 -2.48047,-0.80079 -2.48047,-2.51954 0,-1.6914 1,-2.57812 2.23047,-2.57812"
         id="path2308" />
      <path
         style="fill:#b80063;fill-opacity:1;fill-rule:nonzero;stroke:none"
         d="m 459.25391,222.33594 c 0,0.67968 0.25781,0.96093 0.86718,0.96093 0.3711,0 0.60157,-0.0625 0.94141,-0.21093 v -3.75 l 1.12891,-0.0469 v 4.96485 h -1.08985 v -0.32813 c -0.4414,0.26953 -0.76172,0.41797 -1.25781,0.41797 -1.15234,0 -1.72266,-0.64844 -1.72266,-1.79688 v -3.21093 l 1.13282,-0.0469 z m 0,0"
         id="path2310" />
    </g>
    <path
       id="path2312"
       d="m 122.50543,205.78008 h 61.00024"
       style="fill:none;stroke:#0068b3;stroke-width:0.176389;stroke-linecap:butt;stroke-linejoin:miter;stroke-miterlimit:4;stroke-opacity:1" />
  </g>
</svg>
