<?xml version="1.0" encoding="UTF-8" standalone="no"?>
<svg
   xmlns:dc="http://purl.org/dc/elements/1.1/"
   xmlns:cc="http://creativecommons.org/ns#"
   xmlns:rdf="http://www.w3.org/1999/02/22-rdf-syntax-ns#"
   xmlns:svg="http://www.w3.org/2000/svg"
   xmlns="http://www.w3.org/2000/svg"
   id="svg22648"
   version="1.1"
   viewBox="0 0 68.188087 49.04163"
   height="49.04163mm"
   width="68.188087mm">
  <defs
     id="defs22642">
    <clipPath
       id="clip6">
      <path
         id="path1555"
         d="M 707,325 H 819.32422 V 448.50781 H 707 Z m 0,0" />
    </clipPath>
    <clipPath
       id="clip7">
      <path
         id="path1558"
         d="M 685,325 H 810 V 448.50781 H 685 Z m 0,0" />
    </clipPath>
  </defs>
  <metadata
     id="metadata22645">
    <rdf:RDF>
      <cc:Work
         rdf:about="">
        <dc:format>image/svg+xml</dc:format>
        <dc:type
           rdf:resource="http://purl.org/dc/dcmitype/StillImage" />
        <dc:title></dc:title>
      </cc:Work>
    </rdf:RDF>
  </metadata>
  <g
     transform="translate(-84.590479,-103.99109)"
     id="layer1">
    <path
       id="path3170"
       d="M 84.590479,153.03272 H 152.77857 V 103.99109 H 84.590479 Z m 0,0"
       style="fill:#ffffff;fill-opacity:1;fill-rule:nonzero;stroke:none;stroke-width:0.352777" />
    <g
       transform="matrix(0.3527778,0,0,0.3527778,-136.26082,-5.1908772)"
       id="g23342">
      <path
         style="fill:#8f8f8f;fill-opacity:1;fill-rule:nonzero;stroke:none"
         d="m 721.49219,434.90234 v -54.8164 c 0,-0.65235 0.53125,-1.1836 1.18359,-1.1836 h 1.78516 c 0.65625,0 1.18359,0.53125 1.18359,1.1836 v 54.8164 c 0,0.65625 -0.52734,1.1836 -1.18359,1.1836 h -1.78516 c -0.65234,0 -1.18359,-0.52735 -1.18359,-1.1836"
         id="path3172" />
      <path
         style="fill:#8f8f8f;fill-opacity:1;fill-rule:nonzero;stroke:none"
         d="m 711.61719,440.05859 v -25.94531 c 0,-0.65234 0.53125,-1.18359 1.18359,-1.18359 h 1.78516 c 0.65234,0 1.18359,0.53125 1.18359,1.18359 v 25.94531 c 0,0.65625 -0.53125,1.1836 -1.18359,1.1836 h -1.78516 c -0.65234,0 -1.18359,-0.52735 -1.18359,-1.1836"
         id="path3174" />
      <path
         style="fill:#8f8f8f;fill-opacity:1;fill-rule:nonzero;stroke:none"
         d="m 780.75,434.90234 v -54.8164 c 0,-0.65235 0.53125,-1.1836 1.18359,-1.1836 h 1.78516 c 0.65625,0 1.18359,0.53125 1.18359,1.1836 v 54.8164 c 0,0.65625 -0.52734,1.1836 -1.18359,1.1836 h -1.78516 c -0.65234,0 -1.18359,-0.52735 -1.18359,-1.1836"
         id="path3176" />
      <path
         style="fill:#8f8f8f;fill-opacity:1;fill-rule:nonzero;stroke:none"
         d="m 790.79687,440.05859 v -25.94531 c 0,-0.65234 0.53125,-1.18359 1.1836,-1.18359 h 1.78515 c 0.65625,0 1.1836,0.53125 1.1836,1.18359 v 25.94531 c 0,0.65625 -0.52735,1.1836 -1.1836,1.1836 h -1.78515 c -0.65235,0 -1.1836,-0.52735 -1.1836,-1.1836"
         id="path3178" />
      <path
         style="fill:#8f8f8f;fill-opacity:1;fill-rule:nonzero;stroke:none"
         d="m 797.50781,417.32422 h -88.84765 c -0.65235,0 -1.1836,-0.53125 -1.1836,-1.1836 v -1.78515 c 0,-0.65625 0.53125,-1.1836 1.1836,-1.1836 h 88.84765 c 0.65235,0 1.1836,0.52735 1.1836,1.1836 v 1.78515 c 0,0.65235 -0.53125,1.1836 -1.1836,1.1836"
         id="path3180" />
      <path
         style="fill:#541e0c;fill-opacity:1;fill-rule:nonzero;stroke:none"
         d="m 800.60156,391.78125 h -95.03125 c -0.65625,0 -1.1875,-0.53125 -1.1875,-1.18359 v -6.94141 c 0,-0.65234 0.53125,-1.18359 1.1875,-1.18359 h 95.03125 c 0.65235,0 1.1836,0.53125 1.1836,1.18359 v 6.94141 c 0,0.65234 -0.53125,1.18359 -1.1836,1.18359"
         id="path3182" />
      <path
         style="fill:#541e0c;fill-opacity:1;fill-rule:nonzero;stroke:none"
         d="m 800.60156,403.11328 h -95.03125 c -0.65625,0 -1.1875,-0.52734 -1.1875,-1.18359 v -6.94141 c 0,-0.65234 0.53125,-1.18359 1.1875,-1.18359 h 95.03125 c 0.65235,0 1.1836,0.53125 1.1836,1.18359 v 6.94141 c 0,0.65625 -0.53125,1.18359 -1.1836,1.18359"
         id="path3184" />
      <path
         style="fill:#541e0c;fill-opacity:1;fill-rule:nonzero;stroke:none"
         d="m 800.60156,413.85156 h -95.03125 c -0.65625,0 -1.1875,-0.53125 -1.1875,-1.18359 v -1.78516 c 0,-0.65234 0.53125,-1.18359 1.1875,-1.18359 h 95.03125 c 0.65235,0 1.1836,0.53125 1.1836,1.18359 v 1.78516 c 0,0.65234 -0.53125,1.18359 -1.1836,1.18359"
         id="path3186" />
    </g>
    <g
       transform="matrix(0.3527778,0,0,0.3527778,-136.26082,-5.1908772)"
       id="g23332">
      <path
         style="fill:#026b9e;fill-opacity:1;fill-rule:nonzero;stroke:none"
         d="m 767.81641,405.58594 c 0,2.32422 -4.16407,4.20703 -9.30079,4.20703 -5.13671,0 -9.30078,-1.88281 -9.30078,-4.20703 0,-2.32032 4.16407,-4.20703 9.30078,-4.20703 5.13672,0 9.30079,1.88671 9.30079,4.20703"
         id="path3188" />
      <path
         style="fill:#fdd9ab;fill-opacity:1;fill-rule:nonzero;stroke:none"
         d="M 754.41797,435.03516 V 437.25 l -2.21094,1.03516 -2.21484,-1.17969 0.21875,-2.51172 z m 0,0"
         id="path3190" />
      <path
         style="fill:#947011;fill-opacity:1;fill-rule:nonzero;stroke:none"
         d="m 745.41406,440.85547 h 9.22656 v -0.95703 h -9.22656 z m 0,0"
         id="path3192" />
      <path
         style="fill:#541e0c;fill-opacity:1;fill-rule:nonzero;stroke:none"
         d="m 754.64062,436.14453 v 3.875 h -9.22656 c 0,0 1.05078,-4.05078 9.22656,-4.17187"
         id="path3194" />
      <path
         style="fill:#fdd9ab;fill-opacity:1;fill-rule:nonzero;stroke:none"
         d="M 762.45312,435.03516 V 437.25 l 2.21485,1.03516 2.21094,-1.17969 -0.21875,-2.51172 z m 0,0"
         id="path3196" />
      <path
         style="fill:#947011;fill-opacity:1;fill-rule:nonzero;stroke:none"
         d="m 771.45703,440.85547 h -9.22656 v -0.95703 h 9.22656 z m 0,0"
         id="path3198" />
      <path
         style="fill:#541e0c;fill-opacity:1;fill-rule:nonzero;stroke:none"
         d="m 762.23047,436.14453 v 3.875 h 9.22656 c 0,0 -1.05078,-4.05078 -9.22656,-4.17187"
         id="path3200" />
      <path
         style="fill:#eb6805;fill-opacity:1;fill-rule:nonzero;stroke:none"
         d="m 763.26562,372.07422 c -0.49609,1.9375 -1.96484,3.14062 -4.07421,3.16015 -1.94141,0.0195 -3.82032,-1.6289 -3.78907,-3.5625 -4.33984,-0.24218 -5.14453,2.53125 -5.54297,3.8125 -2.60546,8.36719 -2.60546,23.00391 -2.60546,26.21485 5.07812,2.21094 15.02343,3.16406 21.14062,1.8125 0.0898,-3.90235 1.13281,-28.53516 1.13281,-28.53516 0.375,-2.35937 -3.22265,-2.44922 -6.26172,-2.90234"
         id="path3206" />
      <path
         style="fill:#541e0c;fill-opacity:1;fill-rule:nonzero;stroke:none"
         d="m 753.25391,382.93359 c 0,0.44141 -0.25782,0.80078 -0.57422,0.80078 -0.32032,0 -0.57813,-0.35937 -0.57813,-0.80078 0,-0.44531 0.25781,-0.80078 0.57813,-0.80078 0.3164,0 0.57422,0.35547 0.57422,0.80078"
         id="path3212" />
      <path
         style="fill:#009ee3;fill-opacity:1;fill-rule:nonzero;stroke:none"
         d="m 749.95312,435.33203 c 0,0 -3.38281,-25.62891 -3.32031,-28.71094 0.0742,-3.6914 1.47656,-5.60937 4.13281,-5.60937 2.65625,0 4.35547,1.84375 4.35547,11.66015 0,9.81641 -0.37109,22.66016 -0.37109,22.66016 z m 0,0"
         id="path3214" />
      <path
         style="fill:#009ee3;fill-opacity:1;fill-rule:nonzero;stroke:none"
         d="m 766.91797,435.33203 c 0,0 3.38281,-25.62891 3.32031,-28.71094 -0.0742,-3.6914 -1.47656,-5.60937 -4.13281,-5.60937 -2.65625,0 -4.35547,1.84375 -4.35547,11.66015 0,9.81641 0.37109,22.66016 0.37109,22.66016 z m 0,0"
         id="path3216" />
      <path
         style="fill:#828282;fill-opacity:1;fill-rule:nonzero;stroke:none"
         d="m 760.125,395.83203 h -4.87891 c -0.42187,0 -0.76172,-0.34375 -0.76172,-0.76562 v -10.27735 c 0,-0.42187 0.33985,-0.76172 0.76172,-0.76172 h 4.87891 c 0.42187,0 0.76562,0.33985 0.76562,0.76172 v 10.27735 c 0,0.42187 -0.34375,0.76562 -0.76562,0.76562"
         id="path3218" />
      <path
         style="fill:#bababa;fill-opacity:1;fill-rule:nonzero;stroke:none"
         d="m 760.84375,394.6875 h -6.35938 v -8.74219 h 6.35938 z m 0,0"
         id="path3220" />
      <path
         style="fill:#282828;fill-opacity:1;fill-rule:nonzero;stroke:none"
         d="m 759.79297,384.98828 c 0,0.15234 -0.125,0.27344 -0.27735,0.27344 -0.14843,0 -0.27343,-0.1211 -0.27343,-0.27344 0,-0.15234 0.125,-0.27734 0.27343,-0.27734 0.15235,0 0.27735,0.125 0.27735,0.27734"
         id="path3222" />
      <path
         style="fill:#fdd9ab;fill-opacity:1;fill-rule:nonzero;stroke:none"
         d="m 763.11328,393.82422 c 0,0 0.68359,-2.67578 0.58203,-3.25 -0.10156,-0.57031 -0.18359,-0.6875 -0.18359,-0.6875 0,0 1.05859,-1.72266 0.88672,-2.39453 -0.17188,-0.66797 -2.26563,-1.73828 -2.69141,-1.23438 -0.24219,0.28516 0.23828,0.6836 0.72266,0.96094 0.48047,0.27734 0.60937,0.50391 0.60937,0.79687 -0.004,0.29297 -0.0742,0.25782 -0.0742,0.25782 0,0 -0.0664,-0.47266 -0.43359,-0.48438 -1.3125,-0.0312 -3.06641,-0.77734 -3.33594,-0.82031 -0.49609,-0.082 -0.82031,0.8125 -0.0703,1.25391 0.22266,0.1289 2.54687,0.6875 2.54687,0.6875 0,0 -3.01562,-0.55079 -3.15234,-0.50782 -0.46875,0.15625 -0.1875,0.78125 0.15234,1.06641 0.38282,0.31641 1.35938,0.33984 2.22657,0.74219 0.41015,0.1914 0.84765,0.54297 0.84765,0.54297 0,0 -2.34765,-0.97657 -2.61328,-0.82032 -0.26562,0.15625 -0.30469,0.95313 0.37891,1.27735 0.39453,0.18359 1.1289,0.49609 1.17187,0.64453 0.043,0.14453 -0.99609,1.32422 -1.25,1.76172 -0.25,0.4375 0.0156,1.33203 0.60547,1.59765 0.58985,0.26172 2.45313,0.1836 2.45313,0.1836 z m 0,0"
         id="path3224" />
      <path
         style="fill:#fdd9ab;fill-opacity:1;fill-rule:nonzero;stroke:none"
         d="m 753.18359,395.07031 c 0,0 -1.54687,-4.02344 -1.40234,-4.5664 0.11719,-0.4375 0.30859,-0.55079 0.0742,-0.94141 -0.15625,-0.26172 -0.1211,-0.61328 -0.082,-0.90625 0.1289,-0.99609 0.77343,-1.84766 1.05859,-2.8125 0.0547,-0.17969 0.0977,-0.375 0.22656,-0.51172 0.13282,-0.14062 0.34766,-0.19922 0.53125,-0.14453 0.1875,0.0547 0.33594,0.21875 0.3711,0.41016 0.0781,0.42578 -0.14063,1.11328 -0.27344,1.52343 -0.0859,0.27344 -0.16016,0.79688 -0.28516,1.15235 l 0.23828,0.0312 c 0.30469,0.008 1.16016,-0.043 1.49219,-0.0469 0.50391,0 1.05469,-0.10937 1.5586,-0.043 0.51562,0.0586 0.79687,1.04688 -0.0117,1.26563 -0.23828,0.0664 -2.6875,-0.0469 -2.6875,-0.0469 0,0 3.16797,0.32032 3.30859,0.40625 0.47656,0.28907 0.14063,0.82813 -0.23047,1.01172 -0.41406,0.21094 -1.43359,-0.0508 -2.35937,0.0977 -0.4375,0.0742 -0.91797,0.29687 -0.91797,0.29687 0,0 2.5039,-0.29297 2.77344,-0.0625 0.26562,0.23438 0.2539,1.03907 -0.48047,1.16016 -0.41797,0.0742 -1.20313,0.17187 -1.25391,0.30469 -0.0195,0.0469 0.082,0.24609 0.23047,0.51172 0.44922,0.78906 -0.0117,1.78515 -0.90234,1.96093 l -0.40625,0.082 z m 0,0"
         id="path3226" />
      <g
         clip-path="url(#clip6)"
         clip-rule="nonzero"
         id="g3230">
        <path
           style="fill:none;stroke:#fdd9ab;stroke-width:3.933;stroke-linecap:butt;stroke-linejoin:miter;stroke-miterlimit:10;stroke-opacity:1"
           d="m 9.75e-4,0.001725 c 0,0 5.480469,-12.664062 5.480469,-15.050781 0,-2.386719 -13.648438,2.902344 -13.648438,2.902344"
           transform="matrix(1,0,0,-1,770.7959,381.4236)"
           id="path3228" />
      </g>
      <path
         style="fill:#eb6805;fill-opacity:1;fill-rule:nonzero;stroke:none"
         d="m 767.84375,384.48437 c -4.09375,-3.69921 -2.54297,-7.8789 -2.73438,-8.12109 l 2.66797,-3.41016 c 4.0625,0.87891 7.6875,9.40235 7.6875,9.40235 0,0 -4.875,1.23437 -6.72656,1.92187"
         id="path3232" />
      <g
         clip-path="url(#clip7)"
         clip-rule="nonzero"
         id="g3236">
        <path
           style="fill:none;stroke:#fdd9ab;stroke-width:3.933;stroke-linecap:butt;stroke-linejoin:miter;stroke-miterlimit:10;stroke-opacity:1"
           d="m 2.5625e-4,0.001725 c 0,0 -5.48437525,-12.664062 -5.48437525,-15.050781 0,-2.386719 12.996094,3.289062 12.996094,3.289062"
           transform="matrix(1,0,0,-1,746.2849,381.4236)"
           id="path3234" />
      </g>
      <path
         style="fill:#eb6805;fill-opacity:1;fill-rule:nonzero;stroke:none"
         d="m 749.23437,384.48437 c 4.09766,-3.69921 2.54688,-7.8789 2.73829,-8.12109 l -2.66797,-3.41016 c -4.06641,0.87891 -7.6875,9.40235 -7.6875,9.40235 0,0 4.875,1.23437 6.72656,1.92187"
         id="path3238" />
      <path
         style="fill:#fdd9ab;fill-opacity:1;fill-rule:nonzero;stroke:none"
         d="m 759.37891,366.50781 c 1.14062,0 2.69531,0.52735 3.42578,2.00781 0.47265,0.95704 0.64843,1.82813 0.67578,2.7461 0.0273,0.92578 -0.12891,4.85547 -4.625,4.95312 -4.4961,0.10157 -4.40235,-3.82422 -4.31641,-4.7539 0.0859,-0.91797 0.3125,-1.90235 0.85547,-2.78125 0.91016,-1.47657 2.41406,-2.11328 3.55469,-2.16407 z m 0,0"
         id="path3240" />
      <path
         style="fill:#fabf78;fill-opacity:1;fill-rule:nonzero;stroke:none"
         d="m 753.38672,370.02344 c 4.05859,5.58203 7.76562,5.58203 11.1289,0 z m 0,0"
         id="path3242" />
      <path
         style="fill:#541e0c;fill-opacity:1;fill-rule:nonzero;stroke:none"
         d="m 750.64062,367.30859 c 0.85938,0.71485 0.56641,2.09375 -0.1914,3.39844 -0.40235,0.69922 -0.9961,1.30859 -1.21875,2.08594 -0.21875,0.77734 0.22656,1.65625 1.08984,2.16406 0.15625,0.0898 0.26953,0.63281 0.44531,0.66016 0.56641,0.0937 0.78516,1.33203 0.65235,1.89062 -0.14063,0.55469 -0.23828,0.41797 -0.42578,0.96094 -0.1875,0.54297 -0.17188,1.04687 0.34765,1.28906 0.46485,0.21485 0.84375,0.26172 1.32032,0.45313 0.43359,0.4375 -0.11329,1.125 -0.58985,1.51562 -0.47656,0.38672 -0.89453,1.21875 -0.35156,1.50781 0.14453,0.0781 0.31641,0.0781 0.48047,0.0781 0.34375,-0.004 0.6875,-0.0117 1.03125,-0.0117 0.23437,-0.004 0.49609,-0.0156 0.67187,-0.17578 0.4336,-0.39844 -0.10156,-1.08203 -0.61718,-1.37109 -0.51172,-0.28516 -1.14844,-0.80469 -0.86329,-1.32032 0.14063,-0.2539 0.55079,-0.23047 0.71094,-0.47656 0.2461,-0.375 0.40235,-0.78125 0.22656,-1.52734 -0.19921,-0.82422 -1.10937,0.11718 -1.5664,-2.62891 -0.11328,-0.6875 0.32031,-1.33984 0.86328,-1.77734 0.54687,-0.4336 1.19531,-0.77735 1.55469,-1.375 0.55078,-0.91016 0.24609,-2.10547 -0.3086,-3.00782 -0.55468,-0.90625 -1.33203,-1.66796 -1.80468,-2.61718 -0.34766,-0.69532 -0.51563,-1.47657 -0.4961,-2.25391 0.008,-0.17969 0.0117,-0.37891 -0.125,-0.49219 -0.20312,-0.17187 -0.5,0.0195 -0.69531,0.20703 -0.42969,0.41407 0.53906,-2.39062 -0.86328,-0.6914 -1.39844,1.69922 -0.13672,2.79687 0.72265,3.51562"
         id="path3248" />
      <path
         style="fill:#541e0c;fill-opacity:1;fill-rule:nonzero;stroke:none"
         d="m 752.66016,369.05078 c 0.33984,0.48047 0.67187,0.98438 0.83593,1.55469 0.16016,0.5664 0.13282,1.21875 -0.21093,1.69922 -0.32032,0.45312 -0.92579,0.88281 -0.72266,1.39843 0.0664,0.17188 -0.008,-0.5625 0.11328,-0.42578 0.59766,0.65625 0.13672,1.89844 -0.40625,2.59766 -0.19922,0.25781 0.25,1.16406 0.0547,1.43359 -0.28906,0.39844 -0.39063,0.92578 -0.27344,1.40235 -0.125,0.21093 -0.47266,0.19922 -0.64062,0.0156 -0.16797,-0.18359 -0.17969,-0.46484 -0.11329,-0.70312 0.0469,-0.15235 0.11719,-0.31641 0.0469,-0.45703 -0.0625,-0.13672 -0.22266,-0.1875 -0.35938,-0.25 -0.47265,-0.21875 -0.76562,-0.73047 -0.82421,-1.25 -0.0547,-0.51954 0.0976,-1.03907 0.33593,-1.50782 0.25,-0.5039 0.60547,-1.08203 0.34375,-1.58203 -0.12109,-0.22656 0.0391,-1.39844 -0.14453,-1.57031 -0.875,-0.80469 -0.88281,-2.35938 -0.0234,-3.17578 0.29297,-0.27735 0.66016,-0.46875 0.94532,-0.75391 0.54687,-0.53906 0.35547,-0.38281 0.0859,-1.10156 z m 0,0"
         id="path3250" />
      <path
         style="fill:#fdd9ab;fill-opacity:1;fill-rule:nonzero;stroke:none"
         d="m 759.48437,372.20703 c 2.19532,-0.0547 5.21875,-1.30078 6.71875,-4.60547 0.96485,-2.1289 1.35938,-4.0625 1.46875,-6.08594 0.11329,-2.05078 0.0508,-10.71484 -8.60156,-10.71484 -8.64844,0 -8.71094,8.66406 -8.60156,10.71484 0.11328,2.02344 0.48828,4.17579 1.47266,6.08594 1.66406,3.22656 4.52343,4.55078 6.71875,4.60547 z m 0,0"
         id="path3252" />
      <path
         style="fill:#541e0c;fill-opacity:1;fill-rule:nonzero;stroke:none"
         d="m 759.09375,351.39062 c -0.13281,1.51172 -0.5,3.28516 -0.41406,4.07032 0.0937,0.78515 1.60156,1.9414 2.37109,2.21484 1.26172,0.45313 2.32031,-0.10156 3.12109,0.57813 1.0586,0.90234 0.99219,1.8125 1.49219,2.71484 0.50391,0.89844 0.96094,1.07031 1.33594,1.65234 0.41016,0.62891 0.35937,1.04297 0.16797,2.07032 0.78906,0.16015 2.01562,-0.67969 2.47265,-1.33594 0.45704,-0.66016 0.53516,-1.54688 0.27344,-2.30469 -0.19531,-0.57031 -0.57422,-1.09766 -0.58203,-1.70312 -0.008,-0.55469 0.30078,-1.0586 0.38672,-1.60547 0.12891,-0.80078 -0.26953,-1.65625 -0.96094,-2.07032 -0.70312,-0.42187 -1.76953,-0.55468 -1.93359,-1.35937 -0.12891,-0.63281 0.41406,-1.94922 -0.80469,-3.26172 -0.68359,-0.73437 -1.78906,-1.02734 -2.45703,-0.84375 -1.18359,0.32031 -0.94922,-0.50391 -2.65625,-0.36328 -0.58203,0.0469 -1.73047,0.62891 -1.8125,1.54687"
         id="path3254" />
      <path
         style="fill:#541e0c;fill-opacity:1;fill-rule:nonzero;stroke:none"
         d="m 759.05859,351.39062 c 0.13282,1.51172 0.50391,3.28516 0.41407,4.07032 -0.0899,0.78515 -1.60938,1.92187 -2.36719,2.21484 -1.16406,0.45313 -2.32422,-0.10156 -3.1211,0.57813 -1.05859,0.90234 -0.99218,1.8125 -1.49609,2.71484 -0.50391,0.89844 -0.96094,1.07031 -1.33594,1.65234 -0.40625,0.62891 -0.35547,1.04297 -0.16797,2.07032 -0.78515,0.16015 -2.01171,-0.67969 -2.47265,-1.33594 -0.45703,-0.66016 -0.53516,-1.54688 -0.27344,-2.30469 0.19922,-0.57031 0.57813,-1.09766 0.58203,-1.70312 0.0117,-0.55469 -0.30078,-1.0586 -0.38672,-1.60547 -0.1289,-0.80078 0.26953,-1.65625 0.96094,-2.07032 0.70313,-0.42187 1.77344,-0.55468 1.9375,-1.35937 0.12891,-0.63281 -0.41406,-1.94922 0.80469,-3.26172 0.67969,-0.73437 1.78515,-1.02734 2.45703,-0.84375 1.18359,0.32031 0.94531,-0.50391 2.65234,-0.36328 0.58203,0.0469 1.73047,0.62891 1.8125,1.54687"
         id="path3256" />
      <path
         style="fill:#541e0c;fill-opacity:1;fill-rule:nonzero;stroke:none"
         d="m 757.09766,350.12109 c 0,0.79297 0.89062,1.4375 1.98828,1.4375 1.10156,0 1.99218,-0.64453 1.99218,-1.4375 0,-0.79687 -0.89062,-1.4414 -1.99218,-1.4414 -1.09766,0 -1.98828,0.64453 -1.98828,1.4414"
         id="path3258" />
      <path
         style="fill:#b80063;fill-opacity:1;fill-rule:nonzero;stroke:none"
         d="m 753.65234,380.78125 c 0,0.47266 -0.4375,0.85156 -0.97265,0.85156 -0.53907,0 -0.97657,-0.3789 -0.97657,-0.85156 0,-0.46875 0.4375,-0.84766 0.97657,-0.84766 0.53515,0 0.97265,0.37891 0.97265,0.84766"
         id="path3260" />
    </g>
    <g
       transform="matrix(0.3527778,0,0,0.3527778,-136.26082,-5.1908772)"
       id="g23299">
      <path
         style="fill:none;stroke:#0068b3;stroke-width:0.5;stroke-linecap:butt;stroke-linejoin:miter;stroke-miterlimit:4;stroke-opacity:1"
         d="M -6.125e-4,-2.125e-4 H 172.91345"
         transform="matrix(1,0,0,-1,637.6178,339.2576)"
         id="path3262" />
      <g
         style="fill:#0068b3;fill-opacity:1"
         id="g3278">
        <g
           transform="translate(636.55139,331.69849)"
           id="use3264">
          <path
             id="path23211"
             d="m 1.234375,-8.765625 c 0.4375,-0.125 0.894531,-0.222656 1.375,-0.296875 0.488281,-0.082031 0.929688,-0.125 1.328125,-0.125 H 4.890625 V 0 h -1.6875 v -7.734375 c -0.28125,0 -0.601562,0.023437 -0.953125,0.0625 -0.355469,0.03125 -0.695312,0.085937 -1.015625,0.15625 z m 0,0"
             style="stroke:none" />
        </g>
        <g
           transform="translate(643.7334,331.69849)"
           id="use3266">
          <path
             id="path23215"
             d="M 5.96875,-3.140625 H 6.9375 v 1.3125 H 5.96875 V 0 H 4.296875 V -1.828125 H 0.65625 L 0.34375,-2.875 C 0.40625,-3.601563 0.539063,-4.289063 0.75,-4.9375 0.96875,-5.582031 1.242188,-6.171875 1.578125,-6.703125 1.921875,-7.242188 2.316406,-7.726563 2.765625,-8.15625 3.210938,-8.582031 3.707031,-8.9375 4.25,-9.21875 h 1.71875 z m -1.671875,0 v -4.5625 h -0.03125 c -0.6875,0.511719 -1.25,1.164062 -1.6875,1.953125 -0.4375,0.78125 -0.710937,1.652344 -0.8125,2.609375 z m 0,0"
             style="stroke:none" />
        </g>
        <g
           transform="translate(650.91541,331.69849)"
           id="use3268">
          <path
             id="path23219"
             d=""
             style="stroke:none" />
        </g>
        <g
           transform="translate(653.21143,331.69849)"
           id="use3270">
          <path
             id="path23223"
             d="m 2.484375,0 c 0,0.4375 -0.070312,0.816406 -0.203125,1.140625 C 2.15625,1.460938 1.976563,1.734375 1.75,1.953125 1.519531,2.171875 1.25,2.34375 0.9375,2.46875 0.632813,2.59375 0.3125,2.679688 -0.03125,2.734375 L -0.171875,1.46875 C 0.191406,1.375 0.457031,1.210938 0.625,0.984375 0.800781,0.753906 0.890625,0.4375 0.890625,0.03125 v -6.921875 l 1.59375,-0.0625 z M 0.75,-8.890625 c 0,-0.238281 0.078125,-0.445313 0.234375,-0.625 0.164063,-0.1875 0.398438,-0.28125 0.703125,-0.28125 0.289063,0 0.519531,0.085937 0.6875,0.25 0.164063,0.167969 0.25,0.386719 0.25,0.65625 0,0.242187 -0.085937,0.449219 -0.25,0.625 C 2.207031,-8.085938 1.976563,-8 1.6875,-8 1.382813,-8 1.148438,-8.078125 0.984375,-8.234375 0.828125,-8.398438 0.75,-8.617188 0.75,-8.890625 Z m 0,0"
             style="stroke:none" />
        </g>
        <g
           transform="translate(656.58539,331.69849)"
           id="use3272">
          <path
             id="path23227"
             d="M 6.015625,0 H 4.53125 v -0.453125 c -0.28125,0.1875 -0.574219,0.324219 -0.875,0.40625 -0.304687,0.0820313 -0.664062,0.125 -1.078125,0.125 C 1.867188,0.078125 1.320313,-0.09375 0.9375,-0.4375 0.5625,-0.789063 0.375,-1.257813 0.375,-1.84375 c 0,-0.320313 0.0625,-0.613281 0.1875,-0.875 0.125,-0.269531 0.316406,-0.5 0.578125,-0.6875 0.257813,-0.195313 0.585938,-0.347656 0.984375,-0.453125 0.394531,-0.101563 0.863281,-0.15625 1.40625,-0.15625 0.175781,0 0.335938,0.00781 0.484375,0.015625 0.15625,0 0.3125,0 0.46875,0 v -0.390625 c 0,-0.382813 -0.121094,-0.675781 -0.359375,-0.875 -0.242187,-0.207031 -0.636719,-0.3125 -1.1875,-0.3125 -0.335937,0 -0.652344,0.03125 -0.953125,0.09375 C 1.679688,-5.421875 1.34375,-5.3125 0.96875,-5.15625 L 0.734375,-6.484375 c 0.4375,-0.1875 0.847656,-0.320313 1.234375,-0.40625 0.394531,-0.082031 0.816406,-0.125 1.265625,-0.125 0.9375,0 1.632813,0.214844 2.09375,0.640625 0.457031,0.417969 0.6875,1.015625 0.6875,1.796875 z M 2,-1.96875 c 0,0.242187 0.085938,0.433594 0.265625,0.578125 0.1875,0.148437 0.441406,0.21875 0.765625,0.21875 0.269531,0 0.515625,-0.023438 0.734375,-0.078125 0.226563,-0.0625 0.46875,-0.160156 0.71875,-0.296875 V -2.84375 C 4.347656,-2.851563 4.195313,-2.859375 4.03125,-2.859375 3.863281,-2.867188 3.707031,-2.875 3.5625,-2.875 3,-2.875 2.597656,-2.789063 2.359375,-2.625 2.117188,-2.457031 2,-2.238281 2,-1.96875 Z m 0,0"
             style="stroke:none" />
        </g>
        <g
           transform="translate(663.3894,331.69849)"
           id="use3274">
          <path
             id="path23231"
             d="M 6.015625,0 H 4.53125 v -0.453125 c -0.28125,0.1875 -0.574219,0.324219 -0.875,0.40625 -0.304687,0.0820313 -0.664062,0.125 -1.078125,0.125 C 1.867188,0.078125 1.320313,-0.09375 0.9375,-0.4375 0.5625,-0.789063 0.375,-1.257813 0.375,-1.84375 c 0,-0.320313 0.0625,-0.613281 0.1875,-0.875 0.125,-0.269531 0.316406,-0.5 0.578125,-0.6875 0.257813,-0.195313 0.585938,-0.347656 0.984375,-0.453125 0.394531,-0.101563 0.863281,-0.15625 1.40625,-0.15625 0.175781,0 0.335938,0.00781 0.484375,0.015625 0.15625,0 0.3125,0 0.46875,0 v -0.390625 c 0,-0.382813 -0.121094,-0.675781 -0.359375,-0.875 -0.242187,-0.207031 -0.636719,-0.3125 -1.1875,-0.3125 -0.335937,0 -0.652344,0.03125 -0.953125,0.09375 C 1.679688,-5.421875 1.34375,-5.3125 0.96875,-5.15625 L 0.734375,-6.484375 c 0.4375,-0.1875 0.847656,-0.320313 1.234375,-0.40625 0.394531,-0.082031 0.816406,-0.125 1.265625,-0.125 0.9375,0 1.632813,0.214844 2.09375,0.640625 0.457031,0.417969 0.6875,1.015625 0.6875,1.796875 z M 2,-1.96875 c 0,0.242187 0.085938,0.433594 0.265625,0.578125 0.1875,0.148437 0.441406,0.21875 0.765625,0.21875 0.269531,0 0.515625,-0.023438 0.734375,-0.078125 0.226563,-0.0625 0.46875,-0.160156 0.71875,-0.296875 V -2.84375 C 4.347656,-2.851563 4.195313,-2.859375 4.03125,-2.859375 3.863281,-2.867188 3.707031,-2.875 3.5625,-2.875 3,-2.875 2.597656,-2.789063 2.359375,-2.625 2.117188,-2.457031 2,-2.238281 2,-1.96875 Z m 0,0"
             style="stroke:none" />
        </g>
        <g
           transform="translate(670.19342,331.69849)"
           id="use3276">
          <path
             id="path23235"
             d="m 4.609375,-5.390625 c -0.15625,-0.039063 -0.292969,-0.066406 -0.40625,-0.078125 -0.105469,-0.00781 -0.230469,-0.015625 -0.375,-0.015625 -0.21875,0 -0.4375,0.039062 -0.65625,0.109375 -0.21875,0.074219 -0.449219,0.203125 -0.6875,0.390625 V 0 h -1.59375 v -6.890625 l 1.578125,-0.0625 v 0.796875 c 0.238281,-0.3125 0.472656,-0.53125 0.703125,-0.65625 0.226563,-0.132813 0.476563,-0.203125 0.75,-0.203125 0.300781,0 0.566406,0.03125 0.796875,0.09375 z m 0,0"
             style="stroke:none" />
        </g>
      </g>
      <g
         style="fill:#42175c;fill-opacity:1"
         id="g3294">
        <g
           transform="translate(642.53003,359.6586)"
           id="use3280">
          <path
             id="path23239"
             d="M 2.0625,-5.328125 1.84375,0 H 0.703125 l 0.28125,-6.5625 h 1.90625 L 4.1875,-2.625 h 0.046875 l 1.3125,-3.9375 h 1.78125 L 7.640625,0 H 6.4375 l -0.25,-5.328125 H 6.125 l -1.3125,4.0625 H 3.46875 l -1.375,-4.0625 z m 0,0"
             style="stroke:none" />
        </g>
        <g
           transform="translate(650.87,359.6586)"
           id="use3282">
          <path
             id="path23243"
             d="m 0.34375,-2.453125 c 0,-0.425781 0.054688,-0.800781 0.171875,-1.125 C 0.640625,-3.898438 0.800781,-4.164063 1,-4.375 c 0.207031,-0.21875 0.445313,-0.382813 0.71875,-0.5 0.269531,-0.113281 0.554688,-0.171875 0.859375,-0.171875 0.601563,0 1.082031,0.179687 1.4375,0.53125 0.351563,0.355469 0.53125,0.855469 0.53125,1.5 0,0.148437 -0.00781,0.296875 -0.015625,0.453125 0,0.148437 -0.00781,0.273437 -0.015625,0.375 h -3.0625 c 0.0625,0.449219 0.21875,0.777344 0.46875,0.984375 0.25,0.199219 0.597656,0.296875 1.046875,0.296875 0.28125,0 0.53125,-0.015625 0.75,-0.046875 0.21875,-0.039063 0.445313,-0.101563 0.6875,-0.1875 v 0.9375 C 4.144531,-0.109375 3.894531,-0.0390625 3.65625,0 3.425781,0.0390625 3.148438,0.0625 2.828125,0.0625 c -0.375,0 -0.71875,-0.046875 -1.03125,-0.140625 -0.304687,-0.101563 -0.5625,-0.257813 -0.78125,-0.46875 -0.210937,-0.21875 -0.375,-0.484375 -0.5,-0.796875 C 0.398438,-1.65625 0.34375,-2.023438 0.34375,-2.453125 Z m 3.09375,-0.5625 c 0,-0.332031 -0.085937,-0.597656 -0.25,-0.796875 C 3.019531,-4.019531 2.789063,-4.125 2.5,-4.125 c -0.273437,0 -0.5,0.09375 -0.6875,0.28125 -0.179687,0.1875 -0.292969,0.464844 -0.34375,0.828125 z m 0,0"
             style="stroke:none" />
        </g>
        <g
           transform="translate(655.73999,359.6586)"
           id="use3284">
          <path
             id="path23247"
             d="m 3.640625,-3.03125 c 0,-0.320313 -0.078125,-0.554688 -0.234375,-0.703125 -0.148437,-0.144531 -0.371094,-0.21875 -0.671875,-0.21875 -0.1875,0 -0.355469,0.015625 -0.5,0.046875 -0.136719,0.023437 -0.292969,0.070312 -0.46875,0.140625 V 0 h -1.125 v -4.921875 l 1.09375,-0.046875 v 0.359375 c 0.21875,-0.132813 0.425781,-0.234375 0.625,-0.296875 0.207031,-0.070313 0.4375,-0.109375 0.6875,-0.109375 0.539063,0 0.960938,0.152344 1.265625,0.453125 0.300781,0.304687 0.453125,0.734375 0.453125,1.296875 V 0 h -1.125 z m 0,0"
             style="stroke:none" />
        </g>
        <g
           transform="translate(661.07001,359.6586)"
           id="use3286">
          <path
             id="path23251"
             d="M 5.75,0 H 4.375 L 3.953125,-1.5 H 1.71875 L 1.296875,0 H 0.0625 L 2.015625,-6.5625 H 3.8125 Z M 2.875,-5.5 H 2.8125 l -0.859375,3.046875 h 1.75 z m 0,0"
             style="stroke:none" />
        </g>
        <g
           transform="translate(666.89001,359.6586)"
           id="use3288">
          <path
             id="path23255"
             d="M 5.0625,-0.09375 C 4.925781,-0.0625 4.804688,-0.0351563 4.703125,-0.015625 4.597656,0.00390625 4.488281,0.0195313 4.375,0.03125 4.269531,0.0390625 4.15625,0.046875 4.03125,0.046875 3.914063,0.0546875 3.773438,0.0625 3.609375,0.0625 3.160156,0.0625 2.738281,0 2.34375,-0.125 1.957031,-0.25 1.617188,-0.441406 1.328125,-0.703125 1.046875,-0.972656 0.820313,-1.304688 0.65625,-1.703125 0.5,-2.097656 0.421875,-2.5625 0.421875,-3.09375 0.421875,-3.6875 0.507813,-4.203125 0.6875,-4.640625 0.863281,-5.085938 1.101563,-5.457031 1.40625,-5.75 1.71875,-6.039063 2.078125,-6.257813 2.484375,-6.40625 2.890625,-6.550781 3.316406,-6.625 3.765625,-6.625 4.023438,-6.625 4.25,-6.613281 4.4375,-6.59375 4.625,-6.570313 4.832031,-6.539063 5.0625,-6.5 L 4.96875,-5.484375 C 4.832031,-5.503906 4.710938,-5.519531 4.609375,-5.53125 4.515625,-5.539063 4.421875,-5.546875 4.328125,-5.546875 4.242188,-5.554688 4.148438,-5.5625 4.046875,-5.5625 3.953125,-5.570313 3.847656,-5.578125 3.734375,-5.578125 3.453125,-5.578125 3.1875,-5.53125 2.9375,-5.4375 2.6875,-5.34375 2.46875,-5.195313 2.28125,-5 2.101563,-4.800781 1.957031,-4.550781 1.84375,-4.25 1.738281,-3.957031 1.6875,-3.609375 1.6875,-3.203125 c 0,0.386719 0.050781,0.726562 0.15625,1.015625 0.113281,0.28125 0.257813,0.515625 0.4375,0.703125 0.1875,0.1875 0.398438,0.328125 0.640625,0.421875 0.25,0.085937 0.503906,0.125 0.765625,0.125 0.132813,0 0.253906,0 0.359375,0 C 4.160156,-0.945313 4.269531,-0.957031 4.375,-0.96875 4.488281,-0.976563 4.597656,-0.988281 4.703125,-1 4.816406,-1.019531 4.9375,-1.039063 5.0625,-1.0625 Z m 0,0"
             style="stroke:none" />
        </g>
        <g
           transform="translate(672.08002,359.6586)"
           id="use3290">
          <path
             id="path23259"
             d="m 0.0625,-6.5625 h 1.34375 l 1.28125,5.375 H 2.734375 L 4.03125,-5.140625 3.59375,-6.5625 H 4.875 l 1.609375,5.375 H 6.53125 L 7.8125,-6.5625 H 9.046875 L 7.3125,0 H 5.640625 L 4.5625,-3.625 H 4.515625 L 3.4375,0 H 1.765625 Z m 0,0"
             style="stroke:none" />
        </g>
        <g
           transform="translate(681.19,359.6586)"
           id="use3292">
          <path
             id="path23263"
             d="M 3.296875,0 H 2.09375 V -2.640625 L 0.03125,-6.5625 H 1.375 l 1.390625,2.75 h 0.03125 l 1.34375,-2.75 h 1.1875 l -2.03125,3.921875 z m 0,0"
             style="stroke:none" />
        </g>
      </g>
      <path
         style="fill:none;stroke:#42175c;stroke-width:0.5;stroke-linecap:butt;stroke-linejoin:miter;stroke-miterlimit:4;stroke-opacity:1"
         d="M 0.00135625,0.001325 H 52.712294 V 17.106794 H 0.00135625 Z m 0,0"
         transform="matrix(1,0,0,-1,637.7838,364.5482)"
         id="path3296" />
    </g>
  </g>
</svg>
