<?xml version="1.0" encoding="UTF-8" standalone="no"?>
<svg
   xmlns:dc="http://purl.org/dc/elements/1.1/"
   xmlns:cc="http://creativecommons.org/ns#"
   xmlns:rdf="http://www.w3.org/1999/02/22-rdf-syntax-ns#"
   xmlns:svg="http://www.w3.org/2000/svg"
   xmlns="http://www.w3.org/2000/svg"
   id="svg8557"
   version="1.1"
   viewBox="0 0 68.188087 49.041618"
   height="49.041618mm"
   width="68.188087mm">
  <defs
     id="defs8551" />
  <metadata
     id="metadata8554">
    <rdf:RDF>
      <cc:Work
         rdf:about="">
        <dc:format>image/svg+xml</dc:format>
        <dc:type
           rdf:resource="http://purl.org/dc/dcmitype/StillImage" />
        <dc:title></dc:title>
      </cc:Work>
    </rdf:RDF>
  </metadata>
  <g
     transform="translate(-53.446403,-109.40859)"
     id="layer1">
    <path
       id="path1964"
       d="M 53.446403,158.45021 H 121.63449 V 109.40859 H 53.446403 Z m 0,0"
       style="fill:#ffffff;fill-opacity:1;fill-rule:nonzero;stroke:none;stroke-width:0.352777" />
    <g
       transform="matrix(0.3527778,0,0,0.3527778,-23.791592,54.871327)"
       id="g9366">
      <path
         style="fill:none;stroke:#42175c;stroke-width:0.5;stroke-linecap:butt;stroke-linejoin:miter;stroke-miterlimit:4;stroke-opacity:1"
         d="M -0.00155625,0.0013375 H 76.217194 V 17.106806 H -0.00155625 Z m 0,0"
         transform="matrix(1,0,0,-1,234.4039,208.3529)"
         id="path1966" />
      <path
         style="fill:#42175c;fill-opacity:1;fill-rule:nonzero;stroke:none"
         d="m 240.98437,202.82031 h 0.6875 c 1.32032,0 2.17969,-0.71094 2.17969,-2.42187 0,-1.41797 -0.85937,-2.15625 -2.26953,-2.15625 h -0.59766 z m -1.19921,0.98828 V 197.25 h 1.8789 c 2.21485,0 3.44531,1.10937 3.44531,3.08984 0,2.36719 -1.33593,3.46875 -3.48828,3.46875 z m 0,0"
         id="path1968" />
      <path
         style="fill:#42175c;fill-opacity:1;fill-rule:nonzero;stroke:none"
         d="m 247.52344,197.25 v 2.71875 h 0.53906 l 1.98047,-2.71875 h 1.3789 l -2.30078,3.08203 2.3711,3.47656 h -1.5 l -1.89844,-2.85937 h -0.57031 v 2.85937 h -1.19922 V 197.25 Z m 0,0"
         id="path1970" />
      <path
         style="fill:#42175c;fill-opacity:1;fill-rule:nonzero;stroke:none"
         d="m 254.74219,203.80859 h -1.21094 v -5.5664 h -1.81641 V 197.25 h 4.84766 v 0.99219 h -1.82031 z m 0,0"
         id="path1972" />
      <path
         style="fill:#42175c;fill-opacity:1;fill-rule:nonzero;stroke:none"
         d="m 258.72266,200.50781 c 0.19921,0.0312 0.37109,0.043 0.57031,0.043 0.82031,0 1.32031,-0.42969 1.32031,-1.19922 0,-0.75 -0.41016,-1.14062 -1.21094,-1.14062 h -0.67968 z m 0,3.30078 h -1.19922 V 197.25 h 2.05859 c 1.46875,0 2.27734,0.8125 2.27734,2.01172 0,1.39844 -0.95703,2.24609 -2.41796,2.24609 -0.26954,0 -0.48047,-0.008 -0.71875,-0.0391 z m 0,0"
         id="path1974" />
      <path
         style="fill:#42175c;fill-opacity:1;fill-rule:nonzero;stroke:none"
         d="m 262.61328,200.42187 h 2.57813 v 1.03907 h -2.57813 z m 0,0"
         id="path1976" />
      <path
         style="fill:#42175c;fill-opacity:1;fill-rule:nonzero;stroke:none"
         d="m 270.42187,200.98047 h -2.64062 v 2.82812 h -1.19922 V 197.25 h 1.19922 v 2.67969 h 2.64062 V 197.25 h 1.20704 v 6.55859 h -1.20704 z m 0,0"
         id="path1978" />
      <path
         style="fill:#42175c;fill-opacity:1;fill-rule:nonzero;stroke:none"
         d="m 274.19141,203.80859 h -1.12891 v -4.91797 l 1.12891,-0.0508 z m -0.57032,-6.99609 c 0.4336,0 0.67188,0.26953 0.67188,0.64844 0,0.35156 -0.23828,0.64062 -0.67188,0.64062 -0.42968,0 -0.65625,-0.26172 -0.65625,-0.64062 0,-0.34766 0.22657,-0.64844 0.65625,-0.64844"
         id="path1980" />
      <path
         style="fill:#42175c;fill-opacity:1;fill-rule:nonzero;stroke:none"
         d="m 277.5,199.85156 c -0.32813,0 -0.55859,0.0469 -0.89844,0.1875 v 2.8086 c 0.23047,0.043 0.37891,0.0508 0.60156,0.0508 0.91016,0 1.52735,-0.46875 1.52735,-1.64063 0,-0.97656 -0.48047,-1.40625 -1.23047,-1.40625 m -0.37891,4.01563 c -0.51953,0 -1.01953,-0.0273 -1.64843,-0.10938 v -6.875 l 1.1289,-0.0625 v 2.35938 c 0.37891,-0.23828 0.78906,-0.37891 1.25,-0.37891 1.25,0 2.03906,0.80859 2.03906,2.36719 0,1.72265 -1.10937,2.69922 -2.76953,2.69922"
         id="path1982" />
      <path
         style="fill:#42175c;fill-opacity:1;fill-rule:nonzero;stroke:none"
         d="m 280.84375,200.42187 h 2.57812 v 1.03907 h -2.57812 z m 0,0"
         id="path1984" />
      <path
         style="fill:#42175c;fill-opacity:1;fill-rule:nonzero;stroke:none"
         d="m 288.65234,200.98047 h -2.64062 v 2.82812 H 284.8125 V 197.25 h 1.19922 v 2.67969 h 2.64062 V 197.25 h 1.20703 v 6.55859 h -1.20703 z m 0,0"
         id="path1986" />
      <path
         style="fill:#42175c;fill-opacity:1;fill-rule:nonzero;stroke:none"
         d="m 294.08984,200.80078 c 0,-0.67969 -0.35937,-1.12109 -0.9375,-1.12109 -0.53125,0 -0.92968,0.39062 -1.03125,1.12109 z m -0.85937,-2.03125 c 1.21094,0 1.96094,0.73047 1.96094,2.01953 0,0.30078 -0.0117,0.6211 -0.0312,0.83985 h -3.0586 c 0.1211,0.8789 0.62891,1.28125 1.51953,1.28125 0.5586,0 0.94922,-0.082 1.44141,-0.24219 v 0.9414 c -0.51953,0.16797 -0.92188,0.25782 -1.58203,0.25782 -1.50781,0 -2.47656,-0.79688 -2.47656,-2.51563 0,-1.6914 1,-2.58203 2.22656,-2.58203"
         id="path1988" />
      <path
         style="fill:#42175c;fill-opacity:1;fill-rule:nonzero;stroke:none"
         d="m 299.42187,201.25781 c 0,-0.96875 -0.46875,-1.40625 -1.21875,-1.40625 -0.35156,0 -0.57031,0.0469 -0.91015,0.1875 v 2.8086 c 0.25,0.0391 0.3789,0.0508 0.60937,0.0508 0.91016,0 1.51953,-0.51172 1.51953,-1.64063 m -3.25781,-2.36719 1.09766,-0.0508 v 0.35938 c 0.33984,-0.23047 0.78125,-0.39844 1.28125,-0.39844 1.23828,0 2.03906,0.78125 2.03906,2.36719 0,1.74219 -1.08984,2.69922 -2.67969,2.69922 -0.23828,0 -0.41015,-0.0195 -0.60937,-0.0586 v 1.91016 h -1.12891 z m 0,0"
         id="path1990" />
      <path
         style="fill:#42175c;fill-opacity:1;fill-rule:nonzero;stroke:none"
         d="m 302.92187,200.91016 v 1.9375 h 0.76172 c 0.8086,0 1.26563,-0.33985 1.26563,-0.98829 0,-0.60156 -0.41797,-0.94921 -1.53906,-0.94921 z m 0,-2.69922 v 1.80078 h 0.51954 c 0.83984,0 1.23828,-0.29297 1.23828,-0.94922 0,-0.58203 -0.34766,-0.85156 -1.19922,-0.85156 z m -1.19921,5.59765 V 197.25 h 1.80859 c 1.69141,0 2.41016,0.65234 2.41016,1.58203 0,0.80859 -0.33204,1.28906 -0.94141,1.52734 v 0.0195 c 0.8125,0.19921 1.21094,0.69921 1.21094,1.46093 0,1.25 -0.83203,1.96875 -2.48828,1.96875 z m 0,0"
         id="path1992" />
    </g>
    <g
       transform="matrix(0.3527778,0,0,0.3527778,-23.791592,54.871327)"
       id="g9350">
      <path
         style="fill:none;stroke:#b80063;stroke-width:0.5;stroke-linecap:butt;stroke-linejoin:miter;stroke-miterlimit:4;stroke-opacity:1"
         d="M -4.1875e-4,-5.375e-4 -2.836356,-2.836475 V -13.172412 L -4.1875e-4,-16.00835 H 27.347238 l 2.832031,2.835938 v 10.335937 l -2.832031,2.8359375 z m 0,0"
         transform="matrix(1,0,0,-1,237.2387,212.3979)"
         id="path1994" />
      <path
         style="fill:#b80063;fill-opacity:1;fill-rule:nonzero;stroke:none"
         d="m 242.35156,220.95703 c 0.20313,0.0312 0.3711,0.043 0.57031,0.043 0.82032,0 1.32032,-0.43359 1.32032,-1.19922 0,-0.75 -0.41016,-1.14062 -1.21094,-1.14062 h -0.67969 z m 0,3.30078 h -1.19922 v -6.55859 h 2.0625 c 1.46875,0 2.27735,0.80859 2.27735,2.01172 0,1.39843 -0.96094,2.24609 -2.41797,2.24609 -0.26953,0 -0.48047,-0.008 -0.72266,-0.0391 z m 0,0"
         id="path1996" />
      <path
         style="fill:#b80063;fill-opacity:1;fill-rule:nonzero;stroke:none"
         d="m 249.37109,221.22656 c 0,-0.64844 -0.32031,-0.92969 -0.91015,-0.92969 -0.35938,0 -0.61719,0.0508 -0.95703,0.19141 v 3.76953 h -1.13282 v -4.91797 l 1.10157,-0.0508 v 0.35938 c 0.42968,-0.26953 0.80859,-0.39844 1.30859,-0.39844 1.08203,0 1.71875,0.62109 1.71875,1.75 v 3.25781 h -1.12891 z m 0,0"
         id="path1998" />
      <path
         style="fill:#b80063;fill-opacity:1;fill-rule:nonzero;stroke:none"
         d="m 254.5,221.25 c 0,-0.67969 -0.35938,-1.12109 -0.9375,-1.12109 -0.53125,0 -0.92969,0.39062 -1.03125,1.12109 z m -0.85547,-2.03125 c 1.20703,0 1.95703,0.73047 1.95703,2.01953 0,0.30078 -0.0117,0.62109 -0.0312,0.83984 h -3.05859 c 0.12109,0.87891 0.63281,1.27735 1.51953,1.27735 0.5625,0 0.94922,-0.0781 1.44141,-0.23828 v 0.9414 c -0.51954,0.16797 -0.92188,0.25782 -1.57813,0.25782 -1.51172,0 -2.48047,-0.80079 -2.48047,-2.51954 0,-1.6875 1,-2.57812 2.23047,-2.57812"
         id="path2000" />
      <path
         style="fill:#b80063;fill-opacity:1;fill-rule:nonzero;stroke:none"
         d="m 257.62109,222.33594 c 0,0.68359 0.26172,0.96093 0.8711,0.96093 0.37109,0 0.60156,-0.0586 0.9414,-0.21093 v -3.7461 l 1.12891,-0.0508 v 4.96875 h -1.08984 v -0.33203 c -0.44141,0.26953 -0.76172,0.42188 -1.25782,0.42188 -1.15234,0 -1.72265,-0.65235 -1.72265,-1.80079 v -3.20703 l 1.1289,-0.0508 z m 0,0"
         id="path2002" />
    </g>
    <g
       transform="matrix(0.3527778,0,0,0.3527778,-23.791592,54.871327)"
       id="g2022"
       style="fill:#0068b3;fill-opacity:1">
      <g
         id="use2004"
         transform="translate(233.3278,177.1039)">
        <path
           style="stroke:none"
           d="m 5.96875,-7.796875 h -3.5625 v 1.875 c 0.175781,-0.019531 0.328125,-0.03125 0.453125,-0.03125 0.132813,-0.00781 0.285156,-0.015625 0.453125,-0.015625 0.507813,0 0.953125,0.070312 1.328125,0.203125 0.382813,0.125 0.707031,0.308594 0.96875,0.546875 0.269531,0.242187 0.472656,0.53125 0.609375,0.875 0.132813,0.335937 0.203125,0.699219 0.203125,1.09375 0,0.511719 -0.109375,0.976562 -0.328125,1.390625 C 5.882813,-1.441406 5.585938,-1.082031 5.203125,-0.78125 4.816406,-0.488281 4.351563,-0.265625 3.8125,-0.109375 3.269531,0.046875 2.671875,0.125 2.015625,0.125 h -1.125 V -1.171875 H 2.09375 c 0.363281,0 0.703125,-0.039063 1.015625,-0.125 0.320313,-0.082031 0.597656,-0.207031 0.828125,-0.375 0.226563,-0.164063 0.40625,-0.363281 0.53125,-0.59375 0.125,-0.226563 0.1875,-0.484375 0.1875,-0.765625 0,-0.476563 -0.164062,-0.847656 -0.484375,-1.109375 -0.324219,-0.269531 -0.839844,-0.40625 -1.546875,-0.40625 -0.25,0 -0.515625,0.011719 -0.796875,0.03125 -0.273437,0.011719 -0.539062,0.03125 -0.796875,0.0625 V -9.1875 h 4.9375 z m 0,0"
           id="path9368" />
      </g>
      <g
         id="use2006"
         transform="translate(240.5098,177.1039)">
        <path
           style="stroke:none"
           d=""
           id="path9372" />
      </g>
      <g
         id="use2008"
         transform="translate(242.8058,177.1039)">
        <path
           style="stroke:none"
           d="m 9.15625,-4.234375 c 0,-0.445313 -0.109375,-0.773438 -0.328125,-0.984375 -0.210937,-0.21875 -0.523437,-0.328125 -0.9375,-0.328125 -0.25,0 -0.46875,0.023437 -0.65625,0.0625 -0.179687,0.03125 -0.386719,0.101562 -0.625,0.203125 V 0 H 5.03125 v -4.234375 c 0,-0.46875 -0.109375,-0.800781 -0.328125,-1 -0.210937,-0.207031 -0.523437,-0.3125 -0.9375,-0.3125 -0.261719,0 -0.480469,0.023437 -0.65625,0.0625 -0.179687,0.03125 -0.386719,0.101562 -0.625,0.203125 V 0 h -1.59375 v -6.890625 l 1.546875,-0.0625 v 0.5 C 2.75,-6.640625 3.039063,-6.78125 3.3125,-6.875 3.59375,-6.96875 3.90625,-7.015625 4.25,-7.015625 c 0.445313,0 0.820313,0.070312 1.125,0.203125 0.300781,0.125 0.554688,0.308594 0.765625,0.546875 C 6.484375,-6.503906 6.832031,-6.6875 7.1875,-6.8125 c 0.351563,-0.132813 0.738281,-0.203125 1.15625,-0.203125 0.757813,0 1.347656,0.214844 1.765625,0.640625 0.414063,0.429687 0.625,1.039062 0.625,1.828125 V 0 H 9.15625 Z m 0,0"
           id="path9376" />
      </g>
      <g
         id="use2010"
         transform="translate(254.3278,177.1039)">
        <path
           style="stroke:none"
           d="M 6.015625,0 H 4.53125 v -0.453125 c -0.28125,0.1875 -0.574219,0.324219 -0.875,0.40625 -0.304687,0.0820313 -0.664062,0.125 -1.078125,0.125 C 1.867188,0.078125 1.320313,-0.09375 0.9375,-0.4375 0.5625,-0.789063 0.375,-1.257813 0.375,-1.84375 c 0,-0.320313 0.0625,-0.613281 0.1875,-0.875 0.125,-0.269531 0.316406,-0.5 0.578125,-0.6875 0.257813,-0.195313 0.585938,-0.347656 0.984375,-0.453125 0.394531,-0.101563 0.863281,-0.15625 1.40625,-0.15625 0.175781,0 0.335938,0.00781 0.484375,0.015625 0.15625,0 0.3125,0 0.46875,0 v -0.390625 c 0,-0.382813 -0.121094,-0.675781 -0.359375,-0.875 -0.242187,-0.207031 -0.636719,-0.3125 -1.1875,-0.3125 -0.335937,0 -0.652344,0.03125 -0.953125,0.09375 C 1.679688,-5.421875 1.34375,-5.3125 0.96875,-5.15625 L 0.734375,-6.484375 c 0.4375,-0.1875 0.847656,-0.320313 1.234375,-0.40625 0.394531,-0.082031 0.816406,-0.125 1.265625,-0.125 0.9375,0 1.632813,0.214844 2.09375,0.640625 0.457031,0.417969 0.6875,1.015625 0.6875,1.796875 z M 2,-1.96875 c 0,0.242187 0.085938,0.433594 0.265625,0.578125 0.1875,0.148437 0.441406,0.21875 0.765625,0.21875 0.269531,0 0.515625,-0.023438 0.734375,-0.078125 0.226563,-0.0625 0.46875,-0.160156 0.71875,-0.296875 V -2.84375 C 4.347656,-2.851563 4.195313,-2.859375 4.03125,-2.859375 3.863281,-2.867188 3.707031,-2.875 3.5625,-2.875 3,-2.875 2.597656,-2.789063 2.359375,-2.625 2.117188,-2.457031 2,-2.238281 2,-1.96875 Z m 0,0"
           id="path9380" />
      </g>
      <g
         id="use2012"
         transform="translate(261.13181,177.1039)">
        <path
           style="stroke:none"
           d="M 6.015625,0 H 4.53125 v -0.453125 c -0.28125,0.1875 -0.574219,0.324219 -0.875,0.40625 -0.304687,0.0820313 -0.664062,0.125 -1.078125,0.125 C 1.867188,0.078125 1.320313,-0.09375 0.9375,-0.4375 0.5625,-0.789063 0.375,-1.257813 0.375,-1.84375 c 0,-0.320313 0.0625,-0.613281 0.1875,-0.875 0.125,-0.269531 0.316406,-0.5 0.578125,-0.6875 0.257813,-0.195313 0.585938,-0.347656 0.984375,-0.453125 0.394531,-0.101563 0.863281,-0.15625 1.40625,-0.15625 0.175781,0 0.335938,0.00781 0.484375,0.015625 0.15625,0 0.3125,0 0.46875,0 v -0.390625 c 0,-0.382813 -0.121094,-0.675781 -0.359375,-0.875 -0.242187,-0.207031 -0.636719,-0.3125 -1.1875,-0.3125 -0.335937,0 -0.652344,0.03125 -0.953125,0.09375 C 1.679688,-5.421875 1.34375,-5.3125 0.96875,-5.15625 L 0.734375,-6.484375 c 0.4375,-0.1875 0.847656,-0.320313 1.234375,-0.40625 0.394531,-0.082031 0.816406,-0.125 1.265625,-0.125 0.9375,0 1.632813,0.214844 2.09375,0.640625 0.457031,0.417969 0.6875,1.015625 0.6875,1.796875 z M 2,-1.96875 c 0,0.242187 0.085938,0.433594 0.265625,0.578125 0.1875,0.148437 0.441406,0.21875 0.765625,0.21875 0.269531,0 0.515625,-0.023438 0.734375,-0.078125 0.226563,-0.0625 0.46875,-0.160156 0.71875,-0.296875 V -2.84375 C 4.347656,-2.851563 4.195313,-2.859375 4.03125,-2.859375 3.863281,-2.867188 3.707031,-2.875 3.5625,-2.875 3,-2.875 2.597656,-2.789063 2.359375,-2.625 2.117188,-2.457031 2,-2.238281 2,-1.96875 Z m 0,0"
           id="path9384" />
      </g>
      <g
         id="use2014"
         transform="translate(267.93579,177.1039)">
        <path
           style="stroke:none"
           d="m 5.09375,-4.234375 c 0,-0.457031 -0.109375,-0.789063 -0.328125,-1 -0.210937,-0.207031 -0.523437,-0.3125 -0.9375,-0.3125 -0.261719,0 -0.492187,0.023437 -0.6875,0.0625 -0.199219,0.03125 -0.417969,0.101562 -0.65625,0.203125 V 0 h -1.59375 v -6.890625 l 1.546875,-0.0625 v 0.5 c 0.300781,-0.1875 0.59375,-0.328125 0.875,-0.421875 0.28125,-0.09375 0.597656,-0.140625 0.953125,-0.140625 0.757813,0 1.347656,0.214844 1.765625,0.640625 0.425781,0.417969 0.640625,1.023437 0.640625,1.8125 V 0 H 5.09375 Z m 0,0"
           id="path9388" />
      </g>
      <g
         id="use2016"
         transform="translate(275.3978,177.1039)">
        <path
           style="stroke:none"
           d="m 6.703125,0 h -1.53125 v -0.46875 c -0.25,0.179687 -0.527344,0.3125 -0.828125,0.40625 C 4.039063,0.03125 3.71875,0.078125 3.375,0.078125 2.945313,0.078125 2.554688,0.0078125 2.203125,-0.125 1.847656,-0.269531 1.539063,-0.484375 1.28125,-0.765625 c -0.25,-0.28125 -0.449219,-0.632813 -0.59375,-1.0625 -0.136719,-0.425781 -0.203125,-0.914063 -0.203125,-1.46875 0,-0.59375 0.085938,-1.117188 0.265625,-1.578125 0.175781,-0.457031 0.425781,-0.84375 0.75,-1.15625 0.320313,-0.320313 0.703125,-0.566406 1.140625,-0.734375 0.445313,-0.164063 0.9375,-0.25 1.46875,-0.25 0.1875,0 0.363281,0.011719 0.53125,0.03125 C 4.804688,-6.972656 4.96875,-6.945313 5.125,-6.90625 V -9.703125 L 6.703125,-9.78125 Z M 4.125,-5.65625 c -0.617187,0 -1.105469,0.199219 -1.46875,0.59375 -0.367187,0.398437 -0.546875,0.953125 -0.546875,1.671875 0,0.742187 0.160156,1.277344 0.484375,1.609375 0.320313,0.324219 0.738281,0.484375 1.25,0.484375 0.257813,0 0.476563,-0.019531 0.65625,-0.0625 C 4.6875,-1.410156 4.894531,-1.5 5.125,-1.625 V -5.578125 C 4.957031,-5.597656 4.796875,-5.613281 4.640625,-5.625 4.484375,-5.644531 4.3125,-5.65625 4.125,-5.65625 Z m 0,0"
           id="path9392" />
      </g>
      <g
         id="use2018"
         transform="translate(282.99979,177.1039)">
        <path
           style="stroke:none"
           d="m 0.484375,-3.4375 c 0,-0.59375 0.082031,-1.113281 0.25,-1.5625 0.164063,-0.457031 0.390625,-0.835938 0.671875,-1.140625 0.28125,-0.300781 0.609375,-0.53125 0.984375,-0.6875 0.382813,-0.15625 0.789063,-0.234375 1.21875,-0.234375 0.851563,0 1.523438,0.246094 2.015625,0.734375 0.488281,0.492187 0.734375,1.1875 0.734375,2.09375 0,0.21875 -0.00781,0.433594 -0.015625,0.640625 0,0.199219 -0.011719,0.382812 -0.03125,0.546875 H 2.03125 c 0.082031,0.617187 0.300781,1.070312 0.65625,1.359375 0.351563,0.28125 0.84375,0.421875 1.46875,0.421875 0.394531,0 0.742188,-0.023438 1.046875,-0.078125 0.300781,-0.050781 0.625,-0.132813 0.96875,-0.25 v 1.3125 C 5.804688,-0.15625 5.457031,-0.0625 5.125,0 4.800781,0.0507813 4.414063,0.078125 3.96875,0.078125 3.425781,0.078125 2.941406,0.0078125 2.515625,-0.125 2.097656,-0.269531 1.738281,-0.488281 1.4375,-0.78125 1.132813,-1.070313 0.898438,-1.4375 0.734375,-1.875 c -0.167969,-0.4375 -0.25,-0.957031 -0.25,-1.5625 z M 4.8125,-4.21875 c 0,-0.46875 -0.121094,-0.84375 -0.359375,-1.125 C 4.222656,-5.632813 3.90625,-5.78125 3.5,-5.78125 c -0.375,0 -0.695312,0.136719 -0.953125,0.40625 -0.25,0.261719 -0.414062,0.648437 -0.484375,1.15625 z m 0,0"
           id="path9396" />
      </g>
      <g
         id="use2020"
         transform="translate(289.81781,177.1039)">
        <path
           style="stroke:none"
           d="m 5.09375,-4.234375 c 0,-0.457031 -0.109375,-0.789063 -0.328125,-1 -0.210937,-0.207031 -0.523437,-0.3125 -0.9375,-0.3125 -0.261719,0 -0.492187,0.023437 -0.6875,0.0625 -0.199219,0.03125 -0.417969,0.101562 -0.65625,0.203125 V 0 h -1.59375 v -6.890625 l 1.546875,-0.0625 v 0.5 c 0.300781,-0.1875 0.59375,-0.328125 0.875,-0.421875 0.28125,-0.09375 0.597656,-0.140625 0.953125,-0.140625 0.757813,0 1.347656,0.214844 1.765625,0.640625 0.425781,0.417969 0.640625,1.023437 0.640625,1.8125 V 0 H 5.09375 Z m 0,0"
           id="path9400" />
      </g>
    </g>
    <g
       transform="matrix(0.3527778,0,0,0.3527778,-23.791592,54.871327)"
       id="g9343">
      <g
         id="g9268">
        <path
           id="path2024"
           d="m 331.19141,267.99609 h -3.22657 c -0.49609,0 -0.89843,-0.40625 -0.89843,-0.89843 v -0.19141 c 0,-0.49609 0.40234,-0.89844 0.89843,-0.89844 h 3.22657 c 0.49218,0 0.89843,0.40235 0.89843,0.89844 v 0.19141 c 0,0.49218 -0.40625,0.89843 -0.89843,0.89843"
           style="fill:#541e0c;fill-opacity:1;fill-rule:nonzero;stroke:none" />
        <path
           id="path2028"
           d="m 330.12891,268.96875 c 0,2.51562 -2.01172,4.55078 -4.48829,4.55078 -2.48046,0 -4.48828,-2.03516 -4.48828,-4.55078 0,-2.51172 2.00782,-4.55078 4.48828,-4.55078 2.47657,0 4.48829,2.03906 4.48829,4.55078"
           style="fill:#541e0c;fill-opacity:1;fill-rule:nonzero;stroke:none" />
        <path
           id="path2032"
           d="m 329.53906,262.46875 c 0,1.88672 -1.74609,3.41406 -3.89844,3.41406 -2.15234,0 -3.89843,-1.52734 -3.89843,-3.41406 0,-1.88281 1.74609,-3.41016 3.89843,-3.41016 2.15235,0 3.89844,1.52735 3.89844,3.41016"
           style="fill:#541e0c;fill-opacity:1;fill-rule:nonzero;stroke:none" />
        <path
           id="path2036"
           d="m 326.49219,262.84766 c 0,0.30078 -0.38282,0.54296 -0.85157,0.54296 -0.46875,0 -0.85156,-0.24218 -0.85156,-0.54296 0,-0.29688 0.38281,-0.53907 0.85156,-0.53907 0.46875,0 0.85157,0.24219 0.85157,0.53907"
           style="fill:#381911;fill-opacity:1;fill-rule:nonzero;stroke:none" />
        <path
           id="path2038"
           d="m 329.17969,259.80859 c 0,0.78516 -0.6211,1.42188 -1.38672,1.42188 -0.76563,0 -1.39063,-0.63672 -1.39063,-1.42188 0,-0.78515 0.625,-1.42187 1.39063,-1.42187 0.76562,0 1.38672,0.63672 1.38672,1.42187"
           style="fill:#541e0c;fill-opacity:1;fill-rule:nonzero;stroke:none" />
        <path
           id="path2040"
           d="m 324.875,259.66797 c 0,0.78515 -0.62109,1.42187 -1.38672,1.42187 -0.76562,0 -1.38672,-0.63672 -1.38672,-1.42187 0,-0.78516 0.6211,-1.42188 1.38672,-1.42188 0.76563,0 1.38672,0.63672 1.38672,1.42188"
           style="fill:#541e0c;fill-opacity:1;fill-rule:nonzero;stroke:none" />
        <path
           id="path2042"
           d="m 326.33203,261.41406 c 0,0.21875 -0.0937,0.39844 -0.21094,0.39844 -0.11328,0 -0.20703,-0.17969 -0.20703,-0.39844 0,-0.21875 0.0937,-0.39844 0.20703,-0.39844 0.11719,0 0.21094,0.17969 0.21094,0.39844"
           style="fill:#381911;fill-opacity:1;fill-rule:nonzero;stroke:none" />
        <path
           id="path2044"
           d="m 325.36719,261.41406 c 0,0.21875 -0.0937,0.39844 -0.20703,0.39844 -0.11719,0 -0.21094,-0.17969 -0.21094,-0.39844 0,-0.21875 0.0937,-0.39844 0.21094,-0.39844 0.11328,0 0.20703,0.17969 0.20703,0.39844"
           style="fill:#381911;fill-opacity:1;fill-rule:nonzero;stroke:none" />
      </g>
      <g
         id="g9258">
        <path
           id="path2052"
           d="m 402.08203,271.46875 h -13.14062 v -3.86719 h 13.14062 z m 0,0"
           style="fill:#f8ae00;fill-opacity:1;fill-rule:nonzero;stroke:none" />
        <path
           id="path2054"
           d="m 396.53125,271.46875 h 5.63281 v -8.54688 h -5.63281 z m 0,0"
           style="fill:#f8ae00;fill-opacity:1;fill-rule:nonzero;stroke:none" />
        <path
           id="path2056"
           d="m 400.60547,265.37109 c 0,0.69141 -0.5625,1.25391 -1.25781,1.25391 -0.69141,0 -1.25391,-0.5625 -1.25391,-1.25391 0,-0.69531 0.5625,-1.25781 1.25391,-1.25781 0.69531,0 1.25781,0.5625 1.25781,1.25781"
           style="fill:#f5f5e8;fill-opacity:1;fill-rule:nonzero;stroke:none" />
        <path
           id="path2058"
           d="m 392.41406,267.60156 h -2.03515 v -2.67187 h 2.03515 z m 0,0"
           style="fill:#42175c;fill-opacity:1;fill-rule:nonzero;stroke:none" />
        <path
           id="path2060"
           d="m 402.16406,273.12891 h -13.22265 v -1.66016 h 13.22265 z m 0,0"
           style="fill:#42175c;fill-opacity:1;fill-rule:nonzero;stroke:none" />
        <path
           id="path2062"
           d="m 402.89844,263.07031 h -7.09766 c 0,-1.40625 1.13672,-2.54297 2.54297,-2.54297 h 2.01172 c 1.40234,0 2.54297,1.13672 2.54297,2.54297"
           style="fill:#e31e17;fill-opacity:1;fill-rule:nonzero;stroke:none" />
        <path
           id="path2064"
           d="m 394.33594,272.68359 c 0,1.10157 -0.89453,1.99219 -1.99219,1.99219 -1.09766,0 -1.98828,-0.89062 -1.98828,-1.99219 0,-1.09765 0.89062,-1.98828 1.98828,-1.98828 1.09766,0 1.99219,0.89063 1.99219,1.98828"
           style="fill:#3f2e19;fill-opacity:1;fill-rule:nonzero;stroke:none" />
        <path
           id="path2066"
           d="m 393.50391,272.68359 c 0,0.64063 -0.51954,1.16407 -1.16016,1.16407 -0.64063,0 -1.16016,-0.52344 -1.16016,-1.16407 0,-0.64062 0.51953,-1.16015 1.16016,-1.16015 0.64062,0 1.16016,0.51953 1.16016,1.16015"
           style="fill:#e31e17;fill-opacity:1;fill-rule:nonzero;stroke:none" />
        <path
           id="path2068"
           d="m 401.24219,272.68359 c 0,1.10157 -0.89063,1.99219 -1.98828,1.99219 -1.10157,0 -1.99219,-0.89062 -1.99219,-1.99219 0,-1.09765 0.89062,-1.98828 1.99219,-1.98828 1.09765,0 1.98828,0.89063 1.98828,1.98828"
           style="fill:#3f2e19;fill-opacity:1;fill-rule:nonzero;stroke:none" />
        <path
           id="path2070"
           d="m 400.41406,272.68359 c 0,0.64063 -0.51953,1.16407 -1.16015,1.16407 -0.64454,0 -1.16016,-0.52344 -1.16016,-1.16407 0,-0.64062 0.51562,-1.16015 1.16016,-1.16015 0.64062,0 1.16015,0.51953 1.16015,1.16015"
           style="fill:#e31e17;fill-opacity:1;fill-rule:nonzero;stroke:none" />
        <path
           id="path2072"
           d="m 389.9375,265.05859 h 2.91797 v -0.73828 h -2.91797 z m 0,0"
           style="fill:#42175c;fill-opacity:1;fill-rule:nonzero;stroke:none" />
        <path
           id="path2074"
           d="m 388.94141,270.97266 c -0.42579,0 -0.77344,-0.34766 -0.77344,-0.77344 v -0.83203 c 0,-0.42578 0.34765,-0.77344 0.77344,-0.77344 z m 0,0"
           style="fill:#f8ae00;fill-opacity:1;fill-rule:nonzero;stroke:none" />
      </g>
      <g
         id="g9275">
        <path
           id="path2076"
           d="m 325.89453,272.96484 c -1.96875,2.69532 -5.71484,3.26172 -8.36719,1.26953 -2.65625,-1.99609 -3.21875,-5.79296 -1.25,-8.48828 1.96485,-2.6914 5.71094,-3.25781 8.36719,-1.26562 2.65625,1.99219 3.21484,5.79297 1.25,8.48437"
           style="fill:#42175c;fill-opacity:1;fill-rule:nonzero;stroke:none" />
        <path
           id="path2078"
           d="m 319.46484,268.14062 c 1.31641,-1.80078 3.07422,-3.07421 5.00782,-3.78125 -2.64454,-1.84375 -6.27344,-1.24609 -8.19532,1.38672 -1.92578,2.63672 -1.42968,6.33203 1.08203,8.35547 0.10157,-2.08203 0.79297,-4.15625 2.10547,-5.96094"
           style="fill:#f8ae00;fill-opacity:1;fill-rule:nonzero;stroke:none" />
        <path
           id="path2080"
           d="m 322.67187,270.54687 c 1.31641,-1.80078 2.00391,-3.875 2.10547,-5.96093 2.51172,2.02734 3.00782,5.71875 1.08203,8.35547 -1.92187,2.63671 -5.55078,3.23437 -8.19531,1.39062 1.9336,-0.70703 3.69141,-1.98047 5.00781,-3.78516"
           style="fill:#f8ae00;fill-opacity:1;fill-rule:nonzero;stroke:none" />
        <path
           id="path2082"
           d="m 325.79297,265.61719 c 0.34375,2.09765 -0.11719,4.32812 -1.46485,6.17578 -1.34765,1.84375 -3.3164,2.9414 -5.39843,3.22265 2.45312,0.96094 5.32422,0.19532 6.96484,-2.05078 1.63672,-2.24218 1.51953,-5.2539 -0.10156,-7.34765"
           style="fill:#42175c;fill-opacity:1;fill-rule:nonzero;stroke:none" />
        <path
           id="path2084"
           d="m 323.22656,263.6875 c -2.07812,0.28125 -4.05078,1.38281 -5.39453,3.22656 -1.34766,1.84375 -1.80859,4.07813 -1.46875,6.17578 -1.62109,-2.09765 -1.73437,-5.10547 -0.0977,-7.35156 1.63672,-2.24219 4.51172,-3.00781 6.96094,-2.05078"
           style="fill:#42175c;fill-opacity:1;fill-rule:nonzero;stroke:none" />
      </g>
      <path
         style="fill:#ebe3d9;fill-opacity:1;fill-rule:nonzero;stroke:none"
         d="m 406.19531,287.08984 c 0,1.29297 -21.60937,2.34375 -48.26172,2.34375 -26.65625,0 -48.26562,-1.05078 -48.26562,-2.34375 0,-1.29687 21.60937,-0.63281 48.26562,-0.63281 26.65235,0 48.26172,-0.66406 48.26172,0.63281"
         id="path2086" />
      <g
         id="g9244">
        <path
           id="path2096"
           d="m 375.88281,271.21875 c 0.99219,1.06641 2.07813,1.28906 2.59766,1.67969 0.57031,0.42968 0.95312,0.94922 0.89844,1.26953 -0.082,0.48047 -0.13672,0.60547 -0.0156,0.83594 0.38672,0.73437 -0.68359,1.78515 -1.32812,2.14453 -0.61329,0.34375 -0.94141,0.53515 -1.69922,0.61328 -0.76172,0.0742 -2.64844,-2.0625 -2.83203,-3.125 -0.14063,-0.80469 -0.26563,-1.69141 0.16015,-2.39453 0.39063,-0.64453 1.2461,-0.97657 1.97266,-0.76172 z m 0,0"
           style="fill:#fad9ab;fill-opacity:1;fill-rule:nonzero;stroke:none" />
        <g
           id="g9222">
          <path
             style="fill:#42175c;fill-opacity:1;fill-rule:nonzero;stroke:none"
             d="m 380.66016,267.84766 c -1.21094,1 -1.375,2.78515 -0.3711,3.98828 1.00391,1.20312 2.80078,1.36718 4.01172,0.37109 1.21094,-1 1.375,-2.78516 0.37109,-3.98828 -1.0039,-1.20703 -2.80078,-1.37109 -4.01171,-0.37109"
             id="path2114" />
          <g
             id="g9202">
            <g
               id="g9184">
              <path
                 style="fill:#541e0c;fill-opacity:1;fill-rule:nonzero;stroke:none"
                 d="m 365.1875,239.76562 c 0.30078,0.4961 0.37109,1.06641 0.24219,1.58985 -0.55469,-0.85547 -1.69532,-1.125 -2.57813,-0.59766 -0.59765,0.35938 -0.92187,0.99219 -0.91406,1.64063 -0.14453,-0.13282 -0.27344,-0.28516 -0.37891,-0.45703 -0.60156,-0.9961 -0.28125,-2.29297 0.72266,-2.89063 1,-0.60156 2.30078,-0.28125 2.90625,0.71484"
                 id="path2088" />
              <g
                 id="g9168">
                <path
                   id="path2050"
                   d="m 346.79297,262.87109 c -1.32031,-0.1289 -2.6211,-0.55859 -3.94531,-0.48047 -3.76954,0.22266 -6.25,4.31641 -9.94532,5.08594 -2.76172,0.57031 -5.77343,-0.82031 -8.38281,0.25 -0.76562,0.3125 -1.43359,0.82422 -2.0625,1.35938 -0.71484,0.60547 -1.40625,1.27734 -1.80469,2.11718 -0.41406,0.86719 -0.48828,1.85157 -0.55468,2.8086 -0.17969,2.55859 -0.35157,5.19922 0.47656,7.63281 0.20312,0.59375 0.47265,1.1875 0.91797,1.63672 0.9375,0.95312 2.40625,1.07812 3.74218,1.14844 6.36329,0.32812 12.81641,0.61328 19.04297,-0.7461 1.4336,-0.3125 2.86719,-0.72265 4.125,-1.46875 1.26172,-0.75 2.34375,-1.8789 2.78516,-3.26953 0.59766,-1.88281 -0.0312,-3.90625 -0.48047,-5.83203 -0.66406,-2.86328 -0.91797,-5.80078 -1.16797,-8.73047 -0.043,-0.48047 -0.24609,-1.39062 -0.11328,-1.85547 0.17578,-0.61718 -1.3125,0.47266 -2.63281,0.34375"
                   style="fill:#eb6805;fill-opacity:1;fill-rule:nonzero;stroke:none" />
                <path
                   id="path2090"
                   d="m 364.73437,238 c 0.45313,0.36328 0.6875,0.91406 0.69532,1.50781 -0.81641,-0.61328 -2.08594,-0.35156 -2.86328,0.60547 -0.52735,0.64844 -0.69532,1.44922 -0.50782,2.10547 -0.18359,-0.0664 -0.35937,-0.16016 -0.51953,-0.28906 -0.91015,-0.73047 -0.92969,-2.20313 -0.0508,-3.28907 0.88281,-1.08593 2.33594,-1.37109 3.24609,-0.64062"
                   style="fill:#541e0c;fill-opacity:1;fill-rule:nonzero;stroke:none" />
                <path
                   id="path2092"
                   d="m 360.34766,240.63672 c -0.6211,0.47656 -0.73438,1.35937 -0.25782,1.97265 0.47657,0.61329 1.36328,0.72657 1.98047,0.25391 0.61719,-0.47266 0.73438,-1.35547 0.25781,-1.96875 -0.47656,-0.61719 -1.36328,-0.73047 -1.98046,-0.25781"
                   style="fill:#b80063;fill-opacity:1;fill-rule:nonzero;stroke:none" />
                <path
                   id="path2094"
                   d="m 370.29297,266 c 0.63281,1.22266 0.15234,2.72266 -1.07813,3.35156 -1.22656,0.63281 -2.73828,0.15235 -3.37109,-1.07031 l -3.29688,-6.35156 c -0.63671,-1.22266 -0.15625,-2.72266 1.07422,-3.35547 1.23047,-0.62891 2.73828,-0.14844 3.375,1.07422 z m 0,0"
                   style="fill:#eb6805;fill-opacity:1;fill-rule:nonzero;stroke:none" />
                <path
                   id="path2098"
                   d="m 366.11328,267.31641 c -0.21094,1.96875 2.31641,3.27343 4.38281,5.38281 1.30469,1.33203 3.0586,2.83203 3.29297,2.44531 0.90235,-1.48437 1.44531,-1.84375 2.89063,-3.30078 0.1289,-0.13281 -5.59766,-5.5625 -7.33203,-6.92969 -0.97657,-0.77344 -3.08204,0.98047 -3.23438,2.40235"
                   style="fill:#eb6805;fill-opacity:1;fill-rule:nonzero;stroke:none" />
                <path
                   id="path2100"
                   d="m 360.78125,255.83203 c 3.12109,1.22266 4.875,5.22266 4.98437,6.3125 0.24219,2.44922 -3.14453,9.73438 -4.78125,12.32031 -1.64062,2.58985 -5.76953,4.29688 -9.14062,3.3086 -3.14063,-1.5625 -4.98828,-5.60938 -4.41406,-8.61328 0.57812,-3.00391 3.10156,-10.62891 4.95703,-12.25391 0.82812,-0.72656 4.85547,-2.46094 7.97656,-1.23828 z m 0,0"
                   style="fill:#eb6805;fill-opacity:1;fill-rule:nonzero;stroke:none" />
                <path
                   id="path2102"
                   d="m 360.78125,255.83203 -0.41797,-0.16406 c -2.25781,-0.88281 -4.98828,-0.22266 -6.63672,0.48828 1.54688,3.38672 4.60156,5.04687 6.15625,5.08984 1.08203,0.0312 2.91797,-0.68359 4.50781,-2.23047 -0.84375,-1.28125 -2.05859,-2.57421 -3.60937,-3.18359"
                   style="fill:#fac278;fill-opacity:1;fill-rule:nonzero;stroke:none" />
                <path
                   id="path2104"
                   d="m 369.12891,250.59375 c -0.15625,6.61719 -6.22657,9.53125 -8.75,9.46875 -2.52344,-0.0586 -8.44532,-3.25781 -8.28907,-9.875 0.125,-5.10547 4.03907,-9.15625 8.74219,-9.04688 4.70703,0.11329 8.42188,4.34375 8.29688,9.45313"
                   style="fill:#fad9ab;fill-opacity:1;fill-rule:nonzero;stroke:none" />
                <path
                   id="path2106"
                   d="m 366.85937,244.07422 c -1.5039,-1.75391 -3.63671,-2.875 -6.02734,-2.9336 -2.47266,-0.0586 -4.72656,1.03516 -6.32812,2.82422 1.8164,1.10547 4.17968,1.27344 6.1289,0.42188 0.26953,0.78125 -0.61328,2.26172 -1.30469,2.71875 3.3086,0.23437 5.89454,-0.63281 7.53125,-3.03125"
                   style="fill:#541e0c;fill-opacity:1;fill-rule:nonzero;stroke:none" />
                <path
                   id="path2108"
                   d="m 357.62109,265.66797 c 0.51953,1.27344 -0.10156,2.72656 -1.38281,3.23828 -1.28516,0.51562 -2.74219,-0.10156 -3.26172,-1.37891 l -2.6875,-6.6289 c -0.51953,-1.27344 0.10156,-2.72657 1.38672,-3.23828 1.28125,-0.51563 2.74219,0.10156 3.25781,1.3789 z m 0,0"
                   style="fill:#eb6805;fill-opacity:1;fill-rule:nonzero;stroke:none" />
                <path
                   id="path2110"
                   d="m 362.58984,271.21875 c 0.9961,1.06641 2.08203,1.28906 2.60157,1.67969 0.57031,0.42968 0.94921,0.94922 0.89843,1.26953 -0.082,0.48047 -0.14062,0.60547 -0.0156,0.83594 0.38672,0.73437 -0.6875,1.78515 -1.32813,2.14453 -0.61328,0.34375 -0.9414,0.53515 -1.70312,0.61328 -0.76172,0.0742 -2.64453,-2.0625 -2.82813,-3.125 -0.14062,-0.80469 -0.26562,-1.69141 0.15625,-2.39453 0.39453,-0.64453 1.2461,-0.97657 1.97657,-0.76172 z m 0,0"
                   style="fill:#fad9ab;fill-opacity:1;fill-rule:nonzero;stroke:none" />
                <path
                   id="path2118"
                   d="m 379.95703,268.71094 c -0.91797,1.57031 -0.69922,3.54297 -3.6875,4.80078 l 1.625,1.94531 c 1.78125,-2.6875 3.70703,-2.11719 5.42188,-2.72266 z m 0,0"
                   style="fill:#42175c;fill-opacity:1;fill-rule:nonzero;stroke:none" />
              </g>
            </g>
            <path
               id="path2120"
               d="m 375.60547,273.03906 c -0.47656,0.0781 -0.74219,0.86719 -0.58985,1.75781 0.14844,0.89063 0.65625,1.54688 1.13282,1.46875 0.47265,-0.0781 0.73828,-0.86328 0.58593,-1.75781 -0.14843,-0.89062 -0.65625,-1.54687 -1.1289,-1.46875"
               style="fill:#fad9ab;fill-opacity:1;fill-rule:nonzero;stroke:none" />
          </g>
        </g>
      </g>
      <path
         style="fill:#9ccfe6;fill-opacity:1;fill-rule:nonzero;stroke:none"
         d="m 315.67578,280.23047 h 84.51172 c 1.21484,0 2.19531,-0.98047 2.19531,-2.1836 v -1.58203 c 0,-1.20703 -0.98047,-2.18359 -2.19531,-2.18359 h -84.51172 c -1.21094,0 -2.19531,0.97656 -2.19531,2.18359 v 1.58203 c 0,1.20313 0.98437,2.1836 2.19531,2.1836"
         id="path2122" />
      <g
         id="g9283">
        <path
           id="path2124"
           d="m 405.6875,218.54687 h -3.08594 c -0.40625,0 -0.73437,0.32422 -0.73437,0.72657 v 1.74218 h -87.8711 v -1.74218 c 0,-0.40235 -0.32812,-0.72657 -0.73047,-0.72657 h -3.08593 c -0.40625,0 -0.73438,0.32422 -0.73438,0.72657 v 67.01953 c 0,0.40234 0.32813,0.72656 0.73438,0.72656 h 3.08593 c 0.40235,0 0.73047,-0.32422 0.73047,-0.72656 v -1.375 h 87.8711 v 1.375 c 0,0.40234 0.32812,0.72656 0.73437,0.72656 h 3.08594 c 0.40234,0 0.73047,-0.32422 0.73047,-0.72656 v -67.01953 c 0,-0.40235 -0.32813,-0.72657 -0.73047,-0.72657 m -83.09375,61.44141 h -8.59766 V 223.5 h 8.59766 z m 11.55469,0 H 323.95312 V 223.5 h 10.19532 z m 11.55078,0 H 335.50781 V 223.5 h 10.19141 z m 11.55469,0 H 347.05859 V 223.5 h 10.19532 z m 11.55078,0 H 358.61328 V 223.5 h 10.19141 z M 370.16406,223.5 h 10.19531 v 5.71484 h -10.19531 z m 10.19531,56.48828 h -10.19531 v -42.35937 h 10.19531 z m 11.55079,0 h -10.19141 v -42.35937 h 10.19141 z m 0,-43.71094 h -21.7461 v -2.51562 h 21.7461 z m 0,-3.19922 h -21.7461 v -2.51562 h 21.7461 z m 0,-3.86328 H 381.71875 V 223.5 h 10.19141 z m 9.95703,50.77344 h -8.59766 V 223.5 h 8.59766 z m 0,0"
           style="fill:#a69ca1;fill-opacity:1;fill-rule:nonzero;stroke:none" />
        <path
           id="path2126"
           d="m 373.98437,233.42187 c 0,0.84766 -0.6914,1.53516 -1.54296,1.53516 -0.85547,0 -1.54297,-0.6875 -1.54297,-1.53516 0,-0.84765 0.6875,-1.53515 1.54297,-1.53515 0.85156,0 1.54296,0.6875 1.54296,1.53515"
           style="fill:#f8ae00;fill-opacity:1;fill-rule:nonzero;stroke:none" />
        <path
           id="path2128"
           d="m 380.02734,233.42187 c 0,0.84766 -0.6914,1.53516 -1.54297,1.53516 -0.85546,0 -1.54687,-0.6875 -1.54687,-1.53516 0,-0.84765 0.69141,-1.53515 1.54687,-1.53515 0.85157,0 1.54297,0.6875 1.54297,1.53515"
           style="fill:#e394bd;fill-opacity:1;fill-rule:nonzero;stroke:none" />
        <path
           id="path2130"
           d="m 383.71875,233.42187 c 0,0.84766 -0.69141,1.53516 -1.54297,1.53516 -0.85547,0 -1.54297,-0.6875 -1.54297,-1.53516 0,-0.84765 0.6875,-1.53515 1.54297,-1.53515 0.85156,0 1.54297,0.6875 1.54297,1.53515"
           style="fill:#8fc7e6;fill-opacity:1;fill-rule:nonzero;stroke:none" />
        <path
           id="path2132"
           d="m 387.51172,233.42187 c 0,0.84766 -0.69141,1.53516 -1.54297,1.53516 -0.85156,0 -1.54297,-0.6875 -1.54297,-1.53516 0,-0.84765 0.69141,-1.53515 1.54297,-1.53515 0.85156,0 1.54297,0.6875 1.54297,1.53515"
           style="fill:#f8ae00;fill-opacity:1;fill-rule:nonzero;stroke:none" />
        <path
           id="path2134"
           d="m 391.25781,233.42187 c 0,0.84766 -0.6914,1.53516 -1.54687,1.53516 -0.85157,0 -1.54297,-0.6875 -1.54297,-1.53516 0,-0.84765 0.6914,-1.53515 1.54297,-1.53515 0.85547,0 1.54687,0.6875 1.54687,1.53515"
           style="fill:#e394bd;fill-opacity:1;fill-rule:nonzero;stroke:none" />
      </g>
    </g>
    <path
       id="path2136"
       d="M 58.970617,119.83481 H 119.97086"
       style="fill:none;stroke:#0068b3;stroke-width:0.176389;stroke-linecap:butt;stroke-linejoin:miter;stroke-miterlimit:4;stroke-opacity:1" />
  </g>
</svg>
