<?xml version="1.0" encoding="UTF-8" standalone="no"?>
<svg
   xmlns:dc="http://purl.org/dc/elements/1.1/"
   xmlns:cc="http://creativecommons.org/ns#"
   xmlns:rdf="http://www.w3.org/1999/02/22-rdf-syntax-ns#"
   xmlns:svg="http://www.w3.org/2000/svg"
   xmlns="http://www.w3.org/2000/svg"
   id="svg17678"
   version="1.1"
   viewBox="0 0 68.188087 49.041622"
   height="49.041622mm"
   width="68.188087mm">
  <defs
     id="defs17672" />
  <metadata
     id="metadata17675">
    <rdf:RDF>
      <cc:Work
         rdf:about="">
        <dc:format>image/svg+xml</dc:format>
        <dc:type
           rdf:resource="http://purl.org/dc/dcmitype/StillImage" />
        <dc:title></dc:title>
      </cc:Work>
    </rdf:RDF>
  </metadata>
  <g
     transform="translate(-29.129612,-61.523217)"
     id="layer1">
    <path
       id="path2444"
       d="M 29.129612,110.56484 H 97.317701 V 61.523217 H 29.129612 Z m 0,0"
       style="fill:#ffffff;fill-opacity:1;fill-rule:nonzero;stroke:none;stroke-width:0.352777" />
    <g
       transform="matrix(0.3527778,0,0,0.3527778,21.170063,-47.658753)"
       id="g18261">
      <path
         style="fill:#ded4c7;fill-opacity:1;fill-rule:nonzero;stroke:none"
         d="m 197.48828,397.17187 c 0,1.80469 -23.51953,3.26563 -52.53516,3.26563 -29.01562,0 -52.535151,-1.46094 -52.535151,-3.26563 0,-1.80078 23.519531,-2.15234 52.535151,-2.15234 29.01563,0 52.53516,0.35156 52.53516,2.15234"
         id="path2446" />
      <path
         style="fill:#45ab33;fill-opacity:1;fill-rule:nonzero;stroke:none"
         d="m 116.27344,382.32422 c -0.30078,0 -0.58985,0.0664 -0.84766,0.18359 -0.33594,-0.66406 -1.02344,-1.11719 -1.82031,-1.11719 -0.67969,0 -1.27734,0.32813 -1.65234,0.83594 -0.27344,-0.13672 -0.58204,-0.21484 -0.91016,-0.21484 -0.94922,0 -1.74609,0.64453 -1.97656,1.51953 -0.22657,-0.0859 -0.47266,-0.13281 -0.72657,-0.13281 -1.1289,0 -2.04296,0.91406 -2.04296,2.04297 0,0.26562 0.0508,0.51953 0.14062,0.7539 -0.58203,0.35938 -0.97266,1.00391 -0.97266,1.74219 0,0.97656 0.6875,1.79297 1.60157,1.99609 0.0977,1.03516 0.97265,1.84766 2.03515,1.84766 2.47266,0 4.73438,-0.27734 7.20703,-0.27734 1.125,0 2.04297,-0.91407 2.04297,-2.04297 0,-0.2461 -0.043,-0.48438 -0.125,-0.70313 0.80078,-0.27734 1.3711,-1.03906 1.3711,-1.92969 0,-0.88671 -0.5625,-1.64062 -1.35157,-1.92187 0.0469,-0.17188 0.0703,-0.35156 0.0703,-0.53906 0,-1.12891 -0.91407,-2.04297 -2.04297,-2.04297"
         id="path2448" />
      <path
         style="fill:#45ab33;fill-opacity:1;fill-rule:nonzero;stroke:none"
         d="m 112.40625,388.07031 c -0.30078,0 -0.58984,0.0664 -0.84375,0.1836 -0.33984,-0.66407 -1.02734,-1.11719 -1.82422,-1.11719 -0.67578,0 -1.27734,0.32812 -1.65234,0.83594 -0.27344,-0.13672 -0.58203,-0.21485 -0.91016,-0.21485 -0.94922,0 -1.74609,0.64453 -1.97656,1.51953 -0.22656,-0.0859 -0.46875,-0.13281 -0.72656,-0.13281 -1.12891,0 -2.04297,0.91406 -2.04297,2.04297 0,0.26562 0.0508,0.51953 0.14062,0.75391 -0.58203,0.35937 -0.97265,1.0039 -0.97265,1.74218 0,0.97657 0.6875,1.79297 1.60156,1.9961 0.0977,1.03515 0.97266,1.84765 2.03516,1.84765 2.47265,0 4.73437,-0.27734 7.20703,-0.27734 1.1289,0 2.04297,-0.91406 2.04297,-2.04297 0,-0.24609 -0.043,-0.48437 -0.125,-0.70312 0.80078,-0.27735 1.37109,-1.03907 1.37109,-1.92969 0,-0.88672 -0.5625,-1.64063 -1.35156,-1.92578 0.0469,-0.16797 0.0703,-0.34766 0.0703,-0.53516 0,-1.12891 -0.91406,-2.04297 -2.04297,-2.04297"
         id="path2450" />
      <path
         style="fill:#c7bab5;fill-opacity:1;fill-rule:nonzero;stroke:none"
         d="m 162.78125,397.51172 h 29.61719 v -21.69531 h -29.61719 z m 0,0"
         id="path2452" />
      <path
         style="fill:#ffffff;fill-opacity:1;fill-rule:nonzero;stroke:none"
         d="m 163.65234,391.42187 h 10.25782 v -10.46093 h -10.25782 z m 0,0"
         id="path2454" />
      <path
         style="fill:#c7bab5;fill-opacity:1;fill-rule:nonzero;stroke:none"
         d="m 163.65234,385.29297 c -0.375,0 -0.68359,-0.30469 -0.68359,-0.67969 0,-0.37891 0.30859,-0.68359 0.68359,-0.68359 h 10.25782 c 0.375,0 0.68359,0.30468 0.68359,0.68359 0,0.375 -0.30859,0.67969 -0.68359,0.67969 h -2.49219 v 6.1289 c 0,0.375 -0.3086,0.67969 -0.6836,0.67969 -0.375,0 -0.67968,-0.30469 -0.67968,-0.67969 v -6.1289 h -2.54297 v 6.1289 c 0,0.375 -0.3086,0.67969 -0.6836,0.67969 -0.375,0 -0.68359,-0.30469 -0.68359,-0.67969 v -6.1289 z m 0,0"
         id="path2456" />
      <path
         style="fill:#c7bab5;fill-opacity:1;fill-rule:nonzero;stroke:none"
         d="m 109.62891,397.51172 h 29.61718 v -21.69531 h -29.61718 z m 0,0"
         id="path2460" />
      <path
         style="fill:#ffffff;fill-opacity:1;fill-rule:nonzero;stroke:none"
         d="m 113.45703,391.46094 h 10.29688 v -10.5 h -10.29688 z m 0,0"
         id="path2462" />
      <path
         style="fill:#c7bab5;fill-opacity:1;fill-rule:nonzero;stroke:none"
         d="m 113.45703,385.30859 c -0.3789,0 -0.68359,-0.30468 -0.68359,-0.68359 0,-0.37891 0.30469,-0.68359 0.68359,-0.68359 h 10.29688 c 0.375,0 0.68359,0.30468 0.68359,0.68359 0,0.37891 -0.30859,0.68359 -0.68359,0.68359 H 121.25 v 6.15235 c 0,0.375 -0.30859,0.67968 -0.6875,0.67968 -0.375,0 -0.68359,-0.30468 -0.68359,-0.67968 v -6.15235 h -2.55078 v 6.15235 c 0,0.375 -0.30469,0.67968 -0.6836,0.67968 -0.3789,0 -0.68359,-0.30468 -0.68359,-0.67968 v -6.15235 z m 0,0"
         id="path2464" />
      <path
         style="fill:#ffffff;fill-opacity:1;fill-rule:nonzero;stroke:none"
         d="m 128.16797,391.46094 h 10.29687 v -10.5 h -10.29687 z m 0,0"
         id="path2466" />
      <path
         style="fill:#c7bab5;fill-opacity:1;fill-rule:nonzero;stroke:none"
         d="m 128.16797,385.30859 c -0.37891,0 -0.68359,-0.30468 -0.68359,-0.68359 0,-0.37891 0.30468,-0.68359 0.68359,-0.68359 h 10.29297 c 0.3789,0 0.6875,0.30468 0.6875,0.68359 0,0.37891 -0.3086,0.68359 -0.6875,0.68359 h -2.5 v 6.15235 c 0,0.375 -0.3086,0.67968 -0.6875,0.67968 -0.375,0 -0.6836,-0.30468 -0.6836,-0.67968 v -6.15235 h -2.55078 v 6.15235 c 0,0.375 -0.30469,0.67968 -0.68359,0.67968 -0.37891,0 -0.6836,-0.30468 -0.6836,-0.67968 v -6.15235 z m 0,0"
         id="path2468" />
      <path
         style="fill:#a69ca1;fill-opacity:1;fill-rule:nonzero;stroke:none"
         d="m 162.78125,375.81641 h 32.53516 l -3.53125,-8.1836 H 159.25 l 3.53125,3.47656 z m 0,0"
         id="path2470" />
      <path
         style="fill:#c7bab5;fill-opacity:1;fill-rule:nonzero;stroke:none"
         d="m 151.01172,359.51953 -11.76563,11.58984 v 26.40235 h 23.53516 v -26.40235 z m 0,0"
         id="path2472" />
      <path
         style="fill:#a69ca1;fill-opacity:1;fill-rule:nonzero;stroke:none"
         d="m 144.92187,397.51172 h 12.1836 v -17.70313 h -12.1836 z m 0,0"
         id="path2474" />
      <path
         style="fill:#d13d14;fill-opacity:1;fill-rule:nonzero;stroke:none"
         d="m 151.60156,359.51953 c 0,0.32422 -0.26562,0.58594 -0.58984,0.58594 -0.32422,0 -0.58594,-0.26172 -0.58594,-0.58594 v -6.48047 c 0,-0.32422 0.26172,-0.58594 0.58594,-0.58594 0.32422,0 0.58984,0.26172 0.58984,0.58594 z m 0,0"
         id="path2476" />
      <path
         style="fill:#ffffff;fill-opacity:1;fill-rule:nonzero;stroke:none"
         d="m 151.01172,375.82031 c 2.47265,0 4.48437,-2.01562 4.48437,-4.48437 0,-2.47266 -2.01172,-4.48438 -4.48437,-4.48438 -2.46875,0 -4.48438,2.01172 -4.48438,4.48438 0,2.46875 2.01563,4.48437 4.48438,4.48437"
         id="path2478" />
      <path
         style="fill:#7dc5b0;fill-opacity:1;fill-rule:nonzero;stroke:none"
         d="m 150.42578,368.23828 c 0,-0.32422 0.26172,-0.58984 0.58594,-0.58984 0.32422,0 0.58984,0.26562 0.58984,0.58984 v 2.50781 h 2.3125 c 0.32422,0 0.58594,0.26563 0.58594,0.58985 0,0.32422 -0.26172,0.58593 -0.58594,0.58593 h -2.90234 c -0.32422,0 -0.58594,-0.26171 -0.58594,-0.58593 z m 0,0"
         id="path2480" />
      <path
         style="fill:#d13d14;fill-opacity:1;fill-rule:nonzero;stroke:none"
         d="m 151.01172,352.45312 h 6.34765 l -2.19531,1.83204 2.19531,1.83593 h -6.34765 z m 0,0"
         id="path2482" />
      <path
         style="fill:#a69ca1;fill-opacity:1;fill-rule:nonzero;stroke:none"
         d="m 139.24609,375.81641 h -32.53906 l 3.53125,-8.1836 h 32.53516 l -3.52735,3.47656 z m 0,0"
         id="path2484" />
      <path
         style="fill:#eb6805;fill-opacity:1;fill-rule:nonzero;stroke:none"
         d="m 165.69141,372.35937 c 0.46093,0.45704 0.46093,1.20313 0,1.66016 -0.46094,0.46094 -1.20313,0.46094 -1.66016,0 l -13.01953,-13.01562 -13.01563,13.01562 c -0.46093,0.46094 -1.20312,0.46094 -1.66406,0 -0.45703,-0.45703 -0.45703,-1.20312 0,-1.66016 l 13.84766,-13.84765 c 0.46093,-0.46094 1.20312,-0.46094 1.66406,0 z m 0,0"
         id="path2486" />
    </g>
    <g
       transform="matrix(0.3527778,0,0,0.3527778,21.170063,-47.658753)"
       id="g19063">
      <path
         style="fill:#eb6805;fill-opacity:1;fill-rule:nonzero;stroke:none"
         d="m 191.99219,402.06641 -8.625,0.0859 c -1.98047,0.0195 -3.60157,-1.57031 -3.6211,-3.55078 l -0.13281,-13.4375 c -0.0195,-1.97656 1.57031,-3.59765 3.55078,-3.61719 l 8.6211,-0.0859 c 1.98046,-0.0195 3.60546,1.57031 3.62109,3.55078 l 0.13281,13.43359 c 0.0195,1.98047 -1.5664,3.60156 -3.54687,3.6211"
         id="path2514" />
      <g
         id="g18433">
        <g
           id="g18399">
          <path
             style="fill:#ebe3d9;fill-opacity:1;fill-rule:nonzero;stroke:none"
             d="m 209.16016,441.35937 c 0,1.09766 -9.25,1.98829 -20.84375,1.98829 -11.59375,0 -24.13672,-0.89063 -24.13672,-1.98829 0,-1.09375 12.54297,-1.30859 24.13672,-1.30859 11.59375,0 20.84375,0.21484 20.84375,1.30859"
             id="path2488" />
          <path
             style="fill:#541e0c;fill-opacity:1;fill-rule:nonzero;stroke:none"
             d="m 190.38281,436.53906 v 4.27344 h 7.32031 c 0,0 -0.83593,-4.16406 -7.32031,-4.27344"
             id="path2490" />
          <path
             style="fill:#947011;fill-opacity:1;fill-rule:nonzero;stroke:none"
             d="m 190.38281,441.60156 h 7.32031 v -0.90234 h -7.32031 z m 0,0"
             id="path2492" />
          <path
             style="fill:#541e0c;fill-opacity:1;fill-rule:nonzero;stroke:none"
             d="m 185.19141,436.53906 v 4.27344 h -7.32032 c 0,0 0.83203,-4.16406 7.32032,-4.27344"
             id="path2494" />
          <path
             style="fill:#947011;fill-opacity:1;fill-rule:nonzero;stroke:none"
             d="m 177.87109,441.60156 h 7.32032 v -0.90234 h -7.32032 z m 0,0"
             id="path2496" />
          <path
             style="fill:#fad9ab;fill-opacity:1;fill-rule:nonzero;stroke:none"
             d="m 181.57031,419.89844 c -0.22265,2.6289 -0.74219,3.10547 -0.38672,6.9375 0.26172,2.78906 1.28516,5.65625 1.52735,10.51562 l 2.47656,-0.0781 c 0,0 0.18359,-3.3086 0.47266,-8.17969 0.22265,-3.67578 0.41796,-6.41016 -0.0586,-9.08203 z m 0,0"
             id="path2498" />
          <path
             style="fill:#fad9ab;fill-opacity:1;fill-rule:nonzero;stroke:none"
             d="m 193.94141,419.89844 c 0.22265,2.6289 0.74218,3.10547 0.38671,6.9375 -0.26171,2.78906 -1.28515,5.65625 -1.52734,10.51562 l -2.47266,-0.0781 c 0,0 -0.1875,-3.3086 -0.47656,-8.17969 -0.22265,-3.67578 -0.41797,-6.41016 0.0625,-9.08203 z m 0,0"
             id="path2500" />
          <path
             style="fill:#eb6805;fill-opacity:1;fill-rule:nonzero;stroke:none"
             d="m 197.06641,419.89844 h -18.59766 l 1.37891,-16.52344 h 15.83984 z m 0,0"
             id="path2502" />
          <path
             style="fill:#fad9ab;fill-opacity:1;fill-rule:nonzero;stroke:none"
             d="m 176.95312,405.74219 c 0,0 -0.0273,0.6914 0.30079,1.0664 0.32812,0.375 1.26171,0.98047 1.29296,1.51563 0.0312,0.53906 0.23829,1.53906 0.37891,1.9414 0.14453,0.40235 -0.69141,0.21094 -0.80078,-0.3125 -0.10938,-0.52343 -0.47656,-1.21875 -0.47656,-1.21875 0,0 0.0117,1.07032 -0.0742,1.66016 -0.0664,0.44141 -0.0898,1.13281 -0.21485,1.57813 -0.125,0.4414 -0.51953,0.40234 -0.51953,0.40234 0,0 -0.0391,0.36719 -0.36328,0.4375 -0.32422,0.0625 -0.3789,-0.39453 -0.3789,-0.39453 0,0 -0.44141,0.0625 -0.65235,-0.47266 -0.10547,-0.26953 -0.17187,-0.22265 -0.52344,-0.83203 -0.28125,-0.49219 -0.41406,-1.40625 -0.41796,-2.07422 -0.008,-0.8164 0.19531,-1.39844 0.27734,-2.07812 0.0898,-0.69532 0.10547,-1.32422 0.10547,-1.32422 z m 0,0"
             id="path2504" />
          <path
             style="fill:#fad9ab;fill-opacity:1;fill-rule:nonzero;stroke:none"
             d="m 200.25391,404.78516 c 0,0 -0.0625,0.68359 -0.4375,1.01171 -0.375,0.32813 -1.38282,0.80469 -1.48829,1.33204 -0.10546,0.52734 -0.4414,1.49218 -0.63671,1.87109 -0.19532,0.37891 0.66015,0.30469 0.83984,-0.19922 0.17578,-0.50391 0.63281,-1.14844 0.63281,-1.14844 0,0 -0.15234,1.0586 -0.14844,1.65625 0.004,0.44532 -0.0625,1.13672 0,1.59375 0.0625,0.45313 0.45704,0.46875 0.45704,0.46875 0,0 -0.008,0.3711 0.30468,0.48047 0.3125,0.10938 0.42969,-0.33594 0.42969,-0.33594 0,0 0.42578,0.1211 0.71094,-0.38281 0.14062,-0.25 0.19922,-0.19922 0.625,-0.7539 0.34765,-0.44922 0.60156,-1.33594 0.69922,-2 0.11718,-0.8086 -0.004,-1.41407 0,-2.09766 0.008,-0.69531 0.0781,-1.32422 0.0781,-1.32422 z m 0,0"
             id="path2506" />
          <path
             style="fill:#eb6805;fill-opacity:1;fill-rule:nonzero;stroke:none"
             d="m 180.20312,393.71484 -0.0117,-0.004 c -0.17969,-1.06641 -1.33985,-1.85547 -2.71485,-1.80078 -1.10547,0.0469 -0.55859,-1.77344 -1.85937,1.1914 -1.30078,2.96485 -0.46485,9.42578 -1.02735,11.82422 -0.0898,0.14844 -0.16797,0.67188 0.0742,0.71875 0.2461,0.0469 3.1211,0.65625 3.28516,0.44531 0.16406,-0.21093 0.043,-0.26562 0.11719,-0.80859 0.94921,-6.69141 1.8164,-7.375 2.05859,-10.73047 0.0664,-0.19141 0.0859,-0.77734 0.0781,-0.83594"
             id="path2508" />
          <path
             style="fill:#eb6805;fill-opacity:1;fill-rule:nonzero;stroke:none"
             d="m 195,391.13281 c 0,-0.0859 0.24609,-9.68359 -1.13281,-9.72656 0,0 -2.58203,-1.42969 -6.44141,-1.42969 h 0.1875 c -3.85937,0 -6.44141,1.42969 -6.44141,1.42969 -1.375,0.043 -1.1289,9.64062 -1.13281,9.72656 z m 0,0"
             id="path2516" />
          <path
             style="fill:#eb6805;fill-opacity:1;fill-rule:nonzero;stroke:none"
             d="m 196.71484,393.71484 0.0117,-0.004 c 0.1836,-1.06641 1.33985,-1.85547 2.71875,-1.80078 1.10156,0.0469 0.55469,-1.77344 1.85547,1.1914 1.30469,2.96485 0.46484,9.42578 1.02734,11.82422 0.0898,0.14844 0.16797,0.67188 -0.0742,0.71875 -0.2461,0.0469 -3.1211,0.65625 -3.28516,0.44531 -0.16406,-0.21093 -0.043,-0.26562 -0.11719,-0.80859 -0.94922,-6.69141 -1.8164,-7.375 -2.05859,-10.73047 -0.0625,-0.19141 -0.0859,-0.77734 -0.0781,-0.83594"
             id="path2518" />
          <path
             style="fill:#eb6805;fill-opacity:1;fill-rule:nonzero;stroke:none"
             d="m 196.80859,382.97266 c -0.75781,-1.36329 -2.0664,-2.01563 -3.54297,-1.10938 -0.96093,0.58594 -1.53125,1.83984 -0.85546,3.32422 0.67578,1.48437 4.03125,9.09375 4.15234,9.34375 0.47656,0.99609 2.40625,1.875 3.59375,1.30469 1.1875,-0.57032 1.60547,-1.99219 1.125,-2.98438 -0.0312,-0.0703 -2.06641,-4.52734 -4.47266,-9.8789"
             id="path2520" />
          <path
             style="fill:#eb6805;fill-opacity:1;fill-rule:nonzero;stroke:none"
             d="m 178.10156,383.3125 c 0.53906,-1.46484 1.73438,-2.30859 3.33203,-1.63672 1.03907,0.4375 1.79297,1.58984 1.35157,3.15625 -0.44532,1.57031 -2.60547,9.60156 -2.6875,9.86719 -0.32032,1.05859 -2.09375,2.21875 -3.35157,1.83594 -1.26172,-0.38282 -1.63281,-1.375 -1.48437,-2.77344 0.0859,-0.8086 1.26953,-4.79297 2.83984,-10.44922"
             id="path2522" />
          <path
             style="fill:#eb6805;fill-opacity:1;fill-rule:nonzero;stroke:none"
             d="m 191.99219,407.875 -8.625,0.13672 c -1.98047,0.0312 -3.60157,-2.48047 -3.6211,-5.60547 l -0.0312,-4.52344 c -0.0156,-3.125 1.57032,-5.68359 3.55078,-5.71484 l 8.625,-0.13672 c 1.98047,-0.0273 3.60157,2.48047 3.6211,5.60547 l 0.0273,4.52344 c 0.0195,3.125 -1.57031,5.68359 -3.54687,5.71484"
             id="path2526" />
          <path
             style="fill:#592e87;fill-opacity:1;fill-rule:nonzero;stroke:none"
             d="m 179.41016,392.33203 4.76562,-12.04297 -4.76562,0.75391 -0.94141,9.15625 z m 0,0"
             id="path2528" />
          <path
             style="fill:#592e87;fill-opacity:1;fill-rule:nonzero;stroke:none"
             d="m 196.125,392.61328 -4.76563,-12.04297 4.76563,0.75391 0.94141,9.15625 z m 0,0"
             id="path2530" />
          <path
             style="fill:#fad9ab;fill-opacity:1;fill-rule:nonzero;stroke:none"
             d="m 187.39844,376.40625 c -0.90235,0 -2.12891,0.41797 -2.70703,1.58594 -0.3711,0.75781 -0.51172,1.44531 -0.53516,2.16797 -0.0195,0.73437 0.10156,3.83984 3.65625,3.91796 3.55078,0.082 3.48047,-3.02343 3.41016,-3.75781 -0.0664,-0.72656 -0.2461,-1.5 -0.67579,-2.19531 -0.71875,-1.16797 -1.90625,-1.67188 -2.80859,-1.71094 z m 0,0"
             id="path2534" />
          <path
             style="fill:#fac278;fill-opacity:1;fill-rule:nonzero;stroke:none"
             d="m 191.22266,380.32031 c -0.0703,-0.72656 -0.2461,-1.5 -0.67188,-2.19531 -0.72266,-1.16797 -1.91016,-1.67188 -2.8125,-1.71094 l -0.33984,-0.008 c -0.90235,0 -2.12891,0.41797 -2.70703,1.58594 -0.3711,0.75781 -0.51172,1.44531 -0.53516,2.16797 0,0.082 -0.004,0.19531 0.004,0.32421 1.05468,1.28907 2.35156,1.85547 3.41406,1.89063 h 0.55078 c 0.94922,-0.0273 2.12891,-0.45703 3.11328,-1.46484 0.008,-0.25 -0.004,-0.46094 -0.0156,-0.58985"
             id="path2536" />
          <path
             style="fill:#541e0c;fill-opacity:1;fill-rule:nonzero;stroke:none"
             d="m 196.71094,369.33594 c -0.0586,0.0937 0.0156,0.21875 0.0977,0.29297 0.42969,0.41406 1.09375,0.47656 1.67969,0.36328 0.58203,-0.11719 0.22656,-0.15235 0.79688,-0.31641 0.57421,-0.16406 1.21875,-0.21875 1.73828,0.0664 0.70312,0.39062 0.95703,1.0039 0.95312,1.55859 0,0.44531 -0.37109,0.53906 -0.51562,0.53906 0.69922,1.24219 -0.91016,1.60157 -0.87891,1.42188 0.0898,0.32422 -0.69531,0.55469 -1.22656,0.17578 -0.28516,-0.20313 -1.56641,-2.17578 -2.11719,-2.50391 -0.54687,-0.32812 -0.21094,-0.28906 -0.82812,-0.46875"
             id="path2538" />
          <path
             style="fill:#b80063;fill-opacity:1;fill-rule:nonzero;stroke:none"
             d="m 197.83203,369.94922 c -0.33594,-0.58594 -1.08203,-0.78906 -1.66797,-0.45313 -0.58594,0.33594 -0.78906,1.08594 -0.45312,1.66797 0.33203,0.58594 1.08203,0.78906 1.66797,0.45313 0.58593,-0.33203 0.78906,-1.08203 0.45312,-1.66797"
             id="path2540" />
          <path
             style="fill:#541e0c;fill-opacity:1;fill-rule:nonzero;stroke:none"
             d="m 178.82422,369.33594 c 0.0586,0.0937 -0.0156,0.21875 -0.0977,0.29297 -0.42969,0.41406 -1.09375,0.47656 -1.67969,0.36328 -0.58203,-0.11719 -0.22656,-0.15235 -0.79687,-0.31641 -0.57422,-0.16406 -1.21875,-0.21875 -1.73828,0.0664 -0.70313,0.39062 -0.95703,1.0039 -0.95313,1.55859 0,0.44531 0.3711,0.53906 0.51563,0.53906 -0.69922,1.24219 0.90625,1.60157 0.8789,1.42188 -0.0898,0.32422 0.69532,0.55469 1.22657,0.17578 0.28515,-0.20313 1.5664,-2.17578 2.11718,-2.50391 0.54688,-0.32812 0.21094,-0.28906 0.82813,-0.46875"
             id="path2542" />
          <path
             style="fill:#b80063;fill-opacity:1;fill-rule:nonzero;stroke:none"
             d="m 177.70312,369.94922 c 0.33594,-0.58594 1.08204,-0.78906 1.66797,-0.45313 0.58594,0.33594 0.78907,1.08594 0.45313,1.66797 -0.33203,0.58594 -1.08203,0.78906 -1.66797,0.45313 -0.58594,-0.33203 -0.78906,-1.08203 -0.45313,-1.66797"
             id="path2544" />
          <path
             style="fill:#541e0c;fill-opacity:1;fill-rule:nonzero;stroke:none"
             d="m 195.97266,373.44141 c 0.72656,0.0703 1.41406,-0.67969 1.27734,-1.39844 -0.11719,-0.625 -0.72656,-1.13281 -0.66406,-1.76563 0.0234,-0.25 0.15234,-0.47656 0.25781,-0.70312 0.1875,-0.39844 0.3125,-0.83594 0.29297,-1.27344 -0.0234,-0.44141 -0.20703,-0.88281 -0.55078,-1.15625 -0.25391,-0.20312 -0.57422,-0.30078 -0.88672,-0.39062 -0.42969,-0.12891 -0.85547,-0.25391 -1.28125,-0.38282 -0.28125,-0.082 -0.57031,-0.16406 -0.85938,-0.125 -0.28515,0.043 -0.57422,0.24219 -0.61328,0.53125 -0.0586,0.41407 0.36719,0.70703 0.66406,0.9961 0.69141,0.67968 0.81641,1.85937 0.28516,2.66797 -0.14453,0.21875 -0.33203,0.41406 -0.44141,0.65625 -0.21875,0.47265 -0.0977,1.02734 0.0898,1.51171 0.15234,0.39454 0.36719,0.79688 0.73828,1.00391 0.36719,0.21094 0.91797,0.14453 1.10937,-0.23047 z m 0,0"
             id="path2546" />
          <path
             style="fill:#541e0c;fill-opacity:1;fill-rule:nonzero;stroke:none"
             d="m 189.16797,363.76172 c 0.0859,-0.6836 -0.28906,-1.40625 -0.89844,-1.73047 -0.60937,-0.32813 -1.41406,-0.23828 -1.9375,0.21484 -0.19531,0.16797 -0.35937,0.38282 -0.59766,0.47657 -0.60156,0.23046 -1.14453,-0.0586 -1.76171,-0.25 -0.91407,-0.28907 -2.05469,0.0625 -2.3711,1.01171 -0.33594,0.99219 0.38281,1.47657 -0.33984,2.23829 -0.35547,0.3789 -0.92578,0.42578 -1.40625,0.6289 -0.89453,0.3711 -1.48438,1.50391 -1.05078,2.3711 0.21484,0.42968 0.64843,0.78125 0.65234,1.26171 0,0.48438 -0.43359,0.83594 -0.76562,1.1875 -0.32813,0.35157 -0.57422,0.94922 -0.22657,1.28125 0.1211,0.11329 0.28516,0.16797 0.44532,0.19922 0.88671,0.16016 1.78125,-0.28515 2.46875,-0.86718 0.6875,-0.58204 1.24609,-1.3086 1.95312,-1.8711 1.86719,-1.49219 4.72266,-1.58594 6.68359,-0.22656 1.26172,0.87891 2.28516,2.32422 3.81641,2.44141 0.77734,0.0586 1.55469,-0.26954 2.125,-0.80079 0.57031,-0.53125 0.94141,-1.25 1.14453,-2.0039 0.13281,-0.50391 0.19141,-1.03516 0.0703,-1.53906 -0.12109,-0.50782 -0.4414,-0.98047 -0.91406,-1.19532 -0.48437,-0.21875 -1.10937,-0.17187 -1.46484,-0.5664 -0.30078,-0.33203 -0.27735,-0.82813 -0.35156,-1.26563 -0.21094,-1.22656 -1.42188,-2.19531 -2.66407,-2.13672 -0.60547,0.0274 -1.18359,0.27344 -1.78906,0.33594 -0.60156,0.0664 -1.3125,-0.11328 -1.57031,-0.66406"
             id="path2548" />
          <path
             style="fill:#fad9ab;fill-opacity:1;fill-rule:nonzero;stroke:none"
             d="m 179.89062,372.52344 c 0.19532,6.28906 5.94922,9.01172 8.33204,8.93359 2.38281,-0.0742 7.95312,-3.15234 7.75781,-9.4375 -0.15625,-4.85156 -3.87891,-8.67187 -8.32422,-8.53125 -4.44141,0.14063 -7.91797,4.18359 -7.76563,9.03516"
             id="path2550" />
          <path
             style="fill:#541e0c;fill-opacity:1;fill-rule:nonzero;stroke:none"
             d="m 181.96094,366.96094 c 0.54297,0.57422 1.58593,0.55468 2.10547,-0.0391 0.24609,-0.27734 0.48828,-0.69921 0.85156,-0.61718 0.28515,0.0664 0.38672,0.41015 0.52734,0.67187 0.27735,0.51563 0.87891,0.81641 1.46485,0.79297 0.58593,-0.0195 1.14062,-0.33594 1.51953,-0.78125 0.16797,-0.20312 0.3125,-0.44141 0.53515,-0.58594 0.22266,-0.14843 0.5625,-0.17187 0.72657,0.0352 0.0781,0.10156 0.10156,0.23047 0.14453,0.35156 0.21484,0.62891 0.94922,0.96875 1.60547,0.89453 0.66015,-0.0742 1.23828,-0.48047 1.6914,-0.96093 0.23047,-0.25 0.44922,-0.53516 0.48828,-0.875 0.0586,-0.51172 -0.32422,-0.9961 -0.79687,-1.20704 -0.46875,-0.21093 -1.00781,-0.20312 -1.52344,-0.16015 -0.37109,0.0312 -0.76172,0.0742 -1.09375,-0.0937 -0.18359,-0.0899 -0.32812,-0.23438 -0.48047,-0.375 -0.51562,-0.46094 -1.1289,-0.83203 -1.80859,-0.96875 -0.67578,-0.14063 -1.42188,-0.0352 -1.98047,0.375 -0.25781,0.1875 -0.47656,0.4375 -0.75781,0.58984 -0.35547,0.19141 -0.77735,0.20703 -1.17969,0.23828 -0.40234,0.0274 -0.82422,0.082 -1.14453,0.33203 -0.31641,0.25 -0.46485,0.75782 -0.20313,1.06641 z m 0,0"
             id="path2556" />
          <path
             style="fill:#eb6805;fill-opacity:1;fill-rule:nonzero;stroke:none"
             d="m 179.57031,412.81641 -1.17187,7.09375 c 0,0 3.02734,1.76562 9.22656,1.76562 6.19922,0 9.37109,-1.76562 9.37109,-1.76562 l -0.58593,-7.09375 z m 0,0"
             id="path2558" />
        </g>
        <path
           id="path2552"
           d="m 179.69141,372.58594 c 0.85156,-0.21094 1.44531,-1.15625 1.26953,-2.01172 -0.0703,-0.33594 -0.23828,-0.69141 -0.0937,-1 0.1875,-0.40235 0.73437,-0.42578 1.15234,-0.57422 0.69922,-0.25 1.01172,-0.88672 0.51172,-1.69141 -0.58203,-0.9375 0.30859,-0.64843 0.34375,-0.9375 0.0508,-0.41015 0.44531,-0.70703 0.84766,-0.79687 0.40234,-0.0937 0.82421,-0.0274 1.23437,0 0.72656,0.0508 1.48047,-0.0117 2.13672,-0.32422 0.66016,-0.30859 1.21484,-0.89453 1.35937,-1.60938 l -0.8164,-0.82812 -4.73828,1.19141 -2.85547,3.69531 z m 0,0"
           style="fill:#541e0c;fill-opacity:1;fill-rule:nonzero;stroke:none" />
        <path
           id="path2554"
           d="m 196.17578,372.58594 c -0.84766,-0.21094 -1.44531,-1.15625 -1.26562,-2.01172 0.0664,-0.33594 0.23437,-0.69141 0.0898,-1 -0.1875,-0.40235 -0.73438,-0.42578 -1.15234,-0.57422 -0.69532,-0.25 -1.14844,-1.04688 -1.00782,-1.77734 0.0547,-0.28125 0.19141,-0.5625 0.15235,-0.85157 -0.0508,-0.41015 -0.44141,-0.70703 -0.84766,-0.79687 -0.40234,-0.0937 -0.82031,-0.0274 -1.23437,0 -0.72657,0.0508 -1.47657,-0.0117 -2.13672,-0.32422 -0.66016,-0.30859 -1.21485,-0.89453 -1.35938,-1.60938 l 0.82031,-0.82812 4.73438,1.19141 2.85547,3.69531 z m 0,0"
           style="fill:#541e0c;fill-opacity:1;fill-rule:nonzero;stroke:none" />
      </g>
    </g>
    <g
       transform="matrix(0.3527778,0,0,0.3527778,21.170063,-47.658753)"
       id="g18896">
      <path
         style="fill:#ebe3d9;fill-opacity:1;fill-rule:nonzero;stroke:none"
         d="m 58.09375,423.1875 c 0,1.68359 14.011719,3.04687 31.578125,3.04687 17.566405,0 36.570315,-1.36328 36.570315,-3.04687 0,-1.68359 -19.00391,-2.01563 -36.570315,-2.01563 -17.566406,0 -31.578125,0.33204 -31.578125,2.01563"
         id="path2560" />
      <path
         style="fill:#a69ca1;fill-opacity:1;fill-rule:nonzero;stroke:none"
         d="M 107.32422,417.34766 95.960938,405.94531 c -3.652344,-3.66406 -8.289063,-5.68359 -13.046875,-5.68359 h -0.04687 c -0.722657,0 -1.363282,0.3789 -1.765625,0.96484 -0.03516,-0.17187 -0.05469,-0.35156 -0.05469,-0.53515 0,-1.3086 0.980469,-2.375 2.195313,-2.375 h 0.04687 c 4.757812,0 9.394531,2.01953 13.046875,5.6875 l 11.363284,11.39843 c 2.28125,2.28907 5.14844,3.55078 8.07422,3.55078 1.21094,0 2.19531,1.0625 2.19531,2.375 0,0.53125 -8.36328,-1.6914 -10.64453,-3.98046"
         id="path2564" />
      <path
         style="fill:#541e0c;fill-opacity:1;fill-rule:nonzero;stroke:none"
         d="m 73.875,376.79297 h 0.15625 c 0.421875,0 0.765625,-0.34766 0.765625,-0.77735 v -1.84765 c 0,-0.42578 -0.34375,-0.77735 -0.765625,-0.77735 H 73.875 c -0.425781,0 -0.769531,0.35157 -0.769531,0.77735 v 1.84765 c 0,0.42969 0.34375,0.77735 0.769531,0.77735"
         id="path2566" />
      <path
         style="fill:#541e0c;fill-opacity:1;fill-rule:nonzero;stroke:none"
         d="m 83.617188,382.3125 h -2.101563 v 41.38672 h 2.101563 z m 0,0"
         id="path2570" />
      <path
         style="fill:#541e0c;fill-opacity:1;fill-rule:nonzero;stroke:none"
         d="m 66.273438,382.3125 h -2.101563 v 41.38672 h 2.101563 z m 0,0"
         id="path2572" />
      <path
         style="fill:#541e0c;fill-opacity:1;fill-rule:nonzero;stroke:none"
         d="m 67.421875,379.62891 -0.898437,0.66406 h 14.855468 l -0.894531,-0.66406 z m 0,0"
         id="path2574" />
      <path
         style="fill:#541e0c;fill-opacity:1;fill-rule:nonzero;stroke:none"
         d="m 69,378.45312 -0.894531,0.66407 h 11.691406 l -0.890625,-0.66407 z m 0,0"
         id="path2576" />
      <path
         style="fill:#541e0c;fill-opacity:1;fill-rule:nonzero;stroke:none"
         d="m 72.84375,375.59375 h 2.21875 l -1.109375,-0.82813 z m 0,0"
         id="path2578" />
      <path
         style="fill:#541e0c;fill-opacity:1;fill-rule:nonzero;stroke:none"
         d="m 70.578125,377.27734 -0.894531,0.66407 h 8.535156 l -0.894531,-0.66407 z m 0,0"
         id="path2580" />
      <path
         style="fill:#541e0c;fill-opacity:1;fill-rule:nonzero;stroke:none"
         d="m 72.15625,376.10156 -0.894531,0.66406 h 5.378906 l -0.894531,-0.66406 z m 0,0"
         id="path2582" />
      <path
         style="fill:#541e0c;fill-opacity:1;fill-rule:nonzero;stroke:none"
         d="m 65.839844,380.80469 -0.894531,0.66406 H 82.957031 L 82.0625,380.80469 Z m 0,0"
         id="path2584" />
      <path
         style="fill:#541e0c;fill-opacity:1;fill-rule:nonzero;stroke:none"
         d="m 64.261719,381.98047 -0.894531,0.66406 h 21.167968 l -0.890625,-0.66406 z m 0,0"
         id="path2586" />
      <path
         style="fill:#541e0c;fill-opacity:1;fill-rule:nonzero;stroke:none"
         d="m 72.84375,375.59375 -0.6875,0.50781 h 3.589844 L 75.0625,375.59375 Z m 0,0"
         id="path2588" />
      <path
         style="fill:#541e0c;fill-opacity:1;fill-rule:nonzero;stroke:none"
         d="m 71.261719,376.76562 -0.683594,0.51172 h 6.746094 l -0.683594,-0.51172 z m 0,0"
         id="path2590" />
      <path
         style="fill:#541e0c;fill-opacity:1;fill-rule:nonzero;stroke:none"
         d="M 69.683594,377.94141 69,378.45312 h 9.90625 l -0.6875,-0.51171 z m 0,0"
         id="path2592" />
      <path
         style="fill:#541e0c;fill-opacity:1;fill-rule:nonzero;stroke:none"
         d="m 68.105469,379.11719 -0.6875,0.51172 h 13.066406 l -0.683594,-0.51172 z m 0,0"
         id="path2594" />
      <path
         style="fill:#541e0c;fill-opacity:1;fill-rule:nonzero;stroke:none"
         d="m 66.527344,380.29297 -0.6875,0.50781 H 82.0625 l -0.683594,-0.50781 z m 0,0"
         id="path2596" />
      <path
         style="fill:#541e0c;fill-opacity:1;fill-rule:nonzero;stroke:none"
         d="m 64.945313,381.46875 -0.683594,0.51172 h 19.382812 l -0.6875,-0.51172 z m 0,0"
         id="path2598" />
      <path
         style="fill:#541e0c;fill-opacity:1;fill-rule:nonzero;stroke:none"
         d="m 63.367188,382.64453 -0.683594,0.50781 h 22.539062 l -0.6875,-0.50781 z m 0,0"
         id="path2600" />
      <path
         style="fill:#541e0c;fill-opacity:1;fill-rule:nonzero;stroke:none"
         d="m 77.070313,423.58594 h 1.546875 v -18.45703 h -1.546875 z m 0,0"
         id="path2602" />
      <path
         style="fill:#541e0c;fill-opacity:1;fill-rule:nonzero;stroke:none"
         d="m 69.78125,423.58594 h 1.542969 V 405.12891 H 69.78125 Z m 0,0"
         id="path2604" />
      <path
         style="fill:#541e0c;fill-opacity:1;fill-rule:nonzero;stroke:none"
         d="m 71.039063,408.17187 h 6.320312 v -1.0664 h -6.320312 z m 0,0"
         id="path2606" />
      <path
         style="fill:#541e0c;fill-opacity:1;fill-rule:nonzero;stroke:none"
         d="m 71.039063,411.44531 h 6.320312 v -1.0664 h -6.320312 z m 0,0"
         id="path2608" />
      <path
         style="fill:#541e0c;fill-opacity:1;fill-rule:nonzero;stroke:none"
         d="m 71.039063,414.71484 h 6.320312 v -1.0664 h -6.320312 z m 0,0"
         id="path2610" />
      <path
         style="fill:#541e0c;fill-opacity:1;fill-rule:nonzero;stroke:none"
         d="m 71.039063,417.98828 h 6.320312 v -1.06641 h -6.320312 z m 0,0"
         id="path2612" />
      <path
         style="fill:#541e0c;fill-opacity:1;fill-rule:nonzero;stroke:none"
         d="m 71.039063,421.25781 h 6.320312 v -1.0664 h -6.320312 z m 0,0"
         id="path2614" />
      <path
         style="fill:#c7bab5;fill-opacity:1;fill-rule:nonzero;stroke:none"
         d="M 80.589844,403.80859 H 80.75 c 0.421875,0 0.765625,-0.34765 0.765625,-0.77734 v -9.39844 c 0,-0.42578 -0.34375,-0.77734 -0.765625,-0.77734 h -0.160156 c -0.421875,0 -0.765625,0.35156 -0.765625,0.77734 v 9.39844 c 0,0.42969 0.34375,0.77734 0.765625,0.77734"
         id="path2616" />
      <path
         style="fill:#a69ca1;fill-opacity:1;fill-rule:nonzero;stroke:none"
         d="m 78.898438,403.80859 h 0.15625 c 0.421875,0 0.769531,-0.34765 0.769531,-0.77734 v -9.39844 c 0,-0.42578 -0.347656,-0.77734 -0.769531,-0.77734 h -0.15625 c -0.421875,0 -0.769532,0.35156 -0.769532,0.77734 v 9.39844 c 0,0.42969 0.347657,0.77734 0.769532,0.77734"
         id="path2618" />
      <path
         style="fill:#c7bab5;fill-opacity:1;fill-rule:nonzero;stroke:none"
         d="m 77.203125,403.80859 h 0.15625 c 0.425781,0 0.769531,-0.34765 0.769531,-0.77734 v -9.39844 c 0,-0.42578 -0.34375,-0.77734 -0.769531,-0.77734 h -0.15625 c -0.421875,0 -0.765625,0.35156 -0.765625,0.77734 v 9.39844 c 0,0.42969 0.34375,0.77734 0.765625,0.77734"
         id="path2620" />
      <path
         style="fill:#a69ca1;fill-opacity:1;fill-rule:nonzero;stroke:none"
         d="m 75.511719,403.80859 h 0.15625 c 0.421875,0 0.769531,-0.34765 0.769531,-0.77734 v -9.39844 c 0,-0.42578 -0.347656,-0.77734 -0.769531,-0.77734 h -0.15625 c -0.425781,0 -0.769531,0.35156 -0.769531,0.77734 v 9.39844 c 0,0.42969 0.34375,0.77734 0.769531,0.77734"
         id="path2622" />
      <path
         style="fill:#c7bab5;fill-opacity:1;fill-rule:nonzero;stroke:none"
         d="m 73.816406,403.80859 h 0.15625 c 0.425782,0 0.769532,-0.34765 0.769532,-0.77734 v -9.39844 c 0,-0.42578 -0.34375,-0.77734 -0.769532,-0.77734 h -0.15625 c -0.421875,0 -0.769531,0.35156 -0.769531,0.77734 v 9.39844 c 0,0.42969 0.347656,0.77734 0.769531,0.77734"
         id="path2624" />
      <path
         style="fill:#a69ca1;fill-opacity:1;fill-rule:nonzero;stroke:none"
         d="m 72.121094,403.80859 h 0.160156 c 0.421875,0 0.769531,-0.34765 0.769531,-0.77734 v -9.39844 c 0,-0.42578 -0.347656,-0.77734 -0.769531,-0.77734 h -0.160156 c -0.421875,0 -0.765625,0.35156 -0.765625,0.77734 v 9.39844 c 0,0.42969 0.34375,0.77734 0.765625,0.77734"
         id="path2626" />
      <path
         style="fill:#c7bab5;fill-opacity:1;fill-rule:nonzero;stroke:none"
         d="m 70.429688,403.80859 h 0.15625 c 0.421875,0 0.769531,-0.34765 0.769531,-0.77734 v -9.39844 c 0,-0.42578 -0.347656,-0.77734 -0.769531,-0.77734 h -0.15625 c -0.421875,0 -0.769532,0.35156 -0.769532,0.77734 v 9.39844 c 0,0.42969 0.347657,0.77734 0.769532,0.77734"
         id="path2628" />
      <path
         style="fill:#a69ca1;fill-opacity:1;fill-rule:nonzero;stroke:none"
         d="m 68.734375,403.80859 h 0.160156 c 0.421875,0 0.765625,-0.34765 0.765625,-0.77734 v -9.39844 c 0,-0.42578 -0.34375,-0.77734 -0.765625,-0.77734 h -0.160156 c -0.421875,0 -0.765625,0.35156 -0.765625,0.77734 v 9.39844 c 0,0.42969 0.34375,0.77734 0.765625,0.77734"
         id="path2630" />
      <path
         style="fill:#c7bab5;fill-opacity:1;fill-rule:nonzero;stroke:none"
         d="m 67.042969,403.80859 h 0.15625 c 0.421875,0 0.769531,-0.34765 0.769531,-0.77734 v -9.39844 c 0,-0.42578 -0.347656,-0.77734 -0.769531,-0.77734 h -0.15625 c -0.421875,0 -0.769531,0.35156 -0.769531,0.77734 v 9.39844 c 0,0.42969 0.347656,0.77734 0.769531,0.77734"
         id="path2632" />
      <path
         style="fill:#541e0c;fill-opacity:1;fill-rule:nonzero;stroke:none"
         d="m 66.273438,405.12891 h 15.242187 v -2.6836 H 66.273438 Z m 0,0"
         id="path2634" />
      <path
         style="fill:#541e0c;fill-opacity:1;fill-rule:nonzero;stroke:none"
         d="m 67.96875,402.44531 h -1.671875 v 0.73047 h 15.21875 v -0.73047 z m 0,0"
         id="path2636" />
      <path
         style="fill:#541e0c;fill-opacity:1;fill-rule:nonzero;stroke:none"
         d="M 71.304688,405.12891 H 69.78125 v 1.19921 h 1.523438 z m 0,0"
         id="path2642" />
      <path
         style="fill:#541e0c;fill-opacity:1;fill-rule:nonzero;stroke:none"
         d="m 78.609375,405.12891 h -1.527344 v 1.19921 h 1.527344 z m 0,0"
         id="path2644" />
      <path
         style="fill:#541e0c;fill-opacity:1;fill-rule:nonzero;stroke:none"
         d="M 85.636719,384.24609 H 62.167969 V 383.125 h 23.46875 z m 0,0"
         id="path2646" />
    </g>
    <path
       id="path2648"
       d="m 43.101542,87.894733 h 8.279254 v -0.197058 h -8.279254 z m 0,0"
       style="fill:#541e0c;fill-opacity:1;fill-rule:nonzero;stroke:none;stroke-width:0.352777" />
    <g
       transform="matrix(0.3527778,0,0,0.3527778,21.170063,-47.658753)"
       id="g18317">
      <path
         style="fill:none;stroke:#0068b3;stroke-width:0.5;stroke-linecap:butt;stroke-linejoin:miter;stroke-miterlimit:4;stroke-opacity:1"
         d="M -0.0015125,-2.125e-4 H 172.91255"
         transform="matrix(1,0,0,-1,32.7437,339.2576)"
         id="path2650" />
      <g
         style="fill:#0068b3;fill-opacity:1"
         id="g2664">
        <g
           transform="translate(31.3589,331.69849)"
           id="use2652">
          <path
             id="path18263"
             d="M 5.96875,-3.140625 H 6.9375 v 1.3125 H 5.96875 V 0 H 4.296875 V -1.828125 H 0.65625 L 0.34375,-2.875 C 0.40625,-3.601563 0.539063,-4.289063 0.75,-4.9375 0.96875,-5.582031 1.242188,-6.171875 1.578125,-6.703125 1.921875,-7.242188 2.316406,-7.726563 2.765625,-8.15625 3.210938,-8.582031 3.707031,-8.9375 4.25,-9.21875 h 1.71875 z m -1.671875,0 v -4.5625 h -0.03125 c -0.6875,0.511719 -1.25,1.164062 -1.6875,1.953125 -0.4375,0.78125 -0.710937,1.652344 -0.8125,2.609375 z m 0,0"
             style="stroke:none" />
        </g>
        <g
           transform="translate(38.540901,331.69849)"
           id="use2654">
          <path
             id="path18267"
             d=""
             style="stroke:none" />
        </g>
        <g
           transform="translate(40.836899,331.69849)"
           id="use2656">
          <path
             id="path18271"
             d="m 2.484375,0 c 0,0.4375 -0.070312,0.816406 -0.203125,1.140625 C 2.15625,1.460938 1.976563,1.734375 1.75,1.953125 1.519531,2.171875 1.25,2.34375 0.9375,2.46875 0.632813,2.59375 0.3125,2.679688 -0.03125,2.734375 L -0.171875,1.46875 C 0.191406,1.375 0.457031,1.210938 0.625,0.984375 0.800781,0.753906 0.890625,0.4375 0.890625,0.03125 v -6.921875 l 1.59375,-0.0625 z M 0.75,-8.890625 c 0,-0.238281 0.078125,-0.445313 0.234375,-0.625 0.164063,-0.1875 0.398438,-0.28125 0.703125,-0.28125 0.289063,0 0.519531,0.085937 0.6875,0.25 0.164063,0.167969 0.25,0.386719 0.25,0.65625 0,0.242187 -0.085937,0.449219 -0.25,0.625 C 2.207031,-8.085938 1.976563,-8 1.6875,-8 1.382813,-8 1.148438,-8.078125 0.984375,-8.234375 0.828125,-8.398438 0.75,-8.617188 0.75,-8.890625 Z m 0,0"
             style="stroke:none" />
        </g>
        <g
           transform="translate(44.210899,331.69849)"
           id="use2658">
          <path
             id="path18275"
             d="M 6.015625,0 H 4.53125 v -0.453125 c -0.28125,0.1875 -0.574219,0.324219 -0.875,0.40625 -0.304687,0.0820313 -0.664062,0.125 -1.078125,0.125 C 1.867188,0.078125 1.320313,-0.09375 0.9375,-0.4375 0.5625,-0.789063 0.375,-1.257813 0.375,-1.84375 c 0,-0.320313 0.0625,-0.613281 0.1875,-0.875 0.125,-0.269531 0.316406,-0.5 0.578125,-0.6875 0.257813,-0.195313 0.585938,-0.347656 0.984375,-0.453125 0.394531,-0.101563 0.863281,-0.15625 1.40625,-0.15625 0.175781,0 0.335938,0.00781 0.484375,0.015625 0.15625,0 0.3125,0 0.46875,0 v -0.390625 c 0,-0.382813 -0.121094,-0.675781 -0.359375,-0.875 -0.242187,-0.207031 -0.636719,-0.3125 -1.1875,-0.3125 -0.335937,0 -0.652344,0.03125 -0.953125,0.09375 C 1.679688,-5.421875 1.34375,-5.3125 0.96875,-5.15625 L 0.734375,-6.484375 c 0.4375,-0.1875 0.847656,-0.320313 1.234375,-0.40625 0.394531,-0.082031 0.816406,-0.125 1.265625,-0.125 0.9375,0 1.632813,0.214844 2.09375,0.640625 0.457031,0.417969 0.6875,1.015625 0.6875,1.796875 z M 2,-1.96875 c 0,0.242187 0.085938,0.433594 0.265625,0.578125 0.1875,0.148437 0.441406,0.21875 0.765625,0.21875 0.269531,0 0.515625,-0.023438 0.734375,-0.078125 0.226563,-0.0625 0.46875,-0.160156 0.71875,-0.296875 V -2.84375 C 4.347656,-2.851563 4.195313,-2.859375 4.03125,-2.859375 3.863281,-2.867188 3.707031,-2.875 3.5625,-2.875 3,-2.875 2.597656,-2.789063 2.359375,-2.625 2.117188,-2.457031 2,-2.238281 2,-1.96875 Z m 0,0"
             style="stroke:none" />
        </g>
        <g
           transform="translate(51.0149,331.69849)"
           id="use2660">
          <path
             id="path18279"
             d="M 6.015625,0 H 4.53125 v -0.453125 c -0.28125,0.1875 -0.574219,0.324219 -0.875,0.40625 -0.304687,0.0820313 -0.664062,0.125 -1.078125,0.125 C 1.867188,0.078125 1.320313,-0.09375 0.9375,-0.4375 0.5625,-0.789063 0.375,-1.257813 0.375,-1.84375 c 0,-0.320313 0.0625,-0.613281 0.1875,-0.875 0.125,-0.269531 0.316406,-0.5 0.578125,-0.6875 0.257813,-0.195313 0.585938,-0.347656 0.984375,-0.453125 0.394531,-0.101563 0.863281,-0.15625 1.40625,-0.15625 0.175781,0 0.335938,0.00781 0.484375,0.015625 0.15625,0 0.3125,0 0.46875,0 v -0.390625 c 0,-0.382813 -0.121094,-0.675781 -0.359375,-0.875 -0.242187,-0.207031 -0.636719,-0.3125 -1.1875,-0.3125 -0.335937,0 -0.652344,0.03125 -0.953125,0.09375 C 1.679688,-5.421875 1.34375,-5.3125 0.96875,-5.15625 L 0.734375,-6.484375 c 0.4375,-0.1875 0.847656,-0.320313 1.234375,-0.40625 0.394531,-0.082031 0.816406,-0.125 1.265625,-0.125 0.9375,0 1.632813,0.214844 2.09375,0.640625 0.457031,0.417969 0.6875,1.015625 0.6875,1.796875 z M 2,-1.96875 c 0,0.242187 0.085938,0.433594 0.265625,0.578125 0.1875,0.148437 0.441406,0.21875 0.765625,0.21875 0.269531,0 0.515625,-0.023438 0.734375,-0.078125 0.226563,-0.0625 0.46875,-0.160156 0.71875,-0.296875 V -2.84375 C 4.347656,-2.851563 4.195313,-2.859375 4.03125,-2.859375 3.863281,-2.867188 3.707031,-2.875 3.5625,-2.875 3,-2.875 2.597656,-2.789063 2.359375,-2.625 2.117188,-2.457031 2,-2.238281 2,-1.96875 Z m 0,0"
             style="stroke:none" />
        </g>
        <g
           transform="translate(57.818901,331.69849)"
           id="use2662">
          <path
             id="path18283"
             d="m 4.609375,-5.390625 c -0.15625,-0.039063 -0.292969,-0.066406 -0.40625,-0.078125 -0.105469,-0.00781 -0.230469,-0.015625 -0.375,-0.015625 -0.21875,0 -0.4375,0.039062 -0.65625,0.109375 -0.21875,0.074219 -0.449219,0.203125 -0.6875,0.390625 V 0 h -1.59375 v -6.890625 l 1.578125,-0.0625 v 0.796875 c 0.238281,-0.3125 0.472656,-0.53125 0.703125,-0.65625 0.226563,-0.132813 0.476563,-0.203125 0.75,-0.203125 0.300781,0 0.566406,0.03125 0.796875,0.09375 z m 0,0"
             style="stroke:none" />
        </g>
      </g>
    </g>
    <g
       transform="matrix(0.3527778,0,0,0.3527778,21.170063,-47.658753)"
       id="g18329">
      <path
         style="fill:none;stroke:#42175c;stroke-width:0.5;stroke-linecap:butt;stroke-linejoin:miter;stroke-miterlimit:4;stroke-opacity:1"
         d="M 0.00121875,0.0018875 H 31.649656 V 17.107356 H 0.00121875 Z m 0,0"
         transform="matrix(1,0,0,-1,33.573,362.9472)"
         id="path2666" />
      <g
         style="fill:#42175c;fill-opacity:1"
         id="g2676">
        <g
           transform="translate(37.540501,358.0502)"
           id="use2668">
          <path
             id="path18287"
             d="m 0.796875,0 v -6.5625 h 1.875 c 1.113281,0 1.96875,0.273437 2.5625,0.8125 0.59375,0.53125 0.890625,1.292969 0.890625,2.28125 0,0.59375 -0.085937,1.109375 -0.25,1.546875 C 5.707031,-1.484375 5.472656,-1.125 5.171875,-0.84375 4.878906,-0.5625 4.515625,-0.347656 4.078125,-0.203125 3.648438,-0.0664063 3.164063,0 2.625,0 Z m 1.1875,-0.984375 H 2.6875 c 0.320313,0 0.617188,-0.046875 0.890625,-0.140625 0.269531,-0.09375 0.5,-0.234375 0.6875,-0.421875 0.1875,-0.195313 0.332031,-0.445313 0.4375,-0.75 0.101563,-0.3125 0.15625,-0.679688 0.15625,-1.109375 C 4.859375,-4.125 4.65625,-4.660156 4.25,-5.015625 3.851563,-5.378906 3.300781,-5.5625 2.59375,-5.5625 H 1.984375 Z m 0,0"
             style="stroke:none" />
        </g>
        <g
           transform="translate(44.080502,358.0502)"
           id="use2670">
          <path
             id="path18291"
             d="m 1.984375,-6.5625 v 2.71875 H 2.53125 L 4.515625,-6.5625 h 1.375 L 3.59375,-3.484375 5.953125,0 h -1.5 L 2.5625,-2.859375 H 1.984375 V 0 h -1.1875 v -6.5625 z m 0,0"
             style="stroke:none" />
        </g>
        <g
           transform="translate(50.0905,358.0502)"
           id="use2672">
          <path
             id="path18295"
             d="m 3.203125,0 h -1.21875 v -5.5625 h -1.8125 v -1 h 4.84375 v 1 h -1.8125 z m 0,0"
             style="stroke:none" />
        </g>
        <g
           transform="translate(55.280499,358.0502)"
           id="use2674">
          <path
             id="path18299"
             d="m 1.984375,0 h -1.1875 V -6.5625 H 2.84375 c 0.375,0 0.703125,0.054687 0.984375,0.15625 C 4.109375,-6.3125 4.34375,-6.175781 4.53125,-6 c 0.195313,0.179687 0.34375,0.390625 0.4375,0.640625 0.101563,0.242187 0.15625,0.511719 0.15625,0.8125 0,0.355469 -0.058594,0.671875 -0.171875,0.953125 -0.117187,0.273437 -0.277344,0.507812 -0.484375,0.703125 -0.210937,0.1875 -0.464844,0.335937 -0.765625,0.4375 -0.292969,0.105469 -0.625,0.15625 -1,0.15625 -0.125,0 -0.246094,0 -0.359375,0 C 2.226563,-2.304688 2.109375,-2.320313 1.984375,-2.34375 Z m 0,-3.296875 c 0.101563,0.011719 0.195313,0.023437 0.28125,0.03125 0.09375,0 0.191406,0 0.296875,0 0.414063,0 0.738281,-0.097656 0.96875,-0.296875 C 3.757813,-3.769531 3.875,-4.066406 3.875,-4.453125 3.875,-5.210938 3.472656,-5.59375 2.671875,-5.59375 h -0.6875 z m 0,0"
             style="stroke:none" />
        </g>
      </g>
    </g>
  </g>
</svg>
