<?xml version="1.0" encoding="UTF-8" standalone="no"?>
<svg
   xmlns:dc="http://purl.org/dc/elements/1.1/"
   xmlns:cc="http://creativecommons.org/ns#"
   xmlns:rdf="http://www.w3.org/1999/02/22-rdf-syntax-ns#"
   xmlns:svg="http://www.w3.org/2000/svg"
   xmlns="http://www.w3.org/2000/svg"
   id="svg21141"
   version="1.1"
   viewBox="0 0 68.188087 49.041626"
   height="49.041626mm"
   width="68.188087mm">
  <defs
     id="defs21135" />
  <metadata
     id="metadata21138">
    <rdf:RDF>
      <cc:Work
         rdf:about="">
        <dc:format>image/svg+xml</dc:format>
        <dc:type
           rdf:resource="http://purl.org/dc/dcmitype/StillImage" />
        <dc:title></dc:title>
      </cc:Work>
    </rdf:RDF>
  </metadata>
  <g
     transform="translate(-79.298813,-85.092283)"
     id="layer1">
    <path
       id="path2894"
       d="M 79.298813,134.13391 H 147.4869 V 85.092283 H 79.298813 Z m 0,0"
       style="fill:#ffffff;fill-opacity:1;fill-rule:nonzero;stroke:none;stroke-width:0.352777" />
    <g
       transform="matrix(0.3527778,0,0,0.3527778,-70.589027,-24.089687)"
       id="g22010">
      <path
         style="fill:#ebe3d9;fill-opacity:1;fill-rule:nonzero;stroke:none"
         d="m 612.35547,388.45703 c 0,1.25 -17.90625,2.26563 -39.9961,2.26563 -22.09375,0 -40,-1.01563 -40,-2.26563 0,-1.25391 17.90625,-1.5 40,-1.5 22.08985,0 39.9961,0.24609 39.9961,1.5"
         id="path2896" />
      <path
         style="fill:#45ab33;fill-opacity:1;fill-rule:nonzero;stroke:none"
         d="m 597.71484,377.60156 c 0.21094,0 0.41016,0.0469 0.58594,0.12891 0.23828,-0.46094 0.71484,-0.77735 1.26953,-0.77735 0.46875,0 0.88672,0.23047 1.14453,0.58204 0.19141,-0.0937 0.40625,-0.14844 0.63282,-0.14844 0.66015,0 1.21093,0.44531 1.37109,1.05469 0.16016,-0.0625 0.32812,-0.0937 0.50391,-0.0937 0.78515,0 1.42187,0.63671 1.42187,1.42187 0,0.18359 -0.0352,0.35938 -0.0977,0.51953 0.40625,0.25 0.67579,0.69922 0.67579,1.21094 0,0.67969 -0.47657,1.24609 -1.11329,1.38672 -0.0703,0.71875 -0.67578,1.28515 -1.41406,1.28515 -1.71484,0 -3.28515,-0.1914 -5.0039,-0.1914 -0.78516,0 -1.41797,-0.63672 -1.41797,-1.42188 0,-0.17187 0.0273,-0.33593 0.0859,-0.48828 -0.55468,-0.1914 -0.95312,-0.71875 -0.95312,-1.33984 0,-0.61719 0.39062,-1.14063 0.9375,-1.33594 -0.0312,-0.11719 -0.0469,-0.24219 -0.0469,-0.37109 0,-0.78516 0.63282,-1.42188 1.41797,-1.42188"
         id="path2898" />
      <path
         style="fill:#45ab33;fill-opacity:1;fill-rule:nonzero;stroke:none"
         d="m 600.40234,381.59375 c 0.20703,0 0.40625,0.043 0.58594,0.125 0.23438,-0.46094 0.71094,-0.77344 1.26563,-0.77344 0.47265,0 0.88671,0.22656 1.14453,0.58203 0.1914,-0.0976 0.40625,-0.15234 0.63672,-0.15234 0.65625,0 1.21093,0.44922 1.37109,1.05469 0.15625,-0.0586 0.32812,-0.0899 0.50391,-0.0899 0.78515,0 1.42187,0.63282 1.42187,1.41797 0,0.1836 -0.0352,0.36328 -0.10156,0.52344 0.40625,0.25 0.67578,0.24219 0.67578,0.75391 0,0.67968 -0.47656,1.69921 -1.11328,1.84375 -0.0664,0.71875 -0.67188,1.28125 -1.41016,1.28125 -1.71875,0 -3.28906,-0.19141 -5.0039,-0.19141 -0.78516,0 -1.42188,-0.63672 -1.42188,-1.41797 0,-0.17187 0.0312,-0.33594 0.0859,-0.48828 -0.55469,-0.19531 -0.95313,-0.72266 -0.95313,-1.34375 0,-0.61328 0.39453,-1.13672 0.94141,-1.33594 -0.0312,-0.11719 -0.0508,-0.24219 -0.0508,-0.37109 0,-0.78125 0.63672,-1.41797 1.42187,-1.41797"
         id="path2900" />
      <path
         style="fill:#45ab33;fill-opacity:1;fill-rule:nonzero;stroke:none"
         d="m 548.92578,377.60156 c -0.21094,0 -0.41016,0.0469 -0.58594,0.12891 -0.23828,-0.46094 -0.71484,-0.77735 -1.26562,-0.77735 -0.47266,0 -0.89063,0.23047 -1.14844,0.58204 -0.19141,-0.0937 -0.40625,-0.14844 -0.63281,-0.14844 -0.66016,0 -1.21094,0.44531 -1.3711,1.05469 -0.16015,-0.0625 -0.32812,-0.0937 -0.5039,-0.0937 -0.78516,0 -1.42188,0.63671 -1.42188,1.42187 0,0.18359 0.0352,0.35938 0.0977,0.51953 -0.40234,0.25 -0.67578,0.69922 -0.67578,1.21094 0,0.67969 0.47656,1.24609 1.11328,1.38672 0.0703,0.71875 0.67578,1.28515 1.41406,1.28515 1.71875,0 3.28906,-0.1914 5.00391,-0.1914 0.78515,0 1.41797,-0.63672 1.41797,-1.42188 0,-0.17187 -0.0274,-0.33593 -0.0859,-0.48828 0.55469,-0.1914 0.95312,-0.71875 0.95312,-1.33984 0,-0.61719 -0.39062,-1.14063 -0.9375,-1.33594 0.0312,-0.11719 0.0469,-0.24219 0.0469,-0.37109 0,-0.78516 -0.63281,-1.42188 -1.41797,-1.42188"
         id="path2902" />
      <path
         style="fill:#45ab33;fill-opacity:1;fill-rule:nonzero;stroke:none"
         d="m 546.23828,381.59375 c -0.20703,0 -0.40625,0.043 -0.58594,0.125 -0.23437,-0.46094 -0.71093,-0.77344 -1.26562,-0.77344 -0.46875,0 -0.88672,0.22656 -1.14453,0.58203 -0.19141,-0.0976 -0.40625,-0.15234 -0.63672,-0.15234 -0.65625,0 -1.21094,0.44922 -1.3711,1.05469 -0.15625,-0.0586 -0.32812,-0.0899 -0.5039,-0.0899 -0.78516,0 -1.41797,0.63282 -1.41797,1.41797 0,0.1836 0.0352,0.36328 0.0977,0.52344 -0.40625,0.25 -0.67579,0.69922 -0.67579,1.21094 0,0.67578 0.47657,1.24218 1.11329,1.38672 0.0664,0.71875 0.67578,1.28125 1.41406,1.28125 1.71484,0 3.28515,-0.19141 5.0039,-0.19141 0.78125,0 1.41797,-0.63672 1.41797,-1.41797 0,-0.17187 -0.0312,-0.33594 -0.0859,-0.48828 0.55468,-0.19531 0.95312,-0.72266 0.95312,-1.34375 0,-0.61328 -0.39453,-1.13672 -0.94141,-1.33594 0.0312,-0.11719 0.0508,-0.24219 0.0508,-0.37109 0,-0.78125 -0.63672,-1.41797 -1.42188,-1.41797"
         id="path2904" />
      <path
         style="fill:#c7bab5;fill-opacity:1;fill-rule:nonzero;stroke:none"
         d="m 581.22656,388.15234 h 20.56641 v -28.25 h -20.56641 z m 0,0"
         id="path2906" />
      <path
         style="fill:#ffffff;fill-opacity:1;fill-rule:nonzero;stroke:none"
         d="m 584.28125,368.75391 h 6.14453 v -6.26563 h -6.14453 z m 0,0"
         id="path2908" />
      <path
         style="fill:#c7bab5;fill-opacity:1;fill-rule:nonzero;stroke:none"
         d="m 584.28125,365.08594 c -0.22266,0 -0.40625,-0.1836 -0.40625,-0.41016 0,-0.22656 0.18359,-0.40625 0.40625,-0.40625 h 6.14453 c 0.22266,0 0.40625,0.17969 0.40625,0.40625 0,0.22656 -0.18359,0.41016 -0.40625,0.41016 h -1.49609 v 3.66797 c 0,0.22265 -0.17969,0.40625 -0.40625,0.40625 -0.22657,0 -0.41016,-0.1836 -0.41016,-0.40625 v -3.66797 h -1.51953 v 3.66797 c 0,0.22265 -0.18359,0.40625 -0.41016,0.40625 -0.22656,0 -0.41015,-0.1836 -0.41015,-0.40625 v -3.66797 z m 0,0"
         id="path2910" />
      <path
         style="fill:#ffffff;fill-opacity:1;fill-rule:nonzero;stroke:none"
         d="m 593.05859,368.75391 h 6.14063 v -6.26563 h -6.14063 z m 0,0"
         id="path2912" />
      <path
         style="fill:#c7bab5;fill-opacity:1;fill-rule:nonzero;stroke:none"
         d="m 593.05859,365.08594 c -0.22656,0 -0.40625,-0.1836 -0.40625,-0.41016 0,-0.22656 0.17969,-0.40625 0.40625,-0.40625 h 6.14453 c 0.22266,0 0.40625,0.17969 0.40625,0.40625 0,0.22656 -0.18359,0.41016 -0.40625,0.41016 h -1.49609 v 3.66797 c 0,0.22265 -0.18359,0.40625 -0.40625,0.40625 -0.22656,0 -0.41016,-0.1836 -0.41016,-0.40625 v -3.66797 h -1.51953 v 3.66797 c 0,0.22265 -0.18359,0.40625 -0.41015,0.40625 -0.22657,0 -0.41016,-0.1836 -0.41016,-0.40625 v -3.66797 z m 0,0"
         id="path2914" />
      <path
         style="fill:#ffffff;fill-opacity:1;fill-rule:nonzero;stroke:none"
         d="m 584.28125,377.08594 h 6.14453 v -6.26563 h -6.14453 z m 0,0"
         id="path2916" />
      <path
         style="fill:#ffffff;fill-opacity:1;fill-rule:nonzero;stroke:none"
         d="m 584.28125,385.33594 h 6.14453 v -6.26563 h -6.14453 z m 0,0"
         id="path2918" />
      <path
         style="fill:#c7bab5;fill-opacity:1;fill-rule:nonzero;stroke:none"
         d="m 584.28125,373.41406 c -0.22266,0 -0.40625,-0.18359 -0.40625,-0.40625 0,-0.22656 0.18359,-0.41015 0.40625,-0.41015 h 6.14453 c 0.22266,0 0.40625,0.18359 0.40625,0.41015 0,0.22266 -0.18359,0.40625 -0.40625,0.40625 h -1.49609 v 3.67188 c 0,0.22265 -0.17969,0.40625 -0.40625,0.40625 -0.22657,0 -0.41016,-0.1836 -0.41016,-0.40625 v -3.67188 h -1.51953 v 3.67188 c 0,0.22265 -0.18359,0.40625 -0.41016,0.40625 -0.22656,0 -0.41015,-0.1836 -0.41015,-0.40625 v -3.67188 z m 0,0"
         id="path2920" />
      <path
         style="fill:#c7bab5;fill-opacity:1;fill-rule:nonzero;stroke:none"
         d="m 584.28125,381.66406 c -0.22266,0 -0.40625,-0.18359 -0.40625,-0.40625 0,-0.22656 0.18359,-0.41015 0.40625,-0.41015 h 6.14453 c 0.22266,0 0.40625,0.18359 0.40625,0.41015 0,0.22266 -0.18359,0.40625 -0.40625,0.40625 h -1.49609 v 3.67188 c 0,0.22265 -0.17969,0.40625 -0.40625,0.40625 -0.22657,0 -0.41016,-0.1836 -0.41016,-0.40625 v -3.67188 h -1.51953 v 3.67188 c 0,0.22265 -0.18359,0.40625 -0.41016,0.40625 -0.22656,0 -0.41015,-0.1836 -0.41015,-0.40625 v -3.67188 z m 0,0"
         id="path2922" />
      <path
         style="fill:#ffffff;fill-opacity:1;fill-rule:nonzero;stroke:none"
         d="m 593.05859,377.08594 h 6.14063 v -6.26563 h -6.14063 z m 0,0"
         id="path2924" />
      <path
         style="fill:#ffffff;fill-opacity:1;fill-rule:nonzero;stroke:none"
         d="m 593.05859,385.33594 h 6.14063 v -6.26563 h -6.14063 z m 0,0"
         id="path2926" />
      <path
         style="fill:#c7bab5;fill-opacity:1;fill-rule:nonzero;stroke:none"
         d="m 593.05859,373.41406 c -0.22656,0 -0.40625,-0.18359 -0.40625,-0.40625 0,-0.22656 0.17969,-0.41015 0.40625,-0.41015 h 6.14453 c 0.22266,0 0.40625,0.18359 0.40625,0.41015 0,0.22266 -0.18359,0.40625 -0.40625,0.40625 h -1.49609 v 3.67188 c 0,0.22265 -0.18359,0.40625 -0.40625,0.40625 -0.22656,0 -0.41016,-0.1836 -0.41016,-0.40625 v -3.67188 h -1.51953 v 3.67188 c 0,0.22265 -0.18359,0.40625 -0.41015,0.40625 -0.22657,0 -0.41016,-0.1836 -0.41016,-0.40625 v -3.67188 z m 0,0"
         id="path2928" />
      <path
         style="fill:#c7bab5;fill-opacity:1;fill-rule:nonzero;stroke:none"
         d="m 593.05859,381.66406 c -0.22656,0 -0.40625,-0.18359 -0.40625,-0.40625 0,-0.22656 0.17969,-0.41015 0.40625,-0.41015 h 6.14453 c 0.22266,0 0.40625,0.18359 0.40625,0.41015 0,0.22266 -0.18359,0.40625 -0.40625,0.40625 h -1.49609 v 3.67188 c 0,0.22265 -0.18359,0.40625 -0.40625,0.40625 -0.22656,0 -0.41016,-0.1836 -0.41016,-0.40625 v -3.67188 h -1.51953 v 3.67188 c 0,0.22265 -0.18359,0.40625 -0.41015,0.40625 -0.22657,0 -0.41016,-0.1836 -0.41016,-0.40625 v -3.67188 z m 0,0"
         id="path2930" />
      <path
         style="fill:#c7bab5;fill-opacity:1;fill-rule:nonzero;stroke:none"
         d="m 544.3125,388.15234 h 20.57031 v -28.25 H 544.3125 Z m 0,0"
         id="path2932" />
      <path
         style="fill:#ffffff;fill-opacity:1;fill-rule:nonzero;stroke:none"
         d="m 546.90234,368.75391 h 6.14453 v -6.26563 h -6.14453 z m 0,0"
         id="path2934" />
      <path
         style="fill:#c7bab5;fill-opacity:1;fill-rule:nonzero;stroke:none"
         d="m 546.90234,365.08594 c -0.22265,0 -0.40625,-0.1836 -0.40625,-0.41016 0,-0.22656 0.1836,-0.40625 0.40625,-0.40625 h 6.14453 c 0.22266,0 0.40625,0.17969 0.40625,0.40625 0,0.22656 -0.18359,0.41016 -0.40625,0.41016 h -1.49609 v 3.66797 c 0,0.22265 -0.17969,0.40625 -0.40625,0.40625 -0.22656,0 -0.41016,-0.1836 -0.41016,-0.40625 v -3.66797 h -1.51953 v 3.66797 c 0,0.22265 -0.18359,0.40625 -0.41015,0.40625 -0.22657,0 -0.40625,-0.1836 -0.40625,-0.40625 v -3.66797 z m 0,0"
         id="path2936" />
      <path
         style="fill:#ffffff;fill-opacity:1;fill-rule:nonzero;stroke:none"
         d="m 555.67969,368.75391 h 6.14453 v -6.26563 h -6.14453 z m 0,0"
         id="path2938" />
      <path
         style="fill:#c7bab5;fill-opacity:1;fill-rule:nonzero;stroke:none"
         d="m 555.67969,365.08594 c -0.22266,0 -0.40625,-0.1836 -0.40625,-0.41016 0,-0.22656 0.18359,-0.40625 0.40625,-0.40625 h 6.14453 c 0.22265,0 0.40625,0.17969 0.40625,0.40625 0,0.22656 -0.1836,0.41016 -0.40625,0.41016 h -1.4961 v 3.66797 c 0,0.22265 -0.18359,0.40625 -0.40625,0.40625 -0.22656,0 -0.41015,-0.1836 -0.41015,-0.40625 v -3.66797 h -1.51953 v 3.66797 c 0,0.22265 -0.1836,0.40625 -0.41016,0.40625 -0.22656,0 -0.40625,-0.1836 -0.40625,-0.40625 v -3.66797 z m 0,0"
         id="path2940" />
      <path
         style="fill:#ffffff;fill-opacity:1;fill-rule:nonzero;stroke:none"
         d="m 546.90234,377.08594 h 6.14453 v -6.26563 h -6.14453 z m 0,0"
         id="path2942" />
      <path
         style="fill:#ffffff;fill-opacity:1;fill-rule:nonzero;stroke:none"
         d="m 546.90234,385.33594 h 6.14453 v -6.26563 h -6.14453 z m 0,0"
         id="path2944" />
      <path
         style="fill:#c7bab5;fill-opacity:1;fill-rule:nonzero;stroke:none"
         d="m 546.90234,373.41406 c -0.22265,0 -0.40625,-0.18359 -0.40625,-0.40625 0,-0.22656 0.1836,-0.41015 0.40625,-0.41015 h 6.14453 c 0.22266,0 0.40625,0.18359 0.40625,0.41015 0,0.22266 -0.18359,0.40625 -0.40625,0.40625 h -1.49609 v 3.67188 c 0,0.22265 -0.17969,0.40625 -0.40625,0.40625 -0.22656,0 -0.41016,-0.1836 -0.41016,-0.40625 v -3.67188 h -1.51953 v 3.67188 c 0,0.22265 -0.18359,0.40625 -0.41015,0.40625 -0.22657,0 -0.40625,-0.1836 -0.40625,-0.40625 v -3.67188 z m 0,0"
         id="path2946" />
      <path
         style="fill:#c7bab5;fill-opacity:1;fill-rule:nonzero;stroke:none"
         d="m 546.90234,381.66406 c -0.22265,0 -0.40625,-0.18359 -0.40625,-0.40625 0,-0.22656 0.1836,-0.41015 0.40625,-0.41015 h 6.14453 c 0.22266,0 0.40625,0.18359 0.40625,0.41015 0,0.22266 -0.18359,0.40625 -0.40625,0.40625 h -1.49609 v 3.67188 c 0,0.22265 -0.17969,0.40625 -0.40625,0.40625 -0.22656,0 -0.41016,-0.1836 -0.41016,-0.40625 v -3.67188 h -1.51953 v 3.67188 c 0,0.22265 -0.18359,0.40625 -0.41015,0.40625 -0.22657,0 -0.40625,-0.1836 -0.40625,-0.40625 v -3.67188 z m 0,0"
         id="path2948" />
      <path
         style="fill:#ffffff;fill-opacity:1;fill-rule:nonzero;stroke:none"
         d="m 555.67969,377.08594 h 6.14453 v -6.26563 h -6.14453 z m 0,0"
         id="path2950" />
      <path
         style="fill:#ffffff;fill-opacity:1;fill-rule:nonzero;stroke:none"
         d="m 555.67969,385.33594 h 6.14453 v -6.26563 h -6.14453 z m 0,0"
         id="path2952" />
      <path
         style="fill:#c7bab5;fill-opacity:1;fill-rule:nonzero;stroke:none"
         d="m 555.67969,373.41406 c -0.22266,0 -0.40625,-0.18359 -0.40625,-0.40625 0,-0.22656 0.18359,-0.41015 0.40625,-0.41015 h 6.14453 c 0.22265,0 0.40625,0.18359 0.40625,0.41015 0,0.22266 -0.1836,0.40625 -0.40625,0.40625 h -1.4961 v 3.67188 c 0,0.22265 -0.18359,0.40625 -0.40625,0.40625 -0.22656,0 -0.41015,-0.1836 -0.41015,-0.40625 v -3.67188 h -1.51953 v 3.67188 c 0,0.22265 -0.1836,0.40625 -0.41016,0.40625 -0.22656,0 -0.40625,-0.1836 -0.40625,-0.40625 v -3.67188 z m 0,0"
         id="path2954" />
      <path
         style="fill:#c7bab5;fill-opacity:1;fill-rule:nonzero;stroke:none"
         d="m 555.67969,381.66406 c -0.22266,0 -0.40625,-0.18359 -0.40625,-0.40625 0,-0.22656 0.18359,-0.41015 0.40625,-0.41015 h 6.14453 c 0.22265,0 0.40625,0.18359 0.40625,0.41015 0,0.22266 -0.1836,0.40625 -0.40625,0.40625 h -1.4961 v 3.67188 c 0,0.22265 -0.18359,0.40625 -0.40625,0.40625 -0.22656,0 -0.41015,-0.1836 -0.41015,-0.40625 v -3.67188 h -1.51953 v 3.67188 c 0,0.22265 -0.1836,0.40625 -0.41016,0.40625 -0.22656,0 -0.40625,-0.1836 -0.40625,-0.40625 v -3.67188 z m 0,0"
         id="path2956" />
      <path
         style="fill:#a69ca1;fill-opacity:1;fill-rule:nonzero;stroke:none"
         d="m 581.22656,359.90234 h 22.59375 l -2.44922,-5.68359 h -22.59765 l 2.45312,2.41406 z m 0,0"
         id="path2958" />
      <path
         style="fill:#c7bab5;fill-opacity:1;fill-rule:nonzero;stroke:none"
         d="m 573.05078,348.58203 -8.17187,8.05078 v 31.51953 h 16.34375 v -31.51953 z m 0,0"
         id="path2960" />
      <path
         style="fill:#a69ca1;fill-opacity:1;fill-rule:nonzero;stroke:none"
         d="m 568.82031,388.15234 h 8.46094 v -12.29687 h -8.46094 z m 0,0"
         id="path2962" />
      <path
         style="fill:#ffffff;fill-opacity:1;fill-rule:nonzero;stroke:none"
         d="m 573.05078,359.90234 c 1.71875,0 3.11719,-1.39843 3.11719,-3.11328 0,-1.71484 -1.39844,-3.11719 -3.11719,-3.11719 -1.71484,0 -3.11328,1.40235 -3.11328,3.11719 0,1.71485 1.39844,3.11328 3.11328,3.11328"
         id="path2964" />
      <path
         style="fill:#7dc5b0;fill-opacity:1;fill-rule:nonzero;stroke:none"
         d="m 572.64453,354.63672 c 0,-0.22266 0.18359,-0.40625 0.40625,-0.40625 0.22656,0 0.41016,0.18359 0.41016,0.40625 v 1.74609 h 1.60547 c 0.22656,0 0.41015,0.17969 0.41015,0.40625 0,0.22656 -0.18359,0.40625 -0.41015,0.40625 h -2.01563 c -0.22266,0 -0.40625,-0.17969 -0.40625,-0.40625 z m 0,0"
         id="path2966" />
      <path
         style="fill:#a69ca1;fill-opacity:1;fill-rule:nonzero;stroke:none"
         d="m 564.87891,359.90234 h -22.59375 l 2.44921,-5.68359 h 22.59766 l -2.45312,2.41406 z m 0,0"
         id="path2968" />
      <path
         style="fill:#eb6805;fill-opacity:1;fill-rule:nonzero;stroke:none"
         d="m 583.24609,357.5 c 0.32032,0.32031 0.32032,0.83594 0,1.15234 -0.3164,0.32032 -0.83593,0.32032 -1.15234,0 l -9.04297,-9.03906 -9.03906,9.03906 c -0.32031,0.32032 -0.83594,0.32032 -1.15235,0 -0.32031,-0.3164 -0.32031,-0.83203 0,-1.15234 l 9.61719,-9.61719 c 0.31641,-0.32031 0.83594,-0.32031 1.15235,0 z m 0,0"
         id="path2970" />
      <path
         style="fill:#ffffff;fill-opacity:1;fill-rule:nonzero;stroke:none"
         d="M 569.10547,367.32812 H 577 v -4.97656 h -7.89453 z m 0,0"
         id="path2972" />
    </g>
    <g
       transform="matrix(0.3527778,0,0,0.3527778,-70.589027,-24.089687)"
       id="g22060">
      <path
         style="fill:#ebe3d9;fill-opacity:1;fill-rule:nonzero;stroke:none"
         d="m 560.94922,440.96094 c 0,1.57422 -21.46485,2.84765 -48.3711,2.84765 -26.90625,0 -56.01562,-1.27343 -56.01562,-2.84765 0,-1.57422 29.10937,-1.88282 56.01562,-1.88282 26.90625,0 48.3711,0.3086 48.3711,1.88282"
         id="path2974" />
      <path
         style="fill:#592e87;fill-opacity:1;fill-rule:nonzero;stroke:none"
         d="m 521.85156,428.08594 c 0.11328,0.5039 -1.59375,1.0039 -2.09375,1.11718 -0.5039,0.11329 -1.00781,-0.19921 -1.12109,-0.70312 -0.95703,-4.14844 -0.50391,-8.375 1.11328,-12.09375 1.61719,-3.71484 4.39844,-6.92578 8.08984,-9.05859 3.69141,-2.12891 7.86328,-2.9336 11.88672,-2.47657 h 0.004 c 4.02734,0.45703 7.91406,2.17969 11.02734,5.08594 0.37891,0.35156 0.40235,0.94141 0.0508,1.32031 -0.35156,0.375 -0.94531,1.78907 -1.32031,1.44141 -2.81641,-2.62891 -6.32812,-4.17969 -9.96875,-4.59375 -3.64062,-0.41406 -7.41797,0.30859 -10.75,2.23437 -3.33203,1.92188 -4.45312,3.4336 -5.91406,6.79297 -1.46094,3.35938 -1.8711,7.17969 -1.00391,10.9336"
         id="path2978" />
      <path
         style="fill:#592e87;fill-opacity:1;fill-rule:nonzero;stroke:none"
         d="m 501.07812,424.03906 c 0.0117,0.51563 -0.39453,0.94531 -0.91015,0.95703 -0.51563,0.0156 -2.33594,-0.39062 -2.35156,-0.90625 -0.12891,-4.63672 -0.70313,-7.41406 -3.79688,-10.42187 -3.08594,-3.00391 -6.61328,-4.85156 -11.25781,-4.85156 -4.64453,0 -8.17188,0.45703 -11.25781,3.46093 -3.09375,3.00391 -5.0625,7.17578 -5.19141,11.8125 -0.0156,0.51563 -1.83594,0.92188 -2.35156,0.90625 -0.51563,-0.0117 -0.92188,-0.4414 -0.90625,-0.95703 0.14453,-5.14453 2.32422,-9.76953 5.7539,-13.10156 3.42578,-3.33594 8.10938,-5.38672 13.25782,-5.38672 5.14453,0 9.82812,2.05078 13.25781,5.38672 3.42969,3.33203 5.60937,7.95703 5.7539,13.10156"
         id="path2980" />
      <path
         style="fill:#cac7c7;fill-opacity:1;fill-rule:nonzero;stroke:none"
         d="m 539.98437,397.40234 h -17.13671 l 2.08984,3.96485 c 0,1.08593 1.14062,2.07812 1.85937,2.79687 0.71875,0.71485 1.71094,1.16406 2.79688,1.16406 h 6.42969 c 1.08984,0 2.07812,-0.44921 2.79687,-1.16406 0.71875,-0.71875 1.16406,-1.71094 1.16406,-2.79687 z m 0,0"
         id="path2982" />
      <path
         style="fill:#636361;fill-opacity:1;fill-rule:nonzero;stroke:none"
         d="m 482.16406,407.85156 c 4.47656,0 8.53516,1.8125 11.46485,4.75 v 0.004 c 2.93359,2.93359 4.75,6.98828 4.75,11.46094 0,4.47265 -1.81641,8.53125 -4.75,11.46093 h -0.004 c -2.93359,2.9375 -6.98438,4.75 -11.46094,4.75 -4.47265,0 -8.53125,-1.8125 -11.46484,-4.75 -2.9336,-2.92968 -4.7461,-6.98828 -4.7461,-11.46093 0,-4.47266 1.8125,-8.52735 4.7461,-11.46094 v -0.004 c 2.93359,-2.9375 6.99219,-4.75 11.46484,-4.75 m 9.90235,6.3086 -0.004,0.004 c -2.53125,-2.53125 -6.03125,-4.10156 -9.89844,-4.10156 -3.86328,0 -7.36719,1.57031 -9.89844,4.10156 v -0.004 c -2.53125,2.53515 -4.10156,6.03906 -4.10156,9.90625 0,3.86718 1.57031,7.36718 4.10156,9.89843 2.53125,2.53125 6.03516,4.10157 9.89844,4.10157 3.86719,0 7.3711,-1.57032 9.90235,-4.09766 l -0.004,-0.004 c 2.53516,-2.53125 4.10156,-6.03125 4.10156,-9.89843 0,-3.86719 -1.5664,-7.3711 -4.09765,-9.90625"
         id="path2984" />
      <path
         style="fill:#636361;fill-opacity:1;fill-rule:nonzero;stroke:none"
         d="m 537.51172,407.09766 c 4.6875,0 8.9375,1.90625 12.01172,4.98046 h 0.008 c 3.07422,3.07422 4.97656,7.32813 4.97656,12.01954 0,4.6914 -1.90625,8.9414 -4.97656,12.01562 v 0.008 c -3.07813,3.07032 -7.32813,4.97657 -12.01953,4.97657 -4.69531,0 -8.94922,-1.90625 -12.02344,-4.97657 v -0.008 c -3.07422,-3.07422 -4.98047,-7.32422 -4.98047,-12.01562 0,-4.69141 1.90625,-8.94532 4.98047,-12.01954 h 0.004 c 3.07422,-3.07421 7.32422,-4.98046 12.01953,-4.98046 m 10.45312,6.54296 c -2.67187,-2.67187 -6.37109,-4.33203 -10.45312,-4.33203 -4.08985,0 -7.78516,1.66016 -10.46094,4.33203 v 0.004 c -2.67187,2.67188 -4.32812,6.37109 -4.32812,10.45313 0,4.08593 1.65625,7.78515 4.32812,10.45703 2.67578,2.67187 6.37891,4.33203 10.46094,4.33203 4.08203,0 7.77734,-1.66016 10.45312,-4.33203 2.67578,-2.67188 4.32813,-6.3711 4.32813,-10.45703 0,-4.08204 -1.65235,-7.78125 -4.32813,-10.45313 z m 0,0"
         id="path2986" />
      <path
         style="fill:#592e87;fill-opacity:1;fill-rule:nonzero;stroke:none"
         d="m 499.83984,406.77734 c 0.0391,0.0547 0.0703,0.10938 0.0977,0.17188 l 4.08203,7.0664 18.01953,-14.53125 -2.36328,-4.09765 c -0.30469,-0.52735 -0.125,-1.20313 0.40234,-1.50781 0.52735,-0.30469 1.20313,-0.125 1.50782,0.40234 l 1.91015,3.30469 0.11328,0.19922 0.11329,0.1914 0.10937,0.19141 0.10547,0.1875 0.10937,0.18359 0.0586,0.10156 1.27734,2.21485 0.0312,0.0586 0.0781,0.13281 0.0312,0.0547 v 0.004 l 0.45312,0.78125 0.0586,0.10547 0.17578,0.30468 0.0547,0.0937 0.19922,0.34375 0.0469,0.0781 0.0859,0.14844 0.0391,0.0703 0.0391,0.0625 0.0352,0.0625 0.0312,0.0586 0.0351,0.0586 0.0547,0.10156 0.0312,0.0469 0.0234,0.043 0.0234,0.0391 0.0391,0.0703 0.0156,0.0312 0.0195,0.0273 0.0117,0.0234 0.0234,0.0391 0.0156,0.0234 11.47265,19.875 c 0.30078,0.52734 0.11719,1.19922 -0.41015,1.5 -0.52344,0.30469 -1.19922,0.12109 -1.5,-0.40625 l -11.19141,-19.38281 -15.9375,19.55468 -0.004,0.008 c -0.082,0.10156 -0.18359,0.1914 -0.30468,0.25781 -0.17188,0.10156 -0.36329,0.14844 -0.55079,0.14844 v 0.004 h -26.51953 l -0.0195,-0.004 h -0.008 l -0.0195,-0.004 h -0.008 l -0.0195,-0.004 h -0.008 l -0.0195,-0.004 h -0.008 l -0.0195,-0.004 -0.0234,-0.004 -0.0156,-0.004 -0.0234,-0.008 h -0.0156 l -0.0234,-0.008 -0.0156,-0.008 -0.0234,-0.008 h -0.0117 l -0.0156,-0.008 -0.0117,-0.004 -0.0234,-0.0117 -0.0156,-0.004 -0.008,-0.004 -0.0156,-0.004 -0.0234,-0.0156 -0.0234,-0.008 -0.0117,-0.008 -0.0234,-0.0117 -0.0234,-0.0156 -0.0117,-0.004 -0.0117,-0.0117 -0.0117,-0.004 -0.0351,-0.0234 -0.008,-0.008 -0.0156,-0.0117 -0.008,-0.004 -0.0156,-0.0117 -0.004,-0.004 -0.0156,-0.0117 -0.008,-0.004 -0.0156,-0.0156 h -0.004 l -0.0156,-0.0195 h -0.004 l -0.0391,-0.0391 -0.0195,-0.0156 v -0.004 l -0.0156,-0.0195 h -0.004 l -0.0156,-0.0195 v -0.004 l -0.0156,-0.0117 -0.004,-0.008 -0.0117,-0.0156 -0.004,-0.008 -0.0117,-0.0117 -0.008,-0.0117 -0.008,-0.008 -0.008,-0.0117 -0.008,-0.0156 -0.008,-0.008 -0.0234,-0.0352 -0.004,-0.0117 -0.0234,-0.0351 -0.004,-0.0117 -0.008,-0.0117 -0.004,-0.0117 -0.008,-0.0117 -0.004,-0.0156 -0.008,-0.008 -0.004,-0.0156 -0.004,-0.0117 -0.008,-0.0117 -0.0117,-0.0234 v -0.0117 l -0.008,-0.0156 -0.004,-0.0117 -0.004,-0.0156 -0.0117,-0.0352 -0.004,-0.0156 -0.004,-0.0117 -0.004,-0.0156 v -0.0117 l -0.004,-0.0117 -0.004,-0.0274 -0.004,-0.0156 -0.004,-0.008 v -0.0195 l -0.004,-0.008 v -0.0273 l -0.004,-0.0195 v -0.008 l -0.004,-0.0195 v -0.004 l -0.004,-0.082 0.004,-0.0781 v -0.008 l 0.004,-0.0195 v -0.008 l 0.004,-0.0195 v -0.0273 l 0.004,-0.008 v -0.0156 l 0.004,-0.0117 0.004,-0.0156 0.004,-0.0274 0.004,-0.0117 v -0.0117 l 0.004,-0.0156 0.008,-0.0234 0.004,-0.0156 0.008,-0.0234 0.004,-0.0156 0.004,-0.0117 0.008,-0.0117 v -0.0117 l 0.0195,-0.0391 0.008,-0.0234 0.008,-0.0117 0.004,-0.0117 0.008,-0.0117 0.004,-0.0156 0.008,-0.008 0.004,-0.0156 0.0234,-0.0352 0.004,-0.0117 0.0156,-0.0234 0.008,-0.008 0.008,-0.0117 0.008,-0.0156 0.008,-0.008 0.008,-0.0117 0.008,-0.008 0.0117,-0.0156 0.004,-0.008 0.0117,-0.0156 0.0195,-0.0195 v -0.004 l 0.0156,-0.0195 h 0.004 l 0.0156,-0.0195 16.1836,-16.1836 -5.67578,-9.83203 c -0.30079,-0.52734 -0.1211,-1.19922 0.40625,-1.50391 0.52734,-0.30078 1.20312,-0.11718 1.5039,0.40625 z m 23.32032,-5.35937 -18.02344,14.53125 3.6289,6.28906 15.46094,-18.97656 -0.60937,-1.05469 h -0.004 z m -24.46094,7.79297 -13.85156,13.85547 h 21.85156 z m 0,0"
         id="path2988" />
      <path
         style="fill:#b3b3b8;fill-opacity:1;fill-rule:nonzero;stroke:none"
         d="m 508.60937,429.60547 c 2.9961,0 5.4336,-2.44141 5.4336,-5.4336 0,-2.99218 -2.4375,-5.43359 -5.4336,-5.43359 -2.99218,0 -5.43359,2.44141 -5.43359,5.43359 0,2.99219 2.44141,5.4336 5.43359,5.4336"
         id="path2990" />
      <path
         style="fill:#2e2e2e;fill-opacity:1;fill-rule:nonzero;stroke:none"
         d="m 507.80078,425.07031 c -0.25391,-0.44531 -0.10156,-1.01953 0.34375,-1.27344 0.44531,-0.25781 1.01953,-0.10546 1.27344,0.34375 l 4.71875,8.16797 c 0.2539,0.44532 0.0977,1.01953 -0.34375,1.27344 -0.44922,0.25781 -1.01953,0.10156 -1.27735,-0.34375 z m 0,0"
         id="path2992" />
      <path
         style="fill:#2e2e2e;fill-opacity:1;fill-rule:nonzero;stroke:none"
         d="m 511.34766,433.71094 c -0.51563,0 -0.9375,-0.41797 -0.9375,-0.9375 0,-0.51563 0.42187,-0.9375 0.9375,-0.9375 h 4.80859 c 0.51562,0 0.9375,0.42187 0.9375,0.9375 0,0.51953 -0.42188,0.9375 -0.9375,0.9375 z m 0,0"
         id="path2994" />
      <path
         style="fill:#592e87;fill-opacity:1;fill-rule:nonzero;stroke:none"
         d="m 483.11328,424.17187 c 0,0.51563 -0.42187,0.9375 -0.9375,0.9375 -0.51953,0 -0.9375,-0.42187 -0.9375,-0.9375 v -20.77343 h -8.90625 c -0.51562,0 -0.9375,-0.42188 -0.9375,-0.9375 0,-0.51953 0.42188,-0.94141 0.9375,-0.94141 h 21.92969 l 1.08203,1.87891 h -12.23047 z m 0,0"
         id="path2996" />
      <path
         style="fill:#fad9ab;fill-opacity:1;fill-rule:nonzero;stroke:none"
         d="m 514.30859,357.30859 c 3.78516,2.65625 4.75391,8.13282 2.17188,12.23047 -2.58594,4.09375 -7.7461,5.25781 -11.53125,2.59766 -3.78125,-2.66016 -4.75391,-8.13672 -2.16797,-12.23047 2.58203,-4.09766 7.74219,-5.25781 11.52734,-2.59766"
         id="path3000" />
      <path
         style="fill:#fad9ab;fill-opacity:1;fill-rule:nonzero;stroke:none"
         d="m 501.9375,393.50391 c 17.47266,6.84765 17.50781,13.59375 15.44531,36.68359 h -5.66406 c 4.03516,-27.07422 -7.96094,-27.64063 -18.26953,-29.94531 -3.51563,-0.78516 -4.90625,-4.27735 -3.39063,-7.71875 z m 0,0"
         id="path3002" />
      <path
         style="fill:#541e0c;fill-opacity:1;fill-rule:nonzero;stroke:none"
         d="m 511.48437,428.20703 h 7.19922 c 0.78125,0 1.41407,1.65625 1.41407,2.4375 v 0.70313 c 0,0.39062 -0.31641,0.70703 -0.70313,0.70703 h -6.53516 c -0.75781,0 -1.375,-0.61719 -1.375,-1.375 z m 0,0"
         id="path3004" />
      <path
         style="fill:#4a4f57;fill-opacity:1;fill-rule:nonzero;stroke:none"
         d="m 501.9375,393.50391 c -7.74219,-1.14454 -11.75781,-2.39454 -11.82813,-2.19141 -3.55468,11.11719 7.74219,8.26953 15.375,17.20703 4.0586,-5.1875 8.19922,-7.66406 9.19532,-7.51562 -5.39453,-5.53125 -12.74219,-7.5 -12.74219,-7.5"
         id="path3006" />
      <path
         style="fill:#eb6805;fill-opacity:1;fill-rule:nonzero;stroke:none"
         d="m 489.57031,392.74609 c 1.28516,-0.15625 5.80469,0.21485 12.36719,0.75391 0,-6.20703 4.18359,-8.05078 5.32422,-12.5 0.48047,-1.88281 1.42969,-4.57813 -0.73438,-7.57031 -0.77734,-1.07422 -1.44922,-1.78516 -3.28906,-1.58203 -0.71094,0.082 -1.70703,0.36718 -2.6875,1.11718 -0.99609,0.75782 -2.02344,1.75 -2.73828,2.81641 -1.71094,2.55469 -3.29688,5.10547 -4.62891,7.63281 -1.32422,2.50781 -2.63281,6.85156 -3.61328,9.33203"
         id="path3008" />
      <path
         style="fill:#fad9ab;fill-opacity:1;fill-rule:nonzero;stroke:none"
         d="m 521.83594,391.3125 c 1.02734,0.95703 1.08203,2.56641 0.12109,3.59375 -0.95703,1.02734 -2.56641,1.08594 -3.59375,0.125 -1.02734,-0.95703 -1.08203,-2.56641 -0.125,-3.59375 0.96094,-1.02734 2.56641,-1.08594 3.59766,-0.125"
         id="path3010" />
      <path
         style="fill:#592e87;fill-opacity:1;fill-rule:nonzero;stroke:none"
         d="m 486.9375,424.78125 c 0,-2.66016 -2.16016,-4.82031 -4.82031,-4.82031 -2.66407,0 -4.82032,2.16015 -4.82032,4.82031 0,2.66016 2.15625,4.82031 4.82032,4.82031 2.66015,0 4.82031,-2.16015 4.82031,-4.82031"
         id="path3014" />
      <path
         style="fill:#592e87;fill-opacity:1;fill-rule:nonzero;stroke:none"
         d="m 540.96484,424.78125 c 0,-1.73047 -1.40234,-3.13672 -3.13672,-3.13672 -1.73046,0 -3.13671,1.40625 -3.13671,3.13672 0,1.73047 1.40625,3.13281 3.13671,3.13281 1.73438,0 3.13672,-1.40234 3.13672,-3.13281"
         id="path3016" />
      <path
         style="fill:#42175c;fill-opacity:1;fill-rule:nonzero;stroke:none"
         d="m 491.14453,389.20312 c -0.13281,0.0469 -0.28906,-0.0117 -0.35937,-0.14453 -0.0781,-0.14843 -0.0234,-0.33203 0.125,-0.41015 l 15.875,-8.48047 c 0.14453,-0.0781 0.33203,-0.0234 0.41015,0.125 0.0781,0.14453 0.0234,0.33203 -0.125,0.41015 l -15.875,8.48047 c -0.0156,0.008 -0.0312,0.0156 -0.0508,0.0195"
         id="path3018" />
      <path
         style="fill:#42175c;fill-opacity:1;fill-rule:nonzero;stroke:none"
         d="m 505.49609,372.14062 c -1.41406,-0.72656 -3.02734,-0.85546 -4.53906,-0.36718 -1.51172,0.49218 -2.74219,1.53906 -3.46484,2.95312 -0.28516,0.5625 -0.0625,1.25 0.5,1.53906 l 0.51953,-1.01953 c 1.20703,-2.36328 4.10156,-3.29687 6.46484,-2.08984 2.36328,1.21094 3.29688,4.10156 2.08985,6.46484 l -0.51954,1.01563 c 0.28125,0.14453 0.59375,0.16015 0.8711,0.0703 0.27734,-0.0898 0.51953,-0.28516 0.66406,-0.56641 1.49609,-2.91796 0.33203,-6.50781 -2.58594,-8"
         id="path3022" />
      <path
         style="fill:#a64517;fill-opacity:1;fill-rule:nonzero;stroke:none"
         d="m 505.10547,372.90234 c -2.50391,-1.28125 -5.57031,-0.28906 -6.84766,2.21485 -0.17969,0.34375 -0.30859,0.69922 -0.39844,1.0625 0.043,0.0312 0.082,0.0586 0.13282,0.0859 l 0.51953,-1.01953 c 1.20703,-2.36328 4.10156,-3.29687 6.46484,-2.08984 2.36328,1.21094 3.29688,4.10156 2.08985,6.46484 l -0.51954,1.01563 c 0.0469,0.0273 0.0937,0.043 0.14454,0.0586 0.23828,-0.28515 0.45312,-0.59765 0.6289,-0.94531 1.28125,-2.5 0.28906,-5.56641 -2.21484,-6.84766"
         id="path3024" />
      <path
         style="fill:#42175c;fill-opacity:1;fill-rule:nonzero;stroke:none"
         d="m 489.21094,380.36328 c -0.97657,-0.5 -2.17188,-0.11328 -2.67188,0.86328 l -1.66015,3.25 c -0.5,0.97656 -0.11329,2.17188 0.86328,2.67188 0.97265,0.49609 2.16797,0.10937 2.66797,-0.86719 l 1.66406,-3.25 c 0.49609,-0.97266 0.11328,-2.16797 -0.86328,-2.66797"
         id="path3026" />
      <path
         style="fill:#42175c;fill-opacity:1;fill-rule:nonzero;stroke:none"
         d="m 490.50391,377.83594 -4.76563,9.30859 c -0.35937,0.71094 -0.0781,1.58594 0.63281,1.94922 0,0 3.71485,1.89844 4.01172,2.05078 l 8.12891,-15.89844 C 495.58594,373.75 492,374.91016 490.50391,377.83594"
         id="path3028" />
      <path
         style="fill:#fad9ab;fill-opacity:1;fill-rule:nonzero;stroke:none"
         d="m 502.69141,374.61328 c 0.23046,-1.00781 1.23437,-1.63672 2.24218,-1.40625 1.00782,0.23438 1.63672,1.23828 1.40235,2.24219 -0.66407,2.90234 -0.0195,5.69922 1.93359,8.59765 2.12891,3.16407 6.06641,5.72657 12.25781,7.90235 1.70703,1.05469 0.65235,4.24219 -1.82422,2.66406 -5.40234,-1.89844 -11.14453,-4.92578 -13.53125,-8.46875 -2.5625,-3.80859 -3.39453,-7.55469 -2.48046,-11.53125"
         id="path3034" />
      <path
         style="fill:#541e0c;fill-opacity:1;fill-rule:nonzero;stroke:none"
         d="m 508.29687,358.43359 c 0.11719,1.32032 0.44141,2.87891 0.36329,3.56641 -0.0781,0.6875 -1.41016,1.68359 -2.07422,1.94141 -1.01563,0.39453 -2.03516,-0.0937 -2.73438,0.5039 -0.92578,0.78906 -0.86719,1.58985 -1.30859,2.37891 -0.44141,0.78906 -0.84375,0.9375 -1.17188,1.44922 -0.35937,0.55078 -0.3125,0.91406 -0.14843,1.8125 -0.6875,0.14453 -2.13282,0.58203 -2.53516,0.004 -0.40234,-0.57422 -0.0977,-2.52734 0.13281,-3.19531 0.17188,-0.5 0.50391,-0.96094 0.50781,-1.48828 0.008,-0.48828 0.4336,-0.92969 0.35547,-1.41016 -0.11328,-0.69922 0.23828,-1.44922 0.84375,-1.8125 0.61719,-0.37109 0.85547,-0.48437 1,-1.1914 0.11328,-0.55469 -0.36328,-1.70703 0.70313,-2.85547 0.59765,-0.64453 1.5664,-0.90235 2.15625,-0.74219 1.03515,0.28125 0.82812,-0.4375 2.32422,-0.31641 0.51172,0.0391 1.51562,0.55079 1.58593,1.35547"
         id="path3040" />
      <path
         style="fill:#541e0c;fill-opacity:1;fill-rule:nonzero;stroke:none"
         d="m 503.87891,358.79687 c 1.03125,0.83594 2.14062,1.97266 2.7539,2.29297 0.61328,0.31641 2.19531,-0.21093 2.76953,-0.63281 0.94532,-0.69922 1.0625,-1.73828 1.94922,-1.98828 1.17188,-0.32422 1.80078,0.17187 2.70313,0.24609 0.89843,0.0742 1.24609,-0.17187 1.85547,-0.16015 0.65625,0.0117 1.4375,1.41406 2.08984,2.05859 0.50391,-0.49219 -0.0117,-2.96094 -0.26563,-3.61719 -0.2539,-0.65625 -0.85937,-1.14453 -1.53906,-1.32812 -0.51172,-0.13672 -1.08203,-0.1211 -1.52344,-0.41016 -0.40234,-0.26562 -0.62109,-0.73828 -0.97656,-1.07031 -0.51562,-0.48438 -4.04297,-1.66016 -6.67187,-0.58594 -0.86719,0.13281 -1.6211,0.79297 -1.81641,1.3711 -0.34766,1.01562 -0.82812,0.4414 -1.56641,1.74609 -0.25,0.44922 -0.38671,1.56641 0.23829,2.07812"
         id="path3050" />
      <path
         style="fill:#541e0c;fill-opacity:1;fill-rule:nonzero;stroke:none"
         d="m 514.47656,355.76562 c -1.32031,-0.14062 -2.87109,-0.49218 -3.55859,-0.42578 -0.6875,0.0664 -0.0274,-0.57422 -0.28125,0.0937 -0.41406,1.09766 0.0547,2.03516 -0.55078,2.72657 -0.8086,0.91015 -1.60547,0.83984 -2.40235,1.26562 -0.79687,0.42969 -0.95312,0.82422 -1.46875,1.14453 -0.55859,0.35156 -0.92187,0.30078 -1.8164,0.11719 -0.15625,0.6875 0.5625,1.77344 1.13281,2.1875 0.57031,0.41016 1.34766,0.49219 2.01562,0.27344 0.50391,-0.16407 0.96875,-0.48828 1.5,-0.48438 0.48438,0.004 0.92579,0.28125 1.40235,0.36328 0.69531,0.125 1.45312,-0.21093 1.82812,-0.80859 0.37891,-0.60938 0.51172,-1.54297 1.21875,-1.67578 0.55469,-0.10547 1.69922,0.39062 2.86719,-0.65625 0.65625,-0.58594 0.92969,-1.54688 0.78125,-2.14063 -0.26172,-1.03906 -1.24609,1.12891 -1.33984,-0.37109 -0.0312,-0.51172 -0.52735,-1.52734 -1.32813,-1.60938"
         id="path3052" />
      <path
         style="fill:#541e0c;fill-opacity:1;fill-rule:nonzero;stroke:none"
         d="m 500.91406,368.21484 c -0.22656,0.95313 -0.0508,1.01172 -1.37109,0.92578 -0.70703,-0.043 -1.41406,-0.26953 -2.11328,-0.14062 -0.69532,0.13281 -1.21094,0.82422 -1.26953,1.69922 -0.008,0.16015 -0.39063,0.45703 -0.34375,0.60937 0.14453,0.48047 -0.73829,1.13672 -1.22657,1.2461 -0.49218,0.11328 -0.42187,-0.0195 -0.92187,0.0469 -0.4961,0.0625 -0.88672,0.27344 -0.875,0.77344 0.0117,0.44922 0.1289,0.76562 0.16015,1.21484 -0.17187,0.51172 -0.92578,0.35157 -1.41796,0.12891 -0.48829,-0.22266 -1.30079,-0.22656 -1.32032,0.3125 -0.004,0.14453 0.0625,0.28125 0.12891,0.40625 0.13672,0.26953 0.27344,0.53516 0.41016,0.80469 0.0976,0.18359 0.20703,0.38672 0.40234,0.45703 0.48047,0.1875 0.80859,-0.5 0.83203,-1.01563 0.0234,-0.51562 0.18359,-1.21484 0.69922,-1.19531 0.25391,0.0117 0.39844,0.34375 0.65234,0.37109 0.38672,0.0469 0.76953,0.0117 1.28516,-0.42187 0.57031,-0.47656 -0.52734,-0.82031 1.44922,-2.25391 0.49609,-0.35547 1.17578,-0.27343 1.73047,-0.0156 0.55468,0.25781 1.07812,0.63281 1.6875,0.67969 0.92578,0.0781 1.74609,-0.62891 2.23828,-1.41797 0.49219,-0.78516 -0.58203,-1.44141 -0.0234,-2.1836 0.41016,-0.54297 0.95703,-0.98437 1.57422,-1.26953 0.14062,-0.0664 -1.07031,0.11328 -1.03516,-0.0351 0.0547,-0.22657 0.47266,-0.51563 0.25391,-0.59375 -0.49609,-0.17188 1.39844,-0.38672 -0.48047,-0.82032 -1.88281,-0.42968 -0.87891,0.73438 -1.10547,1.6875"
         id="path3054" />
      <path
         style="fill:#541e0c;fill-opacity:1;fill-rule:nonzero;stroke:none"
         d="m 501.70703,370.22656 c -0.24609,0.45313 -0.51172,0.91016 -0.89453,1.26172 -0.37891,0.34766 -0.90234,0.57813 -1.41406,0.5 -0.48047,-0.0742 -1.05469,-0.37891 -1.37891,-0.0195 -0.10937,0.11719 0.4375,-0.22656 0.37891,-0.0781 -0.28125,0.72266 -1.4375,0.84766 -2.19532,0.69922 -0.28515,-0.0586 -0.8164,0.64844 -1.10546,0.60157 -0.42188,-0.0703 -0.875,0.0547 -1.20704,0.33203 -0.21484,-0.0156 -0.33984,-0.28907 -0.26171,-0.49219 0.0781,-0.20313 0.29296,-0.32422 0.50781,-0.36719 0.13672,-0.0234 0.29297,-0.0312 0.3789,-0.14062 0.0781,-0.10157 0.0586,-0.25 0.0547,-0.37891 -0.0117,-0.45703 0.27344,-0.88672 0.65625,-1.13281 0.38672,-0.25 0.85547,-0.33203 1.3125,-0.33203 0.49219,0.004 1.08985,0.0547 1.375,-0.34766 0.13281,-0.17969 1.11328,-0.51172 1.17578,-0.72656 0.28907,-1 1.50391,-1.61719 2.48047,-1.25781 0.33203,0.12109 0.62891,0.33203 0.96094,0.44921 0.63672,0.21485 0.4375,0.125 0.89844,-0.36718 z m 0,0"
         id="path3056" />
      <path
         style="fill:#b80063;fill-opacity:1;fill-rule:nonzero;stroke:none"
         d="m 492.89453,375.58984 c -0.37109,0.1875 -0.83984,-0.008 -1.05078,-0.42968 -0.21094,-0.42188 -0.082,-0.91407 0.28906,-1.09766 0.36719,-0.18359 0.83594,0.008 1.04688,0.42969 0.21093,0.42578 0.082,0.91406 -0.28516,1.09765"
         id="path3058" />
      <path
         style="fill:#541e0c;fill-opacity:1;fill-rule:nonzero;stroke:none"
         d="m 496.99219,372.13672 c -0.31641,0.15625 -0.44141,0.53906 -0.50782,0.88672 -0.0391,0.1914 -0.0742,0.39843 -0.20703,0.54297 -0.082,0.0976 -0.19922,0.16015 -0.3164,0.20703 -0.4336,0.17578 -0.92578,0.1914 -1.36719,0.043 l 0.70312,-1.83594 z m 0,0"
         id="path3060" />
      <path
         style="fill:#541e0c;fill-opacity:1;fill-rule:nonzero;stroke:none"
         d="m 491.05078,376.12109 c -0.34766,0.17188 -0.72656,0.10938 -0.85156,-0.14062 -0.125,-0.25 0.0547,-0.58985 0.40234,-0.76563 0.34766,-0.17187 0.73047,-0.10937 0.85547,0.14063 0.125,0.25 -0.0547,0.58984 -0.40625,0.76562"
         id="path3062" />
      <path
         style="fill:#541e0c;fill-opacity:1;fill-rule:nonzero;stroke:none"
         d="m 513.95312,360.48437 c -0.7539,-0.82031 -1.6875,-0.10937 -2.77343,-0.58203 -4.1836,-1.83203 -9.06641,0.0742 -10.90235,4.26172 -1.17968,2.69531 -0.80859,5.67578 0.71875,7.94922 2.21875,-0.53516 3.35157,-2.17578 3.40625,-4.91797 0.0312,-3.5625 3.21485,-6.72656 9.55078,-6.71094"
         id="path3064" />
    </g>
    <g
       transform="matrix(0.3527778,0,0,0.3527778,-70.589027,-24.089687)"
       id="g21969">
      <path
         style="fill:none;stroke:#0068b3;stroke-width:0.5;stroke-linecap:butt;stroke-linejoin:miter;stroke-miterlimit:4;stroke-opacity:1"
         d="M -9.3125e-4,-4.125e-4 H 172.91313"
         transform="matrix(1,0,0,-1,435.9814,339.1949)"
         id="path3066" />
      <g
         style="fill:#0068b3;fill-opacity:1"
         id="g3084">
        <g
           transform="translate(434.91489,331.63559)"
           id="use3068">
          <path
             id="path21704"
             d="m 1.234375,-8.765625 c 0.4375,-0.125 0.894531,-0.222656 1.375,-0.296875 0.488281,-0.082031 0.929688,-0.125 1.328125,-0.125 H 4.890625 V 0 h -1.6875 v -7.734375 c -0.28125,0 -0.601562,0.023437 -0.953125,0.0625 -0.355469,0.03125 -0.695312,0.085937 -1.015625,0.15625 z m 0,0"
             style="stroke:none" />
        </g>
        <g
           transform="translate(442.09689,331.63559)"
           id="use3070">
          <path
             id="path21708"
             d="m 3.65625,-9.3125 c 0.425781,0 0.828125,0.085937 1.203125,0.25 0.382813,0.167969 0.710938,0.433594 0.984375,0.796875 0.28125,0.367187 0.5,0.84375 0.65625,1.4375 0.164063,0.59375 0.25,1.320312 0.25,2.171875 0,0.824219 -0.09375,1.539062 -0.28125,2.140625 -0.179687,0.605469 -0.417969,1.105469 -0.71875,1.5 C 5.457031,-0.628906 5.113281,-0.34375 4.71875,-0.15625 4.320313,0.03125 3.914063,0.125 3.5,0.125 3.082031,0.125 2.6875,0.0507813 2.3125,-0.09375 1.9375,-0.25 1.609375,-0.5 1.328125,-0.84375 1.046875,-1.195313 0.828125,-1.664063 0.671875,-2.25 0.515625,-2.84375 0.4375,-3.578125 0.4375,-4.453125 c 0,-0.84375 0.082031,-1.570313 0.25,-2.1875 0.175781,-0.625 0.410156,-1.128906 0.703125,-1.515625 0.289063,-0.394531 0.632813,-0.6875 1.03125,-0.875 0.394531,-0.1875 0.804688,-0.28125 1.234375,-0.28125 z m -0.078125,1.359375 c -0.1875,0 -0.371094,0.0625 -0.546875,0.1875 -0.167969,0.117187 -0.3125,0.308594 -0.4375,0.578125 -0.125,0.261719 -0.226562,0.605469 -0.296875,1.03125 -0.0625,0.417969 -0.09375,0.929687 -0.09375,1.53125 0,0.648437 0.03125,1.1875 0.09375,1.625 0.0625,0.429687 0.15625,0.777344 0.28125,1.046875 0.125,0.261719 0.269531,0.449219 0.4375,0.5625 0.164063,0.105469 0.347656,0.15625 0.546875,0.15625 0.414063,0 0.753906,-0.253906 1.015625,-0.765625 0.269531,-0.519531 0.40625,-1.359375 0.40625,-2.515625 0,-0.644531 -0.039062,-1.1875 -0.109375,-1.625 -0.0625,-0.4375 -0.15625,-0.789063 -0.28125,-1.0625 C 4.46875,-7.472656 4.316406,-7.664063 4.140625,-7.78125 3.972656,-7.894531 3.785156,-7.953125 3.578125,-7.953125 Z m 0,0"
             style="stroke:none" />
        </g>
        <g
           transform="translate(449.2789,331.63559)"
           id="use3072">
          <path
             id="path21712"
             d=""
             style="stroke:none" />
        </g>
        <g
           transform="translate(451.57489,331.63559)"
           id="use3074">
          <path
             id="path21716"
             d="m 2.484375,0 c 0,0.4375 -0.070312,0.816406 -0.203125,1.140625 C 2.15625,1.460938 1.976563,1.734375 1.75,1.953125 1.519531,2.171875 1.25,2.34375 0.9375,2.46875 0.632813,2.59375 0.3125,2.679688 -0.03125,2.734375 L -0.171875,1.46875 C 0.191406,1.375 0.457031,1.210938 0.625,0.984375 0.800781,0.753906 0.890625,0.4375 0.890625,0.03125 v -6.921875 l 1.59375,-0.0625 z M 0.75,-8.890625 c 0,-0.238281 0.078125,-0.445313 0.234375,-0.625 0.164063,-0.1875 0.398438,-0.28125 0.703125,-0.28125 0.289063,0 0.519531,0.085937 0.6875,0.25 0.164063,0.167969 0.25,0.386719 0.25,0.65625 0,0.242187 -0.085937,0.449219 -0.25,0.625 C 2.207031,-8.085938 1.976563,-8 1.6875,-8 1.382813,-8 1.148438,-8.078125 0.984375,-8.234375 0.828125,-8.398438 0.75,-8.617188 0.75,-8.890625 Z m 0,0"
             style="stroke:none" />
        </g>
        <g
           transform="translate(454.94891,331.63559)"
           id="use3076">
          <path
             id="path21720"
             d="M 6.015625,0 H 4.53125 v -0.453125 c -0.28125,0.1875 -0.574219,0.324219 -0.875,0.40625 -0.304687,0.0820313 -0.664062,0.125 -1.078125,0.125 C 1.867188,0.078125 1.320313,-0.09375 0.9375,-0.4375 0.5625,-0.789063 0.375,-1.257813 0.375,-1.84375 c 0,-0.320313 0.0625,-0.613281 0.1875,-0.875 0.125,-0.269531 0.316406,-0.5 0.578125,-0.6875 0.257813,-0.195313 0.585938,-0.347656 0.984375,-0.453125 0.394531,-0.101563 0.863281,-0.15625 1.40625,-0.15625 0.175781,0 0.335938,0.00781 0.484375,0.015625 0.15625,0 0.3125,0 0.46875,0 v -0.390625 c 0,-0.382813 -0.121094,-0.675781 -0.359375,-0.875 -0.242187,-0.207031 -0.636719,-0.3125 -1.1875,-0.3125 -0.335937,0 -0.652344,0.03125 -0.953125,0.09375 C 1.679688,-5.421875 1.34375,-5.3125 0.96875,-5.15625 L 0.734375,-6.484375 c 0.4375,-0.1875 0.847656,-0.320313 1.234375,-0.40625 0.394531,-0.082031 0.816406,-0.125 1.265625,-0.125 0.9375,0 1.632813,0.214844 2.09375,0.640625 0.457031,0.417969 0.6875,1.015625 0.6875,1.796875 z M 2,-1.96875 c 0,0.242187 0.085938,0.433594 0.265625,0.578125 0.1875,0.148437 0.441406,0.21875 0.765625,0.21875 0.269531,0 0.515625,-0.023438 0.734375,-0.078125 0.226563,-0.0625 0.46875,-0.160156 0.71875,-0.296875 V -2.84375 C 4.347656,-2.851563 4.195313,-2.859375 4.03125,-2.859375 3.863281,-2.867188 3.707031,-2.875 3.5625,-2.875 3,-2.875 2.597656,-2.789063 2.359375,-2.625 2.117188,-2.457031 2,-2.238281 2,-1.96875 Z m 0,0"
             style="stroke:none" />
        </g>
        <g
           transform="translate(461.7529,331.63559)"
           id="use3078">
          <path
             id="path21724"
             d="M 6.015625,0 H 4.53125 v -0.453125 c -0.28125,0.1875 -0.574219,0.324219 -0.875,0.40625 -0.304687,0.0820313 -0.664062,0.125 -1.078125,0.125 C 1.867188,0.078125 1.320313,-0.09375 0.9375,-0.4375 0.5625,-0.789063 0.375,-1.257813 0.375,-1.84375 c 0,-0.320313 0.0625,-0.613281 0.1875,-0.875 0.125,-0.269531 0.316406,-0.5 0.578125,-0.6875 0.257813,-0.195313 0.585938,-0.347656 0.984375,-0.453125 0.394531,-0.101563 0.863281,-0.15625 1.40625,-0.15625 0.175781,0 0.335938,0.00781 0.484375,0.015625 0.15625,0 0.3125,0 0.46875,0 v -0.390625 c 0,-0.382813 -0.121094,-0.675781 -0.359375,-0.875 -0.242187,-0.207031 -0.636719,-0.3125 -1.1875,-0.3125 -0.335937,0 -0.652344,0.03125 -0.953125,0.09375 C 1.679688,-5.421875 1.34375,-5.3125 0.96875,-5.15625 L 0.734375,-6.484375 c 0.4375,-0.1875 0.847656,-0.320313 1.234375,-0.40625 0.394531,-0.082031 0.816406,-0.125 1.265625,-0.125 0.9375,0 1.632813,0.214844 2.09375,0.640625 0.457031,0.417969 0.6875,1.015625 0.6875,1.796875 z M 2,-1.96875 c 0,0.242187 0.085938,0.433594 0.265625,0.578125 0.1875,0.148437 0.441406,0.21875 0.765625,0.21875 0.269531,0 0.515625,-0.023438 0.734375,-0.078125 0.226563,-0.0625 0.46875,-0.160156 0.71875,-0.296875 V -2.84375 C 4.347656,-2.851563 4.195313,-2.859375 4.03125,-2.859375 3.863281,-2.867188 3.707031,-2.875 3.5625,-2.875 3,-2.875 2.597656,-2.789063 2.359375,-2.625 2.117188,-2.457031 2,-2.238281 2,-1.96875 Z m 0,0"
             style="stroke:none" />
        </g>
        <g
           transform="translate(468.55688,331.63559)"
           id="use3080">
          <path
             id="path21728"
             d="m 4.609375,-5.390625 c -0.15625,-0.039063 -0.292969,-0.066406 -0.40625,-0.078125 -0.105469,-0.00781 -0.230469,-0.015625 -0.375,-0.015625 -0.21875,0 -0.4375,0.039062 -0.65625,0.109375 -0.21875,0.074219 -0.449219,0.203125 -0.6875,0.390625 V 0 h -1.59375 v -6.890625 l 1.578125,-0.0625 v 0.796875 c 0.238281,-0.3125 0.472656,-0.53125 0.703125,-0.65625 0.226563,-0.132813 0.476563,-0.203125 0.75,-0.203125 0.300781,0 0.566406,0.03125 0.796875,0.09375 z m 0,0"
             style="stroke:none" />
        </g>
        <g
           transform="translate(473.19089,331.63559)"
           id="use3082">
          <path
             id="path21732"
             d=""
             style="stroke:none" />
        </g>
      </g>
      <g
         style="fill:#0068b3;fill-opacity:1"
         id="g3144">
        <g
           transform="translate(502.67029,331.63559)"
           id="use3086">
          <path
             id="path21760"
             d="m 0.265625,-2.375 c 0,-0.769531 0.128906,-1.507813 0.390625,-2.21875 0.257813,-0.707031 0.628906,-1.363281 1.109375,-1.96875 h 0.8125 c -0.460937,0.648437 -0.8125,1.304687 -1.0625,1.96875 -0.242187,0.667969 -0.359375,1.398437 -0.359375,2.1875 0,0.335937 0.03125,0.683594 0.09375,1.046875 0.070313,0.355469 0.164063,0.710937 0.28125,1.0625 0.125,0.3515625 0.273438,0.703125 0.453125,1.046875 0.175781,0.34375 0.375,0.671875 0.59375,0.984375 h -0.8125 C 1.285156,1.140625 0.914063,0.492188 0.65625,-0.203125 0.394531,-0.898438 0.265625,-1.625 0.265625,-2.375 Z m 0,0"
             style="stroke:none" />
        </g>
        <g
           transform="translate(505.3403,331.63559)"
           id="use3088">
          <path
             id="path21764"
             d="m 0.765625,-6.40625 c 0.28125,-0.070313 0.550781,-0.125 0.8125,-0.15625 0.257813,-0.039063 0.519531,-0.0625 0.78125,-0.0625 0.675781,0 1.203125,0.167969 1.578125,0.5 0.382813,0.324219 0.578125,0.765625 0.578125,1.328125 0,0.21875 -0.027344,0.417969 -0.078125,0.59375 -0.042969,0.179687 -0.121094,0.351562 -0.234375,0.515625 -0.105469,0.167969 -0.242187,0.335937 -0.40625,0.5 -0.167969,0.15625 -0.375,0.324219 -0.625,0.5 L 2.625,-2.296875 C 2.300781,-2.066406 2.066406,-1.851563 1.921875,-1.65625 1.773438,-1.46875 1.675781,-1.25 1.625,-1 h 3 V 0 H 0.65625 L 0.515625,-0.859375 c 0.050781,-0.40625 0.179688,-0.769531 0.390625,-1.09375 0.21875,-0.320313 0.515625,-0.632813 0.890625,-0.9375 l 0.65625,-0.5 c 0.28125,-0.21875 0.484375,-0.414063 0.609375,-0.59375 0.125,-0.1875 0.1875,-0.40625 0.1875,-0.65625 0,-0.300781 -0.09375,-0.53125 -0.28125,-0.6875 -0.1875,-0.164063 -0.460937,-0.25 -0.8125,-0.25 -0.25,0 -0.480469,0.015625 -0.6875,0.046875 -0.210937,0.023437 -0.445312,0.0625 -0.703125,0.125 z m 0,0"
             style="stroke:none" />
        </g>
        <g
           transform="translate(510.47031,331.63559)"
           id="use3090">
          <path
             id="path21768"
             d="m 0.34375,-2.453125 c 0,-0.425781 0.054688,-0.800781 0.171875,-1.125 C 0.640625,-3.898438 0.800781,-4.164063 1,-4.375 c 0.207031,-0.21875 0.445313,-0.382813 0.71875,-0.5 0.269531,-0.113281 0.554688,-0.171875 0.859375,-0.171875 0.601563,0 1.082031,0.179687 1.4375,0.53125 0.351563,0.355469 0.53125,0.855469 0.53125,1.5 0,0.148437 -0.00781,0.296875 -0.015625,0.453125 0,0.148437 -0.00781,0.273437 -0.015625,0.375 h -3.0625 c 0.0625,0.449219 0.21875,0.777344 0.46875,0.984375 0.25,0.199219 0.597656,0.296875 1.046875,0.296875 0.28125,0 0.53125,-0.015625 0.75,-0.046875 0.21875,-0.039063 0.445313,-0.101563 0.6875,-0.1875 v 0.9375 C 4.144531,-0.109375 3.894531,-0.0390625 3.65625,0 3.425781,0.0390625 3.148438,0.0625 2.828125,0.0625 c -0.375,0 -0.71875,-0.046875 -1.03125,-0.140625 -0.304687,-0.101563 -0.5625,-0.257813 -0.78125,-0.46875 -0.210937,-0.21875 -0.375,-0.484375 -0.5,-0.796875 C 0.398438,-1.65625 0.34375,-2.023438 0.34375,-2.453125 Z m 3.09375,-0.5625 c 0,-0.332031 -0.085937,-0.597656 -0.25,-0.796875 C 3.019531,-4.019531 2.789063,-4.125 2.5,-4.125 c -0.273437,0 -0.5,0.09375 -0.6875,0.28125 -0.179687,0.1875 -0.292969,0.464844 -0.34375,0.828125 z m 0,0"
             style="stroke:none" />
        </g>
        <g
           transform="translate(515.34027,331.63559)"
           id="use3092">
          <path
             id="path21772"
             d=""
             style="stroke:none" />
        </g>
        <g
           transform="translate(516.98029,331.63559)"
           id="use3094">
          <path
             id="path21776"
             d="m 1.765625,0 h -1.125 v -4.921875 l 1.125,-0.046875 z m -1.21875,-6.34375 c 0,-0.175781 0.050781,-0.328125 0.15625,-0.453125 C 0.816406,-6.929688 0.984375,-7 1.203125,-7 c 0.207031,0 0.367188,0.0625 0.484375,0.1875 0.125,0.117187 0.1875,0.273437 0.1875,0.46875 0,0.167969 -0.0625,0.320312 -0.1875,0.453125 -0.117187,0.125 -0.277344,0.1875 -0.484375,0.1875 -0.21875,0 -0.386719,-0.054688 -0.5,-0.171875 C 0.597656,-6 0.546875,-6.15625 0.546875,-6.34375 Z m 0,0"
             style="stroke:none" />
        </g>
        <g
           transform="translate(519.39032,331.63559)"
           id="use3096">
          <path
             id="path21780"
             d="m 3.640625,-3.03125 c 0,-0.320313 -0.078125,-0.554688 -0.234375,-0.703125 -0.148437,-0.144531 -0.371094,-0.21875 -0.671875,-0.21875 -0.1875,0 -0.355469,0.015625 -0.5,0.046875 -0.136719,0.023437 -0.292969,0.070312 -0.46875,0.140625 V 0 h -1.125 v -4.921875 l 1.09375,-0.046875 v 0.359375 c 0.21875,-0.132813 0.425781,-0.234375 0.625,-0.296875 0.207031,-0.070313 0.4375,-0.109375 0.6875,-0.109375 0.539063,0 0.960938,0.152344 1.265625,0.453125 0.300781,0.304687 0.453125,0.734375 0.453125,1.296875 V 0 h -1.125 z m 0,0"
             style="stroke:none" />
        </g>
        <g
           transform="translate(524.72028,331.63559)"
           id="use3098">
          <path
             id="path21784"
             d="m 0.34375,-2.453125 c 0,-0.425781 0.054688,-0.800781 0.171875,-1.125 C 0.640625,-3.898438 0.800781,-4.164063 1,-4.375 c 0.207031,-0.21875 0.445313,-0.382813 0.71875,-0.5 0.269531,-0.113281 0.554688,-0.171875 0.859375,-0.171875 0.601563,0 1.082031,0.179687 1.4375,0.53125 0.351563,0.355469 0.53125,0.855469 0.53125,1.5 0,0.148437 -0.00781,0.296875 -0.015625,0.453125 0,0.148437 -0.00781,0.273437 -0.015625,0.375 h -3.0625 c 0.0625,0.449219 0.21875,0.777344 0.46875,0.984375 0.25,0.199219 0.597656,0.296875 1.046875,0.296875 0.28125,0 0.53125,-0.015625 0.75,-0.046875 0.21875,-0.039063 0.445313,-0.101563 0.6875,-0.1875 v 0.9375 C 4.144531,-0.109375 3.894531,-0.0390625 3.65625,0 3.425781,0.0390625 3.148438,0.0625 2.828125,0.0625 c -0.375,0 -0.71875,-0.046875 -1.03125,-0.140625 -0.304687,-0.101563 -0.5625,-0.257813 -0.78125,-0.46875 -0.210937,-0.21875 -0.375,-0.484375 -0.5,-0.796875 C 0.398438,-1.65625 0.34375,-2.023438 0.34375,-2.453125 Z m 3.09375,-0.5625 c 0,-0.332031 -0.085937,-0.597656 -0.25,-0.796875 C 3.019531,-4.019531 2.789063,-4.125 2.5,-4.125 c -0.273437,0 -0.5,0.09375 -0.6875,0.28125 -0.179687,0.1875 -0.292969,0.464844 -0.34375,0.828125 z m 0,0"
             style="stroke:none" />
        </g>
        <g
           transform="translate(529.59027,331.63559)"
           id="use3100">
          <path
             id="path21788"
             d="m 3.640625,-3.03125 c 0,-0.320313 -0.078125,-0.554688 -0.234375,-0.703125 -0.148437,-0.144531 -0.371094,-0.21875 -0.671875,-0.21875 -0.1875,0 -0.355469,0.015625 -0.5,0.046875 -0.136719,0.023437 -0.292969,0.070312 -0.46875,0.140625 V 0 h -1.125 v -4.921875 l 1.09375,-0.046875 v 0.359375 c 0.21875,-0.132813 0.425781,-0.234375 0.625,-0.296875 0.207031,-0.070313 0.4375,-0.109375 0.6875,-0.109375 0.539063,0 0.960938,0.152344 1.265625,0.453125 0.300781,0.304687 0.453125,0.734375 0.453125,1.296875 V 0 h -1.125 z m 0,0"
             style="stroke:none" />
        </g>
        <g
           transform="translate(534.92029,331.63559)"
           id="use3102">
          <path
             id="path21792"
             d="M 0.203125,-4.953125 H 0.8125 V -5.84375 l 1.125,-0.109375 v 1 h 1.25 v 0.875 h -1.25 v 2.34375 c 0,0.28125 0.066406,0.492187 0.203125,0.625 0.132813,0.125 0.316406,0.1875 0.546875,0.1875 0.113281,0 0.210938,-0.003906 0.296875,-0.015625 C 3.078125,-0.945313 3.1875,-0.96875 3.3125,-1 v 0.9375 C 3.144531,-0.0078125 2.988281,0.0195313 2.84375,0.03125 2.707031,0.0507813 2.539063,0.0625 2.34375,0.0625 1.882813,0.0625 1.515625,-0.0664063 1.234375,-0.328125 0.953125,-0.597656 0.8125,-1.019531 0.8125,-1.59375 V -4.078125 H 0.203125 Z m 0,0"
             style="stroke:none" />
        </g>
        <g
           transform="translate(538.33032,331.63559)"
           id="use3104">
          <path
             id="path21796"
             d="m 1.765625,0 h -1.125 v -4.921875 l 1.125,-0.046875 z m -1.21875,-6.34375 c 0,-0.175781 0.050781,-0.328125 0.15625,-0.453125 C 0.816406,-6.929688 0.984375,-7 1.203125,-7 c 0.207031,0 0.367188,0.0625 0.484375,0.1875 0.125,0.117187 0.1875,0.273437 0.1875,0.46875 0,0.167969 -0.0625,0.320312 -0.1875,0.453125 -0.117187,0.125 -0.277344,0.1875 -0.484375,0.1875 -0.21875,0 -0.386719,-0.054688 -0.5,-0.171875 C 0.597656,-6 0.546875,-6.15625 0.546875,-6.34375 Z m 0,0"
             style="stroke:none" />
        </g>
        <g
           transform="translate(540.7403,331.63559)"
           id="use3106">
          <path
             id="path21800"
             d="m 3.640625,-3.03125 c 0,-0.320313 -0.078125,-0.554688 -0.234375,-0.703125 -0.148437,-0.144531 -0.371094,-0.21875 -0.671875,-0.21875 -0.1875,0 -0.355469,0.015625 -0.5,0.046875 -0.136719,0.023437 -0.292969,0.070312 -0.46875,0.140625 V 0 h -1.125 v -4.921875 l 1.09375,-0.046875 v 0.359375 c 0.21875,-0.132813 0.425781,-0.234375 0.625,-0.296875 0.207031,-0.070313 0.4375,-0.109375 0.6875,-0.109375 0.539063,0 0.960938,0.152344 1.265625,0.453125 0.300781,0.304687 0.453125,0.734375 0.453125,1.296875 V 0 h -1.125 z m 0,0"
             style="stroke:none" />
        </g>
        <g
           transform="translate(546.07031,331.63559)"
           id="use3108">
          <path
             id="path21804"
             d="m 1.46875,-1.296875 c 0,0.117187 0.046875,0.203125 0.140625,0.265625 0.09375,0.054687 0.253906,0.078125 0.484375,0.078125 h 1.1875 c 0.53125,0 0.914063,0.105469 1.15625,0.3125 0.238281,0.199219 0.359375,0.5 0.359375,0.90625 0,0.226563 -0.054687,0.445313 -0.15625,0.65625 C 4.535156,1.128906 4.378906,1.304688 4.171875,1.453125 3.960938,1.609375 3.691406,1.726563 3.359375,1.8125 3.035156,1.90625 2.648438,1.953125 2.203125,1.953125 c -0.699219,0 -1.214844,-0.117187 -1.546875,-0.34375 -0.335937,-0.230469 -0.5,-0.539062 -0.5,-0.921875 0,-0.230469 0.0625,-0.4375 0.1875,-0.625 0.125,-0.1875 0.3125,-0.332031 0.5625,-0.4375 V -0.40625 C 0.789063,-0.46875 0.695313,-0.554688 0.625,-0.671875 0.550781,-0.785156 0.515625,-0.914063 0.515625,-1.0625 0.515625,-1.21875 0.5625,-1.363281 0.65625,-1.5 0.75,-1.632813 0.882813,-1.738281 1.0625,-1.8125 v -0.03125 c -0.230469,-0.125 -0.40625,-0.289063 -0.53125,-0.5 -0.125,-0.21875 -0.1875,-0.488281 -0.1875,-0.8125 0,-0.601563 0.1875,-1.0625 0.5625,-1.375 0.375,-0.3125 0.875,-0.46875 1.5,-0.46875 0.269531,0 0.523438,0.03125 0.765625,0.09375 h 1.59375 v 0.75 h -0.75 V -4.125 c 0.101563,0.085937 0.191406,0.210937 0.265625,0.375 0.082031,0.15625 0.125,0.34375 0.125,0.5625 0,0.542969 -0.183594,0.953125 -0.546875,1.234375 -0.355469,0.28125 -0.875,0.421875 -1.5625,0.421875 -0.210937,0 -0.414062,-0.023438 -0.609375,-0.078125 -0.148437,0.074219 -0.21875,0.179687 -0.21875,0.3125 z m 0.90625,-1 c 0.3125,0 0.550781,-0.078125 0.71875,-0.234375 0.164063,-0.15625 0.25,-0.40625 0.25,-0.75 0,-0.613281 -0.320312,-0.921875 -0.953125,-0.921875 -0.28125,0 -0.511719,0.085937 -0.6875,0.25 -0.179687,0.15625 -0.265625,0.40625 -0.265625,0.75 0,0.3125 0.082031,0.542969 0.25,0.6875 0.164063,0.148437 0.394531,0.21875 0.6875,0.21875 z M 1.203125,0.46875 c 0,0.195313 0.085938,0.351563 0.265625,0.46875 C 1.644531,1.0625 1.925781,1.125 2.3125,1.125 2.851563,1.125 3.234375,1.0625 3.453125,0.9375 3.671875,0.8125 3.78125,0.648438 3.78125,0.453125 3.78125,0.304688 3.726563,0.195313 3.625,0.125 3.53125,0.0507813 3.359375,0.0078125 3.109375,0 L 1.46875,-0.046875 C 1.289063,0.0664063 1.203125,0.238281 1.203125,0.46875 Z m 0,0"
             style="stroke:none" />
        </g>
        <g
           transform="translate(550.97028,331.63559)"
           id="use3110">
          <path
             id="path21808"
             d=""
             style="stroke:none" />
        </g>
        <g
           transform="translate(552.61029,331.63559)"
           id="use3112">
          <path
             id="path21812"
             d="m 3.640625,-3.03125 c 0,-0.320313 -0.078125,-0.554688 -0.234375,-0.703125 -0.148437,-0.144531 -0.371094,-0.21875 -0.671875,-0.21875 -0.1875,0 -0.355469,0.015625 -0.5,0.046875 -0.136719,0.023437 -0.292969,0.070312 -0.46875,0.140625 V 0 h -1.125 v -6.9375 l 1.125,-0.046875 V -4.625 c 0.21875,-0.132813 0.425781,-0.234375 0.625,-0.296875 0.207031,-0.0625 0.425781,-0.09375 0.65625,-0.09375 0.539063,0 0.960938,0.152344 1.265625,0.453125 0.300781,0.304687 0.453125,0.734375 0.453125,1.296875 V 0 h -1.125 z m 0,0"
             style="stroke:none" />
        </g>
        <g
           transform="translate(557.94031,331.63559)"
           id="use3114">
          <path
             id="path21816"
             d="m 4.296875,0 h -1.0625 v -0.3125 c -0.199219,0.125 -0.40625,0.21875 -0.625,0.28125 C 2.398438,0.03125 2.144531,0.0625 1.84375,0.0625 c -0.511719,0 -0.902344,-0.125 -1.171875,-0.375 -0.273437,-0.25 -0.40625,-0.582031 -0.40625,-1 0,-0.226563 0.046875,-0.4375 0.140625,-0.625 C 0.5,-2.132813 0.632813,-2.300781 0.8125,-2.4375 1,-2.570313 1.234375,-2.675781 1.515625,-2.75 c 0.28125,-0.082031 0.613281,-0.125 1,-0.125 0.125,0 0.242188,0.00781 0.359375,0.015625 0.113281,0 0.222656,0 0.328125,0 v -0.28125 c 0,-0.269531 -0.089844,-0.476563 -0.265625,-0.625 -0.167969,-0.144531 -0.449219,-0.21875 -0.84375,-0.21875 -0.242187,0 -0.46875,0.027344 -0.6875,0.078125 C 1.195313,-3.863281 0.957031,-3.789063 0.6875,-3.6875 L 0.53125,-4.625 c 0.300781,-0.132813 0.59375,-0.234375 0.875,-0.296875 0.28125,-0.0625 0.582031,-0.09375 0.90625,-0.09375 0.664063,0 1.160156,0.152344 1.484375,0.453125 0.332031,0.304687 0.5,0.734375 0.5,1.296875 z M 1.4375,-1.40625 c 0,0.167969 0.0625,0.304687 0.1875,0.40625 0.125,0.105469 0.304688,0.15625 0.546875,0.15625 0.1875,0 0.359375,-0.015625 0.515625,-0.046875 C 2.851563,-0.929688 3.023438,-1 3.203125,-1.09375 v -0.9375 C 3.109375,-2.039063 3,-2.046875 2.875,-2.046875 c -0.117187,0 -0.226562,0 -0.328125,0 -0.40625,0 -0.695312,0.058594 -0.859375,0.171875 -0.167969,0.117187 -0.25,0.273437 -0.25,0.46875 z m 0,0"
             style="stroke:none" />
        </g>
        <g
           transform="translate(562.80029,331.63559)"
           id="use3116">
          <path
             id="path21820"
             d="m 1.765625,0 h -1.125 v -6.9375 l 1.125,-0.046875 z m 0,0"
             style="stroke:none" />
        </g>
        <g
           transform="translate(565.21033,331.63559)"
           id="use3118">
          <path
             id="path21824"
             d="m 0.1875,-4.078125 v -0.875 h 0.625 V -5.3125 c 0,-0.539063 0.148438,-0.957031 0.453125,-1.25 0.3125,-0.300781 0.804688,-0.453125 1.484375,-0.453125 0.132813,0 0.257813,0.00781 0.375,0.015625 0.113281,0.011719 0.222656,0.03125 0.328125,0.0625 L 3.375,-6.046875 C 3.257813,-6.066406 3.15625,-6.082031 3.0625,-6.09375 2.976563,-6.101563 2.878906,-6.109375 2.765625,-6.109375 c -0.292969,0 -0.507812,0.0625 -0.640625,0.1875 -0.125,0.125 -0.1875,0.324219 -0.1875,0.59375 v 0.375 h 1.21875 v 0.875 H 1.9375 V 0 h -1.125 v -4.078125 z m 0,0"
             style="stroke:none" />
        </g>
        <g
           transform="translate(568.3703,331.63559)"
           id="use3120">
          <path
             id="path21828"
             d=""
             style="stroke:none" />
        </g>
        <g
           transform="translate(570.01031,331.63559)"
           id="use3122">
          <path
             id="path21832"
             d="M 1.765625,0 C 1.765625,0.3125 1.71875,0.582031 1.625,0.8125 1.53125,1.039063 1.40625,1.234375 1.25,1.390625 c -0.15625,0.15625 -0.351562,0.28125 -0.578125,0.375 -0.21875,0.09375 -0.449219,0.15625 -0.6875,0.1875 L -0.125,1.046875 c 0.257813,-0.0625 0.453125,-0.179687 0.578125,-0.34375 0.125,-0.167969 0.1875,-0.398437 0.1875,-0.6875 v -4.9375 l 1.125,-0.046875 z m -1.21875,-6.34375 c 0,-0.175781 0.050781,-0.328125 0.15625,-0.453125 C 0.816406,-6.929688 0.984375,-7 1.203125,-7 c 0.207031,0 0.367188,0.0625 0.484375,0.1875 0.125,0.117187 0.1875,0.273437 0.1875,0.46875 0,0.167969 -0.0625,0.320312 -0.1875,0.453125 -0.117187,0.125 -0.277344,0.1875 -0.484375,0.1875 -0.21875,0 -0.386719,-0.054688 -0.5,-0.171875 C 0.597656,-6 0.546875,-6.15625 0.546875,-6.34375 Z m 0,0"
             style="stroke:none" />
        </g>
        <g
           transform="translate(572.42029,331.63559)"
           id="use3124">
          <path
             id="path21836"
             d="m 4.296875,0 h -1.0625 v -0.3125 c -0.199219,0.125 -0.40625,0.21875 -0.625,0.28125 C 2.398438,0.03125 2.144531,0.0625 1.84375,0.0625 c -0.511719,0 -0.902344,-0.125 -1.171875,-0.375 -0.273437,-0.25 -0.40625,-0.582031 -0.40625,-1 0,-0.226563 0.046875,-0.4375 0.140625,-0.625 C 0.5,-2.132813 0.632813,-2.300781 0.8125,-2.4375 1,-2.570313 1.234375,-2.675781 1.515625,-2.75 c 0.28125,-0.082031 0.613281,-0.125 1,-0.125 0.125,0 0.242188,0.00781 0.359375,0.015625 0.113281,0 0.222656,0 0.328125,0 v -0.28125 c 0,-0.269531 -0.089844,-0.476563 -0.265625,-0.625 -0.167969,-0.144531 -0.449219,-0.21875 -0.84375,-0.21875 -0.242187,0 -0.46875,0.027344 -0.6875,0.078125 C 1.195313,-3.863281 0.957031,-3.789063 0.6875,-3.6875 L 0.53125,-4.625 c 0.300781,-0.132813 0.59375,-0.234375 0.875,-0.296875 0.28125,-0.0625 0.582031,-0.09375 0.90625,-0.09375 0.664063,0 1.160156,0.152344 1.484375,0.453125 0.332031,0.304687 0.5,0.734375 0.5,1.296875 z M 1.4375,-1.40625 c 0,0.167969 0.0625,0.304687 0.1875,0.40625 0.125,0.105469 0.304688,0.15625 0.546875,0.15625 0.1875,0 0.359375,-0.015625 0.515625,-0.046875 C 2.851563,-0.929688 3.023438,-1 3.203125,-1.09375 v -0.9375 C 3.109375,-2.039063 3,-2.046875 2.875,-2.046875 c -0.117187,0 -0.226562,0 -0.328125,0 -0.40625,0 -0.695312,0.058594 -0.859375,0.171875 -0.167969,0.117187 -0.25,0.273437 -0.25,0.46875 z m 0,0"
             style="stroke:none" />
        </g>
        <g
           transform="translate(577.28027,331.63559)"
           id="use3126">
          <path
             id="path21840"
             d="m 4.296875,0 h -1.0625 v -0.3125 c -0.199219,0.125 -0.40625,0.21875 -0.625,0.28125 C 2.398438,0.03125 2.144531,0.0625 1.84375,0.0625 c -0.511719,0 -0.902344,-0.125 -1.171875,-0.375 -0.273437,-0.25 -0.40625,-0.582031 -0.40625,-1 0,-0.226563 0.046875,-0.4375 0.140625,-0.625 C 0.5,-2.132813 0.632813,-2.300781 0.8125,-2.4375 1,-2.570313 1.234375,-2.675781 1.515625,-2.75 c 0.28125,-0.082031 0.613281,-0.125 1,-0.125 0.125,0 0.242188,0.00781 0.359375,0.015625 0.113281,0 0.222656,0 0.328125,0 v -0.28125 c 0,-0.269531 -0.089844,-0.476563 -0.265625,-0.625 -0.167969,-0.144531 -0.449219,-0.21875 -0.84375,-0.21875 -0.242187,0 -0.46875,0.027344 -0.6875,0.078125 C 1.195313,-3.863281 0.957031,-3.789063 0.6875,-3.6875 L 0.53125,-4.625 c 0.300781,-0.132813 0.59375,-0.234375 0.875,-0.296875 0.28125,-0.0625 0.582031,-0.09375 0.90625,-0.09375 0.664063,0 1.160156,0.152344 1.484375,0.453125 0.332031,0.304687 0.5,0.734375 0.5,1.296875 z M 1.4375,-1.40625 c 0,0.167969 0.0625,0.304687 0.1875,0.40625 0.125,0.105469 0.304688,0.15625 0.546875,0.15625 0.1875,0 0.359375,-0.015625 0.515625,-0.046875 C 2.851563,-0.929688 3.023438,-1 3.203125,-1.09375 v -0.9375 C 3.109375,-2.039063 3,-2.046875 2.875,-2.046875 c -0.117187,0 -0.226562,0 -0.328125,0 -0.40625,0 -0.695312,0.058594 -0.859375,0.171875 -0.167969,0.117187 -0.25,0.273437 -0.25,0.46875 z m 0,0"
             style="stroke:none" />
        </g>
        <g
           transform="translate(582.14032,331.63559)"
           id="use3128">
          <path
             id="path21844"
             d="M 3.296875,-3.84375 C 3.179688,-3.875 3.082031,-3.894531 3,-3.90625 2.925781,-3.914063 2.835938,-3.921875 2.734375,-3.921875 c -0.15625,0 -0.3125,0.027344 -0.46875,0.078125 -0.15625,0.054687 -0.324219,0.148437 -0.5,0.28125 V 0 h -1.125 v -4.921875 l 1.125,-0.046875 v 0.5625 c 0.164063,-0.21875 0.332031,-0.375 0.5,-0.46875 0.164063,-0.09375 0.34375,-0.140625 0.53125,-0.140625 0.21875,0 0.410156,0.027344 0.578125,0.078125 z m 0,0"
             style="stroke:none" />
        </g>
        <g
           transform="translate(585.45032,331.63559)"
           id="use3130">
          <path
             id="path21848"
             d=""
             style="stroke:none" />
        </g>
        <g
           transform="translate(587.09027,331.63559)"
           id="use3132">
          <path
             id="path21852"
             d="m 1.765625,0 h -1.125 v -6.9375 l 1.125,-0.046875 z m 0,0"
             style="stroke:none" />
        </g>
        <g
           transform="translate(589.50031,331.63559)"
           id="use3134">
          <path
             id="path21856"
             d="m 4.296875,0 h -1.0625 v -0.3125 c -0.199219,0.125 -0.40625,0.21875 -0.625,0.28125 C 2.398438,0.03125 2.144531,0.0625 1.84375,0.0625 c -0.511719,0 -0.902344,-0.125 -1.171875,-0.375 -0.273437,-0.25 -0.40625,-0.582031 -0.40625,-1 0,-0.226563 0.046875,-0.4375 0.140625,-0.625 C 0.5,-2.132813 0.632813,-2.300781 0.8125,-2.4375 1,-2.570313 1.234375,-2.675781 1.515625,-2.75 c 0.28125,-0.082031 0.613281,-0.125 1,-0.125 0.125,0 0.242188,0.00781 0.359375,0.015625 0.113281,0 0.222656,0 0.328125,0 v -0.28125 c 0,-0.269531 -0.089844,-0.476563 -0.265625,-0.625 -0.167969,-0.144531 -0.449219,-0.21875 -0.84375,-0.21875 -0.242187,0 -0.46875,0.027344 -0.6875,0.078125 C 1.195313,-3.863281 0.957031,-3.789063 0.6875,-3.6875 L 0.53125,-4.625 c 0.300781,-0.132813 0.59375,-0.234375 0.875,-0.296875 0.28125,-0.0625 0.582031,-0.09375 0.90625,-0.09375 0.664063,0 1.160156,0.152344 1.484375,0.453125 0.332031,0.304687 0.5,0.734375 0.5,1.296875 z M 1.4375,-1.40625 c 0,0.167969 0.0625,0.304687 0.1875,0.40625 0.125,0.105469 0.304688,0.15625 0.546875,0.15625 0.1875,0 0.359375,-0.015625 0.515625,-0.046875 C 2.851563,-0.929688 3.023438,-1 3.203125,-1.09375 v -0.9375 C 3.109375,-2.039063 3,-2.046875 2.875,-2.046875 c -0.117187,0 -0.226562,0 -0.328125,0 -0.40625,0 -0.695312,0.058594 -0.859375,0.171875 -0.167969,0.117187 -0.25,0.273437 -0.25,0.46875 z m 0,0"
             style="stroke:none" />
        </g>
        <g
           transform="translate(594.36029,331.63559)"
           id="use3136">
          <path
             id="path21860"
             d="M 0.203125,-4.953125 H 0.8125 V -5.84375 l 1.125,-0.109375 v 1 h 1.25 v 0.875 h -1.25 v 2.34375 c 0,0.28125 0.066406,0.492187 0.203125,0.625 0.132813,0.125 0.316406,0.1875 0.546875,0.1875 0.113281,0 0.210938,-0.003906 0.296875,-0.015625 C 3.078125,-0.945313 3.1875,-0.96875 3.3125,-1 v 0.9375 C 3.144531,-0.0078125 2.988281,0.0195313 2.84375,0.03125 2.707031,0.0507813 2.539063,0.0625 2.34375,0.0625 1.882813,0.0625 1.515625,-0.0664063 1.234375,-0.328125 0.953125,-0.597656 0.8125,-1.019531 0.8125,-1.59375 V -4.078125 H 0.203125 Z m 0,0"
             style="stroke:none" />
        </g>
        <g
           transform="translate(597.77032,331.63559)"
           id="use3138">
          <path
             id="path21864"
             d="m 0.34375,-2.453125 c 0,-0.425781 0.054688,-0.800781 0.171875,-1.125 C 0.640625,-3.898438 0.800781,-4.164063 1,-4.375 c 0.207031,-0.21875 0.445313,-0.382813 0.71875,-0.5 0.269531,-0.113281 0.554688,-0.171875 0.859375,-0.171875 0.601563,0 1.082031,0.179687 1.4375,0.53125 0.351563,0.355469 0.53125,0.855469 0.53125,1.5 0,0.148437 -0.00781,0.296875 -0.015625,0.453125 0,0.148437 -0.00781,0.273437 -0.015625,0.375 h -3.0625 c 0.0625,0.449219 0.21875,0.777344 0.46875,0.984375 0.25,0.199219 0.597656,0.296875 1.046875,0.296875 0.28125,0 0.53125,-0.015625 0.75,-0.046875 0.21875,-0.039063 0.445313,-0.101563 0.6875,-0.1875 v 0.9375 C 4.144531,-0.109375 3.894531,-0.0390625 3.65625,0 3.425781,0.0390625 3.148438,0.0625 2.828125,0.0625 c -0.375,0 -0.71875,-0.046875 -1.03125,-0.140625 -0.304687,-0.101563 -0.5625,-0.257813 -0.78125,-0.46875 -0.210937,-0.21875 -0.375,-0.484375 -0.5,-0.796875 C 0.398438,-1.65625 0.34375,-2.023438 0.34375,-2.453125 Z m 3.09375,-0.5625 c 0,-0.332031 -0.085937,-0.597656 -0.25,-0.796875 C 3.019531,-4.019531 2.789063,-4.125 2.5,-4.125 c -0.273437,0 -0.5,0.09375 -0.6875,0.28125 -0.179687,0.1875 -0.292969,0.464844 -0.34375,0.828125 z m 0,0"
             style="stroke:none" />
        </g>
        <g
           transform="translate(602.64032,331.63559)"
           id="use3140">
          <path
             id="path21868"
             d="M 3.296875,-3.84375 C 3.179688,-3.875 3.082031,-3.894531 3,-3.90625 2.925781,-3.914063 2.835938,-3.921875 2.734375,-3.921875 c -0.15625,0 -0.3125,0.027344 -0.46875,0.078125 -0.15625,0.054687 -0.324219,0.148437 -0.5,0.28125 V 0 h -1.125 v -4.921875 l 1.125,-0.046875 v 0.5625 c 0.164063,-0.21875 0.332031,-0.375 0.5,-0.46875 0.164063,-0.09375 0.34375,-0.140625 0.53125,-0.140625 0.21875,0 0.410156,0.027344 0.578125,0.078125 z m 0,0"
             style="stroke:none" />
        </g>
        <g
           transform="translate(605.95032,331.63559)"
           id="use3142">
          <path
             id="path21872"
             d="m 2.40625,-2.453125 c 0,0.773437 -0.132812,1.515625 -0.390625,2.234375 C 1.753906,0.488281 1.382813,1.140625 0.90625,1.734375 H 0.09375 C 0.550781,1.097656 0.898438,0.445313 1.140625,-0.21875 c 0.25,-0.664063 0.375,-1.394531 0.375,-2.1875 0,-0.34375 -0.039062,-0.691406 -0.109375,-1.046875 C 1.34375,-3.816406 1.25,-4.175781 1.125,-4.53125 1.007813,-4.882813 0.863281,-5.234375 0.6875,-5.578125 0.507813,-5.921875 0.3125,-6.25 0.09375,-6.5625 h 0.8125 c 0.476563,0.605469 0.847656,1.257812 1.109375,1.953125 0.257813,0.699219 0.390625,1.417969 0.390625,2.15625 z m 0,0"
             style="stroke:none" />
        </g>
      </g>
      <g
         style="fill:#b80063;fill-opacity:1"
         id="g3152">
        <g
           transform="translate(440.39029,381.21561)"
           id="use3146">
          <path
             id="path21748"
             d="M 4.625,-2.828125 H 1.984375 V 0 h -1.1875 v -6.5625 h 1.1875 V -3.875 H 4.625 V -6.5625 H 5.84375 V 0 H 4.625 Z m 0,0"
             style="stroke:none" />
        </g>
        <g
           transform="translate(447.02029,381.21561)"
           id="use3148">
          <path
             id="path21752"
             d="m 1.984375,0 h -1.1875 V -6.5625 H 2.84375 c 0.375,0 0.703125,0.054687 0.984375,0.15625 C 4.109375,-6.3125 4.34375,-6.175781 4.53125,-6 c 0.195313,0.179687 0.34375,0.390625 0.4375,0.640625 0.101563,0.242187 0.15625,0.511719 0.15625,0.8125 0,0.355469 -0.058594,0.671875 -0.171875,0.953125 -0.117187,0.273437 -0.277344,0.507812 -0.484375,0.703125 -0.210937,0.1875 -0.464844,0.335937 -0.765625,0.4375 -0.292969,0.105469 -0.625,0.15625 -1,0.15625 -0.125,0 -0.246094,0 -0.359375,0 C 2.226563,-2.304688 2.109375,-2.320313 1.984375,-2.34375 Z m 0,-3.296875 c 0.101563,0.011719 0.195313,0.023437 0.28125,0.03125 0.09375,0 0.191406,0 0.296875,0 0.414063,0 0.738281,-0.097656 0.96875,-0.296875 C 3.757813,-3.769531 3.875,-4.066406 3.875,-4.453125 3.875,-5.210938 3.472656,-5.59375 2.671875,-5.59375 h -0.6875 z m 0,0"
             style="stroke:none" />
        </g>
        <g
           transform="translate(452.39029,381.21561)"
           id="use3150">
          <path
             id="path21756"
             d="m 0.0625,-6.5625 h 1.34375 l 1.5,5.375 h 0.046875 l 1.5,-5.375 h 1.25 L 3.765625,0 h -1.78125 z m 0,0"
             style="stroke:none" />
        </g>
      </g>
      <path
         style="fill:none;stroke:#b80063;stroke-width:0.5;stroke-linecap:butt;stroke-linejoin:miter;stroke-miterlimit:4;stroke-opacity:1"
         d="M -1.5e-4,-3.5625e-4 -2.836087,-2.836294 v -10.335937 l 2.835937,-2.835938 h 21.347656 l 2.832032,2.835938 v 10.335937 l -2.832032,2.83593775 z m 0,0"
         transform="matrix(1,0,0,-1,439.0314,369.7223)"
         id="path3154" />
      <g
         style="fill:#42175c;fill-opacity:1"
         id="g3162">
        <g
           transform="translate(440.38571,358.0502)"
           id="use3156">
          <path
             id="path21736"
             d="M 4.625,-2.828125 H 1.984375 V 0 h -1.1875 v -6.5625 h 1.1875 V -3.875 H 4.625 V -6.5625 H 5.84375 V 0 H 4.625 Z m 0,0"
             style="stroke:none" />
        </g>
        <g
           transform="translate(447.01569,358.0502)"
           id="use3158">
          <path
             id="path21740"
             d="m 1.984375,0 h -1.1875 V -6.5625 H 2.84375 c 0.375,0 0.703125,0.054687 0.984375,0.15625 C 4.109375,-6.3125 4.34375,-6.175781 4.53125,-6 c 0.195313,0.179687 0.34375,0.390625 0.4375,0.640625 0.101563,0.242187 0.15625,0.511719 0.15625,0.8125 0,0.355469 -0.058594,0.671875 -0.171875,0.953125 -0.117187,0.273437 -0.277344,0.507812 -0.484375,0.703125 -0.210937,0.1875 -0.464844,0.335937 -0.765625,0.4375 -0.292969,0.105469 -0.625,0.15625 -1,0.15625 -0.125,0 -0.246094,0 -0.359375,0 C 2.226563,-2.304688 2.109375,-2.320313 1.984375,-2.34375 Z m 0,-3.296875 c 0.101563,0.011719 0.195313,0.023437 0.28125,0.03125 0.09375,0 0.191406,0 0.296875,0 0.414063,0 0.738281,-0.097656 0.96875,-0.296875 C 3.757813,-3.769531 3.875,-4.066406 3.875,-4.453125 3.875,-5.210938 3.472656,-5.59375 2.671875,-5.59375 h -0.6875 z m 0,0"
             style="stroke:none" />
        </g>
        <g
           transform="translate(452.38571,358.0502)"
           id="use3160">
          <path
             id="path21744"
             d="m 0.0625,-6.5625 h 1.34375 l 1.5,5.375 h 0.046875 l 1.5,-5.375 h 1.25 L 3.765625,0 h -1.78125 z m 0,0"
             style="stroke:none" />
        </g>
      </g>
      <path
         style="fill:none;stroke:#42175c;stroke-width:0.5;stroke-linecap:butt;stroke-linejoin:miter;stroke-miterlimit:4;stroke-opacity:1"
         d="M 0.001725,0.0018875 H 27.325944 V 17.107356 H 0.001725 Z m 0,0"
         transform="matrix(1,0,0,-1,435.8889,362.9472)"
         id="path3164" />
    </g>
    <path
       id="path3046"
       d="m 109.17606,103.68338 c 0.41755,0.11575 1.39458,-0.0207 1.70326,-0.0992 0.30868,-0.0785 0.39687,-0.2012 0.60082,-0.26734 0.22049,-0.0703 0.37758,0.19981 0.66973,0.339 0.11162,-0.22187 -0.0799,-0.87781 -0.23978,-1.06798 -0.15985,-0.19017 -0.41893,-0.28388 -0.6656,-0.26596 -0.18741,0.0138 -0.37482,0.0841 -0.55535,0.0372 -0.16536,-0.0413 -0.29214,-0.17363 -0.44786,-0.24391 -0.22875,-0.10198 -0.51676,-0.0524 -0.6959,0.12127 -0.18191,0.17638 -0.30731,0.48507 -0.56087,0.46991"
       style="fill:#541e0c;fill-opacity:1;fill-rule:nonzero;stroke:none;stroke-width:0.352777" />
  </g>
</svg>
