<?xml version="1.0" encoding="UTF-8" standalone="no"?>
<svg
   xmlns:dc="http://purl.org/dc/elements/1.1/"
   xmlns:cc="http://creativecommons.org/ns#"
   xmlns:rdf="http://www.w3.org/1999/02/22-rdf-syntax-ns#"
   xmlns:svg="http://www.w3.org/2000/svg"
   xmlns="http://www.w3.org/2000/svg"
   id="svg16931"
   version="1.1"
   viewBox="0 0 68.188087 49.04163"
   height="49.04163mm"
   width="68.188087mm">
  <defs
     id="defs16925">
    <clipPath
       id="clip3">
      <path
         id="path1546"
         d="m 762,269 h 44 v 24.91406 h -44 z m 0,0" />
    </clipPath>
    <clipPath
       id="clip4">
      <path
         id="path1549"
         d="m 769,289 h 30 v 4.91406 h -30 z m 0,0" />
    </clipPath>
    <clipPath
       id="clip5">
      <path
         id="path1552"
         d="m 750,272 h 24 v 21.91406 h -24 z m 0,0" />
    </clipPath>
  </defs>
  <metadata
     id="metadata16928">
    <rdf:RDF>
      <cc:Work
         rdf:about="">
        <dc:format>image/svg+xml</dc:format>
        <dc:type
           rdf:resource="http://purl.org/dc/dcmitype/StillImage" />
        <dc:title></dc:title>
      </cc:Work>
    </rdf:RDF>
  </metadata>
  <g
     transform="translate(-119.36429,-122.8899)"
     id="layer1">
    <path
       id="path2318"
       d="m 119.36429,171.93153 h 68.18809 V 122.8899 h -68.18809 z m 0,0"
       style="fill:#ffffff;fill-opacity:1;fill-rule:nonzero;stroke:none;stroke-width:0.352777" />
    <g
       transform="matrix(0.3527778,0,0,0.3527778,-101.48701,68.245172)"
       id="g15807">
      <path
         style="fill:#541e0c;fill-opacity:1;fill-rule:nonzero;stroke:none"
         d="m 790.23828,233.18359 c 0.98828,0.5586 1.66016,1.46485 1.94531,2.48047 -1.76562,-0.92969 -3.96093,-0.29297 -4.94922,1.45313 -0.66796,1.1875 -0.60937,2.58203 0.0273,3.67968 -0.36719,-0.0898 -0.73438,-0.22656 -1.07813,-0.42187 -1.98828,-1.12109 -2.6875,-3.63672 -1.57031,-5.625 1.12109,-1.98438 3.64063,-2.68359 5.625,-1.56641"
         id="path2320" />
      <path
         style="fill:#541e0c;fill-opacity:1;fill-rule:nonzero;stroke:none"
         d="m 787.69141,230.58203 c 1.125,0.17578 2.05468,0.875 2.66015,1.87109 -1.98437,-0.23437 -3.86328,1.45704 -4.23047,3.83985 -0.25,1.61328 0.26172,3.13281 1.22657,4.0625 -0.37891,0.0703 -0.77344,0.0781 -1.16407,0.0195 -2.2539,-0.34766 -3.74218,-2.82031 -3.32812,-5.52344 0.41797,-2.70312 2.58203,-4.61328 4.83594,-4.26953"
         id="path2322" />
      <path
         style="fill:#b80063;fill-opacity:1;fill-rule:nonzero;stroke:none"
         d="m 782.89844,239.35547 c -0.57422,1.41015 0.10156,3.01562 1.51172,3.58984 1.40625,0.57422 3.01562,-0.10156 3.58984,-1.50781 0.57422,-1.41016 -0.10156,-3.01563 -1.51172,-3.58984 -1.41016,-0.57422 -3.01562,0.10156 -3.58984,1.50781"
         id="path2324" />
      <g
         clip-path="url(#clip3)"
         clip-rule="nonzero"
         id="g2330">
        <path
           style="fill:#eb6805;fill-opacity:1;fill-rule:nonzero;stroke:none"
           d="m 762.96094,294.19141 0.004,-0.0352 1.8086,-14.36328 c 0.3164,-2.98047 6.48828,-10.00781 19.25,-10.00781 h 0.35547 c 12.76171,0 18.93359,7.02734 19.25,10.00781 l 1.8125,14.36328 v 0.0352 z m 0,0"
           id="path2328" />
      </g>
      <path
         style="fill:#fad9ab;fill-opacity:1;fill-rule:nonzero;stroke:none"
         d="m 800.34766,257.44531 c 0,11.89063 -11.16797,17.375 -15.8711,17.375 -4.69922,0 -15.87109,-5.48437 -15.87109,-17.375 0,-9.17578 7.10547,-16.61328 15.87109,-16.61328 8.76563,0 15.8711,7.4375 15.8711,16.61328"
         id="path2338" />
      <path
         style="fill:#541e0c;fill-opacity:1;fill-rule:nonzero;stroke:none"
         d="m 795.82812,245.83984 c -2.88281,-3.08984 -6.90234,-5.00781 -11.35156,-5.00781 -4.60937,0 -8.7539,2.05469 -11.65234,5.33984 3.42578,1.90625 7.83594,2.10938 11.42578,0.4961 0.53906,1.38672 -1.04297,4.08203 -2.30859,4.93359 6.17187,0.28125 10.9414,-1.39062 13.88671,-5.76172"
         id="path2340" />
      <g
         clip-path="url(#clip4)"
         clip-rule="nonzero"
         id="g2344">
        <path
           style="fill:#636361;fill-opacity:1;fill-rule:nonzero;stroke:none"
           d="m 769.34375,289.97656 2.10156,4.21485 h 24.83594 l 2.00391,-4.21485 z m 0,0"
           id="path2342" />
      </g>
      <g
         clip-path="url(#clip5)"
         clip-rule="nonzero"
         id="g2348">
        <path
           style="fill:#eb6805;fill-opacity:1;fill-rule:nonzero;stroke:none"
           d="m 752.40625,292.26172 c 1.70703,1.83203 4.53906,3.55469 11.98437,-3.11719 7.44532,-6.67578 12.08594,-11.28516 7.71485,-14.12891 -5.98828,-3.89843 -6.08203,-2.94531 -15.70313,6.24219 -7.45312,7.11328 -6.17187,8.66406 -3.99609,11.00391"
           id="path2346" />
      </g>
      <path
         style="fill:#636361;fill-opacity:1;fill-rule:nonzero;stroke:none"
         d="m 789.11719,274.86719 c 0,1.16015 -1.94532,2.10547 -4.34766,2.10547 -2.39844,0 -4.34375,-0.94532 -4.34375,-2.10547 0,-1.16407 1.94531,-2.10938 4.34375,-2.10938 2.40234,0 4.34766,0.94531 4.34766,2.10938"
         id="path2350" />
      <path
         style="fill:#f8ae00;fill-opacity:1;fill-rule:nonzero;stroke:none"
         d="m 788.16016,274.53125 c 0,0.92578 -1.41016,1.67969 -3.15235,1.67969 -1.73828,0 -3.14844,-0.75391 -3.14844,-1.67969 0,-0.92969 1.41016,-1.67969 3.14844,-1.67969 1.74219,0 3.15235,0.75 3.15235,1.67969"
         id="path2352" />
      <path
         style="fill:#636361;fill-opacity:1;fill-rule:nonzero;stroke:none"
         d="m 778.22656,274.31641 0.28906,1.1914 h 2.67188 l -0.85938,-0.82422 z m 0,0"
         id="path2354" />
      <path
         style="fill:#fad9ab;fill-opacity:1;fill-rule:nonzero;stroke:none"
         d="m 770.68359,279.44531 c 0,0 1.24219,1.55469 2.09766,1.09766 0.86328,-0.45703 5.73437,-3.57031 5.82812,-4.85156 0.0937,-1.28516 -1.24218,-3.11719 -2.76953,-3.84766 -1.52734,-0.73438 -2.67578,-2.10547 -5.92187,0.73047 -3.25,2.83984 -6.01953,5.49609 -4.01172,7.32812 2.00391,1.83203 4.01172,0.36719 4.77734,-0.45703"
         id="path2356" />
    </g>
    <g
       transform="matrix(0.3527778,0,0,0.3527778,-101.48701,68.245172)"
       id="g15790">
      <path
         style="fill:#ded4c7;fill-opacity:1;fill-rule:nonzero;stroke:none"
         d="m 752.13672,266.82422 c 0,1.86719 -13.875,3.38281 -31.27344,3.38281 -17.39453,0 -36.21094,-1.51562 -36.21094,-3.38281 0,-1.86719 18.81641,-2.23438 36.21094,-2.23438 17.39844,0 31.27344,0.36719 31.27344,2.23438"
         id="path2358" />
      <path
         style="fill:#636361;fill-opacity:1;fill-rule:nonzero;stroke:none"
         d="m 741.26172,259.58984 c 0,4.94532 -4.01172,8.95313 -8.95703,8.95313 -4.94532,0 -8.95703,-4.00781 -8.95703,-8.95313 0,-4.94531 4.01171,-8.95703 8.95703,-8.95703 4.94531,0 8.95703,4.01172 8.95703,8.95703"
         id="path2360" />
      <path
         style="fill:#f8ae00;fill-opacity:1;fill-rule:nonzero;stroke:none"
         d="m 738.75,259.58984 c 0,-3.55468 -2.89063,-6.44922 -6.44531,-6.44922 -3.55469,0 -6.44922,2.89454 -6.44922,6.44922 0,3.55469 2.89453,6.44532 6.44922,6.44532 3.55468,0 6.44531,-2.89063 6.44531,-6.44532"
         id="path2362" />
      <path
         style="fill:#636361;fill-opacity:1;fill-rule:nonzero;stroke:none"
         d="m 714.61719,242.54297 c 0,0 0.30078,-2.25 -2.41797,-2.25 h -7.24219 c 0,0 -2.24609,-0.13672 -3.08984,1.64844 -0.60938,1.3789 0.51953,3.4414 0.51953,3.4414 l 3.91406,4.20313 z m 0,0"
         id="path2364" />
      <path
         style="fill:#42175c;fill-opacity:1;fill-rule:nonzero;stroke:none"
         d="m 725.33984,238.64453 c 0,0 -15.60156,2.32422 -27.62109,17.82031 l 4,1.8711 c 0,0 9.10937,-10.46094 25.12891,-13.48047 z m 0,0"
         id="path2366" />
      <path
         style="fill:#e6e6e6;fill-opacity:1;fill-rule:nonzero;stroke:none"
         d="m 728.62891,247.84766 2.375,-0.49219 2.46875,11.90625 -0.004,0.004 c 0.0273,0.10157 0.0508,0.21094 0.0508,0.32422 0,0.66797 -0.54297,1.21094 -1.21484,1.21094 -0.61328,0 -1.11328,-0.45703 -1.19532,-1.04687 h -0.0117 z m 0,0"
         id="path2368" />
      <path
         style="fill:#e6e6e6;fill-opacity:1;fill-rule:nonzero;stroke:none"
         d="m 725.01562,230.30859 2.46485,11.90625 2.375,-0.49218 -2.46875,-11.90625 z m 0,0"
         id="path2370" />
      <path
         style="fill:#e6e6e6;fill-opacity:1;fill-rule:nonzero;stroke:none"
         d="m 717.45312,221.76562 6.67188,-1.44921 h 0.004 c 0.83203,-0.17579 1.58593,-0.25782 2.27734,-0.25782 1.12891,0 2.08203,0.21875 2.85156,0.56641 0.76953,0.34766 1.35156,0.82031 1.76563,1.28125 0.76172,0.84766 0.98828,1.64062 1.01953,1.75 l 0.14062,0.50391 -0.28906,0.43359 c -0.0117,0.0156 -1.74219,2.63672 -5.03125,7.08203 l -1.84766,-1.36719 c 1.62891,-2.20312 2.8711,-3.95312 3.70704,-5.15234 0.39062,-0.55859 0.6875,-0.99609 0.89843,-1.30078 -0.0781,-0.125 -0.17968,-0.26563 -0.30468,-0.40625 -0.23438,-0.25781 -0.55079,-0.51563 -1.00782,-0.72656 -0.45703,-0.20704 -1.0625,-0.35938 -1.90234,-0.36329 -0.51172,0 -1.10938,0.0586 -1.80078,0.20704 h 0.008 l -6.67187,1.44531 z m 0,0"
         id="path2372" />
      <path
         style="fill:#42175c;fill-opacity:1;fill-rule:nonzero;stroke:none"
         d="m 724.27734,234.16797 3.0625,14.77344 5.28516,-1.09375 -3.05859,-14.77344 z m 0,0"
         id="path2374" />
      <path
         style="fill:#42175c;fill-opacity:1;fill-rule:nonzero;stroke:none"
         d="m 701.71875,258.33594 -4,-1.8711 c 4.08203,-5.26562 8.57812,-9.00781 12.73828,-11.65625 0.63281,-0.40234 2.76563,-1.14062 3.83594,0.90235 1.08594,2.0625 -0.625,3.74218 -0.625,3.74218 v 0.004 c -7.73438,4.04297 -11.94922,8.87891 -11.94922,8.87891"
         id="path2378" />
      <path
         style="fill:#636361;fill-opacity:1;fill-rule:nonzero;stroke:none"
         d="m 707.80469,259.58984 c 0,4.94532 -4.01172,8.95313 -8.95703,8.95313 -4.94532,0 -8.95704,-4.00781 -8.95704,-8.95313 0,-4.94531 4.01172,-8.95703 8.95704,-8.95703 4.94531,0 8.95703,4.01172 8.95703,8.95703"
         id="path2380" />
      <path
         style="fill:#f8ae00;fill-opacity:1;fill-rule:nonzero;stroke:none"
         d="m 705.29297,259.58984 c 0,-3.55468 -2.89063,-6.44922 -6.44531,-6.44922 -3.55469,0 -6.44922,2.89454 -6.44922,6.44922 0,3.55469 2.89453,6.44532 6.44922,6.44532 3.55468,0 6.44531,-2.89063 6.44531,-6.44532"
         id="path2382" />
      <path
         style="fill:#636361;fill-opacity:1;fill-rule:nonzero;stroke:none"
         d="m 723.59375,222.78516 -0.41406,-2.26172 -5.72657,1.24218 0.48829,2.2461 z m 0,0"
         id="path2384" />
      <path
         style="fill:#636361;fill-opacity:1;fill-rule:nonzero;stroke:none"
         d="m 699.75,258.66016 c -0.48828,-0.49219 -1.28125,-0.49219 -1.77344,0 -0.48828,0.48828 -0.48828,1.28515 0,1.77343 0.49219,0.48828 1.28516,0.49219 1.77344,0 0.49219,-0.48828 0.49219,-1.28515 0,-1.77343"
         id="path2386" />
    </g>
    <g
       transform="matrix(0.3527778,0,0,0.3527778,-101.48701,68.245172)"
       id="g16828">
      <path
         style="fill:none;stroke:#0068b3;stroke-width:0.5;stroke-linecap:butt;stroke-linejoin:miter;stroke-miterlimit:4;stroke-opacity:1"
         d="M 0.0014625,0.0012625 H 172.91162"
         transform="matrix(1,0,0,-1,637.2251,184.1497)"
         id="path2388" />
      <g
         style="fill:#0068b3;fill-opacity:1"
         id="g2410">
        <g
           transform="translate(636.15839,177.1039)"
           id="use2390">
          <path
             id="path16698"
             d="m 1.234375,-8.765625 c 0.4375,-0.125 0.894531,-0.222656 1.375,-0.296875 0.488281,-0.082031 0.929688,-0.125 1.328125,-0.125 H 4.890625 V 0 h -1.6875 v -7.734375 c -0.28125,0 -0.601562,0.023437 -0.953125,0.0625 -0.355469,0.03125 -0.695312,0.085937 -1.015625,0.15625 z m 0,0"
             style="stroke:none" />
        </g>
        <g
           transform="translate(643.34039,177.1039)"
           id="use2392">
          <path
             id="path16702"
             d="M 5.96875,-3.140625 H 6.9375 v 1.3125 H 5.96875 V 0 H 4.296875 V -1.828125 H 0.65625 L 0.34375,-2.875 C 0.40625,-3.601563 0.539063,-4.289063 0.75,-4.9375 0.96875,-5.582031 1.242188,-6.171875 1.578125,-6.703125 1.921875,-7.242188 2.316406,-7.726563 2.765625,-8.15625 3.210938,-8.582031 3.707031,-8.9375 4.25,-9.21875 h 1.71875 z m -1.671875,0 v -4.5625 h -0.03125 c -0.6875,0.511719 -1.25,1.164062 -1.6875,1.953125 -0.4375,0.78125 -0.710937,1.652344 -0.8125,2.609375 z m 0,0"
             style="stroke:none" />
        </g>
        <g
           transform="translate(650.5224,177.1039)"
           id="use2394">
          <path
             id="path16706"
             d=""
             style="stroke:none" />
        </g>
        <g
           transform="translate(652.81842,177.1039)"
           id="use2396">
          <path
             id="path16710"
             d="m 9.15625,-4.234375 c 0,-0.445313 -0.109375,-0.773438 -0.328125,-0.984375 -0.210937,-0.21875 -0.523437,-0.328125 -0.9375,-0.328125 -0.25,0 -0.46875,0.023437 -0.65625,0.0625 -0.179687,0.03125 -0.386719,0.101562 -0.625,0.203125 V 0 H 5.03125 v -4.234375 c 0,-0.46875 -0.109375,-0.800781 -0.328125,-1 -0.210937,-0.207031 -0.523437,-0.3125 -0.9375,-0.3125 -0.261719,0 -0.480469,0.023437 -0.65625,0.0625 -0.179687,0.03125 -0.386719,0.101562 -0.625,0.203125 V 0 h -1.59375 v -6.890625 l 1.546875,-0.0625 v 0.5 C 2.75,-6.640625 3.039063,-6.78125 3.3125,-6.875 3.59375,-6.96875 3.90625,-7.015625 4.25,-7.015625 c 0.445313,0 0.820313,0.070312 1.125,0.203125 0.300781,0.125 0.554688,0.308594 0.765625,0.546875 C 6.484375,-6.503906 6.832031,-6.6875 7.1875,-6.8125 c 0.351563,-0.132813 0.738281,-0.203125 1.15625,-0.203125 0.757813,0 1.347656,0.214844 1.765625,0.640625 0.414063,0.429687 0.625,1.039062 0.625,1.828125 V 0 H 9.15625 Z m 0,0"
             style="stroke:none" />
        </g>
        <g
           transform="translate(664.34039,177.1039)"
           id="use2398">
          <path
             id="path16714"
             d="M 6.015625,0 H 4.53125 v -0.453125 c -0.28125,0.1875 -0.574219,0.324219 -0.875,0.40625 -0.304687,0.0820313 -0.664062,0.125 -1.078125,0.125 C 1.867188,0.078125 1.320313,-0.09375 0.9375,-0.4375 0.5625,-0.789063 0.375,-1.257813 0.375,-1.84375 c 0,-0.320313 0.0625,-0.613281 0.1875,-0.875 0.125,-0.269531 0.316406,-0.5 0.578125,-0.6875 0.257813,-0.195313 0.585938,-0.347656 0.984375,-0.453125 0.394531,-0.101563 0.863281,-0.15625 1.40625,-0.15625 0.175781,0 0.335938,0.00781 0.484375,0.015625 0.15625,0 0.3125,0 0.46875,0 v -0.390625 c 0,-0.382813 -0.121094,-0.675781 -0.359375,-0.875 -0.242187,-0.207031 -0.636719,-0.3125 -1.1875,-0.3125 -0.335937,0 -0.652344,0.03125 -0.953125,0.09375 C 1.679688,-5.421875 1.34375,-5.3125 0.96875,-5.15625 L 0.734375,-6.484375 c 0.4375,-0.1875 0.847656,-0.320313 1.234375,-0.40625 0.394531,-0.082031 0.816406,-0.125 1.265625,-0.125 0.9375,0 1.632813,0.214844 2.09375,0.640625 0.457031,0.417969 0.6875,1.015625 0.6875,1.796875 z M 2,-1.96875 c 0,0.242187 0.085938,0.433594 0.265625,0.578125 0.1875,0.148437 0.441406,0.21875 0.765625,0.21875 0.269531,0 0.515625,-0.023438 0.734375,-0.078125 0.226563,-0.0625 0.46875,-0.160156 0.71875,-0.296875 V -2.84375 C 4.347656,-2.851563 4.195313,-2.859375 4.03125,-2.859375 3.863281,-2.867188 3.707031,-2.875 3.5625,-2.875 3,-2.875 2.597656,-2.789063 2.359375,-2.625 2.117188,-2.457031 2,-2.238281 2,-1.96875 Z m 0,0"
             style="stroke:none" />
        </g>
        <g
           transform="translate(671.14441,177.1039)"
           id="use2400">
          <path
             id="path16718"
             d="M 6.015625,0 H 4.53125 v -0.453125 c -0.28125,0.1875 -0.574219,0.324219 -0.875,0.40625 -0.304687,0.0820313 -0.664062,0.125 -1.078125,0.125 C 1.867188,0.078125 1.320313,-0.09375 0.9375,-0.4375 0.5625,-0.789063 0.375,-1.257813 0.375,-1.84375 c 0,-0.320313 0.0625,-0.613281 0.1875,-0.875 0.125,-0.269531 0.316406,-0.5 0.578125,-0.6875 0.257813,-0.195313 0.585938,-0.347656 0.984375,-0.453125 0.394531,-0.101563 0.863281,-0.15625 1.40625,-0.15625 0.175781,0 0.335938,0.00781 0.484375,0.015625 0.15625,0 0.3125,0 0.46875,0 v -0.390625 c 0,-0.382813 -0.121094,-0.675781 -0.359375,-0.875 -0.242187,-0.207031 -0.636719,-0.3125 -1.1875,-0.3125 -0.335937,0 -0.652344,0.03125 -0.953125,0.09375 C 1.679688,-5.421875 1.34375,-5.3125 0.96875,-5.15625 L 0.734375,-6.484375 c 0.4375,-0.1875 0.847656,-0.320313 1.234375,-0.40625 0.394531,-0.082031 0.816406,-0.125 1.265625,-0.125 0.9375,0 1.632813,0.214844 2.09375,0.640625 0.457031,0.417969 0.6875,1.015625 0.6875,1.796875 z M 2,-1.96875 c 0,0.242187 0.085938,0.433594 0.265625,0.578125 0.1875,0.148437 0.441406,0.21875 0.765625,0.21875 0.269531,0 0.515625,-0.023438 0.734375,-0.078125 0.226563,-0.0625 0.46875,-0.160156 0.71875,-0.296875 V -2.84375 C 4.347656,-2.851563 4.195313,-2.859375 4.03125,-2.859375 3.863281,-2.867188 3.707031,-2.875 3.5625,-2.875 3,-2.875 2.597656,-2.789063 2.359375,-2.625 2.117188,-2.457031 2,-2.238281 2,-1.96875 Z m 0,0"
             style="stroke:none" />
        </g>
        <g
           transform="translate(677.94843,177.1039)"
           id="use2402">
          <path
             id="path16722"
             d="m 5.09375,-4.234375 c 0,-0.457031 -0.109375,-0.789063 -0.328125,-1 -0.210937,-0.207031 -0.523437,-0.3125 -0.9375,-0.3125 -0.261719,0 -0.492187,0.023437 -0.6875,0.0625 -0.199219,0.03125 -0.417969,0.101562 -0.65625,0.203125 V 0 h -1.59375 v -6.890625 l 1.546875,-0.0625 v 0.5 c 0.300781,-0.1875 0.59375,-0.328125 0.875,-0.421875 0.28125,-0.09375 0.597656,-0.140625 0.953125,-0.140625 0.757813,0 1.347656,0.214844 1.765625,0.640625 0.425781,0.417969 0.640625,1.023437 0.640625,1.8125 V 0 H 5.09375 Z m 0,0"
             style="stroke:none" />
        </g>
        <g
           transform="translate(685.4104,177.1039)"
           id="use2404">
          <path
             id="path16726"
             d="m 6.703125,0 h -1.53125 v -0.46875 c -0.25,0.179687 -0.527344,0.3125 -0.828125,0.40625 C 4.039063,0.03125 3.71875,0.078125 3.375,0.078125 2.945313,0.078125 2.554688,0.0078125 2.203125,-0.125 1.847656,-0.269531 1.539063,-0.484375 1.28125,-0.765625 c -0.25,-0.28125 -0.449219,-0.632813 -0.59375,-1.0625 -0.136719,-0.425781 -0.203125,-0.914063 -0.203125,-1.46875 0,-0.59375 0.085938,-1.117188 0.265625,-1.578125 0.175781,-0.457031 0.425781,-0.84375 0.75,-1.15625 0.320313,-0.320313 0.703125,-0.566406 1.140625,-0.734375 0.445313,-0.164063 0.9375,-0.25 1.46875,-0.25 0.1875,0 0.363281,0.011719 0.53125,0.03125 C 4.804688,-6.972656 4.96875,-6.945313 5.125,-6.90625 V -9.703125 L 6.703125,-9.78125 Z M 4.125,-5.65625 c -0.617187,0 -1.105469,0.199219 -1.46875,0.59375 -0.367187,0.398437 -0.546875,0.953125 -0.546875,1.671875 0,0.742187 0.160156,1.277344 0.484375,1.609375 0.320313,0.324219 0.738281,0.484375 1.25,0.484375 0.257813,0 0.476563,-0.019531 0.65625,-0.0625 C 4.6875,-1.410156 4.894531,-1.5 5.125,-1.625 V -5.578125 C 4.957031,-5.597656 4.796875,-5.613281 4.640625,-5.625 4.484375,-5.644531 4.3125,-5.65625 4.125,-5.65625 Z m 0,0"
             style="stroke:none" />
        </g>
        <g
           transform="translate(693.01239,177.1039)"
           id="use2406">
          <path
             id="path16730"
             d="m 0.484375,-3.4375 c 0,-0.59375 0.082031,-1.113281 0.25,-1.5625 0.164063,-0.457031 0.390625,-0.835938 0.671875,-1.140625 0.28125,-0.300781 0.609375,-0.53125 0.984375,-0.6875 0.382813,-0.15625 0.789063,-0.234375 1.21875,-0.234375 0.851563,0 1.523438,0.246094 2.015625,0.734375 0.488281,0.492187 0.734375,1.1875 0.734375,2.09375 0,0.21875 -0.00781,0.433594 -0.015625,0.640625 0,0.199219 -0.011719,0.382812 -0.03125,0.546875 H 2.03125 c 0.082031,0.617187 0.300781,1.070312 0.65625,1.359375 0.351563,0.28125 0.84375,0.421875 1.46875,0.421875 0.394531,0 0.742188,-0.023438 1.046875,-0.078125 0.300781,-0.050781 0.625,-0.132813 0.96875,-0.25 v 1.3125 C 5.804688,-0.15625 5.457031,-0.0625 5.125,0 4.800781,0.0507813 4.414063,0.078125 3.96875,0.078125 3.425781,0.078125 2.941406,0.0078125 2.515625,-0.125 2.097656,-0.269531 1.738281,-0.488281 1.4375,-0.78125 1.132813,-1.070313 0.898438,-1.4375 0.734375,-1.875 c -0.167969,-0.4375 -0.25,-0.957031 -0.25,-1.5625 z M 4.8125,-4.21875 c 0,-0.46875 -0.121094,-0.84375 -0.359375,-1.125 C 4.222656,-5.632813 3.90625,-5.78125 3.5,-5.78125 c -0.375,0 -0.695312,0.136719 -0.953125,0.40625 -0.25,0.261719 -0.414062,0.648437 -0.484375,1.15625 z m 0,0"
             style="stroke:none" />
        </g>
        <g
           transform="translate(699.83038,177.1039)"
           id="use2408">
          <path
             id="path16734"
             d="m 5.09375,-4.234375 c 0,-0.457031 -0.109375,-0.789063 -0.328125,-1 -0.210937,-0.207031 -0.523437,-0.3125 -0.9375,-0.3125 -0.261719,0 -0.492187,0.023437 -0.6875,0.0625 -0.199219,0.03125 -0.417969,0.101562 -0.65625,0.203125 V 0 h -1.59375 v -6.890625 l 1.546875,-0.0625 v 0.5 c 0.300781,-0.1875 0.59375,-0.328125 0.875,-0.421875 0.28125,-0.09375 0.597656,-0.140625 0.953125,-0.140625 0.757813,0 1.347656,0.214844 1.765625,0.640625 0.425781,0.417969 0.640625,1.023437 0.640625,1.8125 V 0 H 5.09375 Z m 0,0"
             style="stroke:none" />
        </g>
      </g>
    </g>
    <g
       transform="matrix(0.3527778,0,0,0.3527778,-101.48701,68.245172)"
       id="g16786">
      <path
         style="fill:none;stroke:#42175c;stroke-width:0.5;stroke-linecap:butt;stroke-linejoin:miter;stroke-miterlimit:4;stroke-opacity:1"
         d="m 7.5e-5,0.0013375 h 28.8125 V 17.106806 H 7.5e-5 Z m 0,0"
         transform="matrix(1,0,0,-1,637.0468,208.3529)"
         id="path2414" />
      <g
         style="fill:#42175c;fill-opacity:1"
         id="g2422">
        <g
           transform="translate(641.01428,203.4559)"
           id="use2416">
          <path
             id="path16738"
             d="M 0.796875,0 V -6.5625 H 2.59375 c 0.425781,0 0.789063,0.042969 1.09375,0.125 0.3125,0.074219 0.5625,0.183594 0.75,0.328125 0.195313,0.136719 0.34375,0.304687 0.4375,0.5 0.09375,0.1875 0.140625,0.398437 0.140625,0.625 0,0.40625 -0.085937,0.734375 -0.25,0.984375 C 4.609375,-3.75 4.375,-3.566406 4.0625,-3.453125 V -3.4375 c 0.8125,0.210937 1.21875,0.699219 1.21875,1.46875 0,0.625 -0.210937,1.109375 -0.625,1.453125 C 4.25,-0.171875 3.628906,0 2.796875,0 Z m 1.1875,-2.90625 v 1.953125 H 2.75 c 0.40625,0 0.71875,-0.082031 0.9375,-0.25 0.21875,-0.164063 0.328125,-0.414063 0.328125,-0.75 0,-0.300781 -0.121094,-0.535156 -0.359375,-0.703125 -0.230469,-0.164063 -0.621094,-0.25 -1.171875,-0.25 z m 0,-2.6875 v 1.796875 h 0.53125 c 0.414063,0 0.722656,-0.070313 0.921875,-0.21875 C 3.644531,-4.171875 3.75,-4.414063 3.75,-4.75 3.75,-5.039063 3.65625,-5.253906 3.46875,-5.390625 3.28125,-5.523438 2.972656,-5.59375 2.546875,-5.59375 Z m 0,0"
             style="stroke:none" />
        </g>
        <g
           transform="translate(646.70428,203.4559)"
           id="use2418">
          <path
             id="path16742"
             d="M 2.0625,-5.328125 1.84375,0 H 0.703125 l 0.28125,-6.5625 h 1.90625 L 4.1875,-2.625 h 0.046875 l 1.3125,-3.9375 h 1.78125 L 7.640625,0 H 6.4375 l -0.25,-5.328125 H 6.125 l -1.3125,4.0625 H 3.46875 l -1.375,-4.0625 z m 0,0"
             style="stroke:none" />
        </g>
        <g
           transform="translate(655.04431,203.4559)"
           id="use2420">
          <path
             id="path16746"
             d="m 1.984375,0 h -1.1875 v -6.5625 h 1.90625 c 0.820313,0 1.4375,0.171875 1.84375,0.515625 0.40625,0.335937 0.609375,0.773437 0.609375,1.3125 0,0.449219 -0.109375,0.835937 -0.328125,1.15625 C 4.617188,-3.253906 4.332031,-3.007813 3.96875,-2.84375 L 5.703125,0 H 4.3125 l -1.5,-2.515625 H 1.984375 Z m 0,-3.453125 H 2.71875 c 0.363281,0 0.648438,-0.097656 0.859375,-0.296875 0.21875,-0.195313 0.328125,-0.476563 0.328125,-0.84375 0,-0.332031 -0.101562,-0.582031 -0.296875,-0.75 -0.199219,-0.164063 -0.527344,-0.25 -0.984375,-0.25 H 1.984375 Z m 0,0"
             style="stroke:none" />
        </g>
      </g>
    </g>
    <g
       transform="matrix(0.3527778,0,0,0.3527778,-101.48701,68.245172)"
       id="g16804">
      <path
         style="fill:none;stroke:#b80063;stroke-width:0.5;stroke-linecap:butt;stroke-linejoin:miter;stroke-miterlimit:4;stroke-opacity:1"
         d="M 0.0012125,-0.0019375 -2.834725,-2.833969 V -13.173812 L 0.0012125,-16.00975 H 46.344963 l 2.835937,2.835938 v 10.339843 l -2.835937,2.8320315 z m 0,0"
         transform="matrix(1,0,0,-1,639.8816,212.3965)"
         id="path2412" />
      <g
         style="fill:#b80063;fill-opacity:1"
         id="g2438">
        <g
           transform="translate(641.13428,224.4859)"
           id="use2424">
          <path
             id="path16750"
             d="M 2.0625,-5.328125 1.84375,0 H 0.703125 l 0.28125,-6.5625 h 1.90625 L 4.1875,-2.625 h 0.046875 l 1.3125,-3.9375 h 1.78125 L 7.640625,0 H 6.4375 l -0.25,-5.328125 H 6.125 l -1.3125,4.0625 H 3.46875 l -1.375,-4.0625 z m 0,0"
             style="stroke:none" />
        </g>
        <g
           transform="translate(649.4743,224.4859)"
           id="use2426">
          <path
             id="path16754"
             d="m 0.34375,-2.453125 c 0,-0.425781 0.054688,-0.800781 0.171875,-1.125 C 0.640625,-3.898438 0.800781,-4.164063 1,-4.375 c 0.207031,-0.21875 0.445313,-0.382813 0.71875,-0.5 0.269531,-0.113281 0.554688,-0.171875 0.859375,-0.171875 0.601563,0 1.082031,0.179687 1.4375,0.53125 0.351563,0.355469 0.53125,0.855469 0.53125,1.5 0,0.148437 -0.00781,0.296875 -0.015625,0.453125 0,0.148437 -0.00781,0.273437 -0.015625,0.375 h -3.0625 c 0.0625,0.449219 0.21875,0.777344 0.46875,0.984375 0.25,0.199219 0.597656,0.296875 1.046875,0.296875 0.28125,0 0.53125,-0.015625 0.75,-0.046875 0.21875,-0.039063 0.445313,-0.101563 0.6875,-0.1875 v 0.9375 C 4.144531,-0.109375 3.894531,-0.0390625 3.65625,0 3.425781,0.0390625 3.148438,0.0625 2.828125,0.0625 c -0.375,0 -0.71875,-0.046875 -1.03125,-0.140625 -0.304687,-0.101563 -0.5625,-0.257813 -0.78125,-0.46875 -0.210937,-0.21875 -0.375,-0.484375 -0.5,-0.796875 C 0.398438,-1.65625 0.34375,-2.023438 0.34375,-2.453125 Z m 3.09375,-0.5625 c 0,-0.332031 -0.085937,-0.597656 -0.25,-0.796875 C 3.019531,-4.019531 2.789063,-4.125 2.5,-4.125 c -0.273437,0 -0.5,0.09375 -0.6875,0.28125 -0.179687,0.1875 -0.292969,0.464844 -0.34375,0.828125 z m 0,0"
             style="stroke:none" />
        </g>
        <g
           transform="translate(654.3443,224.4859)"
           id="use2428">
          <path
             id="path16758"
             d="m 3.640625,-3.03125 c 0,-0.320313 -0.078125,-0.554688 -0.234375,-0.703125 -0.148437,-0.144531 -0.371094,-0.21875 -0.671875,-0.21875 -0.1875,0 -0.355469,0.015625 -0.5,0.046875 -0.136719,0.023437 -0.292969,0.070312 -0.46875,0.140625 V 0 h -1.125 v -4.921875 l 1.09375,-0.046875 v 0.359375 c 0.21875,-0.132813 0.425781,-0.234375 0.625,-0.296875 0.207031,-0.070313 0.4375,-0.109375 0.6875,-0.109375 0.539063,0 0.960938,0.152344 1.265625,0.453125 0.300781,0.304687 0.453125,0.734375 0.453125,1.296875 V 0 h -1.125 z m 0,0"
             style="stroke:none" />
        </g>
        <g
           transform="translate(659.67432,224.4859)"
           id="use2430">
          <path
             id="path16762"
             d="M 5.75,0 H 4.375 L 3.953125,-1.5 H 1.71875 L 1.296875,0 H 0.0625 L 2.015625,-6.5625 H 3.8125 Z M 2.875,-5.5 H 2.8125 l -0.859375,3.046875 h 1.75 z m 0,0"
             style="stroke:none" />
        </g>
        <g
           transform="translate(665.49432,224.4859)"
           id="use2432">
          <path
             id="path16766"
             d="M 5.0625,-0.09375 C 4.925781,-0.0625 4.804688,-0.0351563 4.703125,-0.015625 4.597656,0.00390625 4.488281,0.0195313 4.375,0.03125 4.269531,0.0390625 4.15625,0.046875 4.03125,0.046875 3.914063,0.0546875 3.773438,0.0625 3.609375,0.0625 3.160156,0.0625 2.738281,0 2.34375,-0.125 1.957031,-0.25 1.617188,-0.441406 1.328125,-0.703125 1.046875,-0.972656 0.820313,-1.304688 0.65625,-1.703125 0.5,-2.097656 0.421875,-2.5625 0.421875,-3.09375 0.421875,-3.6875 0.507813,-4.203125 0.6875,-4.640625 0.863281,-5.085938 1.101563,-5.457031 1.40625,-5.75 1.71875,-6.039063 2.078125,-6.257813 2.484375,-6.40625 2.890625,-6.550781 3.316406,-6.625 3.765625,-6.625 4.023438,-6.625 4.25,-6.613281 4.4375,-6.59375 4.625,-6.570313 4.832031,-6.539063 5.0625,-6.5 L 4.96875,-5.484375 C 4.832031,-5.503906 4.710938,-5.519531 4.609375,-5.53125 4.515625,-5.539063 4.421875,-5.546875 4.328125,-5.546875 4.242188,-5.554688 4.148438,-5.5625 4.046875,-5.5625 3.953125,-5.570313 3.847656,-5.578125 3.734375,-5.578125 3.453125,-5.578125 3.1875,-5.53125 2.9375,-5.4375 2.6875,-5.34375 2.46875,-5.195313 2.28125,-5 2.101563,-4.800781 1.957031,-4.550781 1.84375,-4.25 1.738281,-3.957031 1.6875,-3.609375 1.6875,-3.203125 c 0,0.386719 0.050781,0.726562 0.15625,1.015625 0.113281,0.28125 0.257813,0.515625 0.4375,0.703125 0.1875,0.1875 0.398438,0.328125 0.640625,0.421875 0.25,0.085937 0.503906,0.125 0.765625,0.125 0.132813,0 0.253906,0 0.359375,0 C 4.160156,-0.945313 4.269531,-0.957031 4.375,-0.96875 4.488281,-0.976563 4.597656,-0.988281 4.703125,-1 4.816406,-1.019531 4.9375,-1.039063 5.0625,-1.0625 Z m 0,0"
             style="stroke:none" />
        </g>
        <g
           transform="translate(670.68433,224.4859)"
           id="use2434">
          <path
             id="path16770"
             d="m 0.0625,-6.5625 h 1.34375 l 1.28125,5.375 H 2.734375 L 4.03125,-5.140625 3.59375,-6.5625 H 4.875 l 1.609375,5.375 H 6.53125 L 7.8125,-6.5625 H 9.046875 L 7.3125,0 H 5.640625 L 4.5625,-3.625 H 4.515625 L 3.4375,0 H 1.765625 Z m 0,0"
             style="stroke:none" />
        </g>
        <g
           transform="translate(679.79431,224.4859)"
           id="use2436">
          <path
             id="path16774"
             d="M 3.296875,0 H 2.09375 V -2.640625 L 0.03125,-6.5625 H 1.375 l 1.390625,2.75 h 0.03125 l 1.34375,-2.75 h 1.1875 l -2.03125,3.921875 z m 0,0"
             style="stroke:none" />
        </g>
      </g>
    </g>
  </g>
</svg>
